%TF.GenerationSoftware,KiCad,Pcbnew,7.0.10-7.0.10~ubuntu22.04.1*%
%TF.CreationDate,2024-04-16T08:27:36+02:00*%
%TF.ProjectId,oric_comp_video,6f726963-5f63-46f6-9d70-5f766964656f,1*%
%TF.SameCoordinates,PX1b40518PY99d1710*%
%TF.FileFunction,Copper,L2,Bot*%
%TF.FilePolarity,Positive*%
%FSLAX46Y46*%
G04 Gerber Fmt 4.6, Leading zero omitted, Abs format (unit mm)*
G04 Created by KiCad (PCBNEW 7.0.10-7.0.10~ubuntu22.04.1) date 2024-04-16 08:27:36*
%MOMM*%
%LPD*%
G01*
G04 APERTURE LIST*
%TA.AperFunction,EtchedComponent*%
%ADD10C,0.010000*%
%TD*%
%TA.AperFunction,ComponentPad*%
%ADD11C,1.600000*%
%TD*%
%TA.AperFunction,ComponentPad*%
%ADD12C,1.400000*%
%TD*%
%TA.AperFunction,ComponentPad*%
%ADD13O,1.400000X1.400000*%
%TD*%
%TA.AperFunction,ComponentPad*%
%ADD14R,1.600000X1.600000*%
%TD*%
%TA.AperFunction,ComponentPad*%
%ADD15R,1.800000X1.800000*%
%TD*%
%TA.AperFunction,ComponentPad*%
%ADD16O,1.800000X1.800000*%
%TD*%
%TA.AperFunction,ComponentPad*%
%ADD17R,1.700000X1.700000*%
%TD*%
%TA.AperFunction,ComponentPad*%
%ADD18O,1.700000X1.700000*%
%TD*%
%TA.AperFunction,ComponentPad*%
%ADD19C,3.500000*%
%TD*%
%TA.AperFunction,ComponentPad*%
%ADD20C,1.500000*%
%TD*%
%TA.AperFunction,ComponentPad*%
%ADD21O,1.700000X3.400000*%
%TD*%
%TA.AperFunction,ComponentPad*%
%ADD22O,3.900000X1.950000*%
%TD*%
%TA.AperFunction,Conductor*%
%ADD23C,0.450000*%
%TD*%
%TA.AperFunction,Conductor*%
%ADD24C,0.250000*%
%TD*%
G04 APERTURE END LIST*
%TO.C,P1*%
D10*
X102943629Y60964703D02*
X103003553Y60942445D01*
X103028473Y60925720D01*
X103053710Y60901757D01*
X103071712Y60871274D01*
X103083658Y60829777D01*
X103090730Y60772768D01*
X103094108Y60695753D01*
X103094971Y60594235D01*
X103094802Y60541773D01*
X103093953Y60470085D01*
X103092511Y60412875D01*
X103090614Y60374991D01*
X103088397Y60361286D01*
X103073972Y60365819D01*
X103044854Y60378130D01*
X103043981Y60378528D01*
X103028860Y60386444D01*
X103018691Y60397305D01*
X103012491Y60416329D01*
X103009278Y60448731D01*
X103008070Y60499729D01*
X103007886Y60574539D01*
X103007514Y60621996D01*
X103003550Y60711185D01*
X102994473Y60776513D01*
X102979324Y60821407D01*
X102957145Y60849293D01*
X102926975Y60863597D01*
X102922790Y60864594D01*
X102866280Y60865373D01*
X102822210Y60840056D01*
X102791772Y60789298D01*
X102786344Y60774625D01*
X102773971Y60742151D01*
X102767705Y60727228D01*
X102754836Y60729284D01*
X102726733Y60740443D01*
X102700521Y60758873D01*
X102688571Y60793702D01*
X102692136Y60818649D01*
X102714035Y60869253D01*
X102749444Y60916672D01*
X102790852Y60949466D01*
X102808200Y60957048D01*
X102873889Y60969724D01*
X102943629Y60964703D01*
%TA.AperFunction,EtchedComponent*%
G36*
X102943629Y60964703D02*
G01*
X103003553Y60942445D01*
X103028473Y60925720D01*
X103053710Y60901757D01*
X103071712Y60871274D01*
X103083658Y60829777D01*
X103090730Y60772768D01*
X103094108Y60695753D01*
X103094971Y60594235D01*
X103094802Y60541773D01*
X103093953Y60470085D01*
X103092511Y60412875D01*
X103090614Y60374991D01*
X103088397Y60361286D01*
X103073972Y60365819D01*
X103044854Y60378130D01*
X103043981Y60378528D01*
X103028860Y60386444D01*
X103018691Y60397305D01*
X103012491Y60416329D01*
X103009278Y60448731D01*
X103008070Y60499729D01*
X103007886Y60574539D01*
X103007514Y60621996D01*
X103003550Y60711185D01*
X102994473Y60776513D01*
X102979324Y60821407D01*
X102957145Y60849293D01*
X102926975Y60863597D01*
X102922790Y60864594D01*
X102866280Y60865373D01*
X102822210Y60840056D01*
X102791772Y60789298D01*
X102786344Y60774625D01*
X102773971Y60742151D01*
X102767705Y60727228D01*
X102754836Y60729284D01*
X102726733Y60740443D01*
X102700521Y60758873D01*
X102688571Y60793702D01*
X102692136Y60818649D01*
X102714035Y60869253D01*
X102749444Y60916672D01*
X102790852Y60949466D01*
X102808200Y60957048D01*
X102873889Y60969724D01*
X102943629Y60964703D01*
G37*
%TD.AperFunction*%
X106891820Y60997978D02*
X106959610Y60966120D01*
X107015166Y60911030D01*
X107026681Y60893784D01*
X107036232Y60874238D01*
X107043006Y60849602D01*
X107047619Y60815089D01*
X107050688Y60765911D01*
X107052829Y60697281D01*
X107054659Y60604411D01*
X107059204Y60346793D01*
X107021025Y60361309D01*
X106986068Y60374644D01*
X106959897Y60387477D01*
X106942813Y60404020D01*
X106932886Y60429335D01*
X106928186Y60468484D01*
X106926782Y60526532D01*
X106926743Y60608539D01*
X106926544Y60673905D01*
X106925359Y60736627D01*
X106922529Y60779466D01*
X106917409Y60807580D01*
X106909353Y60826125D01*
X106897714Y60840257D01*
X106869103Y60860200D01*
X106821039Y60867717D01*
X106773488Y60848721D01*
X106770350Y60846289D01*
X106760569Y60835052D01*
X106753353Y60817030D01*
X106748099Y60787774D01*
X106744202Y60742838D01*
X106741056Y60677772D01*
X106738057Y60588130D01*
X106730800Y60348103D01*
X106669114Y60375756D01*
X106607429Y60403409D01*
X106607429Y60622554D01*
X106607684Y60682089D01*
X106609886Y60764908D01*
X106615461Y60826573D01*
X106625741Y60872052D01*
X106642058Y60906316D01*
X106665743Y60934334D01*
X106698128Y60961077D01*
X106744707Y60988020D01*
X106818087Y61005609D01*
X106891820Y60997978D01*
%TA.AperFunction,EtchedComponent*%
G36*
X106891820Y60997978D02*
G01*
X106959610Y60966120D01*
X107015166Y60911030D01*
X107026681Y60893784D01*
X107036232Y60874238D01*
X107043006Y60849602D01*
X107047619Y60815089D01*
X107050688Y60765911D01*
X107052829Y60697281D01*
X107054659Y60604411D01*
X107059204Y60346793D01*
X107021025Y60361309D01*
X106986068Y60374644D01*
X106959897Y60387477D01*
X106942813Y60404020D01*
X106932886Y60429335D01*
X106928186Y60468484D01*
X106926782Y60526532D01*
X106926743Y60608539D01*
X106926544Y60673905D01*
X106925359Y60736627D01*
X106922529Y60779466D01*
X106917409Y60807580D01*
X106909353Y60826125D01*
X106897714Y60840257D01*
X106869103Y60860200D01*
X106821039Y60867717D01*
X106773488Y60848721D01*
X106770350Y60846289D01*
X106760569Y60835052D01*
X106753353Y60817030D01*
X106748099Y60787774D01*
X106744202Y60742838D01*
X106741056Y60677772D01*
X106738057Y60588130D01*
X106730800Y60348103D01*
X106669114Y60375756D01*
X106607429Y60403409D01*
X106607429Y60622554D01*
X106607684Y60682089D01*
X106609886Y60764908D01*
X106615461Y60826573D01*
X106625741Y60872052D01*
X106642058Y60906316D01*
X106665743Y60934334D01*
X106698128Y60961077D01*
X106744707Y60988020D01*
X106818087Y61005609D01*
X106891820Y60997978D01*
G37*
%TD.AperFunction*%
X105068491Y60949333D02*
X105073073Y60946797D01*
X105110504Y60917743D01*
X105143970Y60880390D01*
X105149807Y60871948D01*
X105160965Y60852247D01*
X105168936Y60828865D01*
X105174418Y60796733D01*
X105178107Y60750781D01*
X105180699Y60685941D01*
X105182892Y60597143D01*
X105183202Y60582131D01*
X105184200Y60484801D01*
X105182794Y60415866D01*
X105178964Y60374852D01*
X105172689Y60361286D01*
X105153698Y60365348D01*
X105121438Y60377656D01*
X105113841Y60381255D01*
X105101976Y60389402D01*
X105093794Y60402796D01*
X105088443Y60426192D01*
X105085069Y60464345D01*
X105082819Y60522010D01*
X105080840Y60603943D01*
X105080298Y60627893D01*
X105078203Y60703534D01*
X105075483Y60756472D01*
X105071315Y60791725D01*
X105064879Y60814313D01*
X105055350Y60829256D01*
X105041906Y60841573D01*
X105002105Y60863166D01*
X104953141Y60867324D01*
X104909329Y60850801D01*
X104877808Y60816590D01*
X104865714Y60767686D01*
X104865378Y60754393D01*
X104858772Y60730328D01*
X104839270Y60726656D01*
X104801083Y60740987D01*
X104792238Y60745583D01*
X104768334Y60772614D01*
X104767861Y60812806D01*
X104790636Y60868391D01*
X104811527Y60898683D01*
X104864942Y60941716D01*
X104930874Y60966045D01*
X105001374Y60969357D01*
X105068491Y60949333D01*
%TA.AperFunction,EtchedComponent*%
G36*
X105068491Y60949333D02*
G01*
X105073073Y60946797D01*
X105110504Y60917743D01*
X105143970Y60880390D01*
X105149807Y60871948D01*
X105160965Y60852247D01*
X105168936Y60828865D01*
X105174418Y60796733D01*
X105178107Y60750781D01*
X105180699Y60685941D01*
X105182892Y60597143D01*
X105183202Y60582131D01*
X105184200Y60484801D01*
X105182794Y60415866D01*
X105178964Y60374852D01*
X105172689Y60361286D01*
X105153698Y60365348D01*
X105121438Y60377656D01*
X105113841Y60381255D01*
X105101976Y60389402D01*
X105093794Y60402796D01*
X105088443Y60426192D01*
X105085069Y60464345D01*
X105082819Y60522010D01*
X105080840Y60603943D01*
X105080298Y60627893D01*
X105078203Y60703534D01*
X105075483Y60756472D01*
X105071315Y60791725D01*
X105064879Y60814313D01*
X105055350Y60829256D01*
X105041906Y60841573D01*
X105002105Y60863166D01*
X104953141Y60867324D01*
X104909329Y60850801D01*
X104877808Y60816590D01*
X104865714Y60767686D01*
X104865378Y60754393D01*
X104858772Y60730328D01*
X104839270Y60726656D01*
X104801083Y60740987D01*
X104792238Y60745583D01*
X104768334Y60772614D01*
X104767861Y60812806D01*
X104790636Y60868391D01*
X104811527Y60898683D01*
X104864942Y60941716D01*
X104930874Y60966045D01*
X105001374Y60969357D01*
X105068491Y60949333D01*
G37*
%TD.AperFunction*%
X106139343Y61166356D02*
X106186514Y61146458D01*
X106186514Y60749291D01*
X106186319Y60646302D01*
X106185798Y60553659D01*
X106184999Y60475100D01*
X106183972Y60414361D01*
X106182763Y60375177D01*
X106181423Y60361286D01*
X106180899Y60361332D01*
X106163087Y60366380D01*
X106130623Y60377220D01*
X106084914Y60393154D01*
X106084914Y60597627D01*
X106084624Y60677968D01*
X106083274Y60736238D01*
X106080169Y60775891D01*
X106074612Y60802182D01*
X106065907Y60820364D01*
X106053356Y60835693D01*
X106044799Y60843845D01*
X105998528Y60866425D01*
X105947528Y60864425D01*
X105900793Y60837727D01*
X105893989Y60831102D01*
X105883093Y60817344D01*
X105875636Y60799158D01*
X105870969Y60771623D01*
X105868442Y60729819D01*
X105867402Y60668827D01*
X105867200Y60583727D01*
X105867103Y60540566D01*
X105866474Y60469576D01*
X105865356Y60412724D01*
X105863863Y60374972D01*
X105862109Y60361286D01*
X105861585Y60361332D01*
X105843773Y60366380D01*
X105811309Y60377220D01*
X105765600Y60393154D01*
X105765623Y60598563D01*
X105765657Y60616849D01*
X105767578Y60712174D01*
X105773478Y60784257D01*
X105784801Y60837987D01*
X105802987Y60878251D01*
X105829479Y60909939D01*
X105865718Y60937939D01*
X105901063Y60955467D01*
X105957573Y60969015D01*
X106013156Y60969785D01*
X106055886Y60956605D01*
X106059098Y60954785D01*
X106069005Y60954980D01*
X106075775Y60970228D01*
X106080661Y61005187D01*
X106084914Y61064511D01*
X106092171Y61186253D01*
X106139343Y61166356D01*
%TA.AperFunction,EtchedComponent*%
G36*
X106139343Y61166356D02*
G01*
X106186514Y61146458D01*
X106186514Y60749291D01*
X106186319Y60646302D01*
X106185798Y60553659D01*
X106184999Y60475100D01*
X106183972Y60414361D01*
X106182763Y60375177D01*
X106181423Y60361286D01*
X106180899Y60361332D01*
X106163087Y60366380D01*
X106130623Y60377220D01*
X106084914Y60393154D01*
X106084914Y60597627D01*
X106084624Y60677968D01*
X106083274Y60736238D01*
X106080169Y60775891D01*
X106074612Y60802182D01*
X106065907Y60820364D01*
X106053356Y60835693D01*
X106044799Y60843845D01*
X105998528Y60866425D01*
X105947528Y60864425D01*
X105900793Y60837727D01*
X105893989Y60831102D01*
X105883093Y60817344D01*
X105875636Y60799158D01*
X105870969Y60771623D01*
X105868442Y60729819D01*
X105867402Y60668827D01*
X105867200Y60583727D01*
X105867103Y60540566D01*
X105866474Y60469576D01*
X105865356Y60412724D01*
X105863863Y60374972D01*
X105862109Y60361286D01*
X105861585Y60361332D01*
X105843773Y60366380D01*
X105811309Y60377220D01*
X105765600Y60393154D01*
X105765623Y60598563D01*
X105765657Y60616849D01*
X105767578Y60712174D01*
X105773478Y60784257D01*
X105784801Y60837987D01*
X105802987Y60878251D01*
X105829479Y60909939D01*
X105865718Y60937939D01*
X105901063Y60955467D01*
X105957573Y60969015D01*
X106013156Y60969785D01*
X106055886Y60956605D01*
X106059098Y60954785D01*
X106069005Y60954980D01*
X106075775Y60970228D01*
X106080661Y61005187D01*
X106084914Y61064511D01*
X106092171Y61186253D01*
X106139343Y61166356D01*
G37*
%TD.AperFunction*%
X104114741Y60966518D02*
X104146574Y60954042D01*
X104183543Y60937198D01*
X104183543Y60450604D01*
X104137612Y60404673D01*
X104127120Y60394373D01*
X104098055Y60371480D01*
X104068743Y60364065D01*
X104025126Y60367479D01*
X104007368Y60369686D01*
X103961567Y60374355D01*
X103929543Y60376215D01*
X103920044Y60375931D01*
X103881074Y60372852D01*
X103833960Y60367479D01*
X103818885Y60365632D01*
X103780910Y60364907D01*
X103753125Y60376371D01*
X103721474Y60404673D01*
X103675543Y60450604D01*
X103675543Y60710745D01*
X103675901Y60787620D01*
X103677016Y60860914D01*
X103678752Y60918950D01*
X103680967Y60957137D01*
X103683521Y60970886D01*
X103684056Y60970849D01*
X103702608Y60964007D01*
X103733953Y60948932D01*
X103776408Y60926978D01*
X103780404Y60698560D01*
X103784400Y60470143D01*
X103871486Y60470143D01*
X103875457Y60720514D01*
X103876716Y60788573D01*
X103878518Y60861318D01*
X103880471Y60919070D01*
X103882412Y60957152D01*
X103884177Y60970886D01*
X103884685Y60970838D01*
X103902282Y60965785D01*
X103934634Y60954951D01*
X103980343Y60939017D01*
X103980565Y60719094D01*
X103980788Y60680891D01*
X103982331Y60606654D01*
X103985092Y60544655D01*
X103988777Y60500492D01*
X103993092Y60479759D01*
X104008532Y60468669D01*
X104040041Y60465244D01*
X104074686Y60470143D01*
X104078657Y60720514D01*
X104080078Y60784137D01*
X104083025Y60859444D01*
X104086879Y60918514D01*
X104091342Y60957082D01*
X104096117Y60970886D01*
X104114741Y60966518D01*
%TA.AperFunction,EtchedComponent*%
G36*
X104114741Y60966518D02*
G01*
X104146574Y60954042D01*
X104183543Y60937198D01*
X104183543Y60450604D01*
X104137612Y60404673D01*
X104127120Y60394373D01*
X104098055Y60371480D01*
X104068743Y60364065D01*
X104025126Y60367479D01*
X104007368Y60369686D01*
X103961567Y60374355D01*
X103929543Y60376215D01*
X103920044Y60375931D01*
X103881074Y60372852D01*
X103833960Y60367479D01*
X103818885Y60365632D01*
X103780910Y60364907D01*
X103753125Y60376371D01*
X103721474Y60404673D01*
X103675543Y60450604D01*
X103675543Y60710745D01*
X103675901Y60787620D01*
X103677016Y60860914D01*
X103678752Y60918950D01*
X103680967Y60957137D01*
X103683521Y60970886D01*
X103684056Y60970849D01*
X103702608Y60964007D01*
X103733953Y60948932D01*
X103776408Y60926978D01*
X103780404Y60698560D01*
X103784400Y60470143D01*
X103871486Y60470143D01*
X103875457Y60720514D01*
X103876716Y60788573D01*
X103878518Y60861318D01*
X103880471Y60919070D01*
X103882412Y60957152D01*
X103884177Y60970886D01*
X103884685Y60970838D01*
X103902282Y60965785D01*
X103934634Y60954951D01*
X103980343Y60939017D01*
X103980565Y60719094D01*
X103980788Y60680891D01*
X103982331Y60606654D01*
X103985092Y60544655D01*
X103988777Y60500492D01*
X103993092Y60479759D01*
X104008532Y60468669D01*
X104040041Y60465244D01*
X104074686Y60470143D01*
X104078657Y60720514D01*
X104080078Y60784137D01*
X104083025Y60859444D01*
X104086879Y60918514D01*
X104091342Y60957082D01*
X104096117Y60970886D01*
X104114741Y60966518D01*
G37*
%TD.AperFunction*%
X108726514Y60680600D02*
X108726501Y60664865D01*
X108725714Y60594681D01*
X108723010Y60545778D01*
X108717406Y60511622D01*
X108707919Y60485676D01*
X108693568Y60461403D01*
X108690037Y60456367D01*
X108652678Y60416657D01*
X108610111Y60386708D01*
X108588252Y60376990D01*
X108509708Y60360780D01*
X108432031Y60371265D01*
X108360445Y60407093D01*
X108300174Y60466913D01*
X108295086Y60474927D01*
X108278530Y60521458D01*
X108267373Y60586248D01*
X108261960Y60661073D01*
X108262568Y60730287D01*
X108409048Y60730287D01*
X108410202Y60634401D01*
X108410666Y60628231D01*
X108417429Y60575322D01*
X108429471Y60541771D01*
X108449805Y60518784D01*
X108483897Y60497252D01*
X108517614Y60496120D01*
X108552343Y60520943D01*
X108558384Y60527475D01*
X108570217Y60547021D01*
X108577204Y60575414D01*
X108580527Y60619370D01*
X108581371Y60685608D01*
X108579925Y60747650D01*
X108572707Y60806758D01*
X108557806Y60844114D01*
X108533436Y60863648D01*
X108497808Y60869286D01*
X108484240Y60868165D01*
X108446230Y60847606D01*
X108421112Y60801501D01*
X108409048Y60730287D01*
X108262568Y60730287D01*
X108262633Y60737704D01*
X108269737Y60807918D01*
X108283615Y60863488D01*
X108301449Y60900499D01*
X108351655Y60958067D01*
X108419685Y60993838D01*
X108502958Y61006135D01*
X108525198Y61005469D01*
X108590691Y60991853D01*
X108644487Y60957551D01*
X108693857Y60898462D01*
X108696795Y60894078D01*
X108710087Y60870501D01*
X108718732Y60843851D01*
X108723704Y60807641D01*
X108725974Y60755387D01*
X108726478Y60685608D01*
X108726514Y60680600D01*
%TA.AperFunction,EtchedComponent*%
G36*
X108726514Y60680600D02*
G01*
X108726501Y60664865D01*
X108725714Y60594681D01*
X108723010Y60545778D01*
X108717406Y60511622D01*
X108707919Y60485676D01*
X108693568Y60461403D01*
X108690037Y60456367D01*
X108652678Y60416657D01*
X108610111Y60386708D01*
X108588252Y60376990D01*
X108509708Y60360780D01*
X108432031Y60371265D01*
X108360445Y60407093D01*
X108300174Y60466913D01*
X108295086Y60474927D01*
X108278530Y60521458D01*
X108267373Y60586248D01*
X108261960Y60661073D01*
X108262568Y60730287D01*
X108409048Y60730287D01*
X108410202Y60634401D01*
X108410666Y60628231D01*
X108417429Y60575322D01*
X108429471Y60541771D01*
X108449805Y60518784D01*
X108483897Y60497252D01*
X108517614Y60496120D01*
X108552343Y60520943D01*
X108558384Y60527475D01*
X108570217Y60547021D01*
X108577204Y60575414D01*
X108580527Y60619370D01*
X108581371Y60685608D01*
X108579925Y60747650D01*
X108572707Y60806758D01*
X108557806Y60844114D01*
X108533436Y60863648D01*
X108497808Y60869286D01*
X108484240Y60868165D01*
X108446230Y60847606D01*
X108421112Y60801501D01*
X108409048Y60730287D01*
X108262568Y60730287D01*
X108262633Y60737704D01*
X108269737Y60807918D01*
X108283615Y60863488D01*
X108301449Y60900499D01*
X108351655Y60958067D01*
X108419685Y60993838D01*
X108502958Y61006135D01*
X108525198Y61005469D01*
X108590691Y60991853D01*
X108644487Y60957551D01*
X108693857Y60898462D01*
X108696795Y60894078D01*
X108710087Y60870501D01*
X108718732Y60843851D01*
X108723704Y60807641D01*
X108725974Y60755387D01*
X108726478Y60685608D01*
X108726514Y60680600D01*
G37*
%TD.AperFunction*%
X102601390Y60663178D02*
X102601107Y60624495D01*
X102597562Y60548279D01*
X102588283Y60492506D01*
X102571175Y60451187D01*
X102544144Y60418333D01*
X102505092Y60387954D01*
X102480245Y60374140D01*
X102440415Y60364835D01*
X102384465Y60365570D01*
X102353185Y60368517D01*
X102315453Y60377517D01*
X102285294Y60397080D01*
X102250208Y60433533D01*
X102245520Y60438857D01*
X102213977Y60479831D01*
X102198928Y60515517D01*
X102195086Y60557834D01*
X102195086Y60620021D01*
X102238542Y60603618D01*
X102270224Y60584444D01*
X102297762Y60539453D01*
X102303511Y60525048D01*
X102335655Y60484254D01*
X102379411Y60463719D01*
X102427054Y60465565D01*
X102470857Y60491914D01*
X102485911Y60508345D01*
X102499563Y60533133D01*
X102495293Y60555656D01*
X102470716Y60578836D01*
X102423451Y60605598D01*
X102351114Y60638866D01*
X102202343Y60703984D01*
X102198395Y60768492D01*
X102199879Y60809580D01*
X102296810Y60809580D01*
X102304168Y60784143D01*
X102337648Y60756986D01*
X102398414Y60726086D01*
X102408469Y60721610D01*
X102456551Y60700783D01*
X102492526Y60686135D01*
X102509244Y60680600D01*
X102511777Y60684674D01*
X102512793Y60709553D01*
X102509169Y60749543D01*
X102500042Y60788648D01*
X102471573Y60837916D01*
X102430478Y60865678D01*
X102381390Y60869436D01*
X102328944Y60846691D01*
X102314409Y60835319D01*
X102296810Y60809580D01*
X102199879Y60809580D01*
X102200138Y60816736D01*
X102222081Y60877704D01*
X102249779Y60911303D01*
X102307205Y60948834D01*
X102375327Y60967794D01*
X102445747Y60966293D01*
X102510067Y60942445D01*
X102524226Y60933287D01*
X102556704Y60904951D01*
X102578916Y60869105D01*
X102592604Y60820416D01*
X102599515Y60753551D01*
X102600428Y60709553D01*
X102601390Y60663178D01*
%TA.AperFunction,EtchedComponent*%
G36*
X102601390Y60663178D02*
G01*
X102601107Y60624495D01*
X102597562Y60548279D01*
X102588283Y60492506D01*
X102571175Y60451187D01*
X102544144Y60418333D01*
X102505092Y60387954D01*
X102480245Y60374140D01*
X102440415Y60364835D01*
X102384465Y60365570D01*
X102353185Y60368517D01*
X102315453Y60377517D01*
X102285294Y60397080D01*
X102250208Y60433533D01*
X102245520Y60438857D01*
X102213977Y60479831D01*
X102198928Y60515517D01*
X102195086Y60557834D01*
X102195086Y60620021D01*
X102238542Y60603618D01*
X102270224Y60584444D01*
X102297762Y60539453D01*
X102303511Y60525048D01*
X102335655Y60484254D01*
X102379411Y60463719D01*
X102427054Y60465565D01*
X102470857Y60491914D01*
X102485911Y60508345D01*
X102499563Y60533133D01*
X102495293Y60555656D01*
X102470716Y60578836D01*
X102423451Y60605598D01*
X102351114Y60638866D01*
X102202343Y60703984D01*
X102198395Y60768492D01*
X102199879Y60809580D01*
X102296810Y60809580D01*
X102304168Y60784143D01*
X102337648Y60756986D01*
X102398414Y60726086D01*
X102408469Y60721610D01*
X102456551Y60700783D01*
X102492526Y60686135D01*
X102509244Y60680600D01*
X102511777Y60684674D01*
X102512793Y60709553D01*
X102509169Y60749543D01*
X102500042Y60788648D01*
X102471573Y60837916D01*
X102430478Y60865678D01*
X102381390Y60869436D01*
X102328944Y60846691D01*
X102314409Y60835319D01*
X102296810Y60809580D01*
X102199879Y60809580D01*
X102200138Y60816736D01*
X102222081Y60877704D01*
X102249779Y60911303D01*
X102307205Y60948834D01*
X102375327Y60967794D01*
X102445747Y60966293D01*
X102510067Y60942445D01*
X102524226Y60933287D01*
X102556704Y60904951D01*
X102578916Y60869105D01*
X102592604Y60820416D01*
X102599515Y60753551D01*
X102600428Y60709553D01*
X102601390Y60663178D01*
G37*
%TD.AperFunction*%
X104691498Y60666086D02*
X104690337Y60609487D01*
X104682145Y60532338D01*
X104664319Y60474524D01*
X104634775Y60430378D01*
X104591425Y60394232D01*
X104550132Y60373337D01*
X104480787Y60361710D01*
X104411536Y60374423D01*
X104348945Y60409855D01*
X104299579Y60466382D01*
X104293618Y60476805D01*
X104285745Y60495067D01*
X104279906Y60518371D01*
X104275799Y60550715D01*
X104273125Y60596096D01*
X104271581Y60658513D01*
X104271534Y60664052D01*
X104372229Y60664052D01*
X104372572Y60611223D01*
X104374742Y60563438D01*
X104380107Y60532591D01*
X104390017Y60511865D01*
X104405821Y60494444D01*
X104409524Y60491095D01*
X104457099Y60466381D01*
X104507435Y60468910D01*
X104554317Y60498512D01*
X104568277Y60513847D01*
X104579960Y60534178D01*
X104586486Y60562286D01*
X104589324Y60605250D01*
X104589943Y60670153D01*
X104589637Y60719678D01*
X104587522Y60768018D01*
X104582190Y60799213D01*
X104572260Y60820153D01*
X104556350Y60837727D01*
X104547004Y60845641D01*
X104498576Y60866957D01*
X104447840Y60863602D01*
X104403787Y60835693D01*
X104394304Y60824627D01*
X104382739Y60803791D01*
X104376052Y60774694D01*
X104372973Y60730419D01*
X104372229Y60664052D01*
X104271534Y60664052D01*
X104270867Y60741963D01*
X104270683Y60850442D01*
X104270629Y61187199D01*
X104317800Y61167438D01*
X104330272Y61162030D01*
X104350124Y61149815D01*
X104361487Y61131318D01*
X104367733Y61098971D01*
X104372229Y61045207D01*
X104376335Y60996934D01*
X104381763Y60965243D01*
X104389539Y60953417D01*
X104401257Y60956588D01*
X104431118Y60967733D01*
X104484484Y60970496D01*
X104541893Y60960175D01*
X104591425Y60937939D01*
X104618676Y60917357D01*
X104653665Y60877200D01*
X104676074Y60825714D01*
X104687990Y60757232D01*
X104691342Y60670153D01*
X104691498Y60666086D01*
%TA.AperFunction,EtchedComponent*%
G36*
X104691498Y60666086D02*
G01*
X104690337Y60609487D01*
X104682145Y60532338D01*
X104664319Y60474524D01*
X104634775Y60430378D01*
X104591425Y60394232D01*
X104550132Y60373337D01*
X104480787Y60361710D01*
X104411536Y60374423D01*
X104348945Y60409855D01*
X104299579Y60466382D01*
X104293618Y60476805D01*
X104285745Y60495067D01*
X104279906Y60518371D01*
X104275799Y60550715D01*
X104273125Y60596096D01*
X104271581Y60658513D01*
X104271534Y60664052D01*
X104372229Y60664052D01*
X104372572Y60611223D01*
X104374742Y60563438D01*
X104380107Y60532591D01*
X104390017Y60511865D01*
X104405821Y60494444D01*
X104409524Y60491095D01*
X104457099Y60466381D01*
X104507435Y60468910D01*
X104554317Y60498512D01*
X104568277Y60513847D01*
X104579960Y60534178D01*
X104586486Y60562286D01*
X104589324Y60605250D01*
X104589943Y60670153D01*
X104589637Y60719678D01*
X104587522Y60768018D01*
X104582190Y60799213D01*
X104572260Y60820153D01*
X104556350Y60837727D01*
X104547004Y60845641D01*
X104498576Y60866957D01*
X104447840Y60863602D01*
X104403787Y60835693D01*
X104394304Y60824627D01*
X104382739Y60803791D01*
X104376052Y60774694D01*
X104372973Y60730419D01*
X104372229Y60664052D01*
X104271534Y60664052D01*
X104270867Y60741963D01*
X104270683Y60850442D01*
X104270629Y61187199D01*
X104317800Y61167438D01*
X104330272Y61162030D01*
X104350124Y61149815D01*
X104361487Y61131318D01*
X104367733Y61098971D01*
X104372229Y61045207D01*
X104376335Y60996934D01*
X104381763Y60965243D01*
X104389539Y60953417D01*
X104401257Y60956588D01*
X104431118Y60967733D01*
X104484484Y60970496D01*
X104541893Y60960175D01*
X104591425Y60937939D01*
X104618676Y60917357D01*
X104653665Y60877200D01*
X104676074Y60825714D01*
X104687990Y60757232D01*
X104691342Y60670153D01*
X104691498Y60666086D01*
G37*
%TD.AperFunction*%
X107623099Y60721745D02*
X107618484Y60611722D01*
X107615878Y60588413D01*
X107596460Y60505448D01*
X107561373Y60442352D01*
X107508012Y60393992D01*
X107504996Y60391996D01*
X107437162Y60363615D01*
X107366335Y60361089D01*
X107298089Y60382703D01*
X107237996Y60426738D01*
X107191629Y60491478D01*
X107190850Y60493039D01*
X107175443Y60533242D01*
X107164157Y60578934D01*
X107158170Y60621828D01*
X107158661Y60653640D01*
X107166807Y60666086D01*
X107174044Y60665329D01*
X107208651Y60651565D01*
X107247878Y60626254D01*
X107281248Y60596955D01*
X107298283Y60571228D01*
X107315992Y60536329D01*
X107352285Y60504588D01*
X107394430Y60491914D01*
X107409877Y60495579D01*
X107440369Y60514026D01*
X107466928Y60539634D01*
X107478286Y60562866D01*
X107478282Y60562952D01*
X107465396Y60573621D01*
X107431041Y60592867D01*
X107380393Y60617987D01*
X107318629Y60646276D01*
X107318289Y60646426D01*
X107251188Y60676302D01*
X107206211Y60697827D01*
X107178945Y60714363D01*
X107164978Y60729269D01*
X107159897Y60745907D01*
X107159290Y60767638D01*
X107163512Y60808787D01*
X107306800Y60808787D01*
X107321591Y60795851D01*
X107358444Y60776467D01*
X107359525Y60775919D01*
X107403005Y60755213D01*
X107441902Y60738695D01*
X107466578Y60731707D01*
X107476476Y60741047D01*
X107478286Y60773052D01*
X107470766Y60812885D01*
X107444697Y60849083D01*
X107406954Y60867850D01*
X107364877Y60865955D01*
X107325805Y60840168D01*
X107310447Y60822349D01*
X107306800Y60808787D01*
X107163512Y60808787D01*
X107164633Y60819714D01*
X107191051Y60890465D01*
X107235273Y60946065D01*
X107292497Y60984561D01*
X107357920Y61004003D01*
X107426737Y61002441D01*
X107494147Y60977922D01*
X107555344Y60928498D01*
X107589250Y60879588D01*
X107613606Y60809773D01*
X107617567Y60773052D01*
X107623099Y60721745D01*
%TA.AperFunction,EtchedComponent*%
G36*
X107623099Y60721745D02*
G01*
X107618484Y60611722D01*
X107615878Y60588413D01*
X107596460Y60505448D01*
X107561373Y60442352D01*
X107508012Y60393992D01*
X107504996Y60391996D01*
X107437162Y60363615D01*
X107366335Y60361089D01*
X107298089Y60382703D01*
X107237996Y60426738D01*
X107191629Y60491478D01*
X107190850Y60493039D01*
X107175443Y60533242D01*
X107164157Y60578934D01*
X107158170Y60621828D01*
X107158661Y60653640D01*
X107166807Y60666086D01*
X107174044Y60665329D01*
X107208651Y60651565D01*
X107247878Y60626254D01*
X107281248Y60596955D01*
X107298283Y60571228D01*
X107315992Y60536329D01*
X107352285Y60504588D01*
X107394430Y60491914D01*
X107409877Y60495579D01*
X107440369Y60514026D01*
X107466928Y60539634D01*
X107478286Y60562866D01*
X107478282Y60562952D01*
X107465396Y60573621D01*
X107431041Y60592867D01*
X107380393Y60617987D01*
X107318629Y60646276D01*
X107318289Y60646426D01*
X107251188Y60676302D01*
X107206211Y60697827D01*
X107178945Y60714363D01*
X107164978Y60729269D01*
X107159897Y60745907D01*
X107159290Y60767638D01*
X107163512Y60808787D01*
X107306800Y60808787D01*
X107321591Y60795851D01*
X107358444Y60776467D01*
X107359525Y60775919D01*
X107403005Y60755213D01*
X107441902Y60738695D01*
X107466578Y60731707D01*
X107476476Y60741047D01*
X107478286Y60773052D01*
X107470766Y60812885D01*
X107444697Y60849083D01*
X107406954Y60867850D01*
X107364877Y60865955D01*
X107325805Y60840168D01*
X107310447Y60822349D01*
X107306800Y60808787D01*
X107163512Y60808787D01*
X107164633Y60819714D01*
X107191051Y60890465D01*
X107235273Y60946065D01*
X107292497Y60984561D01*
X107357920Y61004003D01*
X107426737Y61002441D01*
X107494147Y60977922D01*
X107555344Y60928498D01*
X107589250Y60879588D01*
X107613606Y60809773D01*
X107617567Y60773052D01*
X107623099Y60721745D01*
G37*
%TD.AperFunction*%
X105550283Y60955231D02*
X105600176Y60926139D01*
X105622125Y60903473D01*
X105664304Y60835718D01*
X105678514Y60761850D01*
X105678514Y60711030D01*
X105631799Y60730672D01*
X105599492Y60750492D01*
X105574031Y60791640D01*
X105571416Y60800125D01*
X105543278Y60843349D01*
X105500867Y60866697D01*
X105452170Y60867700D01*
X105405173Y60843886D01*
X105398157Y60837744D01*
X105374693Y60811055D01*
X105370819Y60787786D01*
X105388568Y60764938D01*
X105429979Y60739513D01*
X105497086Y60708512D01*
X105501624Y60706548D01*
X105576122Y60671810D01*
X105627003Y60641037D01*
X105658325Y60610312D01*
X105674143Y60575718D01*
X105678514Y60533338D01*
X105672786Y60486354D01*
X105643862Y60426215D01*
X105592978Y60383012D01*
X105556174Y60370041D01*
X105504234Y60362944D01*
X105453799Y60364460D01*
X105417783Y60375168D01*
X105413958Y60377834D01*
X105403798Y60396463D01*
X105410848Y60429295D01*
X105423097Y60455065D01*
X105442739Y60465794D01*
X105479991Y60465261D01*
X105531708Y60468338D01*
X105565501Y60489588D01*
X105576914Y60528923D01*
X105576904Y60530053D01*
X105569987Y60552887D01*
X105546459Y60573837D01*
X105500714Y60597985D01*
X105438504Y60627059D01*
X105397299Y60642875D01*
X105373512Y60641856D01*
X105362397Y60620963D01*
X105359208Y60577159D01*
X105359200Y60507407D01*
X105358844Y60464348D01*
X105357213Y60411174D01*
X105354561Y60374778D01*
X105351222Y60361286D01*
X105350330Y60361377D01*
X105331037Y60368690D01*
X105299084Y60384122D01*
X105254924Y60406958D01*
X105260171Y60612722D01*
X105260536Y60626368D01*
X105264704Y60722149D01*
X105272068Y60794338D01*
X105284130Y60847742D01*
X105302393Y60887167D01*
X105328360Y60917420D01*
X105363533Y60943307D01*
X105364184Y60943713D01*
X105421056Y60964832D01*
X105486833Y60968400D01*
X105550283Y60955231D01*
%TA.AperFunction,EtchedComponent*%
G36*
X105550283Y60955231D02*
G01*
X105600176Y60926139D01*
X105622125Y60903473D01*
X105664304Y60835718D01*
X105678514Y60761850D01*
X105678514Y60711030D01*
X105631799Y60730672D01*
X105599492Y60750492D01*
X105574031Y60791640D01*
X105571416Y60800125D01*
X105543278Y60843349D01*
X105500867Y60866697D01*
X105452170Y60867700D01*
X105405173Y60843886D01*
X105398157Y60837744D01*
X105374693Y60811055D01*
X105370819Y60787786D01*
X105388568Y60764938D01*
X105429979Y60739513D01*
X105497086Y60708512D01*
X105501624Y60706548D01*
X105576122Y60671810D01*
X105627003Y60641037D01*
X105658325Y60610312D01*
X105674143Y60575718D01*
X105678514Y60533338D01*
X105672786Y60486354D01*
X105643862Y60426215D01*
X105592978Y60383012D01*
X105556174Y60370041D01*
X105504234Y60362944D01*
X105453799Y60364460D01*
X105417783Y60375168D01*
X105413958Y60377834D01*
X105403798Y60396463D01*
X105410848Y60429295D01*
X105423097Y60455065D01*
X105442739Y60465794D01*
X105479991Y60465261D01*
X105531708Y60468338D01*
X105565501Y60489588D01*
X105576914Y60528923D01*
X105576904Y60530053D01*
X105569987Y60552887D01*
X105546459Y60573837D01*
X105500714Y60597985D01*
X105438504Y60627059D01*
X105397299Y60642875D01*
X105373512Y60641856D01*
X105362397Y60620963D01*
X105359208Y60577159D01*
X105359200Y60507407D01*
X105358844Y60464348D01*
X105357213Y60411174D01*
X105354561Y60374778D01*
X105351222Y60361286D01*
X105350330Y60361377D01*
X105331037Y60368690D01*
X105299084Y60384122D01*
X105254924Y60406958D01*
X105260171Y60612722D01*
X105260536Y60626368D01*
X105264704Y60722149D01*
X105272068Y60794338D01*
X105284130Y60847742D01*
X105302393Y60887167D01*
X105328360Y60917420D01*
X105363533Y60943307D01*
X105364184Y60943713D01*
X105421056Y60964832D01*
X105486833Y60968400D01*
X105550283Y60955231D01*
G37*
%TD.AperFunction*%
X108170615Y60614276D02*
X108172052Y60502800D01*
X108172451Y60470461D01*
X108173729Y60362345D01*
X108173985Y60279614D01*
X108172434Y60219374D01*
X108168290Y60178727D01*
X108160764Y60154777D01*
X108149071Y60144629D01*
X108132424Y60145386D01*
X108110036Y60154152D01*
X108081121Y60168031D01*
X108074942Y60170992D01*
X108049213Y60185489D01*
X108035776Y60202735D01*
X108030634Y60231492D01*
X108029790Y60280517D01*
X108029752Y60368543D01*
X107939076Y60368543D01*
X107883298Y60370985D01*
X107839440Y60380892D01*
X107803018Y60400914D01*
X107800303Y60402871D01*
X107763346Y60435931D01*
X107737626Y60475869D01*
X107721406Y60528143D01*
X107712948Y60598212D01*
X107710883Y60677370D01*
X107855657Y60677370D01*
X107855682Y60664103D01*
X107857061Y60604216D01*
X107861487Y60565068D01*
X107870261Y60539647D01*
X107884686Y60520943D01*
X107885584Y60520050D01*
X107921037Y60495848D01*
X107955396Y60498233D01*
X107994203Y60527540D01*
X108003695Y60537556D01*
X108017676Y60558092D01*
X108025560Y60584803D01*
X108029045Y60625301D01*
X108029829Y60687197D01*
X108029150Y60724670D01*
X108021783Y60792820D01*
X108004968Y60837470D01*
X107977034Y60861874D01*
X107936309Y60869286D01*
X107919150Y60867706D01*
X107889460Y60852034D01*
X107869831Y60817109D01*
X107858988Y60759899D01*
X107855657Y60677370D01*
X107710883Y60677370D01*
X107710514Y60691533D01*
X107711053Y60759631D01*
X107713507Y60811213D01*
X107718958Y60846984D01*
X107728486Y60873785D01*
X107743171Y60898462D01*
X107756652Y60917320D01*
X107805599Y60968232D01*
X107861056Y60995882D01*
X107930728Y61004635D01*
X108010464Y60995910D01*
X108079395Y60964615D01*
X108133913Y60909419D01*
X108138023Y60903576D01*
X108147608Y60888047D01*
X108154951Y60870302D01*
X108160412Y60846510D01*
X108164350Y60812842D01*
X108167123Y60765467D01*
X108169092Y60700555D01*
X108169328Y60687197D01*
X108170615Y60614276D01*
%TA.AperFunction,EtchedComponent*%
G36*
X108170615Y60614276D02*
G01*
X108172052Y60502800D01*
X108172451Y60470461D01*
X108173729Y60362345D01*
X108173985Y60279614D01*
X108172434Y60219374D01*
X108168290Y60178727D01*
X108160764Y60154777D01*
X108149071Y60144629D01*
X108132424Y60145386D01*
X108110036Y60154152D01*
X108081121Y60168031D01*
X108074942Y60170992D01*
X108049213Y60185489D01*
X108035776Y60202735D01*
X108030634Y60231492D01*
X108029790Y60280517D01*
X108029752Y60368543D01*
X107939076Y60368543D01*
X107883298Y60370985D01*
X107839440Y60380892D01*
X107803018Y60400914D01*
X107800303Y60402871D01*
X107763346Y60435931D01*
X107737626Y60475869D01*
X107721406Y60528143D01*
X107712948Y60598212D01*
X107710883Y60677370D01*
X107855657Y60677370D01*
X107855682Y60664103D01*
X107857061Y60604216D01*
X107861487Y60565068D01*
X107870261Y60539647D01*
X107884686Y60520943D01*
X107885584Y60520050D01*
X107921037Y60495848D01*
X107955396Y60498233D01*
X107994203Y60527540D01*
X108003695Y60537556D01*
X108017676Y60558092D01*
X108025560Y60584803D01*
X108029045Y60625301D01*
X108029829Y60687197D01*
X108029150Y60724670D01*
X108021783Y60792820D01*
X108004968Y60837470D01*
X107977034Y60861874D01*
X107936309Y60869286D01*
X107919150Y60867706D01*
X107889460Y60852034D01*
X107869831Y60817109D01*
X107858988Y60759899D01*
X107855657Y60677370D01*
X107710883Y60677370D01*
X107710514Y60691533D01*
X107711053Y60759631D01*
X107713507Y60811213D01*
X107718958Y60846984D01*
X107728486Y60873785D01*
X107743171Y60898462D01*
X107756652Y60917320D01*
X107805599Y60968232D01*
X107861056Y60995882D01*
X107930728Y61004635D01*
X108010464Y60995910D01*
X108079395Y60964615D01*
X108133913Y60909419D01*
X108138023Y60903576D01*
X108147608Y60888047D01*
X108154951Y60870302D01*
X108160412Y60846510D01*
X108164350Y60812842D01*
X108167123Y60765467D01*
X108169092Y60700555D01*
X108169328Y60687197D01*
X108170615Y60614276D01*
G37*
%TD.AperFunction*%
X103428295Y60969580D02*
X103459399Y60961679D01*
X103488359Y60941983D01*
X103525631Y60905316D01*
X103549601Y60879422D01*
X103574570Y60845803D01*
X103585831Y60814294D01*
X103588457Y60774315D01*
X103588457Y60708883D01*
X103543835Y60731958D01*
X103508473Y60760076D01*
X103484251Y60797952D01*
X103480091Y60808249D01*
X103448394Y60848163D01*
X103404354Y60868176D01*
X103356331Y60866228D01*
X103312686Y60840257D01*
X103294220Y60819165D01*
X103283463Y60792181D01*
X103294978Y60768166D01*
X103330781Y60744009D01*
X103392890Y60716601D01*
X103402315Y60712815D01*
X103458858Y60688041D01*
X103507380Y60663611D01*
X103538251Y60644314D01*
X103569171Y60609847D01*
X103589727Y60554843D01*
X103587544Y60495817D01*
X103563224Y60439955D01*
X103517368Y60394445D01*
X103480238Y60375073D01*
X103408511Y60361508D01*
X103368652Y60363338D01*
X103331753Y60373232D01*
X103317597Y60393994D01*
X103322891Y60428187D01*
X103324431Y60432708D01*
X103336642Y60456684D01*
X103356974Y60465758D01*
X103395708Y60465151D01*
X103423057Y60464326D01*
X103455057Y60471408D01*
X103476982Y60492581D01*
X103489470Y60518648D01*
X103490862Y60545955D01*
X103490798Y60546115D01*
X103474607Y60560870D01*
X103439955Y60582343D01*
X103395121Y60606342D01*
X103348382Y60628675D01*
X103308017Y60645148D01*
X103282304Y60651571D01*
X103278479Y60645282D01*
X103273664Y60615685D01*
X103270366Y60567353D01*
X103269143Y60506428D01*
X103268858Y60464258D01*
X103267518Y60411147D01*
X103265328Y60374775D01*
X103262569Y60361286D01*
X103248144Y60365819D01*
X103219026Y60378130D01*
X103182057Y60394974D01*
X103182057Y60611079D01*
X103182293Y60666473D01*
X103184529Y60750593D01*
X103190223Y60813000D01*
X103200703Y60858442D01*
X103217297Y60891667D01*
X103241331Y60917422D01*
X103274133Y60940456D01*
X103315924Y60959465D01*
X103393087Y60970886D01*
X103428295Y60969580D01*
%TA.AperFunction,EtchedComponent*%
G36*
X103428295Y60969580D02*
G01*
X103459399Y60961679D01*
X103488359Y60941983D01*
X103525631Y60905316D01*
X103549601Y60879422D01*
X103574570Y60845803D01*
X103585831Y60814294D01*
X103588457Y60774315D01*
X103588457Y60708883D01*
X103543835Y60731958D01*
X103508473Y60760076D01*
X103484251Y60797952D01*
X103480091Y60808249D01*
X103448394Y60848163D01*
X103404354Y60868176D01*
X103356331Y60866228D01*
X103312686Y60840257D01*
X103294220Y60819165D01*
X103283463Y60792181D01*
X103294978Y60768166D01*
X103330781Y60744009D01*
X103392890Y60716601D01*
X103402315Y60712815D01*
X103458858Y60688041D01*
X103507380Y60663611D01*
X103538251Y60644314D01*
X103569171Y60609847D01*
X103589727Y60554843D01*
X103587544Y60495817D01*
X103563224Y60439955D01*
X103517368Y60394445D01*
X103480238Y60375073D01*
X103408511Y60361508D01*
X103368652Y60363338D01*
X103331753Y60373232D01*
X103317597Y60393994D01*
X103322891Y60428187D01*
X103324431Y60432708D01*
X103336642Y60456684D01*
X103356974Y60465758D01*
X103395708Y60465151D01*
X103423057Y60464326D01*
X103455057Y60471408D01*
X103476982Y60492581D01*
X103489470Y60518648D01*
X103490862Y60545955D01*
X103490798Y60546115D01*
X103474607Y60560870D01*
X103439955Y60582343D01*
X103395121Y60606342D01*
X103348382Y60628675D01*
X103308017Y60645148D01*
X103282304Y60651571D01*
X103278479Y60645282D01*
X103273664Y60615685D01*
X103270366Y60567353D01*
X103269143Y60506428D01*
X103268858Y60464258D01*
X103267518Y60411147D01*
X103265328Y60374775D01*
X103262569Y60361286D01*
X103248144Y60365819D01*
X103219026Y60378130D01*
X103182057Y60394974D01*
X103182057Y60611079D01*
X103182293Y60666473D01*
X103184529Y60750593D01*
X103190223Y60813000D01*
X103200703Y60858442D01*
X103217297Y60891667D01*
X103241331Y60917422D01*
X103274133Y60940456D01*
X103315924Y60959465D01*
X103393087Y60970886D01*
X103428295Y60969580D01*
G37*
%TD.AperFunction*%
X105574733Y65673429D02*
X105650656Y65672935D01*
X105705291Y65671665D01*
X105742300Y65669253D01*
X105765347Y65665333D01*
X105778096Y65659538D01*
X105784211Y65651501D01*
X105787356Y65640857D01*
X105787446Y65640475D01*
X105792614Y65615453D01*
X105802009Y65567119D01*
X105814667Y65500540D01*
X105829625Y65420786D01*
X105845919Y65332925D01*
X105847248Y65325736D01*
X105863491Y65240460D01*
X105878605Y65165558D01*
X105891608Y65105581D01*
X105901515Y65065083D01*
X105907344Y65048616D01*
X105907375Y65048590D01*
X105925743Y65039480D01*
X105963440Y65024343D01*
X106012343Y65006442D01*
X106015097Y65005470D01*
X106077617Y64981841D01*
X106150343Y64952205D01*
X106218094Y64922738D01*
X106329503Y64872174D01*
X106576199Y65040640D01*
X106593575Y65052489D01*
X106668002Y65102853D01*
X106734414Y65147188D01*
X106788839Y65182884D01*
X106827306Y65207329D01*
X106845842Y65217911D01*
X106858543Y65215485D01*
X106887379Y65196690D01*
X106931943Y65159470D01*
X106993470Y65102780D01*
X107073198Y65025573D01*
X107080332Y65018545D01*
X107143596Y64955578D01*
X107199790Y64898532D01*
X107245477Y64850983D01*
X107277214Y64816503D01*
X107291564Y64798669D01*
X107291610Y64798583D01*
X107293433Y64785005D01*
X107286710Y64762980D01*
X107269746Y64729496D01*
X107240844Y64681539D01*
X107198308Y64616096D01*
X107140444Y64530155D01*
X107130583Y64515649D01*
X107080713Y64442165D01*
X107036705Y64377113D01*
X107001180Y64324383D01*
X106976759Y64287864D01*
X106966064Y64271444D01*
X106965258Y64267966D01*
X106970318Y64242015D01*
X106985477Y64199641D01*
X107008263Y64148072D01*
X107039229Y64080630D01*
X107073804Y64000605D01*
X107103166Y63928171D01*
X107110445Y63909423D01*
X107129510Y63861554D01*
X107143515Y63828204D01*
X107149841Y63815686D01*
X107156825Y63814750D01*
X107188213Y63809339D01*
X107239587Y63799994D01*
X107305602Y63787731D01*
X107380913Y63773568D01*
X107460175Y63758520D01*
X107538043Y63743605D01*
X107609170Y63729839D01*
X107668212Y63718238D01*
X107709822Y63709820D01*
X107728657Y63705601D01*
X107731780Y63704411D01*
X107739391Y63697995D01*
X107745054Y63684335D01*
X107749051Y63659801D01*
X107751666Y63620762D01*
X107753184Y63563587D01*
X107753886Y63484646D01*
X107754057Y63380308D01*
X107754057Y63063001D01*
X107677857Y63047961D01*
X107668640Y63046158D01*
X107619691Y63036820D01*
X107552005Y63024131D01*
X107473278Y63009527D01*
X107391200Y62994445D01*
X107358878Y62988378D01*
X107286655Y62973619D01*
X107226466Y62959663D01*
X107183840Y62947848D01*
X107164310Y62939513D01*
X107155460Y62925895D01*
X107139348Y62889862D01*
X107122865Y62843228D01*
X107117063Y62825766D01*
X107095706Y62768442D01*
X107068159Y62700599D01*
X107038907Y62633445D01*
X107023263Y62598370D01*
X107000974Y62545978D01*
X106985657Y62506742D01*
X106979962Y62487237D01*
X106980278Y62485764D01*
X106991081Y62465071D01*
X107015438Y62425135D01*
X107050881Y62369828D01*
X107094936Y62303019D01*
X107145132Y62228580D01*
X107310301Y61986177D01*
X107093303Y61768817D01*
X107072316Y61747901D01*
X107008142Y61685295D01*
X106950790Y61631305D01*
X106903620Y61588974D01*
X106869992Y61561343D01*
X106853267Y61551457D01*
X106835103Y61558979D01*
X106797065Y61580573D01*
X106743526Y61613649D01*
X106678684Y61655609D01*
X106606740Y61703857D01*
X106536075Y61751509D01*
X106472326Y61793472D01*
X106420313Y61826635D01*
X106384079Y61848422D01*
X106367667Y61856257D01*
X106366705Y61856186D01*
X106344903Y61848462D01*
X106306240Y61830477D01*
X106258412Y61805787D01*
X106257910Y61805516D01*
X106194387Y61773701D01*
X106150860Y61758158D01*
X106123852Y61758115D01*
X106109890Y61772800D01*
X106103980Y61787256D01*
X106088029Y61825969D01*
X106063460Y61885484D01*
X106031579Y61962635D01*
X105993693Y62054259D01*
X105951110Y62157193D01*
X105905137Y62268274D01*
X105863467Y62369328D01*
X105821068Y62473020D01*
X105783556Y62565681D01*
X105752188Y62644158D01*
X105728225Y62705300D01*
X105712923Y62745957D01*
X105707543Y62762975D01*
X105717818Y62778581D01*
X105746363Y62804638D01*
X105786771Y62834913D01*
X105883779Y62914116D01*
X105970593Y63015325D01*
X106034122Y63126684D01*
X106073977Y63244907D01*
X106089765Y63366705D01*
X106081096Y63488790D01*
X106047578Y63607875D01*
X105988821Y63720671D01*
X105904432Y63823889D01*
X105860431Y63864087D01*
X105755011Y63935162D01*
X105642210Y63981499D01*
X105525325Y64004201D01*
X105407653Y64004372D01*
X105292490Y63983113D01*
X105183135Y63941530D01*
X105082883Y63880724D01*
X104995033Y63801799D01*
X104922880Y63705859D01*
X104869722Y63594005D01*
X104838857Y63467343D01*
X104833192Y63406293D01*
X104840985Y63274024D01*
X104876084Y63148534D01*
X104937449Y63032041D01*
X105024043Y62926761D01*
X105134829Y62834913D01*
X105173731Y62805870D01*
X105202904Y62779528D01*
X105214057Y62763000D01*
X105209610Y62748591D01*
X105195178Y62709985D01*
X105171973Y62650599D01*
X105141252Y62573585D01*
X105104274Y62482097D01*
X105062296Y62379284D01*
X105016578Y62268298D01*
X104974978Y62167728D01*
X104932022Y62063853D01*
X104893629Y61970981D01*
X104861105Y61892275D01*
X104835758Y61830901D01*
X104818895Y61790021D01*
X104811825Y61772800D01*
X104811743Y61772596D01*
X104797598Y61758055D01*
X104770459Y61758221D01*
X104726823Y61773873D01*
X104663188Y61805787D01*
X104658179Y61808474D01*
X104610925Y61832650D01*
X104573611Y61849763D01*
X104553933Y61856257D01*
X104537805Y61848582D01*
X104501759Y61826929D01*
X104449892Y61793872D01*
X104386245Y61751990D01*
X104314860Y61703857D01*
X104244524Y61656669D01*
X104179470Y61614533D01*
X104125620Y61581222D01*
X104087174Y61559331D01*
X104068334Y61551457D01*
X104065125Y61552457D01*
X104042754Y61568216D01*
X104004533Y61600767D01*
X103953821Y61647067D01*
X103893981Y61704074D01*
X103828371Y61768742D01*
X103611448Y61986028D01*
X103780401Y62234547D01*
X103949353Y62483067D01*
X103897983Y62594205D01*
X103897831Y62594534D01*
X103866983Y62665382D01*
X103835461Y62744277D01*
X103810066Y62814200D01*
X103806223Y62825478D01*
X103786847Y62877833D01*
X103769374Y62918517D01*
X103757188Y62939513D01*
X103752226Y62942478D01*
X103722434Y62952425D01*
X103671847Y62965295D01*
X103605994Y62979747D01*
X103530400Y62994445D01*
X103507757Y62998590D01*
X103425838Y63013684D01*
X103349400Y63027901D01*
X103286137Y63039805D01*
X103243743Y63047961D01*
X103167543Y63063001D01*
X103167543Y63380308D01*
X103167560Y63419324D01*
X103167882Y63514508D01*
X103168833Y63585545D01*
X103170696Y63636066D01*
X103173755Y63669702D01*
X103178294Y63690082D01*
X103184595Y63700838D01*
X103192943Y63705601D01*
X103201024Y63707530D01*
X103233972Y63714355D01*
X103286536Y63724778D01*
X103353369Y63737782D01*
X103429128Y63752351D01*
X103508465Y63767467D01*
X103586037Y63782115D01*
X103656498Y63795277D01*
X103714502Y63805937D01*
X103754704Y63813079D01*
X103771759Y63815686D01*
X103772912Y63817259D01*
X103782185Y63837681D01*
X103798232Y63876755D01*
X103818435Y63928171D01*
X103846472Y63997447D01*
X103880986Y64077510D01*
X103913338Y64148072D01*
X103920752Y64163911D01*
X103941555Y64213507D01*
X103954019Y64251762D01*
X103955663Y64271444D01*
X103954815Y64272838D01*
X103941348Y64293380D01*
X103914650Y64333284D01*
X103877339Y64388660D01*
X103832034Y64455623D01*
X103781352Y64530283D01*
X103724245Y64615108D01*
X103681407Y64681000D01*
X103652260Y64729322D01*
X103635117Y64763067D01*
X103628295Y64785228D01*
X103630106Y64798798D01*
X103630715Y64799816D01*
X103647097Y64819590D01*
X103680495Y64855625D01*
X103727471Y64904349D01*
X103784586Y64962188D01*
X103848403Y65025573D01*
X103914602Y65089895D01*
X103979448Y65150353D01*
X104027099Y65191145D01*
X104058790Y65213316D01*
X104075758Y65217911D01*
X104077975Y65216879D01*
X104101324Y65202963D01*
X104143712Y65175770D01*
X104201169Y65137911D01*
X104269723Y65091997D01*
X104345401Y65040640D01*
X104592098Y64872174D01*
X104703506Y64922738D01*
X104706743Y64924203D01*
X104775143Y64953835D01*
X104847707Y64983307D01*
X104909257Y65006442D01*
X104909529Y65006538D01*
X104958395Y65024433D01*
X104996012Y65039547D01*
X105014257Y65048616D01*
X105014552Y65048945D01*
X105020746Y65067518D01*
X105030939Y65109755D01*
X105044148Y65171104D01*
X105059390Y65247011D01*
X105075681Y65332925D01*
X105076249Y65336004D01*
X105092513Y65423672D01*
X105107408Y65503059D01*
X105119971Y65569099D01*
X105129238Y65616721D01*
X105134244Y65640857D01*
X105134564Y65642195D01*
X105137860Y65652527D01*
X105144538Y65660294D01*
X105158262Y65665860D01*
X105182695Y65669593D01*
X105221502Y65671858D01*
X105278346Y65673022D01*
X105356890Y65673452D01*
X105460800Y65673514D01*
X105473856Y65673514D01*
X105574733Y65673429D01*
%TA.AperFunction,EtchedComponent*%
G36*
X105574733Y65673429D02*
G01*
X105650656Y65672935D01*
X105705291Y65671665D01*
X105742300Y65669253D01*
X105765347Y65665333D01*
X105778096Y65659538D01*
X105784211Y65651501D01*
X105787356Y65640857D01*
X105787446Y65640475D01*
X105792614Y65615453D01*
X105802009Y65567119D01*
X105814667Y65500540D01*
X105829625Y65420786D01*
X105845919Y65332925D01*
X105847248Y65325736D01*
X105863491Y65240460D01*
X105878605Y65165558D01*
X105891608Y65105581D01*
X105901515Y65065083D01*
X105907344Y65048616D01*
X105907375Y65048590D01*
X105925743Y65039480D01*
X105963440Y65024343D01*
X106012343Y65006442D01*
X106015097Y65005470D01*
X106077617Y64981841D01*
X106150343Y64952205D01*
X106218094Y64922738D01*
X106329503Y64872174D01*
X106576199Y65040640D01*
X106593575Y65052489D01*
X106668002Y65102853D01*
X106734414Y65147188D01*
X106788839Y65182884D01*
X106827306Y65207329D01*
X106845842Y65217911D01*
X106858543Y65215485D01*
X106887379Y65196690D01*
X106931943Y65159470D01*
X106993470Y65102780D01*
X107073198Y65025573D01*
X107080332Y65018545D01*
X107143596Y64955578D01*
X107199790Y64898532D01*
X107245477Y64850983D01*
X107277214Y64816503D01*
X107291564Y64798669D01*
X107291610Y64798583D01*
X107293433Y64785005D01*
X107286710Y64762980D01*
X107269746Y64729496D01*
X107240844Y64681539D01*
X107198308Y64616096D01*
X107140444Y64530155D01*
X107130583Y64515649D01*
X107080713Y64442165D01*
X107036705Y64377113D01*
X107001180Y64324383D01*
X106976759Y64287864D01*
X106966064Y64271444D01*
X106965258Y64267966D01*
X106970318Y64242015D01*
X106985477Y64199641D01*
X107008263Y64148072D01*
X107039229Y64080630D01*
X107073804Y64000605D01*
X107103166Y63928171D01*
X107110445Y63909423D01*
X107129510Y63861554D01*
X107143515Y63828204D01*
X107149841Y63815686D01*
X107156825Y63814750D01*
X107188213Y63809339D01*
X107239587Y63799994D01*
X107305602Y63787731D01*
X107380913Y63773568D01*
X107460175Y63758520D01*
X107538043Y63743605D01*
X107609170Y63729839D01*
X107668212Y63718238D01*
X107709822Y63709820D01*
X107728657Y63705601D01*
X107731780Y63704411D01*
X107739391Y63697995D01*
X107745054Y63684335D01*
X107749051Y63659801D01*
X107751666Y63620762D01*
X107753184Y63563587D01*
X107753886Y63484646D01*
X107754057Y63380308D01*
X107754057Y63063001D01*
X107677857Y63047961D01*
X107668640Y63046158D01*
X107619691Y63036820D01*
X107552005Y63024131D01*
X107473278Y63009527D01*
X107391200Y62994445D01*
X107358878Y62988378D01*
X107286655Y62973619D01*
X107226466Y62959663D01*
X107183840Y62947848D01*
X107164310Y62939513D01*
X107155460Y62925895D01*
X107139348Y62889862D01*
X107122865Y62843228D01*
X107117063Y62825766D01*
X107095706Y62768442D01*
X107068159Y62700599D01*
X107038907Y62633445D01*
X107023263Y62598370D01*
X107000974Y62545978D01*
X106985657Y62506742D01*
X106979962Y62487237D01*
X106980278Y62485764D01*
X106991081Y62465071D01*
X107015438Y62425135D01*
X107050881Y62369828D01*
X107094936Y62303019D01*
X107145132Y62228580D01*
X107310301Y61986177D01*
X107093303Y61768817D01*
X107072316Y61747901D01*
X107008142Y61685295D01*
X106950790Y61631305D01*
X106903620Y61588974D01*
X106869992Y61561343D01*
X106853267Y61551457D01*
X106835103Y61558979D01*
X106797065Y61580573D01*
X106743526Y61613649D01*
X106678684Y61655609D01*
X106606740Y61703857D01*
X106536075Y61751509D01*
X106472326Y61793472D01*
X106420313Y61826635D01*
X106384079Y61848422D01*
X106367667Y61856257D01*
X106366705Y61856186D01*
X106344903Y61848462D01*
X106306240Y61830477D01*
X106258412Y61805787D01*
X106257910Y61805516D01*
X106194387Y61773701D01*
X106150860Y61758158D01*
X106123852Y61758115D01*
X106109890Y61772800D01*
X106103980Y61787256D01*
X106088029Y61825969D01*
X106063460Y61885484D01*
X106031579Y61962635D01*
X105993693Y62054259D01*
X105951110Y62157193D01*
X105905137Y62268274D01*
X105863467Y62369328D01*
X105821068Y62473020D01*
X105783556Y62565681D01*
X105752188Y62644158D01*
X105728225Y62705300D01*
X105712923Y62745957D01*
X105707543Y62762975D01*
X105717818Y62778581D01*
X105746363Y62804638D01*
X105786771Y62834913D01*
X105883779Y62914116D01*
X105970593Y63015325D01*
X106034122Y63126684D01*
X106073977Y63244907D01*
X106089765Y63366705D01*
X106081096Y63488790D01*
X106047578Y63607875D01*
X105988821Y63720671D01*
X105904432Y63823889D01*
X105860431Y63864087D01*
X105755011Y63935162D01*
X105642210Y63981499D01*
X105525325Y64004201D01*
X105407653Y64004372D01*
X105292490Y63983113D01*
X105183135Y63941530D01*
X105082883Y63880724D01*
X104995033Y63801799D01*
X104922880Y63705859D01*
X104869722Y63594005D01*
X104838857Y63467343D01*
X104833192Y63406293D01*
X104840985Y63274024D01*
X104876084Y63148534D01*
X104937449Y63032041D01*
X105024043Y62926761D01*
X105134829Y62834913D01*
X105173731Y62805870D01*
X105202904Y62779528D01*
X105214057Y62763000D01*
X105209610Y62748591D01*
X105195178Y62709985D01*
X105171973Y62650599D01*
X105141252Y62573585D01*
X105104274Y62482097D01*
X105062296Y62379284D01*
X105016578Y62268298D01*
X104974978Y62167728D01*
X104932022Y62063853D01*
X104893629Y61970981D01*
X104861105Y61892275D01*
X104835758Y61830901D01*
X104818895Y61790021D01*
X104811825Y61772800D01*
X104811743Y61772596D01*
X104797598Y61758055D01*
X104770459Y61758221D01*
X104726823Y61773873D01*
X104663188Y61805787D01*
X104658179Y61808474D01*
X104610925Y61832650D01*
X104573611Y61849763D01*
X104553933Y61856257D01*
X104537805Y61848582D01*
X104501759Y61826929D01*
X104449892Y61793872D01*
X104386245Y61751990D01*
X104314860Y61703857D01*
X104244524Y61656669D01*
X104179470Y61614533D01*
X104125620Y61581222D01*
X104087174Y61559331D01*
X104068334Y61551457D01*
X104065125Y61552457D01*
X104042754Y61568216D01*
X104004533Y61600767D01*
X103953821Y61647067D01*
X103893981Y61704074D01*
X103828371Y61768742D01*
X103611448Y61986028D01*
X103780401Y62234547D01*
X103949353Y62483067D01*
X103897983Y62594205D01*
X103897831Y62594534D01*
X103866983Y62665382D01*
X103835461Y62744277D01*
X103810066Y62814200D01*
X103806223Y62825478D01*
X103786847Y62877833D01*
X103769374Y62918517D01*
X103757188Y62939513D01*
X103752226Y62942478D01*
X103722434Y62952425D01*
X103671847Y62965295D01*
X103605994Y62979747D01*
X103530400Y62994445D01*
X103507757Y62998590D01*
X103425838Y63013684D01*
X103349400Y63027901D01*
X103286137Y63039805D01*
X103243743Y63047961D01*
X103167543Y63063001D01*
X103167543Y63380308D01*
X103167560Y63419324D01*
X103167882Y63514508D01*
X103168833Y63585545D01*
X103170696Y63636066D01*
X103173755Y63669702D01*
X103178294Y63690082D01*
X103184595Y63700838D01*
X103192943Y63705601D01*
X103201024Y63707530D01*
X103233972Y63714355D01*
X103286536Y63724778D01*
X103353369Y63737782D01*
X103429128Y63752351D01*
X103508465Y63767467D01*
X103586037Y63782115D01*
X103656498Y63795277D01*
X103714502Y63805937D01*
X103754704Y63813079D01*
X103771759Y63815686D01*
X103772912Y63817259D01*
X103782185Y63837681D01*
X103798232Y63876755D01*
X103818435Y63928171D01*
X103846472Y63997447D01*
X103880986Y64077510D01*
X103913338Y64148072D01*
X103920752Y64163911D01*
X103941555Y64213507D01*
X103954019Y64251762D01*
X103955663Y64271444D01*
X103954815Y64272838D01*
X103941348Y64293380D01*
X103914650Y64333284D01*
X103877339Y64388660D01*
X103832034Y64455623D01*
X103781352Y64530283D01*
X103724245Y64615108D01*
X103681407Y64681000D01*
X103652260Y64729322D01*
X103635117Y64763067D01*
X103628295Y64785228D01*
X103630106Y64798798D01*
X103630715Y64799816D01*
X103647097Y64819590D01*
X103680495Y64855625D01*
X103727471Y64904349D01*
X103784586Y64962188D01*
X103848403Y65025573D01*
X103914602Y65089895D01*
X103979448Y65150353D01*
X104027099Y65191145D01*
X104058790Y65213316D01*
X104075758Y65217911D01*
X104077975Y65216879D01*
X104101324Y65202963D01*
X104143712Y65175770D01*
X104201169Y65137911D01*
X104269723Y65091997D01*
X104345401Y65040640D01*
X104592098Y64872174D01*
X104703506Y64922738D01*
X104706743Y64924203D01*
X104775143Y64953835D01*
X104847707Y64983307D01*
X104909257Y65006442D01*
X104909529Y65006538D01*
X104958395Y65024433D01*
X104996012Y65039547D01*
X105014257Y65048616D01*
X105014552Y65048945D01*
X105020746Y65067518D01*
X105030939Y65109755D01*
X105044148Y65171104D01*
X105059390Y65247011D01*
X105075681Y65332925D01*
X105076249Y65336004D01*
X105092513Y65423672D01*
X105107408Y65503059D01*
X105119971Y65569099D01*
X105129238Y65616721D01*
X105134244Y65640857D01*
X105134564Y65642195D01*
X105137860Y65652527D01*
X105144538Y65660294D01*
X105158262Y65665860D01*
X105182695Y65669593D01*
X105221502Y65671858D01*
X105278346Y65673022D01*
X105356890Y65673452D01*
X105460800Y65673514D01*
X105473856Y65673514D01*
X105574733Y65673429D01*
G37*
%TD.AperFunction*%
%TD*%
D11*
%TO.P,C1,1*%
%TO.N,Net-(U1-FIN)*%
X112852200Y57870200D03*
%TO.P,C1,2*%
%TO.N,GND*%
X112852200Y60370200D03*
%TD*%
%TO.P,C2,1*%
%TO.N,Net-(U1-RIN)*%
X115468400Y63093600D03*
%TO.P,C2,2*%
%TO.N,/red_in*%
X112968400Y63093600D03*
%TD*%
%TO.P,C3,1*%
%TO.N,Net-(U1-GIN)*%
X115468400Y65405000D03*
%TO.P,C3,2*%
%TO.N,/green_in*%
X112968400Y65405000D03*
%TD*%
%TO.P,C4,1*%
%TO.N,Net-(U1-BIN)*%
X115468400Y67716400D03*
%TO.P,C4,2*%
%TO.N,/blue_in*%
X112968400Y67716400D03*
%TD*%
D12*
%TO.P,R1,1*%
%TO.N,/red_in*%
X118541800Y63093600D03*
D13*
%TO.P,R1,2*%
%TO.N,GND*%
X121081800Y63093600D03*
%TD*%
D12*
%TO.P,R2,1*%
%TO.N,/green_in*%
X118541800Y65354200D03*
D13*
%TO.P,R2,2*%
%TO.N,GND*%
X121081800Y65354200D03*
%TD*%
D12*
%TO.P,R3,1*%
%TO.N,/blue_in*%
X118541800Y67614800D03*
D13*
%TO.P,R3,2*%
%TO.N,GND*%
X121081800Y67614800D03*
%TD*%
D12*
%TO.P,R4,1*%
%TO.N,COMP*%
X89458800Y65989200D03*
D13*
%TO.P,R4,2*%
%TO.N,Net-(C8-Pad2)*%
X91998800Y65989200D03*
%TD*%
D11*
%TO.P,C7,1*%
%TO.N,GND*%
X116992400Y74371200D03*
%TO.P,C7,2*%
%TO.N,VAA*%
X114492400Y74371200D03*
%TD*%
D14*
%TO.P,C9,1*%
%TO.N,Net-(U1-LUMA)*%
X97326200Y58293000D03*
D11*
%TO.P,C9,2*%
%TO.N,Net-(C9-Pad2)*%
X95326200Y58293000D03*
%TD*%
D15*
%TO.P,D1,1,K*%
%TO.N,VAA*%
X97967800Y52247800D03*
D16*
%TO.P,D1,2,A*%
%TO.N,GND*%
X100507800Y52247800D03*
%TD*%
D17*
%TO.P,JP1,1,A*%
%TO.N,GND*%
X87060800Y52298600D03*
D18*
%TO.P,JP1,2,C*%
%TO.N,Net-(JP1-C)*%
X89600800Y52298600D03*
%TO.P,JP1,3,B*%
%TO.N,VAA*%
X92140800Y52298600D03*
%TD*%
D11*
%TO.P,C5,1*%
%TO.N,GND*%
X104114600Y55473600D03*
%TO.P,C5,2*%
%TO.N,VAA*%
X106614600Y55473600D03*
%TD*%
D14*
%TO.P,C6,1*%
%TO.N,VAA*%
X122722700Y74422000D03*
D11*
%TO.P,C6,2*%
%TO.N,GND*%
X120722700Y74422000D03*
%TD*%
D12*
%TO.P,R5,1*%
%TO.N,LUMA*%
X89484200Y58267600D03*
D13*
%TO.P,R5,2*%
%TO.N,Net-(C9-Pad2)*%
X92024200Y58267600D03*
%TD*%
D19*
%TO.P,H1,1*%
%TO.N,N/C*%
X85623400Y65684400D03*
%TD*%
%TO.P,H2,1*%
%TO.N,N/C*%
X124231400Y65684400D03*
%TD*%
D14*
%TO.P,C8,1*%
%TO.N,Net-(U1-COMP)*%
X97199200Y66014600D03*
D11*
%TO.P,C8,2*%
%TO.N,Net-(C8-Pad2)*%
X95199200Y66014600D03*
%TD*%
D14*
%TO.P,C10,1*%
%TO.N,Net-(U1-CRMA)*%
X101132700Y72186800D03*
D11*
%TO.P,C10,2*%
%TO.N,Net-(C10-Pad2)*%
X99132700Y72186800D03*
%TD*%
D20*
%TO.P,Y1,1,1*%
%TO.N,GND*%
X122936000Y58013600D03*
%TO.P,Y1,2,2*%
%TO.N,Net-(U1-FIN)*%
X118056000Y58013600D03*
%TD*%
D17*
%TO.P,J5,1,Pin_1*%
%TO.N,GND*%
X98639600Y78814200D03*
D18*
%TO.P,J5,2,Pin_2*%
%TO.N,COMP*%
X101179600Y78814200D03*
%TO.P,J5,3,Pin_3*%
%TO.N,CRMA*%
X103719600Y78814200D03*
%TO.P,J5,4,Pin_4*%
%TO.N,LUMA*%
X106259600Y78814200D03*
%TD*%
D21*
%TO.P,J3,1,In*%
%TO.N,COMP*%
X89695800Y72266400D03*
D22*
%TO.P,J3,2,Ext*%
%TO.N,GND*%
X89695800Y76766400D03*
%TD*%
D12*
%TO.P,R6,1*%
%TO.N,CRMA*%
X106984800Y73939400D03*
D13*
%TO.P,R6,2*%
%TO.N,Net-(C10-Pad2)*%
X104444800Y73939400D03*
%TD*%
D17*
%TO.P,J1,1,Pin_1*%
%TO.N,GND*%
X124815600Y52171600D03*
D18*
%TO.P,J1,2,Pin_2*%
%TO.N,VAA*%
X122275600Y52171600D03*
%TO.P,J1,3,Pin_3*%
%TO.N,/sync_in*%
X119735600Y52171600D03*
%TO.P,J1,4,Pin_4*%
%TO.N,/blue_in*%
X117195600Y52171600D03*
%TO.P,J1,5,Pin_5*%
%TO.N,/green_in*%
X114655600Y52171600D03*
%TO.P,J1,6,Pin_6*%
%TO.N,/red_in*%
X112115600Y52171600D03*
%TD*%
D17*
%TO.P,J2,1,Pin_1*%
%TO.N,GND*%
X85140800Y60121800D03*
D18*
%TO.P,J2,2,Pin_2*%
%TO.N,VAA*%
X85140800Y57581800D03*
%TD*%
D23*
%TO.N,GND*%
X101833100Y53192100D02*
X104114600Y55473600D01*
X100507800Y52247800D02*
X101833100Y52247800D01*
X109011200Y60370200D02*
X112852200Y60370200D01*
X83834200Y56800500D02*
X83834200Y58815200D01*
X121081800Y67614800D02*
X121081800Y65354200D01*
X104114600Y55473600D02*
X109011200Y60370200D01*
X87060800Y53573900D02*
X83834200Y56800500D01*
X124815600Y53446900D02*
X122936000Y55326500D01*
X124815600Y52171600D02*
X124815600Y53446900D01*
X121081800Y65354200D02*
X121081800Y63093600D01*
X122936000Y60114100D02*
X121081800Y61968300D01*
X101833100Y52247800D02*
X101833100Y53192100D01*
X83834200Y58815200D02*
X85140800Y60121800D01*
X87060800Y52298600D02*
X87060800Y53573900D01*
X122936000Y55326500D02*
X122936000Y58013600D01*
X121081800Y63093600D02*
X121081800Y61968300D01*
X122936000Y58013600D02*
X122936000Y60114100D01*
D24*
%TO.N,/red_in*%
X113997900Y55229200D02*
X113997900Y61150000D01*
X113997900Y61150000D02*
X112968400Y62179500D01*
X112968400Y62179500D02*
X112968400Y63093600D01*
X112115600Y52171600D02*
X112115600Y53346900D01*
X112115600Y53346900D02*
X113997900Y55229200D01*
%TO.N,/green_in*%
X114168500Y61907400D02*
X114168500Y64204900D01*
X114655600Y52171600D02*
X114655600Y53346900D01*
X114168500Y64204900D02*
X112968400Y65405000D01*
X117436900Y64249300D02*
X114212900Y64249300D01*
X114655600Y61420300D02*
X114168500Y61907400D01*
X114212900Y64249300D02*
X114168500Y64204900D01*
X118541800Y65354200D02*
X117436900Y64249300D01*
X114655600Y53346900D02*
X114655600Y61420300D01*
%TO.N,/blue_in*%
X114124100Y66560700D02*
X112968400Y67716400D01*
X117487700Y66560700D02*
X114124100Y66560700D01*
X119622600Y66534000D02*
X118541800Y67614800D01*
X117195600Y52171600D02*
X117195600Y53346900D01*
X119622600Y55773900D02*
X119622600Y66534000D01*
X118541800Y67614800D02*
X117487700Y66560700D01*
X117195600Y53346900D02*
X119622600Y55773900D01*
%TO.N,VAA*%
X92140800Y52298600D02*
X90965500Y52298600D01*
X120292400Y50996300D02*
X121100300Y51804200D01*
X106614600Y55473600D02*
X111091900Y50996300D01*
X85140800Y57581800D02*
X86316100Y57581800D01*
X90965500Y52932400D02*
X90965500Y52298600D01*
X121542800Y73242100D02*
X115621500Y73242100D01*
X122275600Y52171600D02*
X121100300Y52171600D01*
X86316100Y57581800D02*
X90965500Y52932400D01*
X122722700Y74422000D02*
X121542800Y73242100D01*
X115621500Y73242100D02*
X114492400Y74371200D01*
X121100300Y51804200D02*
X121100300Y52171600D01*
X111091900Y50996300D02*
X120292400Y50996300D01*
%TO.N,Net-(C10-Pad2)*%
X99132700Y72186800D02*
X99132700Y72306700D01*
X100765400Y73939400D02*
X104444800Y73939400D01*
X99132700Y72306700D02*
X100765400Y73939400D01*
%TO.N,COMP*%
X100004300Y78814200D02*
X100004300Y78006200D01*
X89458800Y70004100D02*
X89458800Y65989200D01*
X89695800Y72266400D02*
X89695800Y70241100D01*
X100004300Y78006200D02*
X94264500Y72266400D01*
X101179600Y78814200D02*
X100004300Y78814200D01*
X94264500Y72266400D02*
X89695800Y72266400D01*
X89695800Y70241100D02*
X89458800Y70004100D01*
%TO.N,LUMA*%
X105084300Y78446800D02*
X104276400Y77638900D01*
X93541000Y62324400D02*
X89484200Y58267600D01*
X102988600Y77638900D02*
X93541000Y68191300D01*
X105084300Y78814200D02*
X105084300Y78446800D01*
X106259600Y78814200D02*
X105084300Y78814200D01*
X104276400Y77638900D02*
X102988600Y77638900D01*
X93541000Y68191300D02*
X93541000Y62324400D01*
%TD*%
%TA.AperFunction,Conductor*%
%TO.N,GND*%
G36*
X126596261Y81026073D02*
G01*
X126663288Y81006349D01*
X126709012Y80953519D01*
X126720187Y80901662D01*
X126619408Y50516901D01*
X126599502Y50449927D01*
X126546546Y50404347D01*
X126495699Y50393312D01*
X83334690Y50292291D01*
X83267605Y50311819D01*
X83221727Y50364516D01*
X83210400Y50416291D01*
X83210400Y59223956D01*
X83790800Y59223956D01*
X83797201Y59164428D01*
X83797203Y59164421D01*
X83847445Y59029714D01*
X83847449Y59029707D01*
X83933609Y58914613D01*
X83933612Y58914610D01*
X84048706Y58828450D01*
X84048713Y58828446D01*
X84183420Y58778204D01*
X84183427Y58778202D01*
X84242955Y58771801D01*
X84242972Y58771800D01*
X84643613Y58771800D01*
X84710652Y58752115D01*
X84756407Y58699311D01*
X84766351Y58630153D01*
X84737326Y58566597D01*
X84702067Y58538443D01*
X84554350Y58459485D01*
X84554348Y58459484D01*
X84554347Y58459483D01*
X84394389Y58328211D01*
X84263117Y58168253D01*
X84165569Y57985757D01*
X84105499Y57787733D01*
X84085217Y57581800D01*
X84105499Y57375868D01*
X84132257Y57287660D01*
X84165568Y57177846D01*
X84263115Y56995350D01*
X84297769Y56953123D01*
X84394389Y56835390D01*
X84464454Y56777890D01*
X84554350Y56704115D01*
X84736846Y56606568D01*
X84934866Y56546500D01*
X84934865Y56546500D01*
X84953329Y56544682D01*
X85140800Y56526217D01*
X85346734Y56546500D01*
X85544754Y56606568D01*
X85727250Y56704115D01*
X85887210Y56835390D01*
X86018485Y56995350D01*
X86087270Y57124038D01*
X86136232Y57173882D01*
X86204370Y57189342D01*
X86270050Y57165510D01*
X86284309Y57153265D01*
X89891062Y53546512D01*
X89924547Y53485189D01*
X89919563Y53415497D01*
X89877691Y53359564D01*
X89812227Y53335147D01*
X89791227Y53335428D01*
X89600800Y53354183D01*
X89394867Y53333901D01*
X89196843Y53273831D01*
X89086698Y53214957D01*
X89014350Y53176285D01*
X89014348Y53176284D01*
X89014347Y53176283D01*
X88854389Y53045011D01*
X88733780Y52898046D01*
X88723115Y52885050D01*
X88651687Y52751419D01*
X88644158Y52737333D01*
X88595195Y52687489D01*
X88527057Y52672029D01*
X88461378Y52695861D01*
X88419009Y52751419D01*
X88410800Y52795787D01*
X88410800Y53196428D01*
X88410799Y53196445D01*
X88404398Y53255973D01*
X88404396Y53255980D01*
X88354154Y53390687D01*
X88354150Y53390694D01*
X88267990Y53505788D01*
X88267987Y53505791D01*
X88152893Y53591951D01*
X88152886Y53591955D01*
X88018179Y53642197D01*
X88018172Y53642199D01*
X87958644Y53648600D01*
X87310800Y53648600D01*
X87310800Y52734102D01*
X87203115Y52783280D01*
X87096563Y52798600D01*
X87025037Y52798600D01*
X86918485Y52783280D01*
X86810800Y52734102D01*
X86810800Y53648600D01*
X86162955Y53648600D01*
X86103427Y53642199D01*
X86103420Y53642197D01*
X85968713Y53591955D01*
X85968706Y53591951D01*
X85853612Y53505791D01*
X85853609Y53505788D01*
X85767449Y53390694D01*
X85767445Y53390687D01*
X85717203Y53255980D01*
X85717201Y53255973D01*
X85710800Y53196445D01*
X85710800Y52548600D01*
X86627114Y52548600D01*
X86601307Y52508444D01*
X86560800Y52370489D01*
X86560800Y52226711D01*
X86601307Y52088756D01*
X86627114Y52048600D01*
X85710800Y52048600D01*
X85710800Y51400756D01*
X85717201Y51341228D01*
X85717203Y51341221D01*
X85767445Y51206514D01*
X85767449Y51206507D01*
X85853609Y51091413D01*
X85853612Y51091410D01*
X85968706Y51005250D01*
X85968713Y51005246D01*
X86103420Y50955004D01*
X86103427Y50955002D01*
X86162955Y50948601D01*
X86162972Y50948600D01*
X86810800Y50948600D01*
X86810800Y51863099D01*
X86918485Y51813920D01*
X87025037Y51798600D01*
X87096563Y51798600D01*
X87203115Y51813920D01*
X87310800Y51863099D01*
X87310800Y50948600D01*
X87958628Y50948600D01*
X87958644Y50948601D01*
X88018172Y50955002D01*
X88018179Y50955004D01*
X88152886Y51005246D01*
X88152893Y51005250D01*
X88267987Y51091410D01*
X88267990Y51091413D01*
X88354150Y51206507D01*
X88354154Y51206514D01*
X88404396Y51341221D01*
X88404398Y51341228D01*
X88410799Y51400756D01*
X88410800Y51400773D01*
X88410800Y51801414D01*
X88430485Y51868453D01*
X88483289Y51914208D01*
X88552447Y51924152D01*
X88616003Y51895127D01*
X88644156Y51859871D01*
X88723115Y51712150D01*
X88723117Y51712148D01*
X88854389Y51552190D01*
X88859673Y51547854D01*
X89014350Y51420915D01*
X89196846Y51323368D01*
X89394866Y51263300D01*
X89394865Y51263300D01*
X89413329Y51261482D01*
X89600800Y51243017D01*
X89806734Y51263300D01*
X90004754Y51323368D01*
X90187250Y51420915D01*
X90347210Y51552190D01*
X90478485Y51712150D01*
X90576032Y51894646D01*
X90595473Y51958738D01*
X90633769Y52017174D01*
X90697580Y52045631D01*
X90766648Y52035072D01*
X90793838Y52017731D01*
X90800239Y52012360D01*
X90817226Y52006178D01*
X90836807Y51997046D01*
X90852455Y51988012D01*
X90870247Y51984876D01*
X90891121Y51979283D01*
X90908106Y51973100D01*
X90937025Y51973100D01*
X91050217Y51973100D01*
X91117256Y51953415D01*
X91163011Y51900611D01*
X91164779Y51896551D01*
X91165568Y51894646D01*
X91263115Y51712150D01*
X91263117Y51712148D01*
X91394389Y51552190D01*
X91399673Y51547854D01*
X91554350Y51420915D01*
X91736846Y51323368D01*
X91934866Y51263300D01*
X91934865Y51263300D01*
X91953329Y51261482D01*
X92140800Y51243017D01*
X92346734Y51263300D01*
X92544754Y51323368D01*
X92553510Y51328048D01*
X96867300Y51328048D01*
X96878931Y51269571D01*
X96878932Y51269570D01*
X96923247Y51203248D01*
X96989569Y51158933D01*
X96989570Y51158932D01*
X97048047Y51147301D01*
X97048050Y51147300D01*
X97048052Y51147300D01*
X98887550Y51147300D01*
X98887551Y51147301D01*
X98902368Y51150248D01*
X98946029Y51158932D01*
X98946029Y51158933D01*
X98946031Y51158933D01*
X99012352Y51203248D01*
X99056667Y51269569D01*
X99056667Y51269571D01*
X99056668Y51269571D01*
X99068299Y51328048D01*
X99068300Y51328050D01*
X99068300Y51474953D01*
X99087985Y51541992D01*
X99140789Y51587747D01*
X99209947Y51597691D01*
X99273503Y51568666D01*
X99296109Y51542774D01*
X99399214Y51384958D01*
X99556358Y51214255D01*
X99556362Y51214252D01*
X99739444Y51071753D01*
X99739448Y51071750D01*
X99943497Y50961324D01*
X99943506Y50961321D01*
X100162939Y50885989D01*
X100257799Y50870160D01*
X100257800Y50870161D01*
X100257800Y51873611D01*
X100310347Y51837784D01*
X100439973Y51797800D01*
X100541524Y51797800D01*
X100641938Y51812935D01*
X100757800Y51868732D01*
X100757800Y50870160D01*
X100852660Y50885989D01*
X101072093Y50961321D01*
X101072102Y50961324D01*
X101276151Y51071750D01*
X101276155Y51071753D01*
X101459237Y51214252D01*
X101459241Y51214255D01*
X101616385Y51384958D01*
X101743283Y51579191D01*
X101836482Y51791665D01*
X101888683Y51997800D01*
X100883078Y51997800D01*
X100931425Y52081540D01*
X100961610Y52213792D01*
X100951473Y52349065D01*
X100901913Y52475341D01*
X100884003Y52497800D01*
X101888683Y52497800D01*
X101836482Y52703936D01*
X101743283Y52916410D01*
X101616385Y53110643D01*
X101459241Y53281346D01*
X101459237Y53281349D01*
X101276155Y53423848D01*
X101276151Y53423851D01*
X101072102Y53534277D01*
X101072093Y53534280D01*
X100852661Y53609612D01*
X100757800Y53625441D01*
X100757800Y52621990D01*
X100705253Y52657816D01*
X100575627Y52697800D01*
X100474076Y52697800D01*
X100373662Y52682665D01*
X100257800Y52626869D01*
X100257800Y53625441D01*
X100257799Y53625441D01*
X100162938Y53609612D01*
X99943506Y53534280D01*
X99943497Y53534277D01*
X99739448Y53423851D01*
X99739444Y53423848D01*
X99556362Y53281349D01*
X99556358Y53281346D01*
X99399217Y53110645D01*
X99296109Y52952826D01*
X99242962Y52907470D01*
X99173731Y52898046D01*
X99110395Y52927548D01*
X99073064Y52986608D01*
X99068300Y53020648D01*
X99068300Y53167551D01*
X99068299Y53167553D01*
X99056668Y53226030D01*
X99056667Y53226031D01*
X99012352Y53292353D01*
X98946030Y53336668D01*
X98946029Y53336669D01*
X98887552Y53348300D01*
X98887548Y53348300D01*
X97048052Y53348300D01*
X97048047Y53348300D01*
X96989570Y53336669D01*
X96989569Y53336668D01*
X96923247Y53292353D01*
X96878932Y53226031D01*
X96878931Y53226030D01*
X96867300Y53167553D01*
X96867300Y51328048D01*
X92553510Y51328048D01*
X92727250Y51420915D01*
X92887210Y51552190D01*
X93018485Y51712150D01*
X93116032Y51894646D01*
X93176100Y52092666D01*
X93196383Y52298600D01*
X93176100Y52504534D01*
X93116032Y52702554D01*
X93018485Y52885050D01*
X92921749Y53002924D01*
X92887210Y53045011D01*
X92737890Y53167553D01*
X92727250Y53176285D01*
X92544754Y53273832D01*
X92346734Y53333900D01*
X92346732Y53333901D01*
X92346734Y53333901D01*
X92140800Y53354183D01*
X91934867Y53333901D01*
X91736843Y53273831D01*
X91554346Y53176283D01*
X91427758Y53072396D01*
X91363448Y53045084D01*
X91294580Y53056876D01*
X91247519Y53097127D01*
X91243392Y53103021D01*
X91237580Y53112144D01*
X91218696Y53144852D01*
X91218691Y53144858D01*
X91189755Y53169138D01*
X91181780Y53176446D01*
X88884628Y55473598D01*
X102809634Y55473598D01*
X102829458Y55247001D01*
X102829460Y55246990D01*
X102888330Y55027283D01*
X102888335Y55027269D01*
X102984463Y54821122D01*
X103035574Y54748128D01*
X103716646Y55429200D01*
X103729435Y55348452D01*
X103786959Y55235555D01*
X103876555Y55145959D01*
X103989452Y55088435D01*
X104070199Y55075647D01*
X103389126Y54394575D01*
X103462113Y54343468D01*
X103462121Y54343464D01*
X103668268Y54247336D01*
X103668282Y54247331D01*
X103887989Y54188461D01*
X103888000Y54188459D01*
X104114598Y54168634D01*
X104114602Y54168634D01*
X104341199Y54188459D01*
X104341210Y54188461D01*
X104560917Y54247331D01*
X104560931Y54247336D01*
X104767078Y54343464D01*
X104840071Y54394576D01*
X104159000Y55075647D01*
X104239748Y55088435D01*
X104352645Y55145959D01*
X104442241Y55235555D01*
X104499765Y55348452D01*
X104512553Y55429200D01*
X105193624Y54748129D01*
X105244736Y54821122D01*
X105340864Y55027269D01*
X105340869Y55027283D01*
X105399018Y55244299D01*
X105435383Y55303960D01*
X105498230Y55334489D01*
X105567605Y55326194D01*
X105621483Y55281709D01*
X105637453Y55248202D01*
X105685786Y55088872D01*
X105778686Y54915068D01*
X105778690Y54915061D01*
X105903716Y54762717D01*
X106056060Y54637691D01*
X106056067Y54637687D01*
X106229866Y54544789D01*
X106229869Y54544789D01*
X106229873Y54544786D01*
X106418468Y54487576D01*
X106614600Y54468259D01*
X106810732Y54487576D01*
X106992470Y54542707D01*
X107062337Y54543330D01*
X107116146Y54511728D01*
X108998475Y52629398D01*
X110847855Y50780018D01*
X110855162Y50772044D01*
X110879442Y50743110D01*
X110879445Y50743106D01*
X110912161Y50724218D01*
X110921266Y50718418D01*
X110952216Y50696747D01*
X110952218Y50696747D01*
X110952219Y50696746D01*
X110957068Y50694485D01*
X110973847Y50687535D01*
X110978852Y50685713D01*
X110978853Y50685713D01*
X110978855Y50685712D01*
X111016062Y50679152D01*
X111026601Y50676816D01*
X111063093Y50667037D01*
X111100711Y50670329D01*
X111111518Y50670800D01*
X120272772Y50670800D01*
X120283580Y50670329D01*
X120321207Y50667036D01*
X120357719Y50676821D01*
X120368230Y50679151D01*
X120405445Y50685712D01*
X120405450Y50685716D01*
X120410499Y50687553D01*
X120427224Y50694481D01*
X120432081Y50696746D01*
X120432084Y50696746D01*
X120463025Y50718413D01*
X120472144Y50724221D01*
X120504855Y50743106D01*
X120504857Y50743108D01*
X120529136Y50772044D01*
X120536436Y50780012D01*
X121275779Y51519355D01*
X121337100Y51552838D01*
X121406792Y51547854D01*
X121459311Y51510337D01*
X121529189Y51425191D01*
X121529190Y51425190D01*
X121689150Y51293915D01*
X121871646Y51196368D01*
X122069666Y51136300D01*
X122069665Y51136300D01*
X122088129Y51134482D01*
X122275600Y51116017D01*
X122481534Y51136300D01*
X122679554Y51196368D01*
X122862050Y51293915D01*
X123022010Y51425190D01*
X123153285Y51585150D01*
X123232243Y51732870D01*
X123281205Y51782712D01*
X123349342Y51798172D01*
X123415022Y51774340D01*
X123457391Y51718782D01*
X123465600Y51674414D01*
X123465600Y51273756D01*
X123472001Y51214228D01*
X123472003Y51214221D01*
X123522245Y51079514D01*
X123522249Y51079507D01*
X123608409Y50964413D01*
X123608412Y50964410D01*
X123723506Y50878250D01*
X123723513Y50878246D01*
X123858220Y50828004D01*
X123858227Y50828002D01*
X123917755Y50821601D01*
X123917772Y50821600D01*
X124565600Y50821600D01*
X124565600Y51736099D01*
X124673285Y51686920D01*
X124779837Y51671600D01*
X124851363Y51671600D01*
X124957915Y51686920D01*
X125065600Y51736099D01*
X125065600Y50821600D01*
X125713428Y50821600D01*
X125713444Y50821601D01*
X125772972Y50828002D01*
X125772979Y50828004D01*
X125907686Y50878246D01*
X125907693Y50878250D01*
X126022787Y50964410D01*
X126022790Y50964413D01*
X126108950Y51079507D01*
X126108954Y51079514D01*
X126159196Y51214221D01*
X126159198Y51214228D01*
X126165599Y51273756D01*
X126165600Y51273773D01*
X126165600Y51921600D01*
X125249286Y51921600D01*
X125275093Y51961756D01*
X125315600Y52099711D01*
X125315600Y52243489D01*
X125275093Y52381444D01*
X125249286Y52421600D01*
X126165600Y52421600D01*
X126165600Y53069428D01*
X126165599Y53069445D01*
X126159198Y53128973D01*
X126159196Y53128980D01*
X126108954Y53263687D01*
X126108950Y53263694D01*
X126022790Y53378788D01*
X126022787Y53378791D01*
X125907693Y53464951D01*
X125907686Y53464955D01*
X125772979Y53515197D01*
X125772972Y53515199D01*
X125713444Y53521600D01*
X125065600Y53521600D01*
X125065600Y52607102D01*
X124957915Y52656280D01*
X124851363Y52671600D01*
X124779837Y52671600D01*
X124673285Y52656280D01*
X124565600Y52607102D01*
X124565600Y53521600D01*
X123917755Y53521600D01*
X123858227Y53515199D01*
X123858220Y53515197D01*
X123723513Y53464955D01*
X123723506Y53464951D01*
X123608412Y53378791D01*
X123608409Y53378788D01*
X123522249Y53263694D01*
X123522245Y53263687D01*
X123472003Y53128980D01*
X123472001Y53128973D01*
X123465600Y53069445D01*
X123465600Y52668787D01*
X123445915Y52601748D01*
X123393111Y52555993D01*
X123323953Y52546049D01*
X123260397Y52575074D01*
X123232242Y52610333D01*
X123225040Y52623807D01*
X123153285Y52758050D01*
X123101302Y52821391D01*
X123022010Y52918011D01*
X122862052Y53049283D01*
X122862053Y53049283D01*
X122862050Y53049285D01*
X122679554Y53146832D01*
X122481534Y53206900D01*
X122481532Y53206901D01*
X122481534Y53206901D01*
X122275600Y53227183D01*
X122069667Y53206901D01*
X121894292Y53153702D01*
X121880076Y53149389D01*
X121871643Y53146831D01*
X121797977Y53107455D01*
X121689150Y53049285D01*
X121689148Y53049284D01*
X121689147Y53049283D01*
X121529189Y52918011D01*
X121397917Y52758053D01*
X121397915Y52758050D01*
X121364674Y52695861D01*
X121300368Y52575555D01*
X121299579Y52573649D01*
X121298898Y52572804D01*
X121297496Y52570181D01*
X121296998Y52570447D01*
X121255738Y52519245D01*
X121189444Y52497179D01*
X121185017Y52497100D01*
X121042905Y52497100D01*
X121025909Y52490916D01*
X121005052Y52485328D01*
X120987258Y52482190D01*
X120987255Y52482188D01*
X120971604Y52473153D01*
X120952026Y52464024D01*
X120935044Y52457843D01*
X120935038Y52457839D01*
X120928632Y52452464D01*
X120864622Y52424456D01*
X120795631Y52435500D01*
X120743563Y52482090D01*
X120730274Y52511459D01*
X120710832Y52575554D01*
X120613285Y52758050D01*
X120561302Y52821391D01*
X120482010Y52918011D01*
X120322052Y53049283D01*
X120322053Y53049283D01*
X120322050Y53049285D01*
X120139554Y53146832D01*
X119941534Y53206900D01*
X119941532Y53206901D01*
X119941534Y53206901D01*
X119735600Y53227183D01*
X119529667Y53206901D01*
X119354292Y53153702D01*
X119340076Y53149389D01*
X119331643Y53146831D01*
X119257977Y53107455D01*
X119149150Y53049285D01*
X119149148Y53049284D01*
X119149147Y53049283D01*
X118989189Y52918011D01*
X118857917Y52758053D01*
X118857915Y52758050D01*
X118839475Y52723552D01*
X118760369Y52575557D01*
X118700299Y52377533D01*
X118680017Y52171600D01*
X118700299Y51965668D01*
X118721843Y51894646D01*
X118760368Y51767646D01*
X118857915Y51585150D01*
X118871443Y51568666D01*
X118907718Y51524464D01*
X118935030Y51460154D01*
X118923239Y51391287D01*
X118876086Y51339727D01*
X118811864Y51321800D01*
X118119336Y51321800D01*
X118052297Y51341485D01*
X118006542Y51394289D01*
X117996598Y51463447D01*
X118023482Y51524464D01*
X118042677Y51547854D01*
X118073285Y51585150D01*
X118170832Y51767646D01*
X118230900Y51965666D01*
X118251183Y52171600D01*
X118230900Y52377534D01*
X118170832Y52575554D01*
X118073285Y52758050D01*
X118021302Y52821391D01*
X117942010Y52918011D01*
X117782052Y53049283D01*
X117782053Y53049283D01*
X117782050Y53049285D01*
X117653362Y53118071D01*
X117603518Y53167034D01*
X117588058Y53235172D01*
X117611890Y53300851D01*
X117624128Y53315103D01*
X119838896Y55529871D01*
X119846849Y55537159D01*
X119875794Y55561445D01*
X119894682Y55594162D01*
X119900481Y55603265D01*
X119922154Y55634216D01*
X119922154Y55634219D01*
X119924419Y55639076D01*
X119931347Y55655801D01*
X119933187Y55660854D01*
X119933188Y55660855D01*
X119939750Y55698078D01*
X119942079Y55708584D01*
X119951863Y55745093D01*
X119948572Y55782712D01*
X119948100Y55793520D01*
X119948100Y58013600D01*
X121681225Y58013600D01*
X121700287Y57795716D01*
X121700289Y57795706D01*
X121756894Y57584450D01*
X121756898Y57584441D01*
X121849333Y57386213D01*
X121892874Y57324029D01*
X122538046Y57969201D01*
X122550835Y57888452D01*
X122608359Y57775555D01*
X122697955Y57685959D01*
X122810852Y57628435D01*
X122891599Y57615647D01*
X122246427Y56970476D01*
X122308612Y56926934D01*
X122506840Y56834499D01*
X122506849Y56834495D01*
X122718105Y56777890D01*
X122718115Y56777888D01*
X122935999Y56758825D01*
X122936001Y56758825D01*
X123153884Y56777888D01*
X123153894Y56777890D01*
X123365150Y56834495D01*
X123365164Y56834500D01*
X123563383Y56926931D01*
X123563385Y56926932D01*
X123625571Y56970476D01*
X122980401Y57615647D01*
X123061148Y57628435D01*
X123174045Y57685959D01*
X123263641Y57775555D01*
X123321165Y57888452D01*
X123333953Y57969200D01*
X123979124Y57324030D01*
X124022668Y57386215D01*
X124022669Y57386217D01*
X124115100Y57584436D01*
X124115105Y57584450D01*
X124171710Y57795706D01*
X124171712Y57795716D01*
X124190775Y58013600D01*
X124190775Y58013601D01*
X124171712Y58231485D01*
X124171710Y58231495D01*
X124115105Y58442751D01*
X124115101Y58442760D01*
X124022667Y58640986D01*
X124022666Y58640988D01*
X123979124Y58703172D01*
X123979124Y58703173D01*
X123333953Y58058002D01*
X123321165Y58138748D01*
X123263641Y58251645D01*
X123174045Y58341241D01*
X123061148Y58398765D01*
X122980400Y58411554D01*
X123625571Y59056726D01*
X123563387Y59100267D01*
X123365159Y59192702D01*
X123365150Y59192706D01*
X123153894Y59249311D01*
X123153884Y59249313D01*
X122936001Y59268375D01*
X122935999Y59268375D01*
X122718115Y59249313D01*
X122718105Y59249311D01*
X122506849Y59192706D01*
X122506840Y59192702D01*
X122308613Y59100267D01*
X122246428Y59056726D01*
X122891600Y58411554D01*
X122810852Y58398765D01*
X122697955Y58341241D01*
X122608359Y58251645D01*
X122550835Y58138748D01*
X122538046Y58058000D01*
X121892874Y58703172D01*
X121849333Y58640987D01*
X121756898Y58442760D01*
X121756894Y58442751D01*
X121700289Y58231495D01*
X121700287Y58231485D01*
X121681225Y58013601D01*
X121681225Y58013600D01*
X119948100Y58013600D01*
X119948100Y62233640D01*
X119967785Y62300679D01*
X120020589Y62346434D01*
X120089747Y62356378D01*
X120153303Y62327353D01*
X120171055Y62308366D01*
X120191192Y62281700D01*
X120355538Y62131879D01*
X120544620Y62014803D01*
X120544622Y62014802D01*
X120751995Y61934465D01*
X120831800Y61919548D01*
X120831800Y62844662D01*
X120912915Y62781528D01*
X121023395Y62743600D01*
X121110805Y62743600D01*
X121197016Y62757986D01*
X121299747Y62813581D01*
X121327381Y62843600D01*
X121331800Y62843600D01*
X121331800Y61919548D01*
X121411604Y61934465D01*
X121618977Y62014802D01*
X121618979Y62014803D01*
X121808061Y62131879D01*
X121972408Y62281700D01*
X122106431Y62459175D01*
X122205560Y62658251D01*
X122258295Y62843600D01*
X121331800Y62843600D01*
X121327381Y62843600D01*
X121378860Y62899521D01*
X121425782Y63006492D01*
X121435428Y63122902D01*
X121406753Y63236138D01*
X121342864Y63333927D01*
X121250685Y63405672D01*
X121140205Y63443600D01*
X121052795Y63443600D01*
X120966584Y63429214D01*
X120863853Y63373619D01*
X120831800Y63338801D01*
X120831800Y65105262D01*
X120912915Y65042128D01*
X121023395Y65004200D01*
X121110805Y65004200D01*
X121197016Y65018586D01*
X121299747Y65074181D01*
X121331800Y65109000D01*
X121331800Y63343600D01*
X122258295Y63343600D01*
X122205560Y63528950D01*
X122106431Y63728026D01*
X121972408Y63905501D01*
X121808061Y64055322D01*
X121706069Y64118473D01*
X121659434Y64170501D01*
X121648330Y64239483D01*
X121676283Y64303517D01*
X121706069Y64329327D01*
X121808061Y64392479D01*
X121972408Y64542300D01*
X122106431Y64719775D01*
X122208117Y64923985D01*
X122209722Y64923186D01*
X122247276Y64972076D01*
X122313038Y64995679D01*
X122381121Y64979982D01*
X122429910Y64929967D01*
X122436530Y64915229D01*
X122452628Y64872070D01*
X122452633Y64872058D01*
X122586340Y64627193D01*
X122586345Y64627185D01*
X122753538Y64403840D01*
X122753554Y64403822D01*
X122950821Y64206555D01*
X122950839Y64206539D01*
X123174184Y64039346D01*
X123174192Y64039341D01*
X123419057Y63905634D01*
X123419061Y63905632D01*
X123419063Y63905631D01*
X123680477Y63808129D01*
X123789511Y63784410D01*
X123953100Y63748823D01*
X123953102Y63748823D01*
X123953106Y63748822D01*
X124200414Y63731135D01*
X124231399Y63728918D01*
X124231400Y63728918D01*
X124231401Y63728918D01*
X124259281Y63730913D01*
X124509694Y63748822D01*
X124516227Y63750243D01*
X124590903Y63766488D01*
X124782323Y63808129D01*
X125043737Y63905631D01*
X125288613Y64039344D01*
X125511968Y64206545D01*
X125709255Y64403832D01*
X125876456Y64627187D01*
X126010169Y64872063D01*
X126107671Y65133477D01*
X126159101Y65369898D01*
X126166977Y65406101D01*
X126166977Y65406102D01*
X126166978Y65406106D01*
X126186753Y65682591D01*
X126186882Y65684399D01*
X126186882Y65684402D01*
X126179348Y65789734D01*
X126166978Y65962694D01*
X126166795Y65963533D01*
X126128531Y66139433D01*
X126107671Y66235323D01*
X126010169Y66496737D01*
X126000538Y66514374D01*
X125876459Y66741608D01*
X125876454Y66741616D01*
X125709261Y66964961D01*
X125709245Y66964979D01*
X125511978Y67162246D01*
X125511960Y67162262D01*
X125288615Y67329455D01*
X125288607Y67329460D01*
X125043742Y67463167D01*
X125043738Y67463169D01*
X124890648Y67520268D01*
X124782323Y67560671D01*
X124782319Y67560672D01*
X124782316Y67560673D01*
X124509699Y67619978D01*
X124231401Y67639882D01*
X124231399Y67639882D01*
X123953100Y67619978D01*
X123680483Y67560673D01*
X123680478Y67560672D01*
X123680477Y67560671D01*
X123617275Y67537099D01*
X123419061Y67463169D01*
X123419057Y67463167D01*
X123174192Y67329460D01*
X123174184Y67329455D01*
X122950839Y67162262D01*
X122950821Y67162246D01*
X122753554Y66964979D01*
X122753538Y66964961D01*
X122586345Y66741616D01*
X122586340Y66741608D01*
X122452633Y66496743D01*
X122452631Y66496739D01*
X122355127Y66235318D01*
X122315242Y66051970D01*
X122281757Y65990647D01*
X122220434Y65957163D01*
X122150742Y65962147D01*
X122095122Y66003602D01*
X121972408Y66166101D01*
X121808061Y66315922D01*
X121706069Y66379073D01*
X121659434Y66431101D01*
X121648330Y66500083D01*
X121676283Y66564117D01*
X121706069Y66589927D01*
X121808061Y66653079D01*
X121972408Y66802900D01*
X122106431Y66980375D01*
X122205560Y67179451D01*
X122258295Y67364800D01*
X121331800Y67364800D01*
X121331800Y65603139D01*
X121250685Y65666272D01*
X121140205Y65704200D01*
X121052795Y65704200D01*
X120966584Y65689814D01*
X120863853Y65634219D01*
X120831800Y65599401D01*
X120831800Y67364800D01*
X119905305Y67364800D01*
X119958039Y67179451D01*
X120057168Y66980375D01*
X120191191Y66802900D01*
X120355538Y66653079D01*
X120457530Y66589927D01*
X120504165Y66537899D01*
X120515269Y66468917D01*
X120487316Y66404883D01*
X120457530Y66379073D01*
X120355538Y66315922D01*
X120191193Y66166103D01*
X120171054Y66139433D01*
X120114944Y66097798D01*
X120045232Y66093107D01*
X119984051Y66126850D01*
X119950824Y66188313D01*
X119948100Y66214161D01*
X119948100Y66514374D01*
X119948572Y66525183D01*
X119951864Y66562807D01*
X119949097Y66573133D01*
X119942078Y66599325D01*
X119939750Y66609827D01*
X119933188Y66647045D01*
X119933185Y66647051D01*
X119931360Y66652067D01*
X119924420Y66668824D01*
X119922154Y66673681D01*
X119922154Y66673684D01*
X119900492Y66704621D01*
X119894680Y66713744D01*
X119875796Y66746452D01*
X119875791Y66746458D01*
X119846855Y66770738D01*
X119838880Y66778046D01*
X119423060Y67193866D01*
X119389575Y67255189D01*
X119392810Y67319865D01*
X119427474Y67426544D01*
X119444180Y67585498D01*
X120728172Y67585498D01*
X120756847Y67472262D01*
X120820736Y67374473D01*
X120912915Y67302728D01*
X121023395Y67264800D01*
X121110805Y67264800D01*
X121197016Y67279186D01*
X121299747Y67334781D01*
X121378860Y67420721D01*
X121425782Y67527692D01*
X121435428Y67644102D01*
X121406753Y67757338D01*
X121342864Y67855127D01*
X121250685Y67926872D01*
X121140205Y67964800D01*
X121052795Y67964800D01*
X120966584Y67950414D01*
X120863853Y67894819D01*
X120784740Y67808879D01*
X120737818Y67701908D01*
X120728172Y67585498D01*
X119444180Y67585498D01*
X119447260Y67614800D01*
X119427474Y67803056D01*
X119407412Y67864800D01*
X119905305Y67864800D01*
X120831800Y67864800D01*
X120831800Y68788854D01*
X121331800Y68788854D01*
X121331800Y67864800D01*
X122258295Y67864800D01*
X122205560Y68050150D01*
X122106431Y68249226D01*
X121972408Y68426701D01*
X121808061Y68576522D01*
X121618979Y68693598D01*
X121618977Y68693599D01*
X121411599Y68773936D01*
X121331800Y68788854D01*
X120831800Y68788854D01*
X120752000Y68773936D01*
X120544622Y68693599D01*
X120544620Y68693598D01*
X120355538Y68576522D01*
X120191191Y68426701D01*
X120057168Y68249226D01*
X119958039Y68050150D01*
X119905305Y67864800D01*
X119407412Y67864800D01*
X119368979Y67983084D01*
X119274333Y68147016D01*
X119147671Y68287688D01*
X119147670Y68287689D01*
X118994534Y68398949D01*
X118994529Y68398952D01*
X118821607Y68475943D01*
X118821602Y68475945D01*
X118675801Y68506935D01*
X118636446Y68515300D01*
X118447154Y68515300D01*
X118414697Y68508402D01*
X118261997Y68475945D01*
X118261992Y68475943D01*
X118089070Y68398952D01*
X118089065Y68398949D01*
X117935929Y68287689D01*
X117809266Y68147015D01*
X117714621Y67983085D01*
X117714618Y67983078D01*
X117658018Y67808879D01*
X117656126Y67803056D01*
X117636340Y67614800D01*
X117656126Y67426544D01*
X117656127Y67426541D01*
X117690788Y67319865D01*
X117692783Y67250024D01*
X117660538Y67193866D01*
X117389191Y66922518D01*
X117327871Y66889034D01*
X117301512Y66886200D01*
X116343539Y66886200D01*
X116276500Y66905885D01*
X116230745Y66958689D01*
X116220801Y67027847D01*
X116247686Y67088865D01*
X116304309Y67157861D01*
X116304313Y67157868D01*
X116315850Y67179451D01*
X116381743Y67302728D01*
X116397211Y67331667D01*
X116397211Y67331668D01*
X116397214Y67331673D01*
X116454424Y67520268D01*
X116473741Y67716400D01*
X116454424Y67912532D01*
X116397214Y68101127D01*
X116397211Y68101131D01*
X116397211Y68101134D01*
X116304313Y68274933D01*
X116304309Y68274940D01*
X116179283Y68427284D01*
X116026939Y68552310D01*
X116026932Y68552314D01*
X115853133Y68645212D01*
X115853127Y68645214D01*
X115664532Y68702424D01*
X115664529Y68702425D01*
X115468400Y68721741D01*
X115272270Y68702425D01*
X115083666Y68645212D01*
X114909867Y68552314D01*
X114909860Y68552310D01*
X114757516Y68427284D01*
X114632490Y68274940D01*
X114632486Y68274933D01*
X114539588Y68101134D01*
X114482375Y67912530D01*
X114463059Y67716400D01*
X114482375Y67520271D01*
X114539588Y67331667D01*
X114632486Y67157868D01*
X114632490Y67157861D01*
X114689114Y67088865D01*
X114716427Y67024555D01*
X114704636Y66955687D01*
X114657484Y66904127D01*
X114593261Y66886200D01*
X114310288Y66886200D01*
X114243249Y66905885D01*
X114222607Y66922519D01*
X113930273Y67214853D01*
X113896788Y67276176D01*
X113899294Y67338530D01*
X113910197Y67374473D01*
X113954424Y67520268D01*
X113973741Y67716400D01*
X113954424Y67912532D01*
X113897214Y68101127D01*
X113897211Y68101131D01*
X113897211Y68101134D01*
X113804313Y68274933D01*
X113804309Y68274940D01*
X113679283Y68427284D01*
X113526939Y68552310D01*
X113526932Y68552314D01*
X113353133Y68645212D01*
X113353127Y68645214D01*
X113164532Y68702424D01*
X113164529Y68702425D01*
X112968400Y68721741D01*
X112772270Y68702425D01*
X112583666Y68645212D01*
X112409867Y68552314D01*
X112409860Y68552310D01*
X112257516Y68427284D01*
X112132490Y68274940D01*
X112132486Y68274933D01*
X112039588Y68101134D01*
X111982375Y67912530D01*
X111963059Y67716400D01*
X111982375Y67520271D01*
X112039588Y67331667D01*
X112132486Y67157868D01*
X112132490Y67157861D01*
X112257516Y67005517D01*
X112409860Y66880491D01*
X112409867Y66880487D01*
X112583666Y66787589D01*
X112583669Y66787589D01*
X112583673Y66787586D01*
X112772268Y66730376D01*
X112968400Y66711059D01*
X113164532Y66730376D01*
X113346270Y66785507D01*
X113416137Y66786130D01*
X113469947Y66754527D01*
X113880050Y66344424D01*
X113887357Y66336450D01*
X113911641Y66307510D01*
X113911643Y66307509D01*
X113911645Y66307506D01*
X113911647Y66307505D01*
X113911648Y66307504D01*
X113944356Y66288620D01*
X113953479Y66282808D01*
X113984416Y66261146D01*
X113984419Y66261146D01*
X113989276Y66258880D01*
X114006033Y66251940D01*
X114011053Y66250113D01*
X114011055Y66250112D01*
X114048243Y66243555D01*
X114058806Y66241213D01*
X114095293Y66231436D01*
X114132923Y66234729D01*
X114143730Y66235200D01*
X114593261Y66235200D01*
X114660300Y66215515D01*
X114706055Y66162711D01*
X114715999Y66093553D01*
X114689114Y66032535D01*
X114632490Y65963540D01*
X114632486Y65963533D01*
X114539588Y65789734D01*
X114482375Y65601130D01*
X114463059Y65405000D01*
X114482375Y65208871D01*
X114494277Y65169636D01*
X114538374Y65024267D01*
X114539588Y65020267D01*
X114632486Y64846468D01*
X114632490Y64846461D01*
X114689114Y64777465D01*
X114716427Y64713155D01*
X114704636Y64644287D01*
X114657484Y64592727D01*
X114593261Y64574800D01*
X114310288Y64574800D01*
X114243249Y64594485D01*
X114222607Y64611119D01*
X113930273Y64903453D01*
X113896788Y64964776D01*
X113899294Y65027130D01*
X113914938Y65078701D01*
X113954424Y65208868D01*
X113973741Y65405000D01*
X113954424Y65601132D01*
X113897214Y65789727D01*
X113897211Y65789731D01*
X113897211Y65789734D01*
X113804313Y65963533D01*
X113804309Y65963540D01*
X113679283Y66115884D01*
X113526939Y66240910D01*
X113526932Y66240914D01*
X113353133Y66333812D01*
X113353127Y66333814D01*
X113164532Y66391024D01*
X113164529Y66391025D01*
X112968400Y66410341D01*
X112772270Y66391025D01*
X112583666Y66333812D01*
X112409867Y66240914D01*
X112409860Y66240910D01*
X112257516Y66115884D01*
X112132490Y65963540D01*
X112132486Y65963533D01*
X112039588Y65789734D01*
X111982375Y65601130D01*
X111963059Y65405000D01*
X111982375Y65208871D01*
X111994277Y65169636D01*
X112038374Y65024267D01*
X112039588Y65020267D01*
X112132486Y64846468D01*
X112132490Y64846461D01*
X112257516Y64694117D01*
X112409860Y64569091D01*
X112409867Y64569087D01*
X112583666Y64476189D01*
X112583669Y64476189D01*
X112583673Y64476186D01*
X112772268Y64418976D01*
X112968400Y64399659D01*
X113164532Y64418976D01*
X113346270Y64474107D01*
X113416137Y64474730D01*
X113469947Y64443127D01*
X113806681Y64106393D01*
X113840166Y64045070D01*
X113843000Y64018712D01*
X113843000Y63932301D01*
X113823315Y63865262D01*
X113770511Y63819507D01*
X113701353Y63809563D01*
X113640335Y63836448D01*
X113526939Y63929510D01*
X113526932Y63929514D01*
X113353133Y64022412D01*
X113353127Y64022414D01*
X113178549Y64075372D01*
X113164529Y64079625D01*
X112968400Y64098941D01*
X112772270Y64079625D01*
X112583666Y64022412D01*
X112409867Y63929514D01*
X112409860Y63929510D01*
X112257516Y63804484D01*
X112132490Y63652140D01*
X112132486Y63652133D01*
X112039588Y63478334D01*
X111982375Y63289730D01*
X111963059Y63093600D01*
X111982375Y62897471D01*
X111982572Y62896823D01*
X112028325Y62745994D01*
X112039588Y62708867D01*
X112132486Y62535068D01*
X112132490Y62535061D01*
X112257516Y62382717D01*
X112409860Y62257691D01*
X112409867Y62257687D01*
X112589045Y62161914D01*
X112588270Y62160465D01*
X112636504Y62121593D01*
X112656760Y62072417D01*
X112657811Y62066457D01*
X112659635Y62061445D01*
X112666597Y62044639D01*
X112668846Y62039816D01*
X112690504Y62008884D01*
X112696314Y61999766D01*
X112715206Y61967045D01*
X112744143Y61942764D01*
X112752118Y61935456D01*
X112811486Y61876088D01*
X112844971Y61814765D01*
X112839987Y61745073D01*
X112798115Y61689140D01*
X112734613Y61664879D01*
X112625599Y61655342D01*
X112625589Y61655340D01*
X112405882Y61596470D01*
X112405873Y61596466D01*
X112199716Y61500334D01*
X112199712Y61500332D01*
X112126726Y61449227D01*
X112126726Y61449226D01*
X112807799Y60768154D01*
X112727052Y60755365D01*
X112614155Y60697841D01*
X112524559Y60608245D01*
X112467035Y60495348D01*
X112454246Y60414602D01*
X111773174Y61095674D01*
X111773173Y61095674D01*
X111722068Y61022688D01*
X111722066Y61022684D01*
X111625934Y60816527D01*
X111625930Y60816518D01*
X111567060Y60596811D01*
X111567058Y60596800D01*
X111547234Y60370203D01*
X111547234Y60370198D01*
X111567058Y60143601D01*
X111567060Y60143590D01*
X111625930Y59923883D01*
X111625935Y59923869D01*
X111722063Y59717722D01*
X111773174Y59644728D01*
X112454246Y60325800D01*
X112467035Y60245052D01*
X112524559Y60132155D01*
X112614155Y60042559D01*
X112727052Y59985035D01*
X112807797Y59972247D01*
X112126726Y59291175D01*
X112199713Y59240068D01*
X112199721Y59240064D01*
X112405868Y59143936D01*
X112405882Y59143931D01*
X112622898Y59085782D01*
X112682559Y59049417D01*
X112713088Y58986570D01*
X112704793Y58917195D01*
X112660308Y58863317D01*
X112626801Y58847347D01*
X112467471Y58799014D01*
X112293667Y58706114D01*
X112293660Y58706110D01*
X112141316Y58581084D01*
X112016290Y58428740D01*
X112016286Y58428733D01*
X111923388Y58254934D01*
X111866175Y58066330D01*
X111846859Y57870200D01*
X111866175Y57674071D01*
X111866176Y57674068D01*
X111893361Y57584450D01*
X111923388Y57485467D01*
X112016286Y57311668D01*
X112016290Y57311661D01*
X112141316Y57159317D01*
X112293660Y57034291D01*
X112293667Y57034287D01*
X112467466Y56941389D01*
X112467469Y56941389D01*
X112467473Y56941386D01*
X112656068Y56884176D01*
X112852200Y56864859D01*
X113048332Y56884176D01*
X113236927Y56941386D01*
X113410738Y57034290D01*
X113469736Y57082710D01*
X113534044Y57110021D01*
X113602912Y57098230D01*
X113654472Y57051079D01*
X113672400Y56986855D01*
X113672400Y55415389D01*
X113652715Y55348350D01*
X113636081Y55327708D01*
X111899315Y53590943D01*
X111891342Y53583636D01*
X111862405Y53559355D01*
X111843514Y53526636D01*
X111837705Y53517519D01*
X111816046Y53486587D01*
X111813806Y53481783D01*
X111806829Y53464939D01*
X111805010Y53459940D01*
X111798452Y53422752D01*
X111796112Y53412197D01*
X111786335Y53375709D01*
X111786335Y53375708D01*
X111789628Y53338083D01*
X111790100Y53327274D01*
X111790100Y53262183D01*
X111770415Y53195144D01*
X111717611Y53149389D01*
X111713551Y53147621D01*
X111711645Y53146832D01*
X111637977Y53107455D01*
X111529150Y53049285D01*
X111529148Y53049284D01*
X111529147Y53049283D01*
X111369189Y52918011D01*
X111237917Y52758053D01*
X111237915Y52758050D01*
X111219475Y52723552D01*
X111140369Y52575557D01*
X111080299Y52377533D01*
X111060017Y52171600D01*
X111080299Y51965668D01*
X111140369Y51767642D01*
X111159100Y51732600D01*
X111173342Y51664198D01*
X111148342Y51598954D01*
X111092037Y51557583D01*
X111022304Y51553221D01*
X110962061Y51586466D01*
X107576473Y54972053D01*
X107542988Y55033376D01*
X107545494Y55095730D01*
X107551690Y55116155D01*
X107600624Y55277468D01*
X107619941Y55473600D01*
X107600624Y55669732D01*
X107543414Y55858327D01*
X107543411Y55858331D01*
X107543411Y55858334D01*
X107450513Y56032133D01*
X107450509Y56032140D01*
X107325483Y56184484D01*
X107173139Y56309510D01*
X107173132Y56309514D01*
X106999333Y56402412D01*
X106999327Y56402414D01*
X106810732Y56459624D01*
X106810729Y56459625D01*
X106614600Y56478941D01*
X106418470Y56459625D01*
X106229866Y56402412D01*
X106056067Y56309514D01*
X106056060Y56309510D01*
X105903716Y56184484D01*
X105778690Y56032140D01*
X105778686Y56032133D01*
X105685786Y55858329D01*
X105637453Y55698999D01*
X105599156Y55640561D01*
X105535343Y55612104D01*
X105466276Y55622665D01*
X105413883Y55668890D01*
X105399018Y55702902D01*
X105340869Y55919918D01*
X105340864Y55919932D01*
X105244736Y56126079D01*
X105244732Y56126087D01*
X105193625Y56199074D01*
X104512553Y55518002D01*
X104499765Y55598748D01*
X104442241Y55711645D01*
X104352645Y55801241D01*
X104239748Y55858765D01*
X104159001Y55871554D01*
X104840072Y56552626D01*
X104767078Y56603737D01*
X104560931Y56699865D01*
X104560917Y56699870D01*
X104341210Y56758740D01*
X104341199Y56758742D01*
X104114602Y56778566D01*
X104114598Y56778566D01*
X103888000Y56758742D01*
X103887989Y56758740D01*
X103668282Y56699870D01*
X103668273Y56699866D01*
X103462116Y56603734D01*
X103462112Y56603732D01*
X103389126Y56552627D01*
X103389126Y56552626D01*
X104070199Y55871554D01*
X103989452Y55858765D01*
X103876555Y55801241D01*
X103786959Y55711645D01*
X103729435Y55598748D01*
X103716646Y55518002D01*
X103035574Y56199074D01*
X103035573Y56199074D01*
X102984468Y56126088D01*
X102984466Y56126084D01*
X102888334Y55919927D01*
X102888330Y55919918D01*
X102829460Y55700211D01*
X102829458Y55700200D01*
X102809634Y55473603D01*
X102809634Y55473598D01*
X88884628Y55473598D01*
X86560144Y57798082D01*
X86552834Y57806059D01*
X86528556Y57834993D01*
X86528555Y57834994D01*
X86495834Y57853886D01*
X86486716Y57859696D01*
X86455784Y57881354D01*
X86450961Y57883603D01*
X86434155Y57890565D01*
X86429142Y57892389D01*
X86391952Y57898948D01*
X86381398Y57901288D01*
X86344908Y57911065D01*
X86307281Y57907772D01*
X86296472Y57907300D01*
X86231383Y57907300D01*
X86164344Y57926985D01*
X86118589Y57979789D01*
X86116821Y57983849D01*
X86116033Y57985749D01*
X86116032Y57985754D01*
X86018485Y58168250D01*
X85950045Y58251645D01*
X85936951Y58267600D01*
X88578740Y58267600D01*
X88598526Y58079344D01*
X88598527Y58079341D01*
X88657018Y57899323D01*
X88657021Y57899316D01*
X88751667Y57735384D01*
X88819501Y57660047D01*
X88878329Y57594712D01*
X89031465Y57483452D01*
X89031470Y57483449D01*
X89204392Y57406458D01*
X89204397Y57406456D01*
X89389554Y57367100D01*
X89389555Y57367100D01*
X89578844Y57367100D01*
X89578846Y57367100D01*
X89764003Y57406456D01*
X89936930Y57483449D01*
X90090071Y57594712D01*
X90216733Y57735384D01*
X90311379Y57899316D01*
X90369874Y58079344D01*
X90389660Y58267600D01*
X91118740Y58267600D01*
X91138526Y58079344D01*
X91138527Y58079341D01*
X91197018Y57899323D01*
X91197021Y57899316D01*
X91291667Y57735384D01*
X91359501Y57660047D01*
X91418329Y57594712D01*
X91571465Y57483452D01*
X91571470Y57483449D01*
X91744392Y57406458D01*
X91744397Y57406456D01*
X91929554Y57367100D01*
X91929555Y57367100D01*
X92118844Y57367100D01*
X92118846Y57367100D01*
X92304003Y57406456D01*
X92476930Y57483449D01*
X92630071Y57594712D01*
X92756733Y57735384D01*
X92851379Y57899316D01*
X92909874Y58079344D01*
X92929660Y58267600D01*
X92926990Y58293000D01*
X94320859Y58293000D01*
X94340175Y58096871D01*
X94340176Y58096868D01*
X94396539Y57911064D01*
X94397388Y57908267D01*
X94490286Y57734468D01*
X94490290Y57734461D01*
X94615316Y57582117D01*
X94767660Y57457091D01*
X94767667Y57457087D01*
X94941466Y57364189D01*
X94941469Y57364189D01*
X94941473Y57364186D01*
X95130068Y57306976D01*
X95326200Y57287659D01*
X95522332Y57306976D01*
X95710927Y57364186D01*
X95732783Y57375868D01*
X95884732Y57457087D01*
X95884738Y57457090D01*
X96037083Y57582117D01*
X96105846Y57665906D01*
X96163592Y57705240D01*
X96233437Y57707111D01*
X96293205Y57670924D01*
X96323921Y57608168D01*
X96325700Y57587241D01*
X96325700Y57473248D01*
X96337331Y57414771D01*
X96337332Y57414770D01*
X96381647Y57348448D01*
X96447969Y57304133D01*
X96447970Y57304132D01*
X96506447Y57292501D01*
X96506450Y57292500D01*
X96506452Y57292500D01*
X98145950Y57292500D01*
X98145951Y57292501D01*
X98160768Y57295448D01*
X98204429Y57304132D01*
X98204429Y57304133D01*
X98204431Y57304133D01*
X98270752Y57348448D01*
X98315067Y57414769D01*
X98315067Y57414771D01*
X98315068Y57414771D01*
X98326699Y57473248D01*
X98326700Y57473250D01*
X98326700Y59112751D01*
X98326699Y59112753D01*
X98315068Y59171230D01*
X98315067Y59171231D01*
X98270752Y59237553D01*
X98204430Y59281868D01*
X98204429Y59281869D01*
X98145952Y59293500D01*
X98145948Y59293500D01*
X96506452Y59293500D01*
X96506447Y59293500D01*
X96447970Y59281869D01*
X96447969Y59281868D01*
X96381647Y59237553D01*
X96337332Y59171231D01*
X96337331Y59171230D01*
X96325700Y59112753D01*
X96325700Y58998760D01*
X96306015Y58931721D01*
X96253211Y58885966D01*
X96184053Y58876022D01*
X96120497Y58905047D01*
X96105847Y58920095D01*
X96037083Y59003884D01*
X95884739Y59128910D01*
X95884732Y59128914D01*
X95710933Y59221812D01*
X95710927Y59221814D01*
X95522332Y59279024D01*
X95522329Y59279025D01*
X95326200Y59298341D01*
X95130070Y59279025D01*
X94941466Y59221812D01*
X94767667Y59128914D01*
X94767660Y59128910D01*
X94615316Y59003884D01*
X94490290Y58851540D01*
X94490286Y58851533D01*
X94397388Y58677734D01*
X94340175Y58489130D01*
X94320859Y58293000D01*
X92926990Y58293000D01*
X92909874Y58455856D01*
X92851379Y58635884D01*
X92756733Y58799816D01*
X92630071Y58940488D01*
X92630070Y58940489D01*
X92476934Y59051749D01*
X92476929Y59051752D01*
X92304007Y59128743D01*
X92304002Y59128745D01*
X92136154Y59164421D01*
X92118846Y59168100D01*
X91929554Y59168100D01*
X91912246Y59164421D01*
X91744397Y59128745D01*
X91744392Y59128743D01*
X91571470Y59051752D01*
X91571465Y59051749D01*
X91418329Y58940489D01*
X91291666Y58799815D01*
X91197021Y58635885D01*
X91197018Y58635878D01*
X91149338Y58489132D01*
X91138526Y58455856D01*
X91118740Y58267600D01*
X90389660Y58267600D01*
X90369874Y58455856D01*
X90335209Y58562539D01*
X90333214Y58632377D01*
X90365458Y58688534D01*
X92325636Y60648712D01*
X101986262Y60648712D01*
X101989108Y60616416D01*
X101989586Y60605534D01*
X101989586Y60579922D01*
X101988477Y60563378D01*
X101988334Y60562318D01*
X101988333Y60562308D01*
X101988776Y60557439D01*
X101987213Y60540039D01*
X101989097Y60539945D01*
X101988402Y60525991D01*
X101994143Y60493462D01*
X101995521Y60483137D01*
X101996362Y60473878D01*
X101996363Y60473873D01*
X101996367Y60473862D01*
X102000577Y60457011D01*
X102000578Y60457001D01*
X102001538Y60454726D01*
X102006301Y60439501D01*
X102007579Y60436726D01*
X102012850Y60423266D01*
X102018063Y60407265D01*
X102025239Y60395277D01*
X102023557Y60394271D01*
X102029955Y60384577D01*
X102030213Y60384721D01*
X102032215Y60381153D01*
X102033183Y60379686D01*
X102033621Y60378646D01*
X102035184Y60375861D01*
X102035266Y60375700D01*
X102035365Y60375550D01*
X102037015Y60372821D01*
X102047865Y60358728D01*
X102050262Y60355508D01*
X102057234Y60345813D01*
X102078447Y60316316D01*
X102084291Y60310056D01*
X102086092Y60307707D01*
X102086595Y60307184D01*
X102095510Y60296837D01*
X102096804Y60295156D01*
X102101640Y60290152D01*
X102101633Y60290146D01*
X102108581Y60283414D01*
X102111281Y60280348D01*
X102116013Y60276056D01*
X102121644Y60270615D01*
X102123609Y60268593D01*
X102136984Y60254826D01*
X102137416Y60254382D01*
X102137740Y60254047D01*
X102141057Y60250601D01*
X102153297Y60237882D01*
X102153464Y60237745D01*
X102153880Y60237401D01*
X102154023Y60237282D01*
X102157315Y60235147D01*
X102171240Y60222398D01*
X102171589Y60222826D01*
X102182429Y60214008D01*
X102182430Y60214007D01*
X102193921Y60208335D01*
X102207202Y60201779D01*
X102219794Y60194620D01*
X102223043Y60192513D01*
X102223046Y60192511D01*
X102228134Y60190648D01*
X102240379Y60185402D01*
X102245251Y60182997D01*
X102249016Y60182099D01*
X102262889Y60177920D01*
X102288831Y60168420D01*
X102302692Y60166655D01*
X102302598Y60165923D01*
X102303832Y60165856D01*
X102303917Y60166749D01*
X102310854Y60166096D01*
X102310857Y60166095D01*
X102310868Y60166094D01*
X102328003Y60163258D01*
X102328020Y60163254D01*
X102328029Y60163252D01*
X102333401Y60163200D01*
X102351659Y60160931D01*
X102351701Y60161263D01*
X102358604Y60160395D01*
X102358613Y60160392D01*
X102368429Y60160264D01*
X102378438Y60159729D01*
X102388243Y60158804D01*
X102388245Y60158805D01*
X102388250Y60158804D01*
X102395215Y60158931D01*
X102395215Y60158920D01*
X102398097Y60159117D01*
X102438561Y60159324D01*
X102440642Y60159316D01*
X102460869Y60159049D01*
X102460870Y60159050D01*
X102461123Y60159046D01*
X102461617Y60159104D01*
X102463876Y60159350D01*
X102464371Y60159400D01*
X102464610Y60159456D01*
X102464617Y60159456D01*
X102469249Y60160539D01*
X102490203Y60163578D01*
X102492583Y60163719D01*
X102492592Y60163717D01*
X102516305Y60170614D01*
X102524883Y60172778D01*
X102529369Y60173739D01*
X102529370Y60173741D01*
X102536717Y60175315D01*
X102545513Y60178356D01*
X102549542Y60179296D01*
X102549549Y60179300D01*
X102549551Y60179300D01*
X102554772Y60181157D01*
X102559856Y60183277D01*
X102559859Y60183280D01*
X102559863Y60183280D01*
X102572409Y60190257D01*
X102578257Y60193307D01*
X102612506Y60210014D01*
X102612509Y60210019D01*
X102615477Y60212410D01*
X102621302Y60216829D01*
X102625173Y60219591D01*
X102625185Y60219597D01*
X102633758Y60227298D01*
X102640470Y60232910D01*
X102640715Y60233100D01*
X102658798Y60247167D01*
X102670056Y60255924D01*
X102670194Y60256032D01*
X102688124Y60269887D01*
X102688127Y60269891D01*
X102692250Y60273077D01*
X102757332Y60298496D01*
X102825825Y60284693D01*
X102857622Y60260737D01*
X102866466Y60251504D01*
X102873049Y60247167D01*
X102889281Y60233484D01*
X102889382Y60233602D01*
X102894676Y60229087D01*
X102898448Y60226540D01*
X102909573Y60218078D01*
X102911653Y60216303D01*
X102913035Y60215123D01*
X102914888Y60214153D01*
X102917242Y60212920D01*
X102929107Y60205839D01*
X102952737Y60189884D01*
X102952738Y60189884D01*
X102957161Y60188171D01*
X102962172Y60186851D01*
X102962351Y60187529D01*
X102963055Y60187344D01*
X102967860Y60185352D01*
X102975010Y60183468D01*
X102975698Y60183201D01*
X102975330Y60182255D01*
X102983585Y60178833D01*
X102983897Y60179536D01*
X102988959Y60177296D01*
X102993613Y60174676D01*
X102994127Y60174462D01*
X102996306Y60173188D01*
X102996293Y60173166D01*
X103008895Y60166069D01*
X103009276Y60165915D01*
X103009279Y60165913D01*
X103032110Y60162220D01*
X103047768Y60158514D01*
X103048872Y60158300D01*
X103048879Y60158297D01*
X103058768Y60157504D01*
X103068629Y60156313D01*
X103101883Y60150933D01*
X103101887Y60150935D01*
X103110341Y60151476D01*
X103118706Y60152693D01*
X103118712Y60152692D01*
X103132619Y60158067D01*
X103202155Y60163888D01*
X103204791Y60163349D01*
X103217118Y60160162D01*
X103223051Y60158297D01*
X103226127Y60158051D01*
X103241033Y60155937D01*
X103267342Y60150555D01*
X103267346Y60150557D01*
X103280183Y60150847D01*
X103292881Y60152693D01*
X103292884Y60152692D01*
X103292886Y60152693D01*
X103306712Y60154702D01*
X103306835Y60153853D01*
X103336975Y60158884D01*
X103338579Y60158823D01*
X103341552Y60158374D01*
X103359059Y60157718D01*
X103399685Y60156195D01*
X103400257Y60156172D01*
X103422217Y60155162D01*
X103422220Y60155163D01*
X103422276Y60155160D01*
X103422607Y60155184D01*
X103423627Y60155256D01*
X103423892Y60155274D01*
X103423945Y60155285D01*
X103423947Y60155284D01*
X103445521Y60159365D01*
X103446149Y60159481D01*
X103461505Y60162252D01*
X103479541Y60164157D01*
X103486995Y60164397D01*
X103487000Y60164396D01*
X103521304Y60173394D01*
X103529682Y60175283D01*
X103541176Y60177455D01*
X103541184Y60177459D01*
X103546348Y60179051D01*
X103549719Y60180220D01*
X103554761Y60182168D01*
X103554766Y60182169D01*
X103558984Y60184370D01*
X103575836Y60191633D01*
X103576993Y60192033D01*
X103646784Y60195334D01*
X103677456Y60183385D01*
X103678158Y60182997D01*
X103692779Y60173431D01*
X103693092Y60173288D01*
X103693096Y60173285D01*
X103709862Y60169794D01*
X103718748Y60167597D01*
X103723935Y60166110D01*
X103739918Y60163417D01*
X103740518Y60163316D01*
X103745196Y60162436D01*
X103761682Y60159002D01*
X103761688Y60159003D01*
X103767051Y60158502D01*
X103776139Y60157315D01*
X103793019Y60154470D01*
X103793020Y60154471D01*
X103793022Y60154470D01*
X103795672Y60154623D01*
X103814057Y60157322D01*
X103813975Y60157994D01*
X103820888Y60158842D01*
X103820893Y60158841D01*
X103827060Y60159597D01*
X103839747Y60160493D01*
X103845958Y60160611D01*
X103848577Y60161263D01*
X103864405Y60164120D01*
X103898706Y60168032D01*
X103902937Y60168440D01*
X103919815Y60169774D01*
X103936754Y60169950D01*
X103942517Y60169616D01*
X103947838Y60169190D01*
X103970759Y60166854D01*
X103981638Y60165253D01*
X103986005Y60164412D01*
X103995075Y60163702D01*
X104012727Y60159162D01*
X104012963Y60160316D01*
X104026649Y60157528D01*
X104026654Y60157525D01*
X104056821Y60158231D01*
X104069391Y60157887D01*
X104075791Y60157385D01*
X104077636Y60157657D01*
X104078629Y60157803D01*
X104093827Y60159095D01*
X104095880Y60159144D01*
X104096693Y60159162D01*
X104102915Y60160737D01*
X104115246Y60163198D01*
X104120872Y60164027D01*
X104123316Y60164388D01*
X104142143Y60165710D01*
X104143718Y60165700D01*
X104159559Y60173213D01*
X104169021Y60177227D01*
X104170893Y60177932D01*
X104170893Y60177933D01*
X104170900Y60177934D01*
X104187265Y60186293D01*
X104190464Y60187867D01*
X104203897Y60194236D01*
X104272903Y60205169D01*
X104305986Y60196112D01*
X104313847Y60192733D01*
X104325960Y60186725D01*
X104330451Y60184182D01*
X104330455Y60184181D01*
X104330459Y60184179D01*
X104334423Y60182993D01*
X104347852Y60178117D01*
X104351656Y60176482D01*
X104356720Y60175553D01*
X104369861Y60172391D01*
X104397568Y60164101D01*
X104397568Y60164102D01*
X104400477Y60163231D01*
X104420696Y60159668D01*
X104421988Y60159294D01*
X104421994Y60159290D01*
X104448533Y60157742D01*
X104463696Y60155914D01*
X104466456Y60155407D01*
X104472927Y60155685D01*
X104485459Y60155589D01*
X104491932Y60155210D01*
X104494716Y60155677D01*
X104509909Y60157270D01*
X104536449Y60158407D01*
X104536451Y60158409D01*
X104536653Y60158463D01*
X104540751Y60159055D01*
X104540712Y60159215D01*
X104576202Y60168054D01*
X104587329Y60170826D01*
X104596783Y60172792D01*
X104606950Y60174495D01*
X104606956Y60174498D01*
X104608851Y60175039D01*
X104620420Y60178838D01*
X104622251Y60179520D01*
X104622256Y60179521D01*
X104623207Y60180002D01*
X104631458Y60184177D01*
X104640234Y60188198D01*
X104671733Y60201164D01*
X104671735Y60201168D01*
X104681237Y60207878D01*
X104696799Y60217241D01*
X104704864Y60221322D01*
X104704863Y60221322D01*
X104704870Y60221325D01*
X104704875Y60221330D01*
X104705239Y60221569D01*
X104705240Y60221571D01*
X104705244Y60221572D01*
X104720689Y60234451D01*
X104737177Y60246063D01*
X104741732Y60248747D01*
X104741738Y60248748D01*
X104762184Y60268052D01*
X104824442Y60299759D01*
X104893962Y60292773D01*
X104924589Y60274857D01*
X104925835Y60273864D01*
X104945002Y60254826D01*
X104949882Y60248787D01*
X104949884Y60248784D01*
X104950210Y60248528D01*
X104964696Y60235128D01*
X104966565Y60233100D01*
X104966568Y60233098D01*
X104967742Y60232080D01*
X104975324Y60224931D01*
X104987583Y60212359D01*
X104987586Y60212357D01*
X104987587Y60212356D01*
X104992366Y60210616D01*
X105010162Y60201454D01*
X105010461Y60202014D01*
X105019017Y60197456D01*
X105024606Y60194913D01*
X105026550Y60193909D01*
X105029633Y60192733D01*
X105036180Y60190236D01*
X105045067Y60186442D01*
X105049849Y60184177D01*
X105054383Y60182029D01*
X105054388Y60182028D01*
X105060969Y60179772D01*
X105060926Y60179649D01*
X105078413Y60173726D01*
X105088073Y60169236D01*
X105088081Y60169235D01*
X105092673Y60167697D01*
X105097366Y60166309D01*
X105102077Y60165095D01*
X105102079Y60165094D01*
X105102080Y60165094D01*
X105103061Y60164841D01*
X105124176Y60157307D01*
X105128987Y60155081D01*
X105159030Y60155550D01*
X105167786Y60155002D01*
X105171448Y60155313D01*
X105171450Y60155312D01*
X105171451Y60155313D01*
X105173239Y60155464D01*
X105182008Y60155895D01*
X105222401Y60156447D01*
X105222402Y60156448D01*
X105236015Y60159759D01*
X105236016Y60159754D01*
X105236178Y60159814D01*
X105236603Y60159917D01*
X105237401Y60156623D01*
X105238569Y60156764D01*
X105238625Y60156764D01*
X105238625Y60156302D01*
X105281825Y60164120D01*
X105299325Y60160965D01*
X105302757Y60160089D01*
X105306429Y60159292D01*
X105306438Y60159288D01*
X105307191Y60159212D01*
X105307213Y60159209D01*
X105324439Y60156215D01*
X105343587Y60151476D01*
X105347385Y60150536D01*
X105347389Y60150537D01*
X105356812Y60150365D01*
X105368531Y60151381D01*
X105368536Y60151380D01*
X105376814Y60154041D01*
X105418468Y60159929D01*
X105424477Y60159749D01*
X105424480Y60159748D01*
X105441994Y60159222D01*
X105446178Y60159024D01*
X105487341Y60156361D01*
X105487341Y60156362D01*
X105497606Y60155697D01*
X105502154Y60155859D01*
X105502150Y60156036D01*
X105515172Y60156344D01*
X105521200Y60156841D01*
X105521200Y60156842D01*
X105521205Y60156841D01*
X105534470Y60159453D01*
X105541574Y60160638D01*
X105580594Y60165970D01*
X105583010Y60166274D01*
X105602643Y60168529D01*
X105602649Y60168532D01*
X105602994Y60168571D01*
X105603495Y60168697D01*
X105606080Y60169322D01*
X105606603Y60169443D01*
X105606933Y60169568D01*
X105606937Y60169568D01*
X105611568Y60171313D01*
X105632664Y60175490D01*
X105632656Y60175524D01*
X105659699Y60182577D01*
X105660460Y60179658D01*
X105707928Y60188989D01*
X105724213Y60186394D01*
X105732303Y60184546D01*
X105732150Y60183878D01*
X105750595Y60180757D01*
X105752773Y60179998D01*
X105758869Y60177273D01*
X105759011Y60177619D01*
X105771384Y60172558D01*
X105787403Y60164172D01*
X105789459Y60163418D01*
X105789462Y60163416D01*
X105805487Y60161363D01*
X105814322Y60159904D01*
X105820545Y60158645D01*
X105820548Y60158644D01*
X105820550Y60158644D01*
X105824162Y60157913D01*
X105827823Y60157307D01*
X105827829Y60157305D01*
X105836248Y60156869D01*
X105838773Y60156738D01*
X105848118Y60155899D01*
X105882509Y60151491D01*
X105882514Y60151493D01*
X105888690Y60152094D01*
X105897787Y60153681D01*
X105897793Y60153680D01*
X105900869Y60154971D01*
X105931911Y60163459D01*
X105936607Y60164105D01*
X105939190Y60165819D01*
X105968569Y60180139D01*
X105971516Y60181119D01*
X105971518Y60181122D01*
X105977293Y60183043D01*
X106024039Y60185307D01*
X106024039Y60187654D01*
X106029129Y60187654D01*
X106038785Y60186021D01*
X106044051Y60186276D01*
X106051641Y60184543D01*
X106051487Y60183873D01*
X106069905Y60180759D01*
X106072067Y60180005D01*
X106078186Y60177267D01*
X106078330Y60177617D01*
X106091220Y60172344D01*
X106091059Y60171951D01*
X106113312Y60162265D01*
X106115004Y60161239D01*
X106131543Y60159644D01*
X106134792Y60159032D01*
X106140204Y60158351D01*
X106140221Y60158450D01*
X106141221Y60158285D01*
X106142294Y60158088D01*
X106142806Y60158023D01*
X106147137Y60157307D01*
X106147143Y60157305D01*
X106163070Y60156481D01*
X106168532Y60156077D01*
X106208378Y60152232D01*
X106208378Y60152233D01*
X106208773Y60152194D01*
X106212733Y60152794D01*
X106215996Y60153215D01*
X106217105Y60153681D01*
X106217107Y60153680D01*
X106220179Y60154969D01*
X106251222Y60163459D01*
X106255921Y60164105D01*
X106262867Y60168713D01*
X106288587Y60181751D01*
X106296414Y60184630D01*
X106296416Y60184632D01*
X106302286Y60188453D01*
X106302289Y60188456D01*
X106303617Y60189955D01*
X106303618Y60189955D01*
X106305287Y60191839D01*
X106329569Y60212953D01*
X106331379Y60214153D01*
X106334097Y60215956D01*
X106334097Y60215957D01*
X106345743Y60223680D01*
X106346864Y60221989D01*
X106391701Y60247929D01*
X106461494Y60244668D01*
X106474846Y60239171D01*
X106476005Y60238613D01*
X106476007Y60238611D01*
X106491842Y60230986D01*
X106501115Y60226025D01*
X106502231Y60225366D01*
X106502236Y60225362D01*
X106509760Y60221989D01*
X106519255Y60217732D01*
X106522312Y60216311D01*
X106542596Y60206543D01*
X106559511Y60198397D01*
X106560525Y60197909D01*
X106564825Y60195838D01*
X106577711Y60191527D01*
X106606179Y60178764D01*
X106606181Y60178764D01*
X106618144Y60173401D01*
X106618150Y60173399D01*
X106621578Y60171862D01*
X106638071Y60164468D01*
X106644498Y60161362D01*
X106652575Y60157167D01*
X106677707Y60144114D01*
X106697058Y60143530D01*
X106717571Y60141190D01*
X106736569Y60137397D01*
X106736686Y60137428D01*
X106771343Y60141283D01*
X106771472Y60141279D01*
X106789170Y60149154D01*
X106808662Y60155943D01*
X106827419Y60160767D01*
X106827423Y60160771D01*
X106838842Y60166659D01*
X106907447Y60179894D01*
X106939746Y60172359D01*
X106948371Y60169080D01*
X106948505Y60169029D01*
X106976091Y60158505D01*
X106975922Y60158063D01*
X106983788Y60155285D01*
X107015932Y60140498D01*
X107036987Y60140870D01*
X107056335Y60139695D01*
X107077197Y60136777D01*
X107077200Y60136779D01*
X107080160Y60137031D01*
X107106838Y60141440D01*
X107109722Y60142152D01*
X107109726Y60142152D01*
X107128544Y60151628D01*
X107146482Y60158962D01*
X107166537Y60165383D01*
X107166537Y60165384D01*
X107179844Y60169644D01*
X107180589Y60167315D01*
X107229399Y60179714D01*
X107247484Y60177712D01*
X107254535Y60176402D01*
X107281671Y60168054D01*
X107281703Y60168040D01*
X107281705Y60168040D01*
X107281706Y60168039D01*
X107308671Y60162889D01*
X107322840Y60159304D01*
X107323289Y60159162D01*
X107326361Y60158189D01*
X107326364Y60158188D01*
X107331949Y60157728D01*
X107345021Y60155945D01*
X107350519Y60154894D01*
X107354212Y60155026D01*
X107368825Y60154686D01*
X107396184Y60152428D01*
X107396185Y60152429D01*
X107396495Y60152403D01*
X107419860Y60153450D01*
X107426086Y60153123D01*
X107426092Y60153121D01*
X107450156Y60157299D01*
X107466958Y60159048D01*
X107467627Y60159071D01*
X107475797Y60161245D01*
X107475951Y60161286D01*
X107486636Y60163630D01*
X107495112Y60165101D01*
X107495111Y60165101D01*
X107495118Y60165102D01*
X107495738Y60165362D01*
X107511704Y60170799D01*
X107535329Y60177084D01*
X107535330Y60177086D01*
X107546939Y60183195D01*
X107566530Y60191157D01*
X107567775Y60191857D01*
X107567777Y60191857D01*
X107582199Y60199961D01*
X107598825Y60207707D01*
X107599095Y60207846D01*
X107599100Y60207847D01*
X107599103Y60207850D01*
X107603067Y60209875D01*
X107603529Y60210089D01*
X107604504Y60210609D01*
X107605424Y60211078D01*
X107605470Y60210987D01*
X107611923Y60213971D01*
X107612361Y60214153D01*
X107613997Y60210214D01*
X107658313Y60224584D01*
X107715331Y60212475D01*
X107741472Y60199958D01*
X107742362Y60199532D01*
X107748544Y60196356D01*
X107751737Y60194601D01*
X107760736Y60189654D01*
X107760746Y60189651D01*
X107766106Y60187445D01*
X107771567Y60185548D01*
X107771575Y60185544D01*
X107771583Y60185543D01*
X107776212Y60183934D01*
X107833079Y60143339D01*
X107849665Y60115243D01*
X107864927Y60079280D01*
X107871943Y60069570D01*
X107875159Y60065974D01*
X107890077Y60052420D01*
X107896291Y60045718D01*
X107896475Y60045897D01*
X107901342Y60040918D01*
X107906290Y60036880D01*
X107912518Y60031797D01*
X107917459Y60027543D01*
X107928162Y60017819D01*
X107928165Y60017817D01*
X107928169Y60017814D01*
X107933814Y60013738D01*
X107933663Y60013530D01*
X107941208Y60008382D01*
X107955614Y59996625D01*
X107955615Y59996624D01*
X107956497Y59996413D01*
X107988411Y59983872D01*
X107994237Y59980589D01*
X107994239Y59980589D01*
X107997747Y59979102D01*
X108007108Y59973992D01*
X108007375Y59974497D01*
X108013547Y59971242D01*
X108013550Y59971240D01*
X108013553Y59971239D01*
X108015392Y59970269D01*
X108023885Y59964434D01*
X108032430Y59959829D01*
X108032432Y59959829D01*
X108032435Y59959826D01*
X108061228Y59951863D01*
X108073361Y59947821D01*
X108079060Y59945589D01*
X108082207Y59945118D01*
X108096790Y59942027D01*
X108097224Y59941907D01*
X108109506Y59937587D01*
X108110746Y59937358D01*
X108110747Y59937359D01*
X108110750Y59937357D01*
X108117104Y59937622D01*
X108140637Y59936359D01*
X108148344Y59935203D01*
X108148347Y59935205D01*
X108149741Y59935310D01*
X108159309Y59937646D01*
X108162863Y59938290D01*
X108162867Y59938289D01*
X108163353Y59938378D01*
X108180266Y59940250D01*
X108204477Y59941256D01*
X108204478Y59941257D01*
X108215010Y59944126D01*
X108221756Y59946472D01*
X108231801Y59950760D01*
X108231805Y59950760D01*
X108251427Y59965000D01*
X108265843Y59974018D01*
X108266278Y59974250D01*
X108272931Y59980026D01*
X108281376Y59986733D01*
X108283972Y59988617D01*
X108307729Y60005856D01*
X108307729Y60005858D01*
X108309088Y60006843D01*
X108312600Y60009300D01*
X108314523Y60010595D01*
X108329637Y60036459D01*
X108336625Y60047119D01*
X108338668Y60049911D01*
X108354313Y60071294D01*
X108354313Y60071297D01*
X108358539Y60081093D01*
X108403163Y60134856D01*
X108469770Y60155959D01*
X108474975Y60155960D01*
X108486739Y60155715D01*
X108500741Y60154628D01*
X108505165Y60154030D01*
X108509976Y60154466D01*
X108523719Y60154943D01*
X108528567Y60154841D01*
X108532941Y60155745D01*
X108546837Y60157801D01*
X108574937Y60160342D01*
X108574940Y60160345D01*
X108588225Y60164667D01*
X108588440Y60164005D01*
X108605890Y60170799D01*
X108628299Y60175424D01*
X108629332Y60175633D01*
X108650576Y60179804D01*
X108650578Y60179806D01*
X108650639Y60179817D01*
X108650975Y60179926D01*
X108652053Y60180272D01*
X108652400Y60180383D01*
X108652458Y60180410D01*
X108652465Y60180411D01*
X108672161Y60189397D01*
X108673134Y60189835D01*
X108689200Y60196977D01*
X108692474Y60198374D01*
X108709423Y60205315D01*
X108709430Y60205321D01*
X108711211Y60206295D01*
X108711892Y60206632D01*
X108712355Y60206895D01*
X108712962Y60207285D01*
X108714752Y60208335D01*
X108717261Y60210214D01*
X108729407Y60219311D01*
X108732372Y60221462D01*
X108745916Y60230991D01*
X108768044Y60246560D01*
X108770177Y60248027D01*
X108786485Y60258980D01*
X108786486Y60258982D01*
X108786779Y60259178D01*
X108787197Y60259548D01*
X108789245Y60261324D01*
X108789635Y60261656D01*
X108792370Y60264692D01*
X108803036Y60276533D01*
X108804770Y60278418D01*
X108830574Y60305845D01*
X108837709Y60312839D01*
X108845005Y60319431D01*
X108845008Y60319436D01*
X108845011Y60319438D01*
X108845607Y60320113D01*
X108855023Y60331682D01*
X108855570Y60332413D01*
X108855576Y60332419D01*
X108855580Y60332427D01*
X108857773Y60335355D01*
X108858675Y60336881D01*
X108858679Y60336885D01*
X108863969Y60345834D01*
X108869158Y60353882D01*
X108875122Y60362386D01*
X108875125Y60362393D01*
X108878459Y60368505D01*
X108878487Y60368490D01*
X108885248Y60381443D01*
X108887279Y60384577D01*
X108892970Y60393359D01*
X108892974Y60393371D01*
X108894868Y60397167D01*
X108896595Y60401016D01*
X108896599Y60401022D01*
X108901610Y60416691D01*
X108903234Y60421432D01*
X108908347Y60435418D01*
X108909953Y60439574D01*
X108916446Y60455501D01*
X108916447Y60455508D01*
X108917461Y60459105D01*
X108918356Y60462789D01*
X108918360Y60462799D01*
X108920521Y60479846D01*
X108921159Y60484234D01*
X108922675Y60493474D01*
X108925854Y60507610D01*
X108926918Y60511313D01*
X108927218Y60516739D01*
X108928664Y60529974D01*
X108929548Y60535356D01*
X108929314Y60539126D01*
X108931363Y60562144D01*
X108930082Y60562302D01*
X108930938Y60569212D01*
X108930941Y60569223D01*
X108931118Y60585105D01*
X108931300Y60590563D01*
X108932179Y60606446D01*
X108932178Y60606451D01*
X108932179Y60606456D01*
X108932178Y60606462D01*
X108931782Y60613405D01*
X108932235Y60613431D01*
X108931534Y60622175D01*
X108931557Y60624237D01*
X108931978Y60627773D01*
X108931978Y60636883D01*
X108931981Y60641538D01*
X108931982Y60641540D01*
X108931987Y60649174D01*
X108932232Y60651292D01*
X108932136Y60664404D01*
X108932094Y60670226D01*
X108932099Y60672506D01*
X108932286Y60689080D01*
X108932025Y60694288D01*
X108932038Y60709905D01*
X108931978Y60710989D01*
X108931978Y60732445D01*
X108932272Y60740976D01*
X108932285Y60741166D01*
X108932285Y60741173D01*
X108931536Y60758394D01*
X108931425Y60762791D01*
X108931301Y60780026D01*
X108931298Y60780038D01*
X108930759Y60784536D01*
X108929993Y60793909D01*
X108929951Y60794881D01*
X108930313Y60811182D01*
X108930444Y60812656D01*
X108929377Y60820419D01*
X108928343Y60831905D01*
X108928005Y60839692D01*
X108927616Y60841109D01*
X108924345Y60857064D01*
X108923376Y60864118D01*
X108922720Y60869912D01*
X108921349Y60885235D01*
X108921348Y60885238D01*
X108921348Y60885240D01*
X108920372Y60890018D01*
X108919172Y60894740D01*
X108919172Y60894746D01*
X108918491Y60896549D01*
X108913737Y60909149D01*
X108911802Y60914666D01*
X108906816Y60930035D01*
X108905903Y60932973D01*
X108900470Y60951252D01*
X108900320Y60951606D01*
X108900035Y60952367D01*
X108898943Y60954856D01*
X108898578Y60955576D01*
X108898417Y60955929D01*
X108898415Y60955936D01*
X108889215Y60971351D01*
X108882442Y60985300D01*
X108880398Y60989240D01*
X108880396Y60989247D01*
X108875473Y60996592D01*
X108868013Y61009296D01*
X108866403Y61012454D01*
X108866395Y61012464D01*
X108865813Y61013346D01*
X108865528Y61013811D01*
X108865451Y61013924D01*
X108863809Y61016036D01*
X108863116Y61016996D01*
X108853967Y61028684D01*
X108851676Y61032103D01*
X108850441Y61033267D01*
X108830078Y61058213D01*
X108823704Y61068508D01*
X108823704Y61068509D01*
X108800321Y61092204D01*
X108793435Y61099786D01*
X108787342Y61107079D01*
X108787068Y61107341D01*
X108774788Y61118139D01*
X108774494Y61118376D01*
X108766467Y61123495D01*
X108758061Y61129358D01*
X108721480Y61157188D01*
X108721141Y61157447D01*
X108718886Y61159175D01*
X108696979Y61169205D01*
X108681930Y61177397D01*
X108681647Y61177578D01*
X108673223Y61180588D01*
X108663340Y61184607D01*
X108655189Y61188339D01*
X108654844Y61188410D01*
X108638364Y61193045D01*
X108636391Y61193750D01*
X108615680Y61201152D01*
X108615677Y61201153D01*
X108605304Y61202392D01*
X108582028Y61203550D01*
X108575677Y61204870D01*
X108563997Y61207897D01*
X108559232Y61209383D01*
X108554570Y61210165D01*
X108554500Y61210184D01*
X108549441Y61210908D01*
X108544357Y61211381D01*
X108529316Y61211089D01*
X108523200Y61211122D01*
X108516994Y61211308D01*
X108511078Y61211627D01*
X108495851Y61212814D01*
X108490896Y61212643D01*
X108485964Y61212237D01*
X108485364Y61212118D01*
X108480756Y61211622D01*
X108476310Y61210517D01*
X108464538Y61208192D01*
X108444902Y61205292D01*
X108426184Y61205688D01*
X108426209Y61204984D01*
X108412246Y61204492D01*
X108384934Y61197236D01*
X108371223Y61194411D01*
X108366761Y61193752D01*
X108366753Y61193750D01*
X108362283Y61192011D01*
X108349185Y61187738D01*
X108344538Y61186504D01*
X108344537Y61186503D01*
X108340535Y61184399D01*
X108327806Y61178600D01*
X108301464Y61168351D01*
X108301355Y61168277D01*
X108280656Y61156966D01*
X108268694Y61151840D01*
X108199321Y61143528D01*
X108153233Y61161232D01*
X108152162Y61161914D01*
X108150241Y61163138D01*
X108150238Y61163140D01*
X108140413Y61166646D01*
X108127753Y61172766D01*
X108092173Y61185088D01*
X108081489Y61189353D01*
X108074342Y61192598D01*
X108074322Y61192605D01*
X108072902Y61192895D01*
X108057197Y61197201D01*
X108055839Y61197672D01*
X108055831Y61197673D01*
X108048021Y61198528D01*
X108036672Y61200306D01*
X108021161Y61203478D01*
X108005694Y61206642D01*
X107991735Y61206326D01*
X107991700Y61207849D01*
X107975690Y61206671D01*
X107952545Y61208980D01*
X107951367Y61209104D01*
X107929977Y61211445D01*
X107929556Y61211439D01*
X107928414Y61211430D01*
X107928160Y61211430D01*
X107906614Y61208723D01*
X107905443Y61208581D01*
X107889185Y61206696D01*
X107872121Y61207509D01*
X107872131Y61206839D01*
X107858165Y61206648D01*
X107830709Y61199984D01*
X107816934Y61197455D01*
X107815369Y61197258D01*
X107812463Y61196893D01*
X107812461Y61196892D01*
X107807936Y61195244D01*
X107794772Y61191263D01*
X107790094Y61190128D01*
X107790092Y61190127D01*
X107790084Y61190123D01*
X107786045Y61188110D01*
X107773180Y61182581D01*
X107741262Y61170953D01*
X107735737Y61168181D01*
X107725231Y61161288D01*
X107658380Y61140973D01*
X107602712Y61153586D01*
X107601964Y61153952D01*
X107589210Y61161155D01*
X107586156Y61163127D01*
X107586147Y61163131D01*
X107580833Y61165064D01*
X107568733Y61170207D01*
X107567269Y61170923D01*
X107546675Y61180998D01*
X107538419Y61185037D01*
X107528140Y61188801D01*
X107493261Y61197599D01*
X107481227Y61201294D01*
X107475221Y61203478D01*
X107475217Y61203479D01*
X107475216Y61203479D01*
X107472300Y61203844D01*
X107457389Y61206648D01*
X107454560Y61207362D01*
X107454550Y61207363D01*
X107454132Y61207373D01*
X107448154Y61207509D01*
X107435599Y61208436D01*
X107401274Y61212729D01*
X107391490Y61212098D01*
X107391489Y61212098D01*
X107359014Y61210002D01*
X107348228Y61209777D01*
X107339435Y61209977D01*
X107339018Y61209891D01*
X107338923Y61209872D01*
X107322094Y61207619D01*
X107321772Y61207598D01*
X107321575Y61207585D01*
X107321574Y61207585D01*
X107313149Y61205081D01*
X107302685Y61202462D01*
X107279271Y61197673D01*
X107268097Y61195388D01*
X107230751Y61180998D01*
X107221499Y61177846D01*
X107211764Y61174953D01*
X107210342Y61174350D01*
X107198384Y61168713D01*
X107197005Y61167995D01*
X107188585Y61162331D01*
X107180268Y61157201D01*
X107171474Y61152244D01*
X107103408Y61136473D01*
X107045058Y61154993D01*
X107028387Y61165370D01*
X107026724Y61165944D01*
X107002184Y61177563D01*
X106992608Y61183459D01*
X106945842Y61235369D01*
X106934565Y61304323D01*
X106962358Y61368427D01*
X106978874Y61384835D01*
X106980791Y61386411D01*
X106990515Y61393221D01*
X106994483Y61396214D01*
X106994493Y61396219D01*
X107002893Y61404176D01*
X107009390Y61409910D01*
X107010978Y61411215D01*
X107018239Y61416129D01*
X107017961Y61416519D01*
X107023632Y61420561D01*
X107023640Y61420565D01*
X107035562Y61431266D01*
X107039604Y61434737D01*
X107051972Y61444897D01*
X107051975Y61444902D01*
X107056829Y61449898D01*
X107057169Y61449568D01*
X107063112Y61455989D01*
X107066245Y61458801D01*
X107074722Y61465755D01*
X107074780Y61465799D01*
X107074789Y61465804D01*
X107088821Y61479016D01*
X107090912Y61480938D01*
X107105277Y61493827D01*
X107105281Y61493834D01*
X107105342Y61493901D01*
X107112974Y61501752D01*
X107127624Y61515543D01*
X107134107Y61521092D01*
X107135063Y61522025D01*
X107135070Y61522029D01*
X107149647Y61536252D01*
X107151101Y61537644D01*
X107165861Y61551537D01*
X107165861Y61551539D01*
X107166823Y61552443D01*
X107172652Y61558694D01*
X107194656Y61580160D01*
X107198647Y61583675D01*
X107201890Y61586907D01*
X107216236Y61601206D01*
X107216947Y61601906D01*
X107232393Y61616974D01*
X107232395Y61616978D01*
X107234780Y61619304D01*
X107238335Y61623229D01*
X107238599Y61623492D01*
X107254768Y61639606D01*
X107254771Y61639613D01*
X107259062Y61643888D01*
X107259930Y61644860D01*
X107433783Y61819004D01*
X107451692Y61833849D01*
X107464777Y61842764D01*
X107485264Y61878228D01*
X107487542Y61882011D01*
X107509316Y61916725D01*
X107509316Y61916729D01*
X107509599Y61917179D01*
X107509904Y61918164D01*
X107511308Y61922434D01*
X107511662Y61923451D01*
X107511702Y61923989D01*
X107511704Y61923991D01*
X107514778Y61964857D01*
X107515187Y61969228D01*
X107519741Y62009952D01*
X107519740Y62009955D01*
X107519800Y62010490D01*
X107519642Y62011543D01*
X107519056Y62015982D01*
X107518935Y62017040D01*
X107503792Y62055653D01*
X107502239Y62059832D01*
X107488684Y62098470D01*
X107488683Y62098471D01*
X107488683Y62098472D01*
X107477488Y62109648D01*
X107462627Y62127574D01*
X107315174Y62343975D01*
X107266241Y62416542D01*
X107265532Y62417605D01*
X107244546Y62449431D01*
X107224075Y62516231D01*
X107233984Y62564148D01*
X107233893Y62564177D01*
X107234175Y62565070D01*
X107234825Y62568211D01*
X107236018Y62570885D01*
X107236018Y62570891D01*
X107237616Y62574471D01*
X107239164Y62578597D01*
X107242490Y62586231D01*
X107244854Y62591661D01*
X107249612Y62601395D01*
X107249850Y62601833D01*
X107249851Y62601834D01*
X107257035Y62619530D01*
X107258197Y62622289D01*
X107265808Y62639760D01*
X107265810Y62639773D01*
X107265957Y62640248D01*
X107269588Y62650444D01*
X107275065Y62663932D01*
X107279344Y62673327D01*
X107280187Y62674993D01*
X107280186Y62674993D01*
X107280191Y62674999D01*
X107286629Y62692284D01*
X107287877Y62695488D01*
X107293285Y62708807D01*
X107336750Y62763509D01*
X107383336Y62783630D01*
X107397554Y62786535D01*
X107399249Y62786868D01*
X107428630Y62792383D01*
X107480775Y62801966D01*
X107481654Y62802076D01*
X107487989Y62803252D01*
X107487993Y62803251D01*
X107504916Y62806391D01*
X107510579Y62807441D01*
X107510786Y62807479D01*
X107539422Y62812741D01*
X107540280Y62812951D01*
X107559965Y62816602D01*
X107560956Y62816729D01*
X107567110Y62817884D01*
X107567112Y62817883D01*
X107581127Y62820511D01*
X107589660Y62822111D01*
X107589670Y62822055D01*
X107589902Y62822157D01*
X107612253Y62826301D01*
X107612256Y62826303D01*
X107618434Y62827448D01*
X107619412Y62827688D01*
X107628132Y62829323D01*
X107629792Y62829541D01*
X107635452Y62830622D01*
X107635455Y62830621D01*
X107657927Y62834909D01*
X107678812Y62838824D01*
X107679945Y62838975D01*
X107685363Y62840036D01*
X107685367Y62840035D01*
X107687700Y62840492D01*
X107688584Y62840613D01*
X107709761Y62844794D01*
X107710499Y62844938D01*
X107729894Y62848637D01*
X107729896Y62848639D01*
X107735101Y62849631D01*
X107737440Y62850223D01*
X107740033Y62850729D01*
X107740036Y62850731D01*
X107746395Y62851974D01*
X107747244Y62852193D01*
X107762261Y62855157D01*
X107786264Y62857501D01*
X107800961Y62857501D01*
X107838858Y62875752D01*
X107842131Y62877269D01*
X107880556Y62894394D01*
X107880555Y62894394D01*
X107880884Y62894540D01*
X107881587Y62895100D01*
X107884483Y62897341D01*
X107885250Y62897917D01*
X107885477Y62898203D01*
X107885479Y62898203D01*
X107911717Y62931106D01*
X107914031Y62933919D01*
X107941184Y62965978D01*
X107941184Y62965979D01*
X107941419Y62966256D01*
X107941846Y62967141D01*
X107943476Y62970401D01*
X107943888Y62971196D01*
X107944116Y62972193D01*
X107953334Y63012587D01*
X107954188Y63016087D01*
X107964750Y63056778D01*
X107961904Y63071200D01*
X107959557Y63095210D01*
X107959557Y63350260D01*
X107959604Y63351123D01*
X107959593Y63357486D01*
X107959595Y63357490D01*
X107959557Y63380667D01*
X107959557Y63403463D01*
X107959557Y63409859D01*
X107959507Y63410722D01*
X107959492Y63419625D01*
X107959434Y63455232D01*
X107959623Y63458930D01*
X107959584Y63463319D01*
X107959387Y63485335D01*
X107959383Y63486148D01*
X107959370Y63494106D01*
X107959348Y63508138D01*
X107959347Y63508139D01*
X107959341Y63512522D01*
X107959112Y63516216D01*
X107958936Y63536057D01*
X107959262Y63544522D01*
X107959201Y63546809D01*
X107958687Y63566152D01*
X107958649Y63568316D01*
X107958634Y63569979D01*
X107958470Y63588568D01*
X107958469Y63588570D01*
X107958408Y63595542D01*
X107958439Y63595543D01*
X107958027Y63606410D01*
X107958252Y63611385D01*
X107958254Y63611394D01*
X107957148Y63627892D01*
X107956917Y63632843D01*
X107956479Y63649363D01*
X107956478Y63649365D01*
X107956294Y63656335D01*
X107956386Y63656338D01*
X107956132Y63663017D01*
X107955946Y63663007D01*
X107955815Y63665645D01*
X107955831Y63670697D01*
X107954505Y63678487D01*
X107954334Y63679491D01*
X107952854Y63692004D01*
X107952544Y63696639D01*
X107952117Y63698060D01*
X107948655Y63712854D01*
X107947838Y63717653D01*
X107947692Y63718530D01*
X107944152Y63740262D01*
X107944059Y63740586D01*
X107943844Y63741343D01*
X107943769Y63741608D01*
X107943755Y63741641D01*
X107943755Y63741644D01*
X107941618Y63746799D01*
X107934567Y63769998D01*
X107931720Y63784250D01*
X107929672Y63786967D01*
X107925841Y63793720D01*
X107925795Y63793687D01*
X107917788Y63805137D01*
X107917788Y63805138D01*
X107917786Y63805140D01*
X107915470Y63808452D01*
X107903125Y63822356D01*
X107892202Y63837740D01*
X107886549Y63846456D01*
X107884024Y63850730D01*
X107881850Y63853378D01*
X107876208Y63858417D01*
X107870083Y63862490D01*
X107859410Y63870931D01*
X107843167Y63878673D01*
X107827686Y63887467D01*
X107826589Y63888200D01*
X107822201Y63889871D01*
X107809529Y63895531D01*
X107784259Y63908559D01*
X107784257Y63908560D01*
X107771766Y63908900D01*
X107748047Y63911851D01*
X107731053Y63915657D01*
X107723439Y63916817D01*
X107708748Y63919703D01*
X107708117Y63919829D01*
X107697022Y63922073D01*
X107681368Y63925240D01*
X107678462Y63925654D01*
X107678068Y63925731D01*
X107677993Y63925746D01*
X107676573Y63926107D01*
X107648841Y63931475D01*
X107648501Y63931541D01*
X107620290Y63937084D01*
X107618807Y63937288D01*
X107606439Y63939682D01*
X107605446Y63939931D01*
X107576880Y63945403D01*
X107576884Y63945425D01*
X107576650Y63945447D01*
X107548364Y63950921D01*
X107547340Y63951061D01*
X107528360Y63954696D01*
X107527519Y63954906D01*
X107498795Y63960359D01*
X107498600Y63960396D01*
X107480024Y63963954D01*
X107476093Y63964707D01*
X107476092Y63964707D01*
X107470036Y63965867D01*
X107469191Y63965981D01*
X107448653Y63969880D01*
X107447782Y63970095D01*
X107419646Y63975387D01*
X107419446Y63975425D01*
X107390434Y63980932D01*
X107389513Y63981054D01*
X107372992Y63984161D01*
X107371850Y63984441D01*
X107363752Y63985945D01*
X107361935Y63986867D01*
X107359978Y63987345D01*
X107359400Y63987520D01*
X107359565Y63988068D01*
X107301436Y64017545D01*
X107272573Y64058679D01*
X107271634Y64060852D01*
X107271634Y64060854D01*
X107264798Y64076675D01*
X107263919Y64078709D01*
X107262830Y64081309D01*
X107255553Y64099264D01*
X107255549Y64099269D01*
X107255484Y64099431D01*
X107250831Y64109003D01*
X107239499Y64135229D01*
X107235728Y64145158D01*
X107231107Y64155220D01*
X107227539Y64162991D01*
X107226420Y64165499D01*
X107220332Y64179592D01*
X107211815Y64248936D01*
X107231460Y64298250D01*
X107250999Y64327131D01*
X107251015Y64327120D01*
X107251093Y64327271D01*
X107293588Y64389888D01*
X107294910Y64391623D01*
X107297973Y64396174D01*
X107297975Y64396175D01*
X107310752Y64415154D01*
X107323411Y64433774D01*
X107323413Y64433780D01*
X107326408Y64438185D01*
X107327589Y64440160D01*
X107327674Y64440285D01*
X107352346Y64476932D01*
X107357033Y64483218D01*
X107357985Y64484684D01*
X107357992Y64484690D01*
X107369233Y64501988D01*
X107370229Y64503491D01*
X107370277Y64503561D01*
X107381703Y64520530D01*
X107381702Y64520530D01*
X107382670Y64521966D01*
X107386628Y64528751D01*
X107397061Y64544801D01*
X107402653Y64552708D01*
X107404895Y64555629D01*
X107404900Y64555634D01*
X107414000Y64570736D01*
X107416168Y64574199D01*
X107425765Y64588962D01*
X107425767Y64588970D01*
X107427412Y64592253D01*
X107432083Y64600740D01*
X107432891Y64602081D01*
X107440578Y64612895D01*
X107442590Y64615960D01*
X107442597Y64615967D01*
X107447590Y64625825D01*
X107451988Y64633769D01*
X107457706Y64643254D01*
X107457707Y64643258D01*
X107459227Y64646571D01*
X107464328Y64658861D01*
X107466184Y64662524D01*
X107469216Y64668144D01*
X107476497Y64680839D01*
X107476499Y64680845D01*
X107478619Y64685744D01*
X107480486Y64690755D01*
X107480491Y64690762D01*
X107480493Y64690771D01*
X107482925Y64697293D01*
X107484119Y64696848D01*
X107492798Y64717919D01*
X107493825Y64719633D01*
X107495421Y64737145D01*
X107497007Y64748591D01*
X107497298Y64750156D01*
X107497599Y64759093D01*
X107497768Y64761455D01*
X107498179Y64767159D01*
X107498359Y64769362D01*
X107500187Y64789401D01*
X107500186Y64789403D01*
X107500820Y64796342D01*
X107501383Y64796291D01*
X107502231Y64806880D01*
X107502204Y64807504D01*
X107502206Y64807510D01*
X107502204Y64807517D01*
X107502090Y64810226D01*
X107502153Y64814542D01*
X107501770Y64817030D01*
X107501771Y64817033D01*
X107501769Y64817036D01*
X107499648Y64830846D01*
X107500993Y64831053D01*
X107500617Y64833002D01*
X107500026Y64832864D01*
X107496858Y64846469D01*
X107496527Y64847148D01*
X107489416Y64861750D01*
X107485695Y64870173D01*
X107483739Y64875086D01*
X107483738Y64875087D01*
X107483738Y64875089D01*
X107483189Y64876114D01*
X107476386Y64891167D01*
X107467662Y64914496D01*
X107467662Y64914497D01*
X107455758Y64925905D01*
X107448970Y64933656D01*
X107448814Y64933511D01*
X107444098Y64938635D01*
X107444096Y64938638D01*
X107435804Y64947647D01*
X107430451Y64953866D01*
X107429469Y64955086D01*
X107422803Y64963371D01*
X107417856Y64968275D01*
X107418440Y64968865D01*
X107415135Y64972222D01*
X107414531Y64971641D01*
X107396110Y64990813D01*
X107394290Y64992748D01*
X107390560Y64996800D01*
X107380996Y65007191D01*
X107380997Y65007191D01*
X107380678Y65007537D01*
X107373348Y65014503D01*
X107368406Y65019647D01*
X107364390Y65024267D01*
X107362440Y65026246D01*
X107362439Y65026249D01*
X107347638Y65041275D01*
X107346568Y65042375D01*
X107330009Y65059608D01*
X107325482Y65063767D01*
X107310771Y65078701D01*
X107307487Y65082395D01*
X107304977Y65084894D01*
X107304976Y65084895D01*
X107289727Y65100073D01*
X107288880Y65100924D01*
X107282662Y65107236D01*
X107273746Y65116287D01*
X107273745Y65116288D01*
X107271281Y65118789D01*
X107267595Y65122101D01*
X107246457Y65143140D01*
X107244680Y65145109D01*
X107238536Y65151163D01*
X107235605Y65154365D01*
X107228665Y65161085D01*
X107220430Y65169060D01*
X107219224Y65170244D01*
X107216878Y65172579D01*
X107208889Y65180531D01*
X107208888Y65180532D01*
X107205317Y65184086D01*
X107203327Y65185848D01*
X107198118Y65190980D01*
X107194848Y65193833D01*
X107178733Y65209438D01*
X107157475Y65230024D01*
X107150023Y65237901D01*
X107149745Y65238222D01*
X107139969Y65247229D01*
X107135722Y65251143D01*
X107133511Y65253231D01*
X107119797Y65266511D01*
X107119794Y65266514D01*
X107119789Y65266517D01*
X107119451Y65266778D01*
X107111167Y65273767D01*
X107109784Y65275041D01*
X107102334Y65281906D01*
X107092539Y65290931D01*
X107086511Y65297554D01*
X107086261Y65297314D01*
X107081447Y65302351D01*
X107077418Y65305716D01*
X107069830Y65312054D01*
X107065296Y65316032D01*
X107054163Y65326290D01*
X107048551Y65330402D01*
X107048753Y65330679D01*
X107041402Y65335798D01*
X107032552Y65343189D01*
X107022906Y65352156D01*
X107018990Y65356205D01*
X107016335Y65357935D01*
X107015923Y65358204D01*
X107004144Y65366914D01*
X107001339Y65369257D01*
X107001337Y65369258D01*
X106995995Y65373720D01*
X106996685Y65374548D01*
X106990159Y65380308D01*
X106984007Y65384865D01*
X106977217Y65387841D01*
X106965911Y65392798D01*
X106957626Y65397274D01*
X106957572Y65397166D01*
X106951351Y65400291D01*
X106948722Y65401260D01*
X106927374Y65412326D01*
X106923796Y65413751D01*
X106920511Y65414262D01*
X106896708Y65420437D01*
X106890151Y65422854D01*
X106885624Y65424523D01*
X106885623Y65424523D01*
X106884867Y65424451D01*
X106883192Y65424290D01*
X106861872Y65424089D01*
X106861654Y65424106D01*
X106861653Y65424106D01*
X106861651Y65424106D01*
X106857849Y65424398D01*
X106848272Y65425510D01*
X106831112Y65428182D01*
X106831106Y65428181D01*
X106827227Y65427005D01*
X106795692Y65421753D01*
X106791641Y65421609D01*
X106791638Y65421608D01*
X106776269Y65413519D01*
X106767567Y65409363D01*
X106764061Y65407854D01*
X106750800Y65400284D01*
X106742712Y65396571D01*
X106742875Y65396237D01*
X106736628Y65393190D01*
X106735998Y65392789D01*
X106727273Y65387733D01*
X106708626Y65377918D01*
X106705310Y65375075D01*
X106692608Y65365527D01*
X106678084Y65356002D01*
X106676597Y65355042D01*
X106657214Y65342723D01*
X106651533Y65338587D01*
X106646513Y65335294D01*
X106642947Y65333211D01*
X106621444Y65318857D01*
X106620613Y65318307D01*
X106598939Y65304090D01*
X106595638Y65301630D01*
X106578629Y65290275D01*
X106575847Y65288622D01*
X106553635Y65273592D01*
X106552998Y65273164D01*
X106530790Y65258338D01*
X106528221Y65256395D01*
X106503131Y65239416D01*
X106501525Y65238451D01*
X106485041Y65227212D01*
X106484760Y65227042D01*
X106475536Y65220744D01*
X106475122Y65220463D01*
X106454663Y65206618D01*
X106453182Y65205487D01*
X106435954Y65193738D01*
X106435667Y65193519D01*
X106374291Y65151605D01*
X106366259Y65146120D01*
X106299796Y65124570D01*
X106249536Y65133691D01*
X106231485Y65141047D01*
X106228827Y65142166D01*
X106211039Y65149902D01*
X106200746Y65153573D01*
X106182312Y65161085D01*
X106172556Y65165562D01*
X106171926Y65165885D01*
X106154214Y65172579D01*
X106151255Y65173741D01*
X106142397Y65177351D01*
X106087744Y65220881D01*
X106067646Y65267650D01*
X106067605Y65267852D01*
X106065268Y65279436D01*
X106065053Y65280528D01*
X106049380Y65362810D01*
X106048526Y65367420D01*
X106047949Y65370533D01*
X106047940Y65370580D01*
X106047362Y65373708D01*
X106043786Y65393051D01*
X106043785Y65393053D01*
X106042535Y65399816D01*
X106042463Y65400109D01*
X106042037Y65402404D01*
X106037169Y65428656D01*
X106037034Y65429711D01*
X106035871Y65435907D01*
X106035872Y65435909D01*
X106031644Y65458449D01*
X106027458Y65481024D01*
X106027457Y65481025D01*
X106026337Y65487069D01*
X106026081Y65488115D01*
X106022182Y65508899D01*
X106022013Y65510190D01*
X106020392Y65518716D01*
X106018997Y65526054D01*
X106016586Y65538741D01*
X106016529Y65539040D01*
X106012377Y65561180D01*
X106012375Y65561184D01*
X106011264Y65567109D01*
X106010952Y65568369D01*
X106010740Y65569482D01*
X106009475Y65576140D01*
X106009189Y65578264D01*
X106004744Y65601130D01*
X106003796Y65606010D01*
X105999799Y65627031D01*
X105999246Y65630972D01*
X105998252Y65635783D01*
X105994633Y65653306D01*
X105992948Y65663650D01*
X105991950Y65671986D01*
X105992697Y65672076D01*
X105990673Y65691379D01*
X105990727Y65693711D01*
X105980796Y65715593D01*
X105974794Y65731710D01*
X105974727Y65731938D01*
X105970303Y65739815D01*
X105965509Y65749281D01*
X105961777Y65757504D01*
X105961776Y65757507D01*
X105961772Y65757512D01*
X105958207Y65763484D01*
X105958566Y65763699D01*
X105957549Y65765030D01*
X105947963Y65779594D01*
X105944979Y65784909D01*
X105942613Y65789332D01*
X105939940Y65794582D01*
X105930321Y65801910D01*
X105908509Y65818527D01*
X105904167Y65821992D01*
X105898446Y65826772D01*
X105888458Y65836436D01*
X105881946Y65841058D01*
X105874216Y65847016D01*
X105873857Y65847316D01*
X105857115Y65851541D01*
X105836157Y65858881D01*
X105829310Y65861993D01*
X105825965Y65863081D01*
X105822633Y65864041D01*
X105805286Y65866992D01*
X105801182Y65867762D01*
X105788991Y65870261D01*
X105778952Y65872780D01*
X105771922Y65874039D01*
X105771931Y65874094D01*
X105767167Y65874735D01*
X105760672Y65876067D01*
X105750020Y65875831D01*
X105739573Y65876423D01*
X105716970Y65876950D01*
X105711805Y65877178D01*
X105695554Y65878236D01*
X105695551Y65878236D01*
X105695550Y65878236D01*
X105695548Y65878236D01*
X105691480Y65878044D01*
X105682113Y65878380D01*
X105682113Y65878235D01*
X105654810Y65878413D01*
X105652742Y65878443D01*
X105636245Y65878826D01*
X105632283Y65878918D01*
X105632282Y65878918D01*
X105630688Y65878955D01*
X105622605Y65878622D01*
X105605852Y65878731D01*
X105602941Y65878905D01*
X105575792Y65878928D01*
X105575093Y65878931D01*
X105548055Y65879107D01*
X105545138Y65878955D01*
X105503806Y65878990D01*
X105503352Y65879014D01*
X105497011Y65879014D01*
X105490833Y65879014D01*
X105490509Y65879032D01*
X105468135Y65879020D01*
X105467971Y65879020D01*
X105444269Y65879039D01*
X105443822Y65879014D01*
X105431365Y65879014D01*
X105431044Y65878998D01*
X105386585Y65878971D01*
X105384058Y65879105D01*
X105356535Y65878954D01*
X105355934Y65878952D01*
X105328512Y65878936D01*
X105325987Y65878787D01*
X105306633Y65878681D01*
X105299334Y65878995D01*
X105276595Y65878530D01*
X105274743Y65878506D01*
X105247107Y65878354D01*
X105247106Y65878487D01*
X105236513Y65878150D01*
X105232648Y65878359D01*
X105215734Y65877372D01*
X105211061Y65877188D01*
X105204379Y65877051D01*
X105194145Y65876841D01*
X105194143Y65876841D01*
X105187191Y65876698D01*
X105187186Y65876921D01*
X105181452Y65876749D01*
X105181462Y65876504D01*
X105178952Y65876406D01*
X105173212Y65876476D01*
X105164228Y65875018D01*
X105151601Y65873629D01*
X105147606Y65873395D01*
X105147603Y65873395D01*
X105147594Y65873393D01*
X105146460Y65873063D01*
X105131777Y65869752D01*
X105126877Y65868956D01*
X105125725Y65868775D01*
X105104262Y65865496D01*
X105104083Y65865445D01*
X105102887Y65865117D01*
X105102573Y65865033D01*
X105097589Y65863012D01*
X105074124Y65856104D01*
X105060158Y65853454D01*
X105060155Y65853453D01*
X105057527Y65851511D01*
X105050662Y65847705D01*
X105050689Y65847666D01*
X105036063Y65837652D01*
X105021903Y65825303D01*
X104988411Y65801910D01*
X104985524Y65798727D01*
X104977955Y65785904D01*
X104968201Y65771897D01*
X104967708Y65770820D01*
X104964631Y65764573D01*
X104959783Y65755389D01*
X104956915Y65750253D01*
X104949116Y65737039D01*
X104946272Y65730687D01*
X104945935Y65730838D01*
X104942489Y65722630D01*
X104934232Y65706990D01*
X104934232Y65706989D01*
X104934057Y65702260D01*
X104931757Y65682645D01*
X104931095Y65679321D01*
X104929065Y65666710D01*
X104928712Y65663838D01*
X104927061Y65653833D01*
X104922660Y65632608D01*
X104922065Y65628396D01*
X104918210Y65608128D01*
X104918111Y65607614D01*
X104912800Y65580321D01*
X104912507Y65578150D01*
X104911104Y65570779D01*
X104910784Y65569482D01*
X104907898Y65554101D01*
X104905465Y65541135D01*
X104905465Y65541134D01*
X104900087Y65512863D01*
X104899915Y65511561D01*
X104896037Y65490892D01*
X104895783Y65489849D01*
X104894684Y65483923D01*
X104890515Y65461454D01*
X104889503Y65456061D01*
X104885131Y65432755D01*
X104884994Y65431699D01*
X104879650Y65402896D01*
X104879531Y65402404D01*
X104874237Y65373708D01*
X104874216Y65373599D01*
X104873592Y65370234D01*
X104873500Y65369741D01*
X104857814Y65287021D01*
X104857582Y65285834D01*
X104855462Y65275272D01*
X104853939Y65267687D01*
X104821439Y65205836D01*
X104779021Y65177215D01*
X104774389Y65175334D01*
X104771370Y65174153D01*
X104753721Y65167519D01*
X104752882Y65167090D01*
X104743219Y65162674D01*
X104724946Y65155252D01*
X104714800Y65151649D01*
X104696918Y65143903D01*
X104694301Y65142805D01*
X104671859Y65133689D01*
X104602340Y65126697D01*
X104555266Y65146171D01*
X104486004Y65193469D01*
X104484782Y65194405D01*
X104476386Y65200103D01*
X104460924Y65210596D01*
X104442169Y65223403D01*
X104442168Y65223404D01*
X104437370Y65226680D01*
X104436054Y65227473D01*
X104423350Y65236094D01*
X104409743Y65245328D01*
X104407240Y65247229D01*
X104384842Y65262229D01*
X104384212Y65262653D01*
X104368724Y65273164D01*
X104365958Y65275041D01*
X104365957Y65275042D01*
X104362069Y65277680D01*
X104359378Y65279284D01*
X104341277Y65291406D01*
X104340206Y65292123D01*
X104337150Y65294412D01*
X104315231Y65308854D01*
X104314458Y65309368D01*
X104292742Y65323912D01*
X104289441Y65325848D01*
X104286796Y65327591D01*
X104281416Y65331136D01*
X104276546Y65334707D01*
X104256368Y65347651D01*
X104255100Y65348476D01*
X104232512Y65363359D01*
X104226742Y65367444D01*
X104226128Y65367810D01*
X104225514Y65368325D01*
X104220881Y65371844D01*
X104221049Y65372067D01*
X104211873Y65379757D01*
X104211738Y65379572D01*
X104200475Y65387839D01*
X104200474Y65387840D01*
X104195298Y65390082D01*
X104178697Y65397273D01*
X104164503Y65404539D01*
X104163301Y65405255D01*
X104163290Y65405261D01*
X104160493Y65406166D01*
X104146374Y65411714D01*
X104141487Y65413989D01*
X104140388Y65414357D01*
X104130527Y65418138D01*
X104114396Y65425125D01*
X104110817Y65425793D01*
X104107463Y65425874D01*
X104082731Y65428073D01*
X104082796Y65428808D01*
X104072988Y65428679D01*
X104057276Y65424875D01*
X104033884Y65422824D01*
X104024860Y65421353D01*
X104023295Y65420716D01*
X104015939Y65418752D01*
X103994152Y65410548D01*
X103982568Y65406980D01*
X103969312Y65400381D01*
X103969098Y65400810D01*
X103965784Y65398841D01*
X103966078Y65398302D01*
X103959961Y65394974D01*
X103957415Y65393193D01*
X103944576Y65385328D01*
X103920871Y65372719D01*
X103914746Y65367420D01*
X103905933Y65357935D01*
X103905537Y65357597D01*
X103896130Y65350318D01*
X103890328Y65346259D01*
X103890318Y65346250D01*
X103888829Y65344605D01*
X103877569Y65333655D01*
X103868647Y65326017D01*
X103861578Y65320945D01*
X103861837Y65320596D01*
X103856249Y65316452D01*
X103844418Y65305422D01*
X103840512Y65301932D01*
X103828217Y65291406D01*
X103823475Y65286322D01*
X103823162Y65286614D01*
X103817332Y65280170D01*
X103795903Y65260190D01*
X103788460Y65253861D01*
X103773823Y65239641D01*
X103771988Y65237894D01*
X103757057Y65223972D01*
X103750373Y65216855D01*
X103726372Y65193535D01*
X103722262Y65189925D01*
X103704917Y65172699D01*
X103703958Y65171756D01*
X103686298Y65154595D01*
X103682628Y65150562D01*
X103660758Y65128840D01*
X103657148Y65125604D01*
X103639546Y65107780D01*
X103638709Y65106941D01*
X103620809Y65089161D01*
X103617556Y65085511D01*
X103601986Y65069744D01*
X103597599Y65065724D01*
X103580851Y65048354D01*
X103579824Y65047301D01*
X103562951Y65030214D01*
X103559064Y65025756D01*
X103552912Y65019374D01*
X103546099Y65012931D01*
X103531995Y64997713D01*
X103530322Y64995943D01*
X103511658Y64976582D01*
X103511525Y64976710D01*
X103507839Y64972588D01*
X103503625Y64968528D01*
X103494687Y64957740D01*
X103490157Y64952572D01*
X103477210Y64938600D01*
X103467643Y64927705D01*
X103453964Y64914575D01*
X103453960Y64914570D01*
X103448075Y64898794D01*
X103444332Y64890956D01*
X103444749Y64890766D01*
X103440547Y64881527D01*
X103435119Y64868364D01*
X103426125Y64850547D01*
X103422946Y64837726D01*
X103421530Y64830605D01*
X103421964Y64830539D01*
X103421446Y64827114D01*
X103420759Y64824210D01*
X103420720Y64823779D01*
X103419878Y64816809D01*
X103421183Y64799261D01*
X103421410Y64790846D01*
X103423394Y64769266D01*
X103423573Y64767118D01*
X103425183Y64745479D01*
X103426347Y64737168D01*
X103427954Y64719699D01*
X103427954Y64719698D01*
X103429086Y64717812D01*
X103437856Y64696738D01*
X103438977Y64697157D01*
X103443337Y64685497D01*
X103445525Y64680476D01*
X103452730Y64667979D01*
X103455859Y64662202D01*
X103457708Y64658562D01*
X103462703Y64646558D01*
X103464330Y64643015D01*
X103464332Y64643012D01*
X103464333Y64643009D01*
X103470113Y64633426D01*
X103474475Y64625561D01*
X103479534Y64615603D01*
X103481695Y64612321D01*
X103489218Y64601751D01*
X103490194Y64600133D01*
X103494887Y64591615D01*
X103496494Y64588406D01*
X103506084Y64573655D01*
X103508301Y64570115D01*
X103508921Y64569087D01*
X103517399Y64555032D01*
X103517403Y64555028D01*
X103519594Y64552175D01*
X103525205Y64544243D01*
X103534246Y64530338D01*
X103535929Y64527749D01*
X103539857Y64521019D01*
X103552296Y64502544D01*
X103553400Y64500876D01*
X103565546Y64482192D01*
X103570196Y64475955D01*
X103594210Y64440285D01*
X103595242Y64438557D01*
X103610861Y64415550D01*
X103611084Y64415222D01*
X103623815Y64396311D01*
X103623816Y64396310D01*
X103626905Y64391722D01*
X103628120Y64390125D01*
X103661648Y64340735D01*
X103661710Y64340544D01*
X103661757Y64340575D01*
X103686829Y64303517D01*
X103690201Y64298534D01*
X103711464Y64231978D01*
X103701366Y64179953D01*
X103693766Y64162326D01*
X103692620Y64159749D01*
X103684475Y64141983D01*
X103680675Y64131960D01*
X103669353Y64105697D01*
X103664752Y64096214D01*
X103657351Y64077930D01*
X103656282Y64075372D01*
X103649123Y64058764D01*
X103604509Y64004993D01*
X103558259Y63986002D01*
X103548118Y63984088D01*
X103547962Y63984058D01*
X103519590Y63978758D01*
X103518574Y63978509D01*
X103511757Y63977221D01*
X103499815Y63974966D01*
X103498957Y63974852D01*
X103481213Y63971472D01*
X103470388Y63969409D01*
X103452236Y63965981D01*
X103441501Y63963954D01*
X103440658Y63963746D01*
X103420130Y63959834D01*
X103419231Y63959714D01*
X103390731Y63954233D01*
X103390527Y63954194D01*
X103361859Y63948732D01*
X103360974Y63948511D01*
X103343971Y63945241D01*
X103342843Y63945088D01*
X103322245Y63941080D01*
X103314535Y63939580D01*
X103291823Y63935212D01*
X103291822Y63935212D01*
X103285833Y63934060D01*
X103284718Y63933779D01*
X103276579Y63932196D01*
X103274740Y63931940D01*
X103247224Y63926486D01*
X103246810Y63926405D01*
X103221771Y63921531D01*
X103219279Y63921174D01*
X103214962Y63920280D01*
X103209086Y63919063D01*
X103192074Y63918640D01*
X103192200Y63916847D01*
X103178262Y63915874D01*
X103168420Y63912893D01*
X103156551Y63910255D01*
X103154377Y63909417D01*
X103141080Y63905507D01*
X103134517Y63903358D01*
X103124744Y63900596D01*
X103122707Y63900110D01*
X103116889Y63898009D01*
X103111213Y63895567D01*
X103104367Y63891661D01*
X103087499Y63883657D01*
X103066960Y63875746D01*
X103065916Y63875043D01*
X103060878Y63870352D01*
X103059356Y63868403D01*
X103052022Y63859850D01*
X103043138Y63850396D01*
X103036663Y63843994D01*
X103011045Y63820467D01*
X103011042Y63820462D01*
X103003796Y63802274D01*
X103000603Y63794953D01*
X102998786Y63791129D01*
X102993788Y63781683D01*
X102989273Y63773975D01*
X102989272Y63773973D01*
X102989154Y63773596D01*
X102982916Y63757725D01*
X102982746Y63757368D01*
X102982740Y63757352D01*
X102980889Y63749039D01*
X102975076Y63730172D01*
X102974718Y63729273D01*
X102973396Y63723632D01*
X102968201Y63707162D01*
X102967515Y63698722D01*
X102968100Y63698724D01*
X102968146Y63689724D01*
X102966775Y63670690D01*
X102966188Y63666780D01*
X102965660Y63652495D01*
X102965236Y63645858D01*
X102963942Y63631623D01*
X102964076Y63625429D01*
X102963710Y63618399D01*
X102963754Y63618398D01*
X102963402Y63592156D01*
X102963329Y63589254D01*
X102962619Y63569982D01*
X102962958Y63559000D01*
X102962794Y63546809D01*
X102962473Y63541819D01*
X102962389Y63516975D01*
X102962379Y63515737D01*
X102962043Y63490642D01*
X102962282Y63485613D01*
X102962161Y63449887D01*
X102962072Y63448334D01*
X102962060Y63419707D01*
X102962059Y63419340D01*
X102961962Y63391031D01*
X102962043Y63389560D01*
X102962043Y63380254D01*
X102962030Y63350305D01*
X102962043Y63350079D01*
X102962043Y63095209D01*
X102959696Y63071200D01*
X102956850Y63056782D01*
X102956850Y63056776D01*
X102967410Y63016087D01*
X102968277Y63012532D01*
X102977712Y62971192D01*
X102978130Y62970387D01*
X102979764Y62967117D01*
X102980177Y62966260D01*
X103007591Y62933890D01*
X103009913Y62931065D01*
X103036348Y62897918D01*
X103037090Y62897361D01*
X103039999Y62895110D01*
X103040710Y62894543D01*
X103079477Y62877264D01*
X103082729Y62875758D01*
X103120639Y62857501D01*
X103135339Y62857501D01*
X103159342Y62855156D01*
X103174647Y62852135D01*
X103177067Y62851520D01*
X103182181Y62850537D01*
X103182182Y62850536D01*
X103204342Y62846274D01*
X103204650Y62846214D01*
X103226667Y62841867D01*
X103226667Y62841868D01*
X103231860Y62840842D01*
X103233176Y62840665D01*
X103247652Y62837941D01*
X103247766Y62837919D01*
X103270051Y62833631D01*
X103270053Y62833632D01*
X103275433Y62832596D01*
X103277523Y62832320D01*
X103281869Y62831502D01*
X103282938Y62831239D01*
X103289055Y62830102D01*
X103289058Y62830100D01*
X103311170Y62825988D01*
X103311431Y62825939D01*
X103340276Y62820511D01*
X103341378Y62820370D01*
X103358816Y62817126D01*
X103359671Y62816917D01*
X103365826Y62815784D01*
X103365829Y62815782D01*
X103388189Y62811663D01*
X103388383Y62811565D01*
X103388395Y62811624D01*
X103408082Y62807963D01*
X103410885Y62807441D01*
X103417402Y62806229D01*
X103418280Y62806118D01*
X103440847Y62801960D01*
X103441458Y62801812D01*
X103447973Y62800620D01*
X103447977Y62800618D01*
X103470650Y62796469D01*
X103470650Y62796467D01*
X103470728Y62796455D01*
X103493291Y62792296D01*
X103493294Y62792297D01*
X103494217Y62792126D01*
X103495403Y62791901D01*
X103508519Y62789351D01*
X103538523Y62783518D01*
X103600573Y62751401D01*
X103631404Y62704140D01*
X103632258Y62701789D01*
X103635277Y62692306D01*
X103636040Y62689526D01*
X103642681Y62672904D01*
X103644080Y62669235D01*
X103650209Y62652361D01*
X103651488Y62649783D01*
X103655555Y62640684D01*
X103665244Y62616434D01*
X103668611Y62606895D01*
X103669324Y62604575D01*
X103672757Y62596690D01*
X103675937Y62589386D01*
X103676549Y62587982D01*
X103678004Y62584496D01*
X103687324Y62561173D01*
X103684490Y62560041D01*
X103696034Y62504872D01*
X103674972Y62444987D01*
X103617002Y62359714D01*
X103459075Y62127415D01*
X103444141Y62109380D01*
X103433066Y62098323D01*
X103433064Y62098321D01*
X103419460Y62059545D01*
X103417947Y62055466D01*
X103412773Y62042227D01*
X103402789Y62016690D01*
X103402674Y62015672D01*
X103402105Y62011342D01*
X103401951Y62010315D01*
X103406575Y61968964D01*
X103406984Y61964618D01*
X103410150Y61923114D01*
X103410503Y61922104D01*
X103411864Y61917970D01*
X103412161Y61917010D01*
X103412432Y61916577D01*
X103412433Y61916576D01*
X103434077Y61882066D01*
X103434271Y61881758D01*
X103436526Y61878016D01*
X103457121Y61842453D01*
X103470060Y61833657D01*
X103488100Y61818718D01*
X103492370Y61814441D01*
X103661644Y61644884D01*
X103661965Y61644563D01*
X103664708Y61641514D01*
X103667622Y61638642D01*
X103667624Y61638639D01*
X103683227Y61623261D01*
X103683799Y61622692D01*
X103699298Y61607167D01*
X103702203Y61604257D01*
X103705248Y61601555D01*
X103728809Y61578333D01*
X103734360Y61572313D01*
X103743348Y61563751D01*
X103747203Y61560078D01*
X103750186Y61557237D01*
X103751688Y61555781D01*
X103754837Y61552678D01*
X103767300Y61540393D01*
X103773504Y61535022D01*
X103790852Y61518495D01*
X103797792Y61511255D01*
X103812696Y61497647D01*
X103814621Y61495852D01*
X103829212Y61481951D01*
X103836901Y61475548D01*
X103844140Y61468940D01*
X103851010Y61462159D01*
X103853660Y61459332D01*
X103853662Y61459331D01*
X103853663Y61459329D01*
X103866985Y61447983D01*
X103870141Y61445201D01*
X103883075Y61433392D01*
X103883078Y61433391D01*
X103885579Y61431576D01*
X103904937Y61414151D01*
X103905478Y61413550D01*
X103907740Y61411542D01*
X103911016Y61407808D01*
X103911093Y61407889D01*
X103926219Y61393773D01*
X103961801Y61333642D01*
X103959225Y61263820D01*
X103919310Y61206474D01*
X103876944Y61185429D01*
X103877060Y61185079D01*
X103875403Y61184529D01*
X103874860Y61184394D01*
X103871691Y61182819D01*
X103871683Y61182817D01*
X103861583Y61181076D01*
X103857229Y61179987D01*
X103849193Y61178614D01*
X103846583Y61177530D01*
X103815139Y61169102D01*
X103797142Y61166745D01*
X103796696Y61170144D01*
X103755181Y61166590D01*
X103749479Y61167649D01*
X103740235Y61170192D01*
X103740190Y61170006D01*
X103727430Y61173145D01*
X103721333Y61174263D01*
X103716546Y61174594D01*
X103702470Y61176383D01*
X103674936Y61181497D01*
X103672287Y61181389D01*
X103671091Y61181442D01*
X103667783Y61181217D01*
X103665757Y61180847D01*
X103663964Y61180676D01*
X103645911Y61174696D01*
X103626119Y61169902D01*
X103605384Y61166654D01*
X103598480Y61163898D01*
X103528919Y61157333D01*
X103507350Y61163586D01*
X103490580Y61170146D01*
X103476762Y61172212D01*
X103476845Y61172768D01*
X103466032Y61173774D01*
X103465923Y61173047D01*
X103462381Y61173580D01*
X103461457Y61173767D01*
X103458522Y61174170D01*
X103456992Y61174390D01*
X103456580Y61174452D01*
X103435379Y61174970D01*
X103433812Y61175018D01*
X103407368Y61175999D01*
X103402380Y61176285D01*
X103385906Y61177563D01*
X103381728Y61177418D01*
X103377574Y61177105D01*
X103371080Y61175874D01*
X103361340Y61174029D01*
X103356418Y61173198D01*
X103344522Y61171438D01*
X103323668Y61170133D01*
X103320547Y61170202D01*
X103283557Y61162607D01*
X103276782Y61161411D01*
X103262927Y61159360D01*
X103257390Y61157892D01*
X103251914Y61156110D01*
X103239162Y61150310D01*
X103232828Y61147639D01*
X103184634Y61128871D01*
X103183015Y61133029D01*
X103141616Y61119792D01*
X103095478Y61127519D01*
X103080645Y61133029D01*
X103076879Y61134428D01*
X103075600Y61134911D01*
X103069198Y61137370D01*
X103051976Y61145555D01*
X103048488Y61147555D01*
X103048487Y61147556D01*
X103012963Y61158400D01*
X103006004Y61160753D01*
X102993481Y61165405D01*
X102987511Y61166888D01*
X102981480Y61168011D01*
X102968136Y61168972D01*
X102960826Y61169717D01*
X102923800Y61174604D01*
X102908865Y61174161D01*
X102887088Y61174897D01*
X102882377Y61175146D01*
X102865554Y61176357D01*
X102861605Y61176198D01*
X102857685Y61175890D01*
X102841107Y61172691D01*
X102836463Y61171886D01*
X102794386Y61165417D01*
X102776720Y61160266D01*
X102769777Y61158926D01*
X102769399Y61158853D01*
X102761316Y61157319D01*
X102749588Y61156235D01*
X102744638Y61155123D01*
X102707251Y61137274D01*
X102703491Y61135555D01*
X102692973Y61130958D01*
X102623661Y61122147D01*
X102600836Y61128082D01*
X102598022Y61129108D01*
X102593700Y61130685D01*
X102581536Y61136136D01*
X102580164Y61136514D01*
X102580163Y61136515D01*
X102579586Y61136673D01*
X102554622Y61149723D01*
X102553687Y61147882D01*
X102541229Y61154212D01*
X102537660Y61155107D01*
X102513216Y61161238D01*
X102500287Y61165242D01*
X102495482Y61167024D01*
X102495478Y61167025D01*
X102495477Y61167025D01*
X102491319Y61167572D01*
X102477325Y61170238D01*
X102473278Y61171253D01*
X102468142Y61171363D01*
X102454647Y61172392D01*
X102426018Y61176154D01*
X102423692Y61175935D01*
X102417928Y61175529D01*
X102376908Y61173598D01*
X102368445Y61173489D01*
X102356556Y61173742D01*
X102350708Y61173209D01*
X102348341Y61172911D01*
X102342531Y61171978D01*
X102331080Y61168791D01*
X102322849Y61166801D01*
X102282856Y61158565D01*
X102280963Y61158247D01*
X102248692Y61146304D01*
X102238920Y61143141D01*
X102229799Y61140602D01*
X102229533Y61140494D01*
X102214394Y61133640D01*
X102214168Y61133526D01*
X102206236Y61128342D01*
X102197408Y61123082D01*
X102165488Y61105815D01*
X102134460Y61081884D01*
X102126576Y61076280D01*
X102117971Y61070656D01*
X102116567Y61069495D01*
X102107260Y61061164D01*
X102105937Y61059883D01*
X102099393Y61051945D01*
X102092949Y61044724D01*
X102091432Y61043152D01*
X102081929Y61035503D01*
X102073589Y61027310D01*
X102069909Y61021207D01*
X102068128Y61018343D01*
X102059688Y61005172D01*
X102050977Y60993215D01*
X102048793Y60990566D01*
X102048783Y60990551D01*
X102046149Y60985300D01*
X102039731Y60974026D01*
X102038808Y60972585D01*
X102036566Y60969085D01*
X102036558Y60969069D01*
X102035398Y60965845D01*
X102029564Y60952245D01*
X102016805Y60926813D01*
X102005177Y60883197D01*
X102002039Y60873158D01*
X101998940Y60864547D01*
X101998936Y60864531D01*
X101998919Y60864385D01*
X101995650Y60847457D01*
X101995609Y60847305D01*
X101995608Y60847299D01*
X101995277Y60838145D01*
X101994451Y60827665D01*
X101991075Y60799906D01*
X101990477Y60794993D01*
X101991211Y60787910D01*
X101991640Y60782701D01*
X101992299Y60771927D01*
X101992450Y60759892D01*
X101992193Y60752768D01*
X101992602Y60750621D01*
X101994559Y60735000D01*
X101996323Y60706178D01*
X101988569Y60654822D01*
X101986262Y60648712D01*
X92325636Y60648712D01*
X93757290Y62080366D01*
X93765243Y62087654D01*
X93794194Y62111945D01*
X93813082Y62144661D01*
X93818887Y62153775D01*
X93840554Y62184716D01*
X93840554Y62184719D01*
X93842819Y62189576D01*
X93849747Y62206301D01*
X93851584Y62211350D01*
X93851588Y62211355D01*
X93858149Y62248570D01*
X93860479Y62259081D01*
X93870264Y62295593D01*
X93866972Y62333223D01*
X93866500Y62344031D01*
X93866500Y66014600D01*
X94193859Y66014600D01*
X94213175Y65818471D01*
X94222014Y65789332D01*
X94269556Y65632608D01*
X94270388Y65629867D01*
X94363286Y65456068D01*
X94363290Y65456061D01*
X94488316Y65303717D01*
X94640660Y65178691D01*
X94640667Y65178687D01*
X94814466Y65085789D01*
X94814469Y65085789D01*
X94814473Y65085786D01*
X95003068Y65028576D01*
X95199200Y65009259D01*
X95395332Y65028576D01*
X95583927Y65085786D01*
X95590242Y65089161D01*
X95671106Y65132384D01*
X95757738Y65178690D01*
X95910083Y65303717D01*
X95978846Y65387506D01*
X96036592Y65426840D01*
X96106437Y65428711D01*
X96166205Y65392524D01*
X96196921Y65329768D01*
X96198700Y65308841D01*
X96198700Y65194848D01*
X96210331Y65136371D01*
X96210332Y65136370D01*
X96254647Y65070048D01*
X96320969Y65025733D01*
X96320970Y65025732D01*
X96379447Y65014101D01*
X96379450Y65014100D01*
X96379452Y65014100D01*
X98018950Y65014100D01*
X98018951Y65014101D01*
X98041501Y65018586D01*
X98077429Y65025732D01*
X98077429Y65025733D01*
X98077431Y65025733D01*
X98143752Y65070048D01*
X98188067Y65136369D01*
X98188067Y65136371D01*
X98188068Y65136371D01*
X98197314Y65182855D01*
X98199700Y65194852D01*
X98199700Y66834348D01*
X98199700Y66834351D01*
X98199699Y66834353D01*
X98188068Y66892830D01*
X98188067Y66892831D01*
X98143752Y66959153D01*
X98077430Y67003468D01*
X98077429Y67003469D01*
X98018952Y67015100D01*
X98018948Y67015100D01*
X96379452Y67015100D01*
X96379447Y67015100D01*
X96320970Y67003469D01*
X96320969Y67003468D01*
X96254647Y66959153D01*
X96210332Y66892831D01*
X96210331Y66892830D01*
X96198700Y66834353D01*
X96198700Y66720360D01*
X96179015Y66653321D01*
X96126211Y66607566D01*
X96057053Y66597622D01*
X95993497Y66626647D01*
X95978847Y66641695D01*
X95910083Y66725484D01*
X95757739Y66850510D01*
X95757732Y66850514D01*
X95583933Y66943412D01*
X95583927Y66943414D01*
X95395332Y67000624D01*
X95395329Y67000625D01*
X95199200Y67019941D01*
X95003070Y67000625D01*
X94814466Y66943412D01*
X94640667Y66850514D01*
X94640660Y66850510D01*
X94488316Y66725484D01*
X94363290Y66573140D01*
X94363286Y66573133D01*
X94270388Y66399334D01*
X94213175Y66210730D01*
X94193859Y66014600D01*
X93866500Y66014600D01*
X93866500Y68005113D01*
X93886185Y68072152D01*
X93902814Y68092789D01*
X97930270Y72120246D01*
X97991591Y72153729D01*
X98061283Y72148745D01*
X98117216Y72106873D01*
X98141352Y72044718D01*
X98146675Y71990671D01*
X98203888Y71802067D01*
X98296786Y71628268D01*
X98296790Y71628261D01*
X98421816Y71475917D01*
X98574160Y71350891D01*
X98574167Y71350887D01*
X98747966Y71257989D01*
X98747969Y71257989D01*
X98747973Y71257986D01*
X98936568Y71200776D01*
X99132700Y71181459D01*
X99328832Y71200776D01*
X99517427Y71257986D01*
X99691238Y71350890D01*
X99843583Y71475917D01*
X99912346Y71559706D01*
X99970092Y71599040D01*
X100039937Y71600911D01*
X100099705Y71564724D01*
X100130421Y71501968D01*
X100132200Y71481041D01*
X100132200Y71367048D01*
X100143831Y71308571D01*
X100143832Y71308570D01*
X100188147Y71242248D01*
X100254469Y71197933D01*
X100254470Y71197932D01*
X100312947Y71186301D01*
X100312950Y71186300D01*
X100312952Y71186300D01*
X101952450Y71186300D01*
X101952451Y71186301D01*
X101967268Y71189248D01*
X102010929Y71197932D01*
X102010929Y71197933D01*
X102010931Y71197933D01*
X102077252Y71242248D01*
X102121567Y71308569D01*
X102121567Y71308571D01*
X102121568Y71308571D01*
X102133199Y71367048D01*
X102133200Y71367050D01*
X102133200Y73006551D01*
X102133199Y73006553D01*
X102121568Y73065030D01*
X102121567Y73065031D01*
X102077252Y73131353D01*
X102010930Y73175668D01*
X102010929Y73175669D01*
X101952452Y73187300D01*
X101952448Y73187300D01*
X100772989Y73187300D01*
X100705950Y73206985D01*
X100660195Y73259789D01*
X100650251Y73328947D01*
X100679276Y73392503D01*
X100685308Y73398981D01*
X100863908Y73577581D01*
X100925231Y73611066D01*
X100951589Y73613900D01*
X103521328Y73613900D01*
X103588367Y73594215D01*
X103628715Y73551900D01*
X103712265Y73407186D01*
X103838929Y73266512D01*
X103992065Y73155252D01*
X103992070Y73155249D01*
X104164992Y73078258D01*
X104164997Y73078256D01*
X104350154Y73038900D01*
X104350155Y73038900D01*
X104539444Y73038900D01*
X104539446Y73038900D01*
X104724603Y73078256D01*
X104897530Y73155249D01*
X105050671Y73266512D01*
X105177333Y73407184D01*
X105271979Y73571116D01*
X105330474Y73751144D01*
X105350260Y73939400D01*
X106079340Y73939400D01*
X106099126Y73751144D01*
X106099127Y73751141D01*
X106157618Y73571123D01*
X106157621Y73571116D01*
X106252267Y73407184D01*
X106378929Y73266512D01*
X106532065Y73155252D01*
X106532070Y73155249D01*
X106704992Y73078258D01*
X106704997Y73078256D01*
X106890154Y73038900D01*
X106890155Y73038900D01*
X107079444Y73038900D01*
X107079446Y73038900D01*
X107264603Y73078256D01*
X107437530Y73155249D01*
X107590671Y73266512D01*
X107717333Y73407184D01*
X107811979Y73571116D01*
X107870474Y73751144D01*
X107890260Y73939400D01*
X107870474Y74127656D01*
X107811979Y74307684D01*
X107775308Y74371200D01*
X113487059Y74371200D01*
X113506375Y74175071D01*
X113506376Y74175068D01*
X113531686Y74091631D01*
X113563588Y73986467D01*
X113656486Y73812668D01*
X113656490Y73812661D01*
X113781516Y73660317D01*
X113933860Y73535291D01*
X113933867Y73535287D01*
X114107666Y73442389D01*
X114107669Y73442389D01*
X114107673Y73442386D01*
X114296268Y73385176D01*
X114492400Y73365859D01*
X114688532Y73385176D01*
X114870270Y73440307D01*
X114940137Y73440930D01*
X114993947Y73409327D01*
X115377450Y73025824D01*
X115384757Y73017850D01*
X115409041Y72988910D01*
X115409043Y72988909D01*
X115409045Y72988906D01*
X115409047Y72988905D01*
X115409048Y72988904D01*
X115441756Y72970020D01*
X115450879Y72964208D01*
X115481816Y72942546D01*
X115481819Y72942546D01*
X115486676Y72940280D01*
X115503442Y72933336D01*
X115508451Y72931513D01*
X115508454Y72931513D01*
X115508455Y72931512D01*
X115545661Y72924953D01*
X115556181Y72922621D01*
X115592694Y72912836D01*
X115630324Y72916129D01*
X115641131Y72916600D01*
X121523172Y72916600D01*
X121533980Y72916129D01*
X121571607Y72912836D01*
X121608119Y72922621D01*
X121618630Y72924951D01*
X121655845Y72931512D01*
X121655850Y72931516D01*
X121660899Y72933353D01*
X121677624Y72940281D01*
X121682481Y72942546D01*
X121682484Y72942546D01*
X121713425Y72964213D01*
X121722539Y72970018D01*
X121755255Y72988906D01*
X121755259Y72988910D01*
X121779536Y73017844D01*
X121786835Y73025811D01*
X122146207Y73385181D01*
X122207530Y73418666D01*
X122233888Y73421500D01*
X123542450Y73421500D01*
X123542451Y73421501D01*
X123557268Y73424448D01*
X123600929Y73433132D01*
X123600929Y73433133D01*
X123600931Y73433133D01*
X123667252Y73477448D01*
X123711567Y73543769D01*
X123711567Y73543771D01*
X123711568Y73543771D01*
X123723199Y73602248D01*
X123723200Y73602250D01*
X123723200Y75241751D01*
X123723199Y75241753D01*
X123711568Y75300230D01*
X123711567Y75300231D01*
X123667252Y75366553D01*
X123600930Y75410868D01*
X123600929Y75410869D01*
X123542452Y75422500D01*
X123542448Y75422500D01*
X121902952Y75422500D01*
X121902947Y75422500D01*
X121844470Y75410869D01*
X121844469Y75410868D01*
X121778147Y75366553D01*
X121733832Y75300231D01*
X121733831Y75300230D01*
X121722200Y75241753D01*
X121722200Y75119309D01*
X121702515Y75052270D01*
X121685881Y75031628D01*
X121120653Y74466402D01*
X121107865Y74547148D01*
X121050341Y74660045D01*
X120960745Y74749641D01*
X120847848Y74807165D01*
X120767101Y74819954D01*
X121448172Y75501026D01*
X121375178Y75552137D01*
X121169031Y75648265D01*
X121169017Y75648270D01*
X120949310Y75707140D01*
X120949299Y75707142D01*
X120722702Y75726966D01*
X120722698Y75726966D01*
X120496100Y75707142D01*
X120496089Y75707140D01*
X120276382Y75648270D01*
X120276373Y75648266D01*
X120070216Y75552134D01*
X120070212Y75552132D01*
X119997226Y75501027D01*
X119997226Y75501026D01*
X120678299Y74819954D01*
X120597552Y74807165D01*
X120484655Y74749641D01*
X120395059Y74660045D01*
X120337535Y74547148D01*
X120324746Y74466402D01*
X119643674Y75147474D01*
X119643673Y75147474D01*
X119592568Y75074488D01*
X119592566Y75074484D01*
X119496434Y74868327D01*
X119496430Y74868318D01*
X119437560Y74648611D01*
X119437558Y74648600D01*
X119417734Y74422003D01*
X119417734Y74421998D01*
X119437558Y74195401D01*
X119437560Y74195390D01*
X119496430Y73975683D01*
X119496434Y73975674D01*
X119592565Y73769518D01*
X119597323Y73762724D01*
X119619650Y73696518D01*
X119602640Y73628750D01*
X119551692Y73580937D01*
X119495748Y73567600D01*
X118246708Y73567600D01*
X118179669Y73587285D01*
X118133914Y73640089D01*
X118123970Y73709247D01*
X118134326Y73744005D01*
X118218665Y73924874D01*
X118218669Y73924883D01*
X118277539Y74144590D01*
X118277541Y74144601D01*
X118297366Y74371198D01*
X118297366Y74371203D01*
X118277541Y74597800D01*
X118277539Y74597811D01*
X118218669Y74817518D01*
X118218664Y74817532D01*
X118122536Y75023679D01*
X118122532Y75023687D01*
X118071425Y75096674D01*
X117390353Y74415603D01*
X117377565Y74496348D01*
X117320041Y74609245D01*
X117230445Y74698841D01*
X117117548Y74756365D01*
X117036801Y74769154D01*
X117717872Y75450226D01*
X117644878Y75501337D01*
X117438731Y75597465D01*
X117438717Y75597470D01*
X117219010Y75656340D01*
X117218999Y75656342D01*
X116992402Y75676166D01*
X116992398Y75676166D01*
X116765800Y75656342D01*
X116765789Y75656340D01*
X116546082Y75597470D01*
X116546073Y75597466D01*
X116339916Y75501334D01*
X116339912Y75501332D01*
X116266926Y75450227D01*
X116266926Y75450226D01*
X116947999Y74769154D01*
X116867252Y74756365D01*
X116754355Y74698841D01*
X116664759Y74609245D01*
X116607235Y74496348D01*
X116594446Y74415602D01*
X115913374Y75096674D01*
X115913373Y75096674D01*
X115862268Y75023688D01*
X115862266Y75023684D01*
X115766134Y74817527D01*
X115766131Y74817520D01*
X115707981Y74600501D01*
X115671616Y74540841D01*
X115608769Y74510312D01*
X115539393Y74518607D01*
X115485515Y74563092D01*
X115469546Y74596597D01*
X115421214Y74755927D01*
X115421212Y74755930D01*
X115421212Y74755932D01*
X115328313Y74929733D01*
X115328309Y74929740D01*
X115203283Y75082084D01*
X115050939Y75207110D01*
X115050932Y75207114D01*
X114877133Y75300012D01*
X114877127Y75300014D01*
X114688532Y75357224D01*
X114688529Y75357225D01*
X114492400Y75376541D01*
X114296270Y75357225D01*
X114107666Y75300012D01*
X113933867Y75207114D01*
X113933860Y75207110D01*
X113781516Y75082084D01*
X113656490Y74929740D01*
X113656486Y74929733D01*
X113563588Y74755934D01*
X113506375Y74567330D01*
X113487059Y74371200D01*
X107775308Y74371200D01*
X107717333Y74471616D01*
X107590671Y74612288D01*
X107540692Y74648600D01*
X107437534Y74723549D01*
X107437529Y74723552D01*
X107264607Y74800543D01*
X107264602Y74800545D01*
X107118801Y74831535D01*
X107079446Y74839900D01*
X106890154Y74839900D01*
X106857697Y74833002D01*
X106704997Y74800545D01*
X106704992Y74800543D01*
X106532070Y74723552D01*
X106532065Y74723549D01*
X106378929Y74612289D01*
X106252266Y74471615D01*
X106157621Y74307685D01*
X106157618Y74307678D01*
X106099127Y74127660D01*
X106099126Y74127656D01*
X106079340Y73939400D01*
X105350260Y73939400D01*
X105330474Y74127656D01*
X105271979Y74307684D01*
X105177333Y74471616D01*
X105050671Y74612288D01*
X105000692Y74648600D01*
X104897534Y74723549D01*
X104897529Y74723552D01*
X104724607Y74800543D01*
X104724602Y74800545D01*
X104578801Y74831535D01*
X104539446Y74839900D01*
X104350154Y74839900D01*
X104317697Y74833002D01*
X104164997Y74800545D01*
X104164992Y74800543D01*
X103992070Y74723552D01*
X103992065Y74723549D01*
X103838929Y74612289D01*
X103712265Y74471615D01*
X103628715Y74326900D01*
X103578148Y74278684D01*
X103521328Y74264900D01*
X100785016Y74264900D01*
X100774207Y74265372D01*
X100736592Y74268664D01*
X100700117Y74258890D01*
X100689561Y74256550D01*
X100652358Y74249989D01*
X100647383Y74248179D01*
X100630518Y74241193D01*
X100625713Y74238953D01*
X100594776Y74217292D01*
X100585662Y74211485D01*
X100552945Y74192595D01*
X100528661Y74163656D01*
X100521356Y74155685D01*
X99542252Y73176581D01*
X99480929Y73143096D01*
X99418577Y73145601D01*
X99328832Y73172824D01*
X99274782Y73178148D01*
X99209995Y73204310D01*
X99169636Y73261344D01*
X99166520Y73331145D01*
X99199254Y73389230D01*
X103087107Y77277081D01*
X103148430Y77310566D01*
X103174788Y77313400D01*
X104256772Y77313400D01*
X104267580Y77312929D01*
X104305207Y77309636D01*
X104341719Y77319421D01*
X104352230Y77321751D01*
X104389445Y77328312D01*
X104389450Y77328316D01*
X104394499Y77330153D01*
X104411224Y77337081D01*
X104416081Y77339346D01*
X104416084Y77339346D01*
X104447025Y77361013D01*
X104456144Y77366821D01*
X104471278Y77375558D01*
X104488855Y77385706D01*
X104513138Y77414647D01*
X104520436Y77422612D01*
X105259779Y78161955D01*
X105321100Y78195438D01*
X105390792Y78190454D01*
X105443311Y78152937D01*
X105512960Y78068070D01*
X105513190Y78067790D01*
X105673150Y77936515D01*
X105855646Y77838968D01*
X106053666Y77778900D01*
X106053665Y77778900D01*
X106072129Y77777082D01*
X106259600Y77758617D01*
X106465534Y77778900D01*
X106663554Y77838968D01*
X106846050Y77936515D01*
X107006010Y78067790D01*
X107137285Y78227750D01*
X107234832Y78410246D01*
X107294900Y78608266D01*
X107315183Y78814200D01*
X107294900Y79020134D01*
X107234832Y79218154D01*
X107137285Y79400650D01*
X107085302Y79463991D01*
X107006010Y79560611D01*
X106846052Y79691883D01*
X106846053Y79691883D01*
X106846050Y79691885D01*
X106663554Y79789432D01*
X106465534Y79849500D01*
X106465532Y79849501D01*
X106465534Y79849501D01*
X106259600Y79869783D01*
X106053667Y79849501D01*
X105855643Y79789431D01*
X105822234Y79771573D01*
X105673150Y79691885D01*
X105673148Y79691884D01*
X105673147Y79691883D01*
X105513189Y79560611D01*
X105381917Y79400653D01*
X105284368Y79218155D01*
X105283579Y79216249D01*
X105282898Y79215404D01*
X105281496Y79212781D01*
X105280998Y79213047D01*
X105239738Y79161845D01*
X105173444Y79139779D01*
X105169017Y79139700D01*
X105026905Y79139700D01*
X105009909Y79133516D01*
X104989052Y79127928D01*
X104971258Y79124790D01*
X104971255Y79124788D01*
X104955604Y79115753D01*
X104936026Y79106624D01*
X104919044Y79100443D01*
X104919038Y79100439D01*
X104912632Y79095064D01*
X104848622Y79067056D01*
X104779631Y79078100D01*
X104727563Y79124690D01*
X104714274Y79154059D01*
X104694832Y79218154D01*
X104597285Y79400650D01*
X104545302Y79463991D01*
X104466010Y79560611D01*
X104306052Y79691883D01*
X104306053Y79691883D01*
X104306050Y79691885D01*
X104123554Y79789432D01*
X103925534Y79849500D01*
X103925532Y79849501D01*
X103925534Y79849501D01*
X103719600Y79869783D01*
X103513667Y79849501D01*
X103315643Y79789431D01*
X103282234Y79771573D01*
X103133150Y79691885D01*
X103133148Y79691884D01*
X103133147Y79691883D01*
X102973189Y79560611D01*
X102841917Y79400653D01*
X102744369Y79218157D01*
X102684299Y79020133D01*
X102664017Y78814200D01*
X102684299Y78608268D01*
X102697667Y78564200D01*
X102744368Y78410246D01*
X102818729Y78271127D01*
X102841917Y78227747D01*
X102914959Y78138745D01*
X102942272Y78074435D01*
X102930481Y78005567D01*
X102883329Y77954007D01*
X102881100Y77952690D01*
X102877095Y77950378D01*
X102853724Y77940697D01*
X102848913Y77938454D01*
X102817981Y77916795D01*
X102808864Y77910986D01*
X102776148Y77892096D01*
X102776140Y77892090D01*
X102751862Y77863157D01*
X102744556Y77855184D01*
X93324715Y68435343D01*
X93316742Y68428036D01*
X93287805Y68403755D01*
X93268914Y68371036D01*
X93263105Y68361919D01*
X93241446Y68330987D01*
X93239206Y68326183D01*
X93232229Y68309339D01*
X93230410Y68304340D01*
X93223852Y68267152D01*
X93221512Y68256597D01*
X93211735Y68220109D01*
X93211735Y68220108D01*
X93215028Y68182483D01*
X93215500Y68171674D01*
X93215500Y62510589D01*
X93195815Y62443550D01*
X93179181Y62422908D01*
X89907998Y59151726D01*
X89846675Y59118241D01*
X89776983Y59123225D01*
X89769885Y59126126D01*
X89764007Y59128743D01*
X89764002Y59128745D01*
X89596154Y59164421D01*
X89578846Y59168100D01*
X89389554Y59168100D01*
X89372246Y59164421D01*
X89204397Y59128745D01*
X89204392Y59128743D01*
X89031470Y59051752D01*
X89031465Y59051749D01*
X88878329Y58940489D01*
X88751666Y58799815D01*
X88657021Y58635885D01*
X88657018Y58635878D01*
X88609338Y58489132D01*
X88598526Y58455856D01*
X88578740Y58267600D01*
X85936951Y58267600D01*
X85887210Y58328211D01*
X85764713Y58428740D01*
X85727250Y58459485D01*
X85579532Y58538443D01*
X85529689Y58587405D01*
X85514229Y58655543D01*
X85538061Y58721222D01*
X85593619Y58763591D01*
X85637987Y58771800D01*
X86038628Y58771800D01*
X86038644Y58771801D01*
X86098172Y58778202D01*
X86098179Y58778204D01*
X86232886Y58828446D01*
X86232893Y58828450D01*
X86347987Y58914610D01*
X86347990Y58914613D01*
X86434150Y59029707D01*
X86434154Y59029714D01*
X86484396Y59164421D01*
X86484398Y59164428D01*
X86490799Y59223956D01*
X86490800Y59223973D01*
X86490800Y59871800D01*
X85574486Y59871800D01*
X85600293Y59911956D01*
X85640800Y60049911D01*
X85640800Y60193689D01*
X85600293Y60331644D01*
X85574486Y60371800D01*
X86490800Y60371800D01*
X86490800Y61019628D01*
X86490799Y61019645D01*
X86484398Y61079173D01*
X86484396Y61079180D01*
X86434154Y61213887D01*
X86434150Y61213894D01*
X86347990Y61328988D01*
X86347987Y61328991D01*
X86232893Y61415151D01*
X86232886Y61415155D01*
X86098179Y61465397D01*
X86098172Y61465399D01*
X86038644Y61471800D01*
X85390800Y61471800D01*
X85390800Y60557302D01*
X85283115Y60606480D01*
X85176563Y60621800D01*
X85105037Y60621800D01*
X84998485Y60606480D01*
X84890800Y60557302D01*
X84890800Y61471800D01*
X84242955Y61471800D01*
X84183427Y61465399D01*
X84183420Y61465397D01*
X84048713Y61415155D01*
X84048706Y61415151D01*
X83933612Y61328991D01*
X83933609Y61328988D01*
X83847449Y61213894D01*
X83847445Y61213887D01*
X83797203Y61079180D01*
X83797201Y61079173D01*
X83790800Y61019645D01*
X83790800Y60371800D01*
X84707114Y60371800D01*
X84681307Y60331644D01*
X84640800Y60193689D01*
X84640800Y60049911D01*
X84681307Y59911956D01*
X84707114Y59871800D01*
X83790800Y59871800D01*
X83790800Y59223956D01*
X83210400Y59223956D01*
X83210400Y65684399D01*
X83667918Y65684399D01*
X83687822Y65406101D01*
X83747127Y65133484D01*
X83747129Y65133477D01*
X83793460Y65009259D01*
X83844631Y64872062D01*
X83844633Y64872058D01*
X83978340Y64627193D01*
X83978345Y64627185D01*
X84145538Y64403840D01*
X84145554Y64403822D01*
X84342821Y64206555D01*
X84342839Y64206539D01*
X84566184Y64039346D01*
X84566192Y64039341D01*
X84811057Y63905634D01*
X84811061Y63905632D01*
X84811063Y63905631D01*
X85072477Y63808129D01*
X85181511Y63784410D01*
X85345100Y63748823D01*
X85345102Y63748823D01*
X85345106Y63748822D01*
X85592414Y63731135D01*
X85623399Y63728918D01*
X85623400Y63728918D01*
X85623401Y63728918D01*
X85651281Y63730913D01*
X85901694Y63748822D01*
X85908227Y63750243D01*
X85982903Y63766488D01*
X86174323Y63808129D01*
X86435737Y63905631D01*
X86680613Y64039344D01*
X86903968Y64206545D01*
X87101255Y64403832D01*
X87268456Y64627187D01*
X87402169Y64872063D01*
X87499671Y65133477D01*
X87551101Y65369898D01*
X87558977Y65406101D01*
X87558977Y65406102D01*
X87558978Y65406106D01*
X87578753Y65682591D01*
X87578882Y65684399D01*
X87578882Y65684402D01*
X87571348Y65789734D01*
X87558978Y65962694D01*
X87558795Y65963533D01*
X87553212Y65989200D01*
X88553340Y65989200D01*
X88573126Y65800944D01*
X88573127Y65800941D01*
X88631618Y65620923D01*
X88631621Y65620916D01*
X88726267Y65456984D01*
X88836366Y65334707D01*
X88852929Y65316312D01*
X89006065Y65205052D01*
X89006070Y65205049D01*
X89178992Y65128058D01*
X89178997Y65128056D01*
X89364154Y65088700D01*
X89364155Y65088700D01*
X89553444Y65088700D01*
X89553446Y65088700D01*
X89738603Y65128056D01*
X89911530Y65205049D01*
X90064671Y65316312D01*
X90191333Y65456984D01*
X90285979Y65620916D01*
X90344474Y65800944D01*
X90364260Y65989200D01*
X91093340Y65989200D01*
X91113126Y65800944D01*
X91113127Y65800941D01*
X91171618Y65620923D01*
X91171621Y65620916D01*
X91266267Y65456984D01*
X91376366Y65334707D01*
X91392929Y65316312D01*
X91546065Y65205052D01*
X91546070Y65205049D01*
X91718992Y65128058D01*
X91718997Y65128056D01*
X91904154Y65088700D01*
X91904155Y65088700D01*
X92093444Y65088700D01*
X92093446Y65088700D01*
X92278603Y65128056D01*
X92451530Y65205049D01*
X92604671Y65316312D01*
X92731333Y65456984D01*
X92825979Y65620916D01*
X92884474Y65800944D01*
X92904260Y65989200D01*
X92884474Y66177456D01*
X92825979Y66357484D01*
X92731333Y66521416D01*
X92604671Y66662088D01*
X92595400Y66668824D01*
X92451534Y66773349D01*
X92451529Y66773352D01*
X92278607Y66850343D01*
X92278602Y66850345D01*
X92109912Y66886200D01*
X92093446Y66889700D01*
X91904154Y66889700D01*
X91887688Y66886200D01*
X91718997Y66850345D01*
X91718992Y66850343D01*
X91546070Y66773352D01*
X91546065Y66773349D01*
X91392929Y66662089D01*
X91266266Y66521415D01*
X91171621Y66357485D01*
X91171618Y66357478D01*
X91113127Y66177460D01*
X91113126Y66177456D01*
X91093340Y65989200D01*
X90364260Y65989200D01*
X90344474Y66177456D01*
X90285979Y66357484D01*
X90191333Y66521416D01*
X90064671Y66662088D01*
X90055400Y66668824D01*
X89911532Y66773351D01*
X89857863Y66797246D01*
X89804627Y66842497D01*
X89784306Y66909346D01*
X89784300Y66910525D01*
X89784300Y69817912D01*
X89803985Y69884951D01*
X89820614Y69905590D01*
X89912097Y69997073D01*
X89920048Y70004358D01*
X89948994Y70028645D01*
X89967882Y70061361D01*
X89973687Y70070475D01*
X89995354Y70101416D01*
X89995354Y70101419D01*
X89997619Y70106276D01*
X90004547Y70123001D01*
X90006384Y70128050D01*
X90006388Y70128055D01*
X90012949Y70165270D01*
X90015279Y70175781D01*
X90025064Y70212293D01*
X90021772Y70249923D01*
X90021300Y70260731D01*
X90021300Y70325817D01*
X90040985Y70392856D01*
X90093789Y70438611D01*
X90097849Y70440379D01*
X90099745Y70441166D01*
X90099754Y70441168D01*
X90282250Y70538715D01*
X90442210Y70669990D01*
X90573485Y70829950D01*
X90671032Y71012446D01*
X90731100Y71210466D01*
X90746300Y71364792D01*
X90746300Y71816900D01*
X90765985Y71883939D01*
X90818789Y71929694D01*
X90870300Y71940900D01*
X94244872Y71940900D01*
X94255680Y71940429D01*
X94293307Y71937136D01*
X94329819Y71946921D01*
X94340330Y71949251D01*
X94377545Y71955812D01*
X94377550Y71955816D01*
X94382599Y71957653D01*
X94399324Y71964581D01*
X94404181Y71966846D01*
X94404184Y71966846D01*
X94435125Y71988513D01*
X94444244Y71994321D01*
X94476955Y72013206D01*
X94476957Y72013208D01*
X94501236Y72042144D01*
X94508536Y72050112D01*
X100220590Y77762166D01*
X100228543Y77769454D01*
X100257494Y77793745D01*
X100276382Y77826461D01*
X100282187Y77835575D01*
X100303854Y77866516D01*
X100303854Y77866519D01*
X100306119Y77871376D01*
X100313047Y77888101D01*
X100314884Y77893150D01*
X100314888Y77893155D01*
X100319913Y77921659D01*
X100350938Y77984259D01*
X100410884Y78020150D01*
X100480719Y78017935D01*
X100520693Y77995979D01*
X100543340Y77977393D01*
X100573440Y77952690D01*
X100593150Y77936515D01*
X100775646Y77838968D01*
X100973666Y77778900D01*
X100973665Y77778900D01*
X100992129Y77777082D01*
X101179600Y77758617D01*
X101385534Y77778900D01*
X101583554Y77838968D01*
X101766050Y77936515D01*
X101926010Y78067790D01*
X102057285Y78227750D01*
X102154832Y78410246D01*
X102214900Y78608266D01*
X102235183Y78814200D01*
X102214900Y79020134D01*
X102154832Y79218154D01*
X102057285Y79400650D01*
X102005302Y79463991D01*
X101926010Y79560611D01*
X101766052Y79691883D01*
X101766053Y79691883D01*
X101766050Y79691885D01*
X101583554Y79789432D01*
X101385534Y79849500D01*
X101385532Y79849501D01*
X101385534Y79849501D01*
X101179600Y79869783D01*
X100973667Y79849501D01*
X100775643Y79789431D01*
X100742234Y79771573D01*
X100593150Y79691885D01*
X100593148Y79691884D01*
X100593147Y79691883D01*
X100433189Y79560611D01*
X100301917Y79400653D01*
X100222958Y79252933D01*
X100173995Y79203089D01*
X100105857Y79187629D01*
X100040178Y79211461D01*
X99997809Y79267019D01*
X99989600Y79311387D01*
X99989600Y79712028D01*
X99989599Y79712045D01*
X99983198Y79771573D01*
X99983196Y79771580D01*
X99932954Y79906287D01*
X99932950Y79906294D01*
X99846790Y80021388D01*
X99846787Y80021391D01*
X99731693Y80107551D01*
X99731686Y80107555D01*
X99596979Y80157797D01*
X99596972Y80157799D01*
X99537444Y80164200D01*
X98889600Y80164200D01*
X98889600Y79249702D01*
X98781915Y79298880D01*
X98675363Y79314200D01*
X98603837Y79314200D01*
X98497285Y79298880D01*
X98389600Y79249702D01*
X98389600Y80164200D01*
X97741755Y80164200D01*
X97682227Y80157799D01*
X97682220Y80157797D01*
X97547513Y80107555D01*
X97547506Y80107551D01*
X97432412Y80021391D01*
X97432409Y80021388D01*
X97346249Y79906294D01*
X97346245Y79906287D01*
X97296003Y79771580D01*
X97296001Y79771573D01*
X97289600Y79712045D01*
X97289600Y79064200D01*
X98205914Y79064200D01*
X98180107Y79024044D01*
X98139600Y78886089D01*
X98139600Y78742311D01*
X98180107Y78604356D01*
X98205914Y78564200D01*
X97289600Y78564200D01*
X97289600Y77916356D01*
X97296001Y77856828D01*
X97296003Y77856821D01*
X97346245Y77722114D01*
X97346249Y77722107D01*
X97432409Y77607013D01*
X97432412Y77607010D01*
X97547506Y77520850D01*
X97547513Y77520846D01*
X97682220Y77470604D01*
X97682227Y77470602D01*
X97741755Y77464201D01*
X97741772Y77464200D01*
X98389600Y77464200D01*
X98389600Y78378699D01*
X98497285Y78329520D01*
X98603837Y78314200D01*
X98675363Y78314200D01*
X98781915Y78329520D01*
X98889600Y78378699D01*
X98889600Y77438018D01*
X98891591Y77434371D01*
X98886607Y77364679D01*
X98858106Y77320332D01*
X94165993Y72628219D01*
X94104670Y72594734D01*
X94078312Y72591900D01*
X90870300Y72591900D01*
X90803261Y72611585D01*
X90757506Y72664389D01*
X90746300Y72715900D01*
X90746300Y73168005D01*
X90745825Y73172824D01*
X90731100Y73322334D01*
X90671032Y73520354D01*
X90573485Y73702850D01*
X90483366Y73812661D01*
X90442210Y73862811D01*
X90324477Y73959431D01*
X90282250Y73994085D01*
X90099754Y74091632D01*
X89901734Y74151700D01*
X89901732Y74151701D01*
X89901734Y74151701D01*
X89695800Y74171983D01*
X89489867Y74151701D01*
X89291843Y74091631D01*
X89189329Y74036835D01*
X89109350Y73994085D01*
X89109348Y73994084D01*
X89109347Y73994083D01*
X88949389Y73862811D01*
X88818117Y73702853D01*
X88818115Y73702850D01*
X88784568Y73640089D01*
X88720569Y73520357D01*
X88660499Y73322333D01*
X88649139Y73206985D01*
X88645300Y73168008D01*
X88645300Y71364792D01*
X88646670Y71350887D01*
X88660499Y71210468D01*
X88669299Y71181459D01*
X88720568Y71012446D01*
X88818115Y70829950D01*
X88818117Y70829948D01*
X88949389Y70669990D01*
X89046009Y70590698D01*
X89109350Y70538715D01*
X89238037Y70469930D01*
X89287880Y70420969D01*
X89303340Y70352831D01*
X89279508Y70287151D01*
X89267263Y70272892D01*
X89242509Y70248138D01*
X89234536Y70240832D01*
X89205607Y70216558D01*
X89205606Y70216556D01*
X89186714Y70183836D01*
X89180905Y70174719D01*
X89159246Y70143787D01*
X89157006Y70138983D01*
X89150029Y70122139D01*
X89148210Y70117140D01*
X89141652Y70079952D01*
X89139312Y70069397D01*
X89129535Y70032909D01*
X89129535Y70032908D01*
X89132828Y69995283D01*
X89133300Y69984474D01*
X89133300Y66910525D01*
X89113615Y66843486D01*
X89060811Y66797731D01*
X89059737Y66797246D01*
X89006067Y66773351D01*
X88852929Y66662089D01*
X88726266Y66521415D01*
X88631621Y66357485D01*
X88631618Y66357478D01*
X88573127Y66177460D01*
X88573126Y66177456D01*
X88553340Y65989200D01*
X87553212Y65989200D01*
X87520531Y66139433D01*
X87499671Y66235323D01*
X87402169Y66496737D01*
X87392538Y66514374D01*
X87268459Y66741608D01*
X87268454Y66741616D01*
X87101261Y66964961D01*
X87101245Y66964979D01*
X86903978Y67162246D01*
X86903960Y67162262D01*
X86680615Y67329455D01*
X86680607Y67329460D01*
X86435742Y67463167D01*
X86435738Y67463169D01*
X86282648Y67520268D01*
X86174323Y67560671D01*
X86174319Y67560672D01*
X86174316Y67560673D01*
X85901699Y67619978D01*
X85623401Y67639882D01*
X85623399Y67639882D01*
X85345100Y67619978D01*
X85072483Y67560673D01*
X85072478Y67560672D01*
X85072477Y67560671D01*
X85009275Y67537099D01*
X84811061Y67463169D01*
X84811057Y67463167D01*
X84566192Y67329460D01*
X84566184Y67329455D01*
X84342839Y67162262D01*
X84342821Y67162246D01*
X84145554Y66964979D01*
X84145538Y66964961D01*
X83978345Y66741616D01*
X83978340Y66741608D01*
X83844633Y66496743D01*
X83844631Y66496739D01*
X83774052Y66307506D01*
X83749215Y66240914D01*
X83747127Y66235317D01*
X83687822Y65962700D01*
X83667918Y65684402D01*
X83667918Y65684399D01*
X83210400Y65684399D01*
X83210400Y76516400D01*
X87267122Y76516400D01*
X87286034Y76403066D01*
X87365402Y76171877D01*
X87365405Y76171869D01*
X87481749Y75956885D01*
X87481753Y75956879D01*
X87631882Y75763994D01*
X87631891Y75763984D01*
X87811729Y75598431D01*
X87811733Y75598428D01*
X88016370Y75464731D01*
X88240226Y75366539D01*
X88477194Y75306531D01*
X88659784Y75291401D01*
X88659799Y75291400D01*
X89445800Y75291400D01*
X89445800Y76116400D01*
X89945800Y76116400D01*
X89945800Y75291400D01*
X90731801Y75291400D01*
X90731815Y75291401D01*
X90914405Y75306531D01*
X91151373Y75366539D01*
X91375229Y75464731D01*
X91579866Y75598428D01*
X91579870Y75598431D01*
X91759708Y75763984D01*
X91759717Y75763994D01*
X91909846Y75956879D01*
X91909850Y75956885D01*
X92026194Y76171869D01*
X92026197Y76171877D01*
X92105565Y76403066D01*
X92124478Y76516400D01*
X90896528Y76516400D01*
X90918900Y76563943D01*
X90949673Y76725262D01*
X90939361Y76889166D01*
X90898020Y77016400D01*
X92124477Y77016400D01*
X92124477Y77016401D01*
X92105565Y77129735D01*
X92026197Y77360924D01*
X92026194Y77360932D01*
X91909850Y77575916D01*
X91909846Y77575922D01*
X91759717Y77768807D01*
X91759708Y77768817D01*
X91579870Y77934370D01*
X91579866Y77934373D01*
X91375229Y78068070D01*
X91151373Y78166262D01*
X90914405Y78226270D01*
X90731815Y78241400D01*
X89945800Y78241400D01*
X89945800Y77416400D01*
X89445800Y77416400D01*
X89445800Y78241400D01*
X88659784Y78241400D01*
X88477194Y78226270D01*
X88240226Y78166262D01*
X88016370Y78068070D01*
X87811733Y77934373D01*
X87811729Y77934370D01*
X87631891Y77768817D01*
X87631882Y77768807D01*
X87481753Y77575922D01*
X87481749Y77575916D01*
X87365405Y77360932D01*
X87365402Y77360924D01*
X87286034Y77129735D01*
X87267122Y77016401D01*
X87267123Y77016400D01*
X88495072Y77016400D01*
X88472700Y76968857D01*
X88441927Y76807538D01*
X88452239Y76643634D01*
X88493580Y76516400D01*
X87267122Y76516400D01*
X83210400Y76516400D01*
X83210400Y80927328D01*
X83230085Y80994367D01*
X83282889Y81040122D01*
X83334470Y81051328D01*
X126596261Y81026073D01*
G37*
%TD.AperFunction*%
%TD*%
M02*
