M48
; DRILL file {KiCad 7.0.10-7.0.10~ubuntu22.04.1} date mar 16 abr 2024 08:27:30
; FORMAT={-:-/ absolute / inch / decimal}
; #@! TF.CreationDate,2024-04-16T08:27:30+02:00
; #@! TF.GenerationSoftware,Kicad,Pcbnew,7.0.10-7.0.10~ubuntu22.04.1
; #@! TF.FileFunction,Plated,1,2,PTH
FMAT,2
INCH
; #@! TA.AperFunction,Plated,PTH,ComponentDrill
T1C0.0276
; #@! TA.AperFunction,Plated,PTH,ComponentDrill
T2C0.0315
; #@! TA.AperFunction,Plated,PTH,ComponentDrill
T3C0.0354
; #@! TA.AperFunction,Plated,PTH,ComponentDrill
T4C0.0394
; #@! TA.AperFunction,Plated,PTH,ComponentDrill
T5C0.0512
; #@! TA.AperFunction,Plated,PTH,ComponentDrill
T6C0.0866
%
G90
G05
T1
X3.522Y2.598
X3.523Y2.294
X3.622Y2.598
X3.623Y2.294
X4.112Y2.911
X4.212Y2.911
X4.667Y2.662
X4.667Y2.573
X4.667Y2.484
X4.767Y2.662
X4.767Y2.573
X4.767Y2.484
T2
X3.748Y2.599
X3.753Y2.295
X3.8267Y2.599
X3.8317Y2.295
X3.9029Y2.842
X3.9816Y2.842
X4.099Y2.184
X4.1974Y2.184
X4.443Y2.3768
X4.443Y2.2784
X4.4476Y2.666
X4.4476Y2.575
X4.4476Y2.484
X4.5076Y2.928
X4.546Y2.666
X4.546Y2.575
X4.546Y2.484
X4.606Y2.928
X4.6479Y2.284
X4.7529Y2.93
X4.8316Y2.93
X4.84Y2.284
T3
X3.857Y2.057
X3.957Y2.057
T4
X3.352Y2.367
X3.352Y2.267
X3.4276Y2.059
X3.5276Y2.059
X3.6276Y2.059
X3.8834Y3.1029
X3.9834Y3.1029
X4.0834Y3.1029
X4.1834Y3.1029
X4.414Y2.054
X4.514Y2.054
X4.614Y2.054
X4.714Y2.054
X4.814Y2.054
X4.914Y2.054
T6
X3.371Y2.586
X4.891Y2.586
T4
G00X3.5313Y2.8156
M15
G01X3.5313Y2.8747
M16
G05
T5
G00X3.5077Y3.0223
M15
G01X3.555Y3.0223
M16
G05
M30
