%TF.GenerationSoftware,KiCad,Pcbnew,7.0.10-7.0.10~ubuntu22.04.1*%
%TF.CreationDate,2024-04-16T08:27:36+02:00*%
%TF.ProjectId,oric_comp_video,6f726963-5f63-46f6-9d70-5f766964656f,1*%
%TF.SameCoordinates,PX1b40518PY99d1710*%
%TF.FileFunction,Legend,Top*%
%TF.FilePolarity,Positive*%
%FSLAX46Y46*%
G04 Gerber Fmt 4.6, Leading zero omitted, Abs format (unit mm)*
G04 Created by KiCad (PCBNEW 7.0.10-7.0.10~ubuntu22.04.1) date 2024-04-16 08:27:36*
%MOMM*%
%LPD*%
G01*
G04 APERTURE LIST*
%ADD10C,0.200000*%
%ADD11C,0.150000*%
%ADD12C,0.275000*%
%ADD13C,0.015000*%
%ADD14C,0.120000*%
%ADD15C,0.127000*%
G04 APERTURE END LIST*
D10*
X121920048Y54437134D02*
X122681953Y54437134D01*
X122301000Y54056181D02*
X122301000Y54818086D01*
X112247323Y53929181D02*
X111913990Y54405372D01*
X111675895Y53929181D02*
X111675895Y54929181D01*
X111675895Y54929181D02*
X112056847Y54929181D01*
X112056847Y54929181D02*
X112152085Y54881562D01*
X112152085Y54881562D02*
X112199704Y54833943D01*
X112199704Y54833943D02*
X112247323Y54738705D01*
X112247323Y54738705D02*
X112247323Y54595848D01*
X112247323Y54595848D02*
X112199704Y54500610D01*
X112199704Y54500610D02*
X112152085Y54452991D01*
X112152085Y54452991D02*
X112056847Y54405372D01*
X112056847Y54405372D02*
X111675895Y54405372D01*
X114790504Y54881562D02*
X114695266Y54929181D01*
X114695266Y54929181D02*
X114552409Y54929181D01*
X114552409Y54929181D02*
X114409552Y54881562D01*
X114409552Y54881562D02*
X114314314Y54786324D01*
X114314314Y54786324D02*
X114266695Y54691086D01*
X114266695Y54691086D02*
X114219076Y54500610D01*
X114219076Y54500610D02*
X114219076Y54357753D01*
X114219076Y54357753D02*
X114266695Y54167277D01*
X114266695Y54167277D02*
X114314314Y54072039D01*
X114314314Y54072039D02*
X114409552Y53976800D01*
X114409552Y53976800D02*
X114552409Y53929181D01*
X114552409Y53929181D02*
X114647647Y53929181D01*
X114647647Y53929181D02*
X114790504Y53976800D01*
X114790504Y53976800D02*
X114838123Y54024420D01*
X114838123Y54024420D02*
X114838123Y54357753D01*
X114838123Y54357753D02*
X114647647Y54357753D01*
X119399086Y53926000D02*
X119541943Y53878381D01*
X119541943Y53878381D02*
X119780038Y53878381D01*
X119780038Y53878381D02*
X119875276Y53926000D01*
X119875276Y53926000D02*
X119922895Y53973620D01*
X119922895Y53973620D02*
X119970514Y54068858D01*
X119970514Y54068858D02*
X119970514Y54164096D01*
X119970514Y54164096D02*
X119922895Y54259334D01*
X119922895Y54259334D02*
X119875276Y54306953D01*
X119875276Y54306953D02*
X119780038Y54354572D01*
X119780038Y54354572D02*
X119589562Y54402191D01*
X119589562Y54402191D02*
X119494324Y54449810D01*
X119494324Y54449810D02*
X119446705Y54497429D01*
X119446705Y54497429D02*
X119399086Y54592667D01*
X119399086Y54592667D02*
X119399086Y54687905D01*
X119399086Y54687905D02*
X119446705Y54783143D01*
X119446705Y54783143D02*
X119494324Y54830762D01*
X119494324Y54830762D02*
X119589562Y54878381D01*
X119589562Y54878381D02*
X119827657Y54878381D01*
X119827657Y54878381D02*
X119970514Y54830762D01*
X124383848Y54411734D02*
X125145753Y54411734D01*
D11*
X94850295Y50806515D02*
X94050295Y50806515D01*
X94050295Y50806515D02*
X94850295Y51263658D01*
X94850295Y51263658D02*
X94050295Y51263658D01*
X94050295Y51530324D02*
X94050295Y51987467D01*
X94850295Y51758895D02*
X94050295Y51758895D01*
X94812200Y52216038D02*
X94850295Y52330324D01*
X94850295Y52330324D02*
X94850295Y52520800D01*
X94850295Y52520800D02*
X94812200Y52596991D01*
X94812200Y52596991D02*
X94774104Y52635086D01*
X94774104Y52635086D02*
X94697914Y52673181D01*
X94697914Y52673181D02*
X94621723Y52673181D01*
X94621723Y52673181D02*
X94545533Y52635086D01*
X94545533Y52635086D02*
X94507438Y52596991D01*
X94507438Y52596991D02*
X94469342Y52520800D01*
X94469342Y52520800D02*
X94431247Y52368419D01*
X94431247Y52368419D02*
X94393152Y52292229D01*
X94393152Y52292229D02*
X94355057Y52254134D01*
X94355057Y52254134D02*
X94278866Y52216038D01*
X94278866Y52216038D02*
X94202676Y52216038D01*
X94202676Y52216038D02*
X94126485Y52254134D01*
X94126485Y52254134D02*
X94088390Y52292229D01*
X94088390Y52292229D02*
X94050295Y52368419D01*
X94050295Y52368419D02*
X94050295Y52558896D01*
X94050295Y52558896D02*
X94088390Y52673181D01*
X94774104Y53473182D02*
X94812200Y53435086D01*
X94812200Y53435086D02*
X94850295Y53320801D01*
X94850295Y53320801D02*
X94850295Y53244610D01*
X94850295Y53244610D02*
X94812200Y53130324D01*
X94812200Y53130324D02*
X94736009Y53054134D01*
X94736009Y53054134D02*
X94659819Y53016039D01*
X94659819Y53016039D02*
X94507438Y52977943D01*
X94507438Y52977943D02*
X94393152Y52977943D01*
X94393152Y52977943D02*
X94240771Y53016039D01*
X94240771Y53016039D02*
X94164580Y53054134D01*
X94164580Y53054134D02*
X94088390Y53130324D01*
X94088390Y53130324D02*
X94050295Y53244610D01*
X94050295Y53244610D02*
X94050295Y53320801D01*
X94050295Y53320801D02*
X94088390Y53435086D01*
X94088390Y53435086D02*
X94126485Y53473182D01*
D10*
X117241628Y54402191D02*
X117384485Y54354572D01*
X117384485Y54354572D02*
X117432104Y54306953D01*
X117432104Y54306953D02*
X117479723Y54211715D01*
X117479723Y54211715D02*
X117479723Y54068858D01*
X117479723Y54068858D02*
X117432104Y53973620D01*
X117432104Y53973620D02*
X117384485Y53926000D01*
X117384485Y53926000D02*
X117289247Y53878381D01*
X117289247Y53878381D02*
X116908295Y53878381D01*
X116908295Y53878381D02*
X116908295Y54878381D01*
X116908295Y54878381D02*
X117241628Y54878381D01*
X117241628Y54878381D02*
X117336866Y54830762D01*
X117336866Y54830762D02*
X117384485Y54783143D01*
X117384485Y54783143D02*
X117432104Y54687905D01*
X117432104Y54687905D02*
X117432104Y54592667D01*
X117432104Y54592667D02*
X117384485Y54497429D01*
X117384485Y54497429D02*
X117336866Y54449810D01*
X117336866Y54449810D02*
X117241628Y54402191D01*
X117241628Y54402191D02*
X116908295Y54402191D01*
D11*
X107416571Y60449172D02*
X107845142Y60449172D01*
X107845142Y60449172D02*
X107930857Y60420601D01*
X107930857Y60420601D02*
X107988000Y60363458D01*
X107988000Y60363458D02*
X108016571Y60277744D01*
X108016571Y60277744D02*
X108016571Y60220601D01*
X108016571Y61020601D02*
X108016571Y60734887D01*
X108016571Y60734887D02*
X107416571Y60734887D01*
X107959428Y61563458D02*
X107988000Y61534886D01*
X107988000Y61534886D02*
X108016571Y61449172D01*
X108016571Y61449172D02*
X108016571Y61392029D01*
X108016571Y61392029D02*
X107988000Y61306315D01*
X107988000Y61306315D02*
X107930857Y61249172D01*
X107930857Y61249172D02*
X107873714Y61220601D01*
X107873714Y61220601D02*
X107759428Y61192029D01*
X107759428Y61192029D02*
X107673714Y61192029D01*
X107673714Y61192029D02*
X107559428Y61220601D01*
X107559428Y61220601D02*
X107502285Y61249172D01*
X107502285Y61249172D02*
X107445142Y61306315D01*
X107445142Y61306315D02*
X107416571Y61392029D01*
X107416571Y61392029D02*
X107416571Y61449172D01*
X107416571Y61449172D02*
X107445142Y61534886D01*
X107445142Y61534886D02*
X107473714Y61563458D01*
X107416571Y61992029D02*
X107845142Y61992029D01*
X107845142Y61992029D02*
X107930857Y61963458D01*
X107930857Y61963458D02*
X107988000Y61906315D01*
X107988000Y61906315D02*
X108016571Y61820601D01*
X108016571Y61820601D02*
X108016571Y61763458D01*
X108016571Y62563458D02*
X108016571Y62277744D01*
X108016571Y62277744D02*
X107416571Y62277744D01*
X107959428Y63106315D02*
X107988000Y63077743D01*
X107988000Y63077743D02*
X108016571Y62992029D01*
X108016571Y62992029D02*
X108016571Y62934886D01*
X108016571Y62934886D02*
X107988000Y62849172D01*
X107988000Y62849172D02*
X107930857Y62792029D01*
X107930857Y62792029D02*
X107873714Y62763458D01*
X107873714Y62763458D02*
X107759428Y62734886D01*
X107759428Y62734886D02*
X107673714Y62734886D01*
X107673714Y62734886D02*
X107559428Y62763458D01*
X107559428Y62763458D02*
X107502285Y62792029D01*
X107502285Y62792029D02*
X107445142Y62849172D01*
X107445142Y62849172D02*
X107416571Y62934886D01*
X107416571Y62934886D02*
X107416571Y62992029D01*
X107416571Y62992029D02*
X107445142Y63077743D01*
X107445142Y63077743D02*
X107473714Y63106315D01*
X107416571Y63534886D02*
X107845142Y63534886D01*
X107845142Y63534886D02*
X107930857Y63506315D01*
X107930857Y63506315D02*
X107988000Y63449172D01*
X107988000Y63449172D02*
X108016571Y63363458D01*
X108016571Y63363458D02*
X108016571Y63306315D01*
X108016571Y64106315D02*
X108016571Y63820601D01*
X108016571Y63820601D02*
X107416571Y63820601D01*
X107959428Y64649172D02*
X107988000Y64620600D01*
X107988000Y64620600D02*
X108016571Y64534886D01*
X108016571Y64534886D02*
X108016571Y64477743D01*
X108016571Y64477743D02*
X107988000Y64392029D01*
X107988000Y64392029D02*
X107930857Y64334886D01*
X107930857Y64334886D02*
X107873714Y64306315D01*
X107873714Y64306315D02*
X107759428Y64277743D01*
X107759428Y64277743D02*
X107673714Y64277743D01*
X107673714Y64277743D02*
X107559428Y64306315D01*
X107559428Y64306315D02*
X107502285Y64334886D01*
X107502285Y64334886D02*
X107445142Y64392029D01*
X107445142Y64392029D02*
X107416571Y64477743D01*
X107416571Y64477743D02*
X107416571Y64534886D01*
X107416571Y64534886D02*
X107445142Y64620600D01*
X107445142Y64620600D02*
X107473714Y64649172D01*
X107416571Y65077743D02*
X107845142Y65077743D01*
X107845142Y65077743D02*
X107930857Y65049172D01*
X107930857Y65049172D02*
X107988000Y64992029D01*
X107988000Y64992029D02*
X108016571Y64906315D01*
X108016571Y64906315D02*
X108016571Y64849172D01*
X108016571Y65649172D02*
X108016571Y65363458D01*
X108016571Y65363458D02*
X107416571Y65363458D01*
X107959428Y66192029D02*
X107988000Y66163457D01*
X107988000Y66163457D02*
X108016571Y66077743D01*
X108016571Y66077743D02*
X108016571Y66020600D01*
X108016571Y66020600D02*
X107988000Y65934886D01*
X107988000Y65934886D02*
X107930857Y65877743D01*
X107930857Y65877743D02*
X107873714Y65849172D01*
X107873714Y65849172D02*
X107759428Y65820600D01*
X107759428Y65820600D02*
X107673714Y65820600D01*
X107673714Y65820600D02*
X107559428Y65849172D01*
X107559428Y65849172D02*
X107502285Y65877743D01*
X107502285Y65877743D02*
X107445142Y65934886D01*
X107445142Y65934886D02*
X107416571Y66020600D01*
X107416571Y66020600D02*
X107416571Y66077743D01*
X107416571Y66077743D02*
X107445142Y66163457D01*
X107445142Y66163457D02*
X107473714Y66192029D01*
D10*
X103365323Y76071620D02*
X103317704Y76024000D01*
X103317704Y76024000D02*
X103174847Y75976381D01*
X103174847Y75976381D02*
X103079609Y75976381D01*
X103079609Y75976381D02*
X102936752Y76024000D01*
X102936752Y76024000D02*
X102841514Y76119239D01*
X102841514Y76119239D02*
X102793895Y76214477D01*
X102793895Y76214477D02*
X102746276Y76404953D01*
X102746276Y76404953D02*
X102746276Y76547810D01*
X102746276Y76547810D02*
X102793895Y76738286D01*
X102793895Y76738286D02*
X102841514Y76833524D01*
X102841514Y76833524D02*
X102936752Y76928762D01*
X102936752Y76928762D02*
X103079609Y76976381D01*
X103079609Y76976381D02*
X103174847Y76976381D01*
X103174847Y76976381D02*
X103317704Y76928762D01*
X103317704Y76928762D02*
X103365323Y76881143D01*
X104365323Y75976381D02*
X104031990Y76452572D01*
X103793895Y75976381D02*
X103793895Y76976381D01*
X103793895Y76976381D02*
X104174847Y76976381D01*
X104174847Y76976381D02*
X104270085Y76928762D01*
X104270085Y76928762D02*
X104317704Y76881143D01*
X104317704Y76881143D02*
X104365323Y76785905D01*
X104365323Y76785905D02*
X104365323Y76643048D01*
X104365323Y76643048D02*
X104317704Y76547810D01*
X104317704Y76547810D02*
X104270085Y76500191D01*
X104270085Y76500191D02*
X104174847Y76452572D01*
X104174847Y76452572D02*
X103793895Y76452572D01*
X105960895Y75976381D02*
X105484705Y75976381D01*
X105484705Y75976381D02*
X105484705Y76976381D01*
X106294229Y75976381D02*
X106294229Y76976381D01*
X106294229Y76976381D02*
X106627562Y76262096D01*
X106627562Y76262096D02*
X106960895Y76976381D01*
X106960895Y76976381D02*
X106960895Y75976381D01*
X98196448Y76509734D02*
X98958353Y76509734D01*
X100825323Y76071620D02*
X100777704Y76024000D01*
X100777704Y76024000D02*
X100634847Y75976381D01*
X100634847Y75976381D02*
X100539609Y75976381D01*
X100539609Y75976381D02*
X100396752Y76024000D01*
X100396752Y76024000D02*
X100301514Y76119239D01*
X100301514Y76119239D02*
X100253895Y76214477D01*
X100253895Y76214477D02*
X100206276Y76404953D01*
X100206276Y76404953D02*
X100206276Y76547810D01*
X100206276Y76547810D02*
X100253895Y76738286D01*
X100253895Y76738286D02*
X100301514Y76833524D01*
X100301514Y76833524D02*
X100396752Y76928762D01*
X100396752Y76928762D02*
X100539609Y76976381D01*
X100539609Y76976381D02*
X100634847Y76976381D01*
X100634847Y76976381D02*
X100777704Y76928762D01*
X100777704Y76928762D02*
X100825323Y76881143D01*
X101253895Y75976381D02*
X101253895Y76976381D01*
X101253895Y76976381D02*
X101634847Y76976381D01*
X101634847Y76976381D02*
X101730085Y76928762D01*
X101730085Y76928762D02*
X101777704Y76881143D01*
X101777704Y76881143D02*
X101825323Y76785905D01*
X101825323Y76785905D02*
X101825323Y76643048D01*
X101825323Y76643048D02*
X101777704Y76547810D01*
X101777704Y76547810D02*
X101730085Y76500191D01*
X101730085Y76500191D02*
X101634847Y76452572D01*
X101634847Y76452572D02*
X101253895Y76452572D01*
D12*
X112183749Y80566120D02*
X112393273Y80566120D01*
X112393273Y80566120D02*
X112498035Y80513739D01*
X112498035Y80513739D02*
X112602797Y80408977D01*
X112602797Y80408977D02*
X112655178Y80199453D01*
X112655178Y80199453D02*
X112655178Y79832786D01*
X112655178Y79832786D02*
X112602797Y79623262D01*
X112602797Y79623262D02*
X112498035Y79518500D01*
X112498035Y79518500D02*
X112393273Y79466120D01*
X112393273Y79466120D02*
X112183749Y79466120D01*
X112183749Y79466120D02*
X112078987Y79518500D01*
X112078987Y79518500D02*
X111974225Y79623262D01*
X111974225Y79623262D02*
X111921844Y79832786D01*
X111921844Y79832786D02*
X111921844Y80199453D01*
X111921844Y80199453D02*
X111974225Y80408977D01*
X111974225Y80408977D02*
X112078987Y80513739D01*
X112078987Y80513739D02*
X112183749Y80566120D01*
X113755178Y79466120D02*
X113388511Y79989929D01*
X113126606Y79466120D02*
X113126606Y80566120D01*
X113126606Y80566120D02*
X113545654Y80566120D01*
X113545654Y80566120D02*
X113650416Y80513739D01*
X113650416Y80513739D02*
X113702797Y80461358D01*
X113702797Y80461358D02*
X113755178Y80356596D01*
X113755178Y80356596D02*
X113755178Y80199453D01*
X113755178Y80199453D02*
X113702797Y80094691D01*
X113702797Y80094691D02*
X113650416Y80042310D01*
X113650416Y80042310D02*
X113545654Y79989929D01*
X113545654Y79989929D02*
X113126606Y79989929D01*
X114226606Y79466120D02*
X114226606Y80566120D01*
X115378988Y79570881D02*
X115326607Y79518500D01*
X115326607Y79518500D02*
X115169464Y79466120D01*
X115169464Y79466120D02*
X115064702Y79466120D01*
X115064702Y79466120D02*
X114907559Y79518500D01*
X114907559Y79518500D02*
X114802797Y79623262D01*
X114802797Y79623262D02*
X114750416Y79728024D01*
X114750416Y79728024D02*
X114698035Y79937548D01*
X114698035Y79937548D02*
X114698035Y80094691D01*
X114698035Y80094691D02*
X114750416Y80304215D01*
X114750416Y80304215D02*
X114802797Y80408977D01*
X114802797Y80408977D02*
X114907559Y80513739D01*
X114907559Y80513739D02*
X115064702Y80566120D01*
X115064702Y80566120D02*
X115169464Y80566120D01*
X115169464Y80566120D02*
X115326607Y80513739D01*
X115326607Y80513739D02*
X115378988Y80461358D01*
X112602797Y77799881D02*
X112550416Y77747500D01*
X112550416Y77747500D02*
X112393273Y77695120D01*
X112393273Y77695120D02*
X112288511Y77695120D01*
X112288511Y77695120D02*
X112131368Y77747500D01*
X112131368Y77747500D02*
X112026606Y77852262D01*
X112026606Y77852262D02*
X111974225Y77957024D01*
X111974225Y77957024D02*
X111921844Y78166548D01*
X111921844Y78166548D02*
X111921844Y78323691D01*
X111921844Y78323691D02*
X111974225Y78533215D01*
X111974225Y78533215D02*
X112026606Y78637977D01*
X112026606Y78637977D02*
X112131368Y78742739D01*
X112131368Y78742739D02*
X112288511Y78795120D01*
X112288511Y78795120D02*
X112393273Y78795120D01*
X112393273Y78795120D02*
X112550416Y78742739D01*
X112550416Y78742739D02*
X112602797Y78690358D01*
X113231368Y77695120D02*
X113126606Y77747500D01*
X113126606Y77747500D02*
X113074225Y77799881D01*
X113074225Y77799881D02*
X113021844Y77904643D01*
X113021844Y77904643D02*
X113021844Y78218929D01*
X113021844Y78218929D02*
X113074225Y78323691D01*
X113074225Y78323691D02*
X113126606Y78376072D01*
X113126606Y78376072D02*
X113231368Y78428453D01*
X113231368Y78428453D02*
X113388511Y78428453D01*
X113388511Y78428453D02*
X113493273Y78376072D01*
X113493273Y78376072D02*
X113545654Y78323691D01*
X113545654Y78323691D02*
X113598035Y78218929D01*
X113598035Y78218929D02*
X113598035Y77904643D01*
X113598035Y77904643D02*
X113545654Y77799881D01*
X113545654Y77799881D02*
X113493273Y77747500D01*
X113493273Y77747500D02*
X113388511Y77695120D01*
X113388511Y77695120D02*
X113231368Y77695120D01*
X114069463Y77695120D02*
X114069463Y78428453D01*
X114069463Y78323691D02*
X114121844Y78376072D01*
X114121844Y78376072D02*
X114226606Y78428453D01*
X114226606Y78428453D02*
X114383749Y78428453D01*
X114383749Y78428453D02*
X114488511Y78376072D01*
X114488511Y78376072D02*
X114540892Y78271310D01*
X114540892Y78271310D02*
X114540892Y77695120D01*
X114540892Y78271310D02*
X114593273Y78376072D01*
X114593273Y78376072D02*
X114698035Y78428453D01*
X114698035Y78428453D02*
X114855178Y78428453D01*
X114855178Y78428453D02*
X114959939Y78376072D01*
X114959939Y78376072D02*
X115012320Y78271310D01*
X115012320Y78271310D02*
X115012320Y77695120D01*
X115536130Y78428453D02*
X115536130Y77328453D01*
X115536130Y78376072D02*
X115640892Y78428453D01*
X115640892Y78428453D02*
X115850416Y78428453D01*
X115850416Y78428453D02*
X115955178Y78376072D01*
X115955178Y78376072D02*
X116007559Y78323691D01*
X116007559Y78323691D02*
X116059940Y78218929D01*
X116059940Y78218929D02*
X116059940Y77904643D01*
X116059940Y77904643D02*
X116007559Y77799881D01*
X116007559Y77799881D02*
X115955178Y77747500D01*
X115955178Y77747500D02*
X115850416Y77695120D01*
X115850416Y77695120D02*
X115640892Y77695120D01*
X115640892Y77695120D02*
X115536130Y77747500D01*
X116688511Y77695120D02*
X116583749Y77747500D01*
X116583749Y77747500D02*
X116531368Y77799881D01*
X116531368Y77799881D02*
X116478987Y77904643D01*
X116478987Y77904643D02*
X116478987Y78218929D01*
X116478987Y78218929D02*
X116531368Y78323691D01*
X116531368Y78323691D02*
X116583749Y78376072D01*
X116583749Y78376072D02*
X116688511Y78428453D01*
X116688511Y78428453D02*
X116845654Y78428453D01*
X116845654Y78428453D02*
X116950416Y78376072D01*
X116950416Y78376072D02*
X117002797Y78323691D01*
X117002797Y78323691D02*
X117055178Y78218929D01*
X117055178Y78218929D02*
X117055178Y77904643D01*
X117055178Y77904643D02*
X117002797Y77799881D01*
X117002797Y77799881D02*
X116950416Y77747500D01*
X116950416Y77747500D02*
X116845654Y77695120D01*
X116845654Y77695120D02*
X116688511Y77695120D01*
X117474225Y77747500D02*
X117578987Y77695120D01*
X117578987Y77695120D02*
X117788511Y77695120D01*
X117788511Y77695120D02*
X117893273Y77747500D01*
X117893273Y77747500D02*
X117945654Y77852262D01*
X117945654Y77852262D02*
X117945654Y77904643D01*
X117945654Y77904643D02*
X117893273Y78009405D01*
X117893273Y78009405D02*
X117788511Y78061786D01*
X117788511Y78061786D02*
X117631368Y78061786D01*
X117631368Y78061786D02*
X117526606Y78114167D01*
X117526606Y78114167D02*
X117474225Y78218929D01*
X117474225Y78218929D02*
X117474225Y78271310D01*
X117474225Y78271310D02*
X117526606Y78376072D01*
X117526606Y78376072D02*
X117631368Y78428453D01*
X117631368Y78428453D02*
X117788511Y78428453D01*
X117788511Y78428453D02*
X117893273Y78376072D01*
X118417082Y77695120D02*
X118417082Y78428453D01*
X118417082Y78795120D02*
X118364701Y78742739D01*
X118364701Y78742739D02*
X118417082Y78690358D01*
X118417082Y78690358D02*
X118469463Y78742739D01*
X118469463Y78742739D02*
X118417082Y78795120D01*
X118417082Y78795120D02*
X118417082Y78690358D01*
X118783749Y78428453D02*
X119202797Y78428453D01*
X118940892Y78795120D02*
X118940892Y77852262D01*
X118940892Y77852262D02*
X118993273Y77747500D01*
X118993273Y77747500D02*
X119098035Y77695120D01*
X119098035Y77695120D02*
X119202797Y77695120D01*
X119988511Y77747500D02*
X119883749Y77695120D01*
X119883749Y77695120D02*
X119674225Y77695120D01*
X119674225Y77695120D02*
X119569463Y77747500D01*
X119569463Y77747500D02*
X119517082Y77852262D01*
X119517082Y77852262D02*
X119517082Y78271310D01*
X119517082Y78271310D02*
X119569463Y78376072D01*
X119569463Y78376072D02*
X119674225Y78428453D01*
X119674225Y78428453D02*
X119883749Y78428453D01*
X119883749Y78428453D02*
X119988511Y78376072D01*
X119988511Y78376072D02*
X120040892Y78271310D01*
X120040892Y78271310D02*
X120040892Y78166548D01*
X120040892Y78166548D02*
X119517082Y78061786D01*
X121193272Y78795120D02*
X121559939Y77695120D01*
X121559939Y77695120D02*
X121926606Y78795120D01*
X122293272Y77695120D02*
X122293272Y78428453D01*
X122293272Y78795120D02*
X122240891Y78742739D01*
X122240891Y78742739D02*
X122293272Y78690358D01*
X122293272Y78690358D02*
X122345653Y78742739D01*
X122345653Y78742739D02*
X122293272Y78795120D01*
X122293272Y78795120D02*
X122293272Y78690358D01*
X123288511Y77695120D02*
X123288511Y78795120D01*
X123288511Y77747500D02*
X123183749Y77695120D01*
X123183749Y77695120D02*
X122974225Y77695120D01*
X122974225Y77695120D02*
X122869463Y77747500D01*
X122869463Y77747500D02*
X122817082Y77799881D01*
X122817082Y77799881D02*
X122764701Y77904643D01*
X122764701Y77904643D02*
X122764701Y78218929D01*
X122764701Y78218929D02*
X122817082Y78323691D01*
X122817082Y78323691D02*
X122869463Y78376072D01*
X122869463Y78376072D02*
X122974225Y78428453D01*
X122974225Y78428453D02*
X123183749Y78428453D01*
X123183749Y78428453D02*
X123288511Y78376072D01*
X124231368Y77747500D02*
X124126606Y77695120D01*
X124126606Y77695120D02*
X123917082Y77695120D01*
X123917082Y77695120D02*
X123812320Y77747500D01*
X123812320Y77747500D02*
X123759939Y77852262D01*
X123759939Y77852262D02*
X123759939Y78271310D01*
X123759939Y78271310D02*
X123812320Y78376072D01*
X123812320Y78376072D02*
X123917082Y78428453D01*
X123917082Y78428453D02*
X124126606Y78428453D01*
X124126606Y78428453D02*
X124231368Y78376072D01*
X124231368Y78376072D02*
X124283749Y78271310D01*
X124283749Y78271310D02*
X124283749Y78166548D01*
X124283749Y78166548D02*
X123759939Y78061786D01*
X124912320Y77695120D02*
X124807558Y77747500D01*
X124807558Y77747500D02*
X124755177Y77799881D01*
X124755177Y77799881D02*
X124702796Y77904643D01*
X124702796Y77904643D02*
X124702796Y78218929D01*
X124702796Y78218929D02*
X124755177Y78323691D01*
X124755177Y78323691D02*
X124807558Y78376072D01*
X124807558Y78376072D02*
X124912320Y78428453D01*
X124912320Y78428453D02*
X125069463Y78428453D01*
X125069463Y78428453D02*
X125174225Y78376072D01*
X125174225Y78376072D02*
X125226606Y78323691D01*
X125226606Y78323691D02*
X125278987Y78218929D01*
X125278987Y78218929D02*
X125278987Y77904643D01*
X125278987Y77904643D02*
X125226606Y77799881D01*
X125226606Y77799881D02*
X125174225Y77747500D01*
X125174225Y77747500D02*
X125069463Y77695120D01*
X125069463Y77695120D02*
X124912320Y77695120D01*
D11*
X84842695Y51244611D02*
X84042695Y51244611D01*
X84042695Y51244611D02*
X84042695Y51549373D01*
X84042695Y51549373D02*
X84080790Y51625563D01*
X84080790Y51625563D02*
X84118885Y51663658D01*
X84118885Y51663658D02*
X84195076Y51701754D01*
X84195076Y51701754D02*
X84309361Y51701754D01*
X84309361Y51701754D02*
X84385552Y51663658D01*
X84385552Y51663658D02*
X84423647Y51625563D01*
X84423647Y51625563D02*
X84461742Y51549373D01*
X84461742Y51549373D02*
X84461742Y51244611D01*
X84614123Y52006515D02*
X84614123Y52387468D01*
X84842695Y51930325D02*
X84042695Y52196992D01*
X84042695Y52196992D02*
X84842695Y52463658D01*
X84842695Y53111277D02*
X84842695Y52730325D01*
X84842695Y52730325D02*
X84042695Y52730325D01*
D10*
X87172848Y60101334D02*
X87934753Y60101334D01*
X87172848Y57434334D02*
X87934753Y57434334D01*
X87553800Y57053381D02*
X87553800Y57815286D01*
D11*
X115098533Y60600420D02*
X115050914Y60552800D01*
X115050914Y60552800D02*
X114908057Y60505181D01*
X114908057Y60505181D02*
X114812819Y60505181D01*
X114812819Y60505181D02*
X114669962Y60552800D01*
X114669962Y60552800D02*
X114574724Y60648039D01*
X114574724Y60648039D02*
X114527105Y60743277D01*
X114527105Y60743277D02*
X114479486Y60933753D01*
X114479486Y60933753D02*
X114479486Y61076610D01*
X114479486Y61076610D02*
X114527105Y61267086D01*
X114527105Y61267086D02*
X114574724Y61362324D01*
X114574724Y61362324D02*
X114669962Y61457562D01*
X114669962Y61457562D02*
X114812819Y61505181D01*
X114812819Y61505181D02*
X114908057Y61505181D01*
X114908057Y61505181D02*
X115050914Y61457562D01*
X115050914Y61457562D02*
X115098533Y61409943D01*
X116050914Y60505181D02*
X115479486Y60505181D01*
X115765200Y60505181D02*
X115765200Y61505181D01*
X115765200Y61505181D02*
X115669962Y61362324D01*
X115669962Y61362324D02*
X115574724Y61267086D01*
X115574724Y61267086D02*
X115479486Y61219467D01*
X111145771Y55577581D02*
X110574343Y55577581D01*
X110860057Y55577581D02*
X110860057Y56577581D01*
X110860057Y56577581D02*
X110764819Y56434724D01*
X110764819Y56434724D02*
X110669581Y56339486D01*
X110669581Y56339486D02*
X110574343Y56291867D01*
X111764819Y56577581D02*
X111860057Y56577581D01*
X111860057Y56577581D02*
X111955295Y56529962D01*
X111955295Y56529962D02*
X112002914Y56482343D01*
X112002914Y56482343D02*
X112050533Y56387105D01*
X112050533Y56387105D02*
X112098152Y56196629D01*
X112098152Y56196629D02*
X112098152Y55958534D01*
X112098152Y55958534D02*
X112050533Y55768058D01*
X112050533Y55768058D02*
X112002914Y55672820D01*
X112002914Y55672820D02*
X111955295Y55625200D01*
X111955295Y55625200D02*
X111860057Y55577581D01*
X111860057Y55577581D02*
X111764819Y55577581D01*
X111764819Y55577581D02*
X111669581Y55625200D01*
X111669581Y55625200D02*
X111621962Y55672820D01*
X111621962Y55672820D02*
X111574343Y55768058D01*
X111574343Y55768058D02*
X111526724Y55958534D01*
X111526724Y55958534D02*
X111526724Y56196629D01*
X111526724Y56196629D02*
X111574343Y56387105D01*
X111574343Y56387105D02*
X111621962Y56482343D01*
X111621962Y56482343D02*
X111669581Y56529962D01*
X111669581Y56529962D02*
X111764819Y56577581D01*
X112526724Y56244248D02*
X112526724Y55244248D01*
X112526724Y56196629D02*
X112621962Y56244248D01*
X112621962Y56244248D02*
X112812438Y56244248D01*
X112812438Y56244248D02*
X112907676Y56196629D01*
X112907676Y56196629D02*
X112955295Y56149010D01*
X112955295Y56149010D02*
X113002914Y56053772D01*
X113002914Y56053772D02*
X113002914Y55768058D01*
X113002914Y55768058D02*
X112955295Y55672820D01*
X112955295Y55672820D02*
X112907676Y55625200D01*
X112907676Y55625200D02*
X112812438Y55577581D01*
X112812438Y55577581D02*
X112621962Y55577581D01*
X112621962Y55577581D02*
X112526724Y55625200D01*
X113764819Y56101391D02*
X113431486Y56101391D01*
X113431486Y55577581D02*
X113431486Y56577581D01*
X113431486Y56577581D02*
X113907676Y56577581D01*
X111212333Y69414220D02*
X111164714Y69366600D01*
X111164714Y69366600D02*
X111021857Y69318981D01*
X111021857Y69318981D02*
X110926619Y69318981D01*
X110926619Y69318981D02*
X110783762Y69366600D01*
X110783762Y69366600D02*
X110688524Y69461839D01*
X110688524Y69461839D02*
X110640905Y69557077D01*
X110640905Y69557077D02*
X110593286Y69747553D01*
X110593286Y69747553D02*
X110593286Y69890410D01*
X110593286Y69890410D02*
X110640905Y70080886D01*
X110640905Y70080886D02*
X110688524Y70176124D01*
X110688524Y70176124D02*
X110783762Y70271362D01*
X110783762Y70271362D02*
X110926619Y70318981D01*
X110926619Y70318981D02*
X111021857Y70318981D01*
X111021857Y70318981D02*
X111164714Y70271362D01*
X111164714Y70271362D02*
X111212333Y70223743D01*
X111593286Y70223743D02*
X111640905Y70271362D01*
X111640905Y70271362D02*
X111736143Y70318981D01*
X111736143Y70318981D02*
X111974238Y70318981D01*
X111974238Y70318981D02*
X112069476Y70271362D01*
X112069476Y70271362D02*
X112117095Y70223743D01*
X112117095Y70223743D02*
X112164714Y70128505D01*
X112164714Y70128505D02*
X112164714Y70033267D01*
X112164714Y70033267D02*
X112117095Y69890410D01*
X112117095Y69890410D02*
X111545667Y69318981D01*
X111545667Y69318981D02*
X112164714Y69318981D01*
X111212333Y70735020D02*
X111164714Y70687400D01*
X111164714Y70687400D02*
X111021857Y70639781D01*
X111021857Y70639781D02*
X110926619Y70639781D01*
X110926619Y70639781D02*
X110783762Y70687400D01*
X110783762Y70687400D02*
X110688524Y70782639D01*
X110688524Y70782639D02*
X110640905Y70877877D01*
X110640905Y70877877D02*
X110593286Y71068353D01*
X110593286Y71068353D02*
X110593286Y71211210D01*
X110593286Y71211210D02*
X110640905Y71401686D01*
X110640905Y71401686D02*
X110688524Y71496924D01*
X110688524Y71496924D02*
X110783762Y71592162D01*
X110783762Y71592162D02*
X110926619Y71639781D01*
X110926619Y71639781D02*
X111021857Y71639781D01*
X111021857Y71639781D02*
X111164714Y71592162D01*
X111164714Y71592162D02*
X111212333Y71544543D01*
X111545667Y71639781D02*
X112164714Y71639781D01*
X112164714Y71639781D02*
X111831381Y71258829D01*
X111831381Y71258829D02*
X111974238Y71258829D01*
X111974238Y71258829D02*
X112069476Y71211210D01*
X112069476Y71211210D02*
X112117095Y71163591D01*
X112117095Y71163591D02*
X112164714Y71068353D01*
X112164714Y71068353D02*
X112164714Y70830258D01*
X112164714Y70830258D02*
X112117095Y70735020D01*
X112117095Y70735020D02*
X112069476Y70687400D01*
X112069476Y70687400D02*
X111974238Y70639781D01*
X111974238Y70639781D02*
X111688524Y70639781D01*
X111688524Y70639781D02*
X111593286Y70687400D01*
X111593286Y70687400D02*
X111545667Y70735020D01*
X111212333Y72055820D02*
X111164714Y72008200D01*
X111164714Y72008200D02*
X111021857Y71960581D01*
X111021857Y71960581D02*
X110926619Y71960581D01*
X110926619Y71960581D02*
X110783762Y72008200D01*
X110783762Y72008200D02*
X110688524Y72103439D01*
X110688524Y72103439D02*
X110640905Y72198677D01*
X110640905Y72198677D02*
X110593286Y72389153D01*
X110593286Y72389153D02*
X110593286Y72532010D01*
X110593286Y72532010D02*
X110640905Y72722486D01*
X110640905Y72722486D02*
X110688524Y72817724D01*
X110688524Y72817724D02*
X110783762Y72912962D01*
X110783762Y72912962D02*
X110926619Y72960581D01*
X110926619Y72960581D02*
X111021857Y72960581D01*
X111021857Y72960581D02*
X111164714Y72912962D01*
X111164714Y72912962D02*
X111212333Y72865343D01*
X112069476Y72627248D02*
X112069476Y71960581D01*
X111831381Y73008200D02*
X111593286Y72293915D01*
X111593286Y72293915D02*
X112212333Y72293915D01*
X113485752Y69344381D02*
X112914324Y69344381D01*
X113200038Y69344381D02*
X113200038Y70344381D01*
X113200038Y70344381D02*
X113104800Y70201524D01*
X113104800Y70201524D02*
X113009562Y70106286D01*
X113009562Y70106286D02*
X112914324Y70058667D01*
X114104800Y70344381D02*
X114200038Y70344381D01*
X114200038Y70344381D02*
X114295276Y70296762D01*
X114295276Y70296762D02*
X114342895Y70249143D01*
X114342895Y70249143D02*
X114390514Y70153905D01*
X114390514Y70153905D02*
X114438133Y69963429D01*
X114438133Y69963429D02*
X114438133Y69725334D01*
X114438133Y69725334D02*
X114390514Y69534858D01*
X114390514Y69534858D02*
X114342895Y69439620D01*
X114342895Y69439620D02*
X114295276Y69392000D01*
X114295276Y69392000D02*
X114200038Y69344381D01*
X114200038Y69344381D02*
X114104800Y69344381D01*
X114104800Y69344381D02*
X114009562Y69392000D01*
X114009562Y69392000D02*
X113961943Y69439620D01*
X113961943Y69439620D02*
X113914324Y69534858D01*
X113914324Y69534858D02*
X113866705Y69725334D01*
X113866705Y69725334D02*
X113866705Y69963429D01*
X113866705Y69963429D02*
X113914324Y70153905D01*
X113914324Y70153905D02*
X113961943Y70249143D01*
X113961943Y70249143D02*
X114009562Y70296762D01*
X114009562Y70296762D02*
X114104800Y70344381D01*
X115057181Y70344381D02*
X115152419Y70344381D01*
X115152419Y70344381D02*
X115247657Y70296762D01*
X115247657Y70296762D02*
X115295276Y70249143D01*
X115295276Y70249143D02*
X115342895Y70153905D01*
X115342895Y70153905D02*
X115390514Y69963429D01*
X115390514Y69963429D02*
X115390514Y69725334D01*
X115390514Y69725334D02*
X115342895Y69534858D01*
X115342895Y69534858D02*
X115295276Y69439620D01*
X115295276Y69439620D02*
X115247657Y69392000D01*
X115247657Y69392000D02*
X115152419Y69344381D01*
X115152419Y69344381D02*
X115057181Y69344381D01*
X115057181Y69344381D02*
X114961943Y69392000D01*
X114961943Y69392000D02*
X114914324Y69439620D01*
X114914324Y69439620D02*
X114866705Y69534858D01*
X114866705Y69534858D02*
X114819086Y69725334D01*
X114819086Y69725334D02*
X114819086Y69963429D01*
X114819086Y69963429D02*
X114866705Y70153905D01*
X114866705Y70153905D02*
X114914324Y70249143D01*
X114914324Y70249143D02*
X114961943Y70296762D01*
X114961943Y70296762D02*
X115057181Y70344381D01*
X115819086Y70011048D02*
X115819086Y69344381D01*
X115819086Y69915810D02*
X115866705Y69963429D01*
X115866705Y69963429D02*
X115961943Y70011048D01*
X115961943Y70011048D02*
X116104800Y70011048D01*
X116104800Y70011048D02*
X116200038Y69963429D01*
X116200038Y69963429D02*
X116247657Y69868191D01*
X116247657Y69868191D02*
X116247657Y69344381D01*
X118095733Y69141181D02*
X117762400Y69617372D01*
X117524305Y69141181D02*
X117524305Y70141181D01*
X117524305Y70141181D02*
X117905257Y70141181D01*
X117905257Y70141181D02*
X118000495Y70093562D01*
X118000495Y70093562D02*
X118048114Y70045943D01*
X118048114Y70045943D02*
X118095733Y69950705D01*
X118095733Y69950705D02*
X118095733Y69807848D01*
X118095733Y69807848D02*
X118048114Y69712610D01*
X118048114Y69712610D02*
X118000495Y69664991D01*
X118000495Y69664991D02*
X117905257Y69617372D01*
X117905257Y69617372D02*
X117524305Y69617372D01*
X119048114Y69141181D02*
X118476686Y69141181D01*
X118762400Y69141181D02*
X118762400Y70141181D01*
X118762400Y70141181D02*
X118667162Y69998324D01*
X118667162Y69998324D02*
X118571924Y69903086D01*
X118571924Y69903086D02*
X118476686Y69855467D01*
X119738876Y70064981D02*
X120405542Y70064981D01*
X120405542Y70064981D02*
X119976971Y69064981D01*
X121262685Y70064981D02*
X120786495Y70064981D01*
X120786495Y70064981D02*
X120738876Y69588791D01*
X120738876Y69588791D02*
X120786495Y69636410D01*
X120786495Y69636410D02*
X120881733Y69684029D01*
X120881733Y69684029D02*
X121119828Y69684029D01*
X121119828Y69684029D02*
X121215066Y69636410D01*
X121215066Y69636410D02*
X121262685Y69588791D01*
X121262685Y69588791D02*
X121310304Y69493553D01*
X121310304Y69493553D02*
X121310304Y69255458D01*
X121310304Y69255458D02*
X121262685Y69160220D01*
X121262685Y69160220D02*
X121215066Y69112600D01*
X121215066Y69112600D02*
X121119828Y69064981D01*
X121119828Y69064981D02*
X120881733Y69064981D01*
X120881733Y69064981D02*
X120786495Y69112600D01*
X120786495Y69112600D02*
X120738876Y69160220D01*
X118070333Y70461981D02*
X117737000Y70938172D01*
X117498905Y70461981D02*
X117498905Y71461981D01*
X117498905Y71461981D02*
X117879857Y71461981D01*
X117879857Y71461981D02*
X117975095Y71414362D01*
X117975095Y71414362D02*
X118022714Y71366743D01*
X118022714Y71366743D02*
X118070333Y71271505D01*
X118070333Y71271505D02*
X118070333Y71128648D01*
X118070333Y71128648D02*
X118022714Y71033410D01*
X118022714Y71033410D02*
X117975095Y70985791D01*
X117975095Y70985791D02*
X117879857Y70938172D01*
X117879857Y70938172D02*
X117498905Y70938172D01*
X118451286Y71366743D02*
X118498905Y71414362D01*
X118498905Y71414362D02*
X118594143Y71461981D01*
X118594143Y71461981D02*
X118832238Y71461981D01*
X118832238Y71461981D02*
X118927476Y71414362D01*
X118927476Y71414362D02*
X118975095Y71366743D01*
X118975095Y71366743D02*
X119022714Y71271505D01*
X119022714Y71271505D02*
X119022714Y71176267D01*
X119022714Y71176267D02*
X118975095Y71033410D01*
X118975095Y71033410D02*
X118403667Y70461981D01*
X118403667Y70461981D02*
X119022714Y70461981D01*
X118095733Y71782781D02*
X117762400Y72258972D01*
X117524305Y71782781D02*
X117524305Y72782781D01*
X117524305Y72782781D02*
X117905257Y72782781D01*
X117905257Y72782781D02*
X118000495Y72735162D01*
X118000495Y72735162D02*
X118048114Y72687543D01*
X118048114Y72687543D02*
X118095733Y72592305D01*
X118095733Y72592305D02*
X118095733Y72449448D01*
X118095733Y72449448D02*
X118048114Y72354210D01*
X118048114Y72354210D02*
X118000495Y72306591D01*
X118000495Y72306591D02*
X117905257Y72258972D01*
X117905257Y72258972D02*
X117524305Y72258972D01*
X118429067Y72782781D02*
X119048114Y72782781D01*
X119048114Y72782781D02*
X118714781Y72401829D01*
X118714781Y72401829D02*
X118857638Y72401829D01*
X118857638Y72401829D02*
X118952876Y72354210D01*
X118952876Y72354210D02*
X119000495Y72306591D01*
X119000495Y72306591D02*
X119048114Y72211353D01*
X119048114Y72211353D02*
X119048114Y71973258D01*
X119048114Y71973258D02*
X119000495Y71878020D01*
X119000495Y71878020D02*
X118952876Y71830400D01*
X118952876Y71830400D02*
X118857638Y71782781D01*
X118857638Y71782781D02*
X118571924Y71782781D01*
X118571924Y71782781D02*
X118476686Y71830400D01*
X118476686Y71830400D02*
X118429067Y71878020D01*
X90562133Y67454381D02*
X90228800Y67930572D01*
X89990705Y67454381D02*
X89990705Y68454381D01*
X89990705Y68454381D02*
X90371657Y68454381D01*
X90371657Y68454381D02*
X90466895Y68406762D01*
X90466895Y68406762D02*
X90514514Y68359143D01*
X90514514Y68359143D02*
X90562133Y68263905D01*
X90562133Y68263905D02*
X90562133Y68121048D01*
X90562133Y68121048D02*
X90514514Y68025810D01*
X90514514Y68025810D02*
X90466895Y67978191D01*
X90466895Y67978191D02*
X90371657Y67930572D01*
X90371657Y67930572D02*
X89990705Y67930572D01*
X91419276Y68121048D02*
X91419276Y67454381D01*
X91181181Y68502000D02*
X90943086Y67787715D01*
X90943086Y67787715D02*
X91562133Y67787715D01*
X89919276Y64614381D02*
X90585942Y64614381D01*
X90585942Y64614381D02*
X90157371Y63614381D01*
X91443085Y64614381D02*
X90966895Y64614381D01*
X90966895Y64614381D02*
X90919276Y64138191D01*
X90919276Y64138191D02*
X90966895Y64185810D01*
X90966895Y64185810D02*
X91062133Y64233429D01*
X91062133Y64233429D02*
X91300228Y64233429D01*
X91300228Y64233429D02*
X91395466Y64185810D01*
X91395466Y64185810D02*
X91443085Y64138191D01*
X91443085Y64138191D02*
X91490704Y64042953D01*
X91490704Y64042953D02*
X91490704Y63804858D01*
X91490704Y63804858D02*
X91443085Y63709620D01*
X91443085Y63709620D02*
X91395466Y63662000D01*
X91395466Y63662000D02*
X91300228Y63614381D01*
X91300228Y63614381D02*
X91062133Y63614381D01*
X91062133Y63614381D02*
X90966895Y63662000D01*
X90966895Y63662000D02*
X90919276Y63709620D01*
X111923533Y73935420D02*
X111875914Y73887800D01*
X111875914Y73887800D02*
X111733057Y73840181D01*
X111733057Y73840181D02*
X111637819Y73840181D01*
X111637819Y73840181D02*
X111494962Y73887800D01*
X111494962Y73887800D02*
X111399724Y73983039D01*
X111399724Y73983039D02*
X111352105Y74078277D01*
X111352105Y74078277D02*
X111304486Y74268753D01*
X111304486Y74268753D02*
X111304486Y74411610D01*
X111304486Y74411610D02*
X111352105Y74602086D01*
X111352105Y74602086D02*
X111399724Y74697324D01*
X111399724Y74697324D02*
X111494962Y74792562D01*
X111494962Y74792562D02*
X111637819Y74840181D01*
X111637819Y74840181D02*
X111733057Y74840181D01*
X111733057Y74840181D02*
X111875914Y74792562D01*
X111875914Y74792562D02*
X111923533Y74744943D01*
X112256867Y74840181D02*
X112923533Y74840181D01*
X112923533Y74840181D02*
X112494962Y73840181D01*
X114623352Y75966381D02*
X114051924Y75966381D01*
X114337638Y75966381D02*
X114337638Y76966381D01*
X114337638Y76966381D02*
X114242400Y76823524D01*
X114242400Y76823524D02*
X114147162Y76728286D01*
X114147162Y76728286D02*
X114051924Y76680667D01*
X115242400Y76966381D02*
X115337638Y76966381D01*
X115337638Y76966381D02*
X115432876Y76918762D01*
X115432876Y76918762D02*
X115480495Y76871143D01*
X115480495Y76871143D02*
X115528114Y76775905D01*
X115528114Y76775905D02*
X115575733Y76585429D01*
X115575733Y76585429D02*
X115575733Y76347334D01*
X115575733Y76347334D02*
X115528114Y76156858D01*
X115528114Y76156858D02*
X115480495Y76061620D01*
X115480495Y76061620D02*
X115432876Y76014000D01*
X115432876Y76014000D02*
X115337638Y75966381D01*
X115337638Y75966381D02*
X115242400Y75966381D01*
X115242400Y75966381D02*
X115147162Y76014000D01*
X115147162Y76014000D02*
X115099543Y76061620D01*
X115099543Y76061620D02*
X115051924Y76156858D01*
X115051924Y76156858D02*
X115004305Y76347334D01*
X115004305Y76347334D02*
X115004305Y76585429D01*
X115004305Y76585429D02*
X115051924Y76775905D01*
X115051924Y76775905D02*
X115099543Y76871143D01*
X115099543Y76871143D02*
X115147162Y76918762D01*
X115147162Y76918762D02*
X115242400Y76966381D01*
X116194781Y76966381D02*
X116290019Y76966381D01*
X116290019Y76966381D02*
X116385257Y76918762D01*
X116385257Y76918762D02*
X116432876Y76871143D01*
X116432876Y76871143D02*
X116480495Y76775905D01*
X116480495Y76775905D02*
X116528114Y76585429D01*
X116528114Y76585429D02*
X116528114Y76347334D01*
X116528114Y76347334D02*
X116480495Y76156858D01*
X116480495Y76156858D02*
X116432876Y76061620D01*
X116432876Y76061620D02*
X116385257Y76014000D01*
X116385257Y76014000D02*
X116290019Y75966381D01*
X116290019Y75966381D02*
X116194781Y75966381D01*
X116194781Y75966381D02*
X116099543Y76014000D01*
X116099543Y76014000D02*
X116051924Y76061620D01*
X116051924Y76061620D02*
X116004305Y76156858D01*
X116004305Y76156858D02*
X115956686Y76347334D01*
X115956686Y76347334D02*
X115956686Y76585429D01*
X115956686Y76585429D02*
X116004305Y76775905D01*
X116004305Y76775905D02*
X116051924Y76871143D01*
X116051924Y76871143D02*
X116099543Y76918762D01*
X116099543Y76918762D02*
X116194781Y76966381D01*
X116956686Y76633048D02*
X116956686Y75966381D01*
X116956686Y76537810D02*
X117004305Y76585429D01*
X117004305Y76585429D02*
X117099543Y76633048D01*
X117099543Y76633048D02*
X117242400Y76633048D01*
X117242400Y76633048D02*
X117337638Y76585429D01*
X117337638Y76585429D02*
X117385257Y76490191D01*
X117385257Y76490191D02*
X117385257Y75966381D01*
X93152933Y60422620D02*
X93105314Y60375000D01*
X93105314Y60375000D02*
X92962457Y60327381D01*
X92962457Y60327381D02*
X92867219Y60327381D01*
X92867219Y60327381D02*
X92724362Y60375000D01*
X92724362Y60375000D02*
X92629124Y60470239D01*
X92629124Y60470239D02*
X92581505Y60565477D01*
X92581505Y60565477D02*
X92533886Y60755953D01*
X92533886Y60755953D02*
X92533886Y60898810D01*
X92533886Y60898810D02*
X92581505Y61089286D01*
X92581505Y61089286D02*
X92629124Y61184524D01*
X92629124Y61184524D02*
X92724362Y61279762D01*
X92724362Y61279762D02*
X92867219Y61327381D01*
X92867219Y61327381D02*
X92962457Y61327381D01*
X92962457Y61327381D02*
X93105314Y61279762D01*
X93105314Y61279762D02*
X93152933Y61232143D01*
X93629124Y60327381D02*
X93819600Y60327381D01*
X93819600Y60327381D02*
X93914838Y60375000D01*
X93914838Y60375000D02*
X93962457Y60422620D01*
X93962457Y60422620D02*
X94057695Y60565477D01*
X94057695Y60565477D02*
X94105314Y60755953D01*
X94105314Y60755953D02*
X94105314Y61136905D01*
X94105314Y61136905D02*
X94057695Y61232143D01*
X94057695Y61232143D02*
X94010076Y61279762D01*
X94010076Y61279762D02*
X93914838Y61327381D01*
X93914838Y61327381D02*
X93724362Y61327381D01*
X93724362Y61327381D02*
X93629124Y61279762D01*
X93629124Y61279762D02*
X93581505Y61232143D01*
X93581505Y61232143D02*
X93533886Y61136905D01*
X93533886Y61136905D02*
X93533886Y60898810D01*
X93533886Y60898810D02*
X93581505Y60803572D01*
X93581505Y60803572D02*
X93629124Y60755953D01*
X93629124Y60755953D02*
X93724362Y60708334D01*
X93724362Y60708334D02*
X93914838Y60708334D01*
X93914838Y60708334D02*
X94010076Y60755953D01*
X94010076Y60755953D02*
X94057695Y60803572D01*
X94057695Y60803572D02*
X94105314Y60898810D01*
X94635724Y62492943D02*
X94683343Y62540562D01*
X94683343Y62540562D02*
X94778581Y62588181D01*
X94778581Y62588181D02*
X95016676Y62588181D01*
X95016676Y62588181D02*
X95111914Y62540562D01*
X95111914Y62540562D02*
X95159533Y62492943D01*
X95159533Y62492943D02*
X95207152Y62397705D01*
X95207152Y62397705D02*
X95207152Y62302467D01*
X95207152Y62302467D02*
X95159533Y62159610D01*
X95159533Y62159610D02*
X94588105Y61588181D01*
X94588105Y61588181D02*
X95207152Y61588181D01*
X95588105Y62492943D02*
X95635724Y62540562D01*
X95635724Y62540562D02*
X95730962Y62588181D01*
X95730962Y62588181D02*
X95969057Y62588181D01*
X95969057Y62588181D02*
X96064295Y62540562D01*
X96064295Y62540562D02*
X96111914Y62492943D01*
X96111914Y62492943D02*
X96159533Y62397705D01*
X96159533Y62397705D02*
X96159533Y62302467D01*
X96159533Y62302467D02*
X96111914Y62159610D01*
X96111914Y62159610D02*
X95540486Y61588181D01*
X95540486Y61588181D02*
X96159533Y61588181D01*
X96778581Y62588181D02*
X96873819Y62588181D01*
X96873819Y62588181D02*
X96969057Y62540562D01*
X96969057Y62540562D02*
X97016676Y62492943D01*
X97016676Y62492943D02*
X97064295Y62397705D01*
X97064295Y62397705D02*
X97111914Y62207229D01*
X97111914Y62207229D02*
X97111914Y61969134D01*
X97111914Y61969134D02*
X97064295Y61778658D01*
X97064295Y61778658D02*
X97016676Y61683420D01*
X97016676Y61683420D02*
X96969057Y61635800D01*
X96969057Y61635800D02*
X96873819Y61588181D01*
X96873819Y61588181D02*
X96778581Y61588181D01*
X96778581Y61588181D02*
X96683343Y61635800D01*
X96683343Y61635800D02*
X96635724Y61683420D01*
X96635724Y61683420D02*
X96588105Y61778658D01*
X96588105Y61778658D02*
X96540486Y61969134D01*
X96540486Y61969134D02*
X96540486Y62207229D01*
X96540486Y62207229D02*
X96588105Y62397705D01*
X96588105Y62397705D02*
X96635724Y62492943D01*
X96635724Y62492943D02*
X96683343Y62540562D01*
X96683343Y62540562D02*
X96778581Y62588181D01*
X97969057Y62254848D02*
X97969057Y61588181D01*
X97540486Y62254848D02*
X97540486Y61731039D01*
X97540486Y61731039D02*
X97588105Y61635800D01*
X97588105Y61635800D02*
X97683343Y61588181D01*
X97683343Y61588181D02*
X97826200Y61588181D01*
X97826200Y61588181D02*
X97921438Y61635800D01*
X97921438Y61635800D02*
X97969057Y61683420D01*
X100125305Y55780781D02*
X100125305Y56780781D01*
X100125305Y56780781D02*
X100363400Y56780781D01*
X100363400Y56780781D02*
X100506257Y56733162D01*
X100506257Y56733162D02*
X100601495Y56637924D01*
X100601495Y56637924D02*
X100649114Y56542686D01*
X100649114Y56542686D02*
X100696733Y56352210D01*
X100696733Y56352210D02*
X100696733Y56209353D01*
X100696733Y56209353D02*
X100649114Y56018877D01*
X100649114Y56018877D02*
X100601495Y55923639D01*
X100601495Y55923639D02*
X100506257Y55828400D01*
X100506257Y55828400D02*
X100363400Y55780781D01*
X100363400Y55780781D02*
X100125305Y55780781D01*
X101649114Y55780781D02*
X101077686Y55780781D01*
X101363400Y55780781D02*
X101363400Y56780781D01*
X101363400Y56780781D02*
X101268162Y56637924D01*
X101268162Y56637924D02*
X101172924Y56542686D01*
X101172924Y56542686D02*
X101077686Y56495067D01*
X96942542Y54180581D02*
X96371114Y54180581D01*
X96656828Y54180581D02*
X96656828Y55180581D01*
X96656828Y55180581D02*
X96561590Y55037724D01*
X96561590Y55037724D02*
X96466352Y54942486D01*
X96466352Y54942486D02*
X96371114Y54894867D01*
X97371114Y54180581D02*
X97371114Y55180581D01*
X97371114Y55180581D02*
X97942542Y54180581D01*
X97942542Y54180581D02*
X97942542Y55180581D01*
X98847304Y54847248D02*
X98847304Y54180581D01*
X98609209Y55228200D02*
X98371114Y54513915D01*
X98371114Y54513915D02*
X98990161Y54513915D01*
X99561590Y55180581D02*
X99656828Y55180581D01*
X99656828Y55180581D02*
X99752066Y55132962D01*
X99752066Y55132962D02*
X99799685Y55085343D01*
X99799685Y55085343D02*
X99847304Y54990105D01*
X99847304Y54990105D02*
X99894923Y54799629D01*
X99894923Y54799629D02*
X99894923Y54561534D01*
X99894923Y54561534D02*
X99847304Y54371058D01*
X99847304Y54371058D02*
X99799685Y54275820D01*
X99799685Y54275820D02*
X99752066Y54228200D01*
X99752066Y54228200D02*
X99656828Y54180581D01*
X99656828Y54180581D02*
X99561590Y54180581D01*
X99561590Y54180581D02*
X99466352Y54228200D01*
X99466352Y54228200D02*
X99418733Y54275820D01*
X99418733Y54275820D02*
X99371114Y54371058D01*
X99371114Y54371058D02*
X99323495Y54561534D01*
X99323495Y54561534D02*
X99323495Y54799629D01*
X99323495Y54799629D02*
X99371114Y54990105D01*
X99371114Y54990105D02*
X99418733Y55085343D01*
X99418733Y55085343D02*
X99466352Y55132962D01*
X99466352Y55132962D02*
X99561590Y55180581D01*
X100513971Y55180581D02*
X100609209Y55180581D01*
X100609209Y55180581D02*
X100704447Y55132962D01*
X100704447Y55132962D02*
X100752066Y55085343D01*
X100752066Y55085343D02*
X100799685Y54990105D01*
X100799685Y54990105D02*
X100847304Y54799629D01*
X100847304Y54799629D02*
X100847304Y54561534D01*
X100847304Y54561534D02*
X100799685Y54371058D01*
X100799685Y54371058D02*
X100752066Y54275820D01*
X100752066Y54275820D02*
X100704447Y54228200D01*
X100704447Y54228200D02*
X100609209Y54180581D01*
X100609209Y54180581D02*
X100513971Y54180581D01*
X100513971Y54180581D02*
X100418733Y54228200D01*
X100418733Y54228200D02*
X100371114Y54275820D01*
X100371114Y54275820D02*
X100323495Y54371058D01*
X100323495Y54371058D02*
X100275876Y54561534D01*
X100275876Y54561534D02*
X100275876Y54799629D01*
X100275876Y54799629D02*
X100323495Y54990105D01*
X100323495Y54990105D02*
X100371114Y55085343D01*
X100371114Y55085343D02*
X100418733Y55132962D01*
X100418733Y55132962D02*
X100513971Y55180581D01*
X101799685Y54180581D02*
X101228257Y54180581D01*
X101513971Y54180581D02*
X101513971Y55180581D01*
X101513971Y55180581D02*
X101418733Y55037724D01*
X101418733Y55037724D02*
X101323495Y54942486D01*
X101323495Y54942486D02*
X101228257Y54894867D01*
X102169705Y52078696D02*
X102645895Y52078696D01*
X102074467Y51792981D02*
X102407800Y52792981D01*
X102407800Y52792981D02*
X102741133Y51792981D01*
X95597695Y51767581D02*
X95597695Y52767581D01*
X96169123Y51767581D02*
X95740552Y52339010D01*
X96169123Y52767581D02*
X95597695Y52196153D01*
X85755266Y55358381D02*
X85755266Y54644096D01*
X85755266Y54644096D02*
X85707647Y54501239D01*
X85707647Y54501239D02*
X85612409Y54406000D01*
X85612409Y54406000D02*
X85469552Y54358381D01*
X85469552Y54358381D02*
X85374314Y54358381D01*
X86231457Y54358381D02*
X86231457Y55358381D01*
X86231457Y55358381D02*
X86612409Y55358381D01*
X86612409Y55358381D02*
X86707647Y55310762D01*
X86707647Y55310762D02*
X86755266Y55263143D01*
X86755266Y55263143D02*
X86802885Y55167905D01*
X86802885Y55167905D02*
X86802885Y55025048D01*
X86802885Y55025048D02*
X86755266Y54929810D01*
X86755266Y54929810D02*
X86707647Y54882191D01*
X86707647Y54882191D02*
X86612409Y54834572D01*
X86612409Y54834572D02*
X86231457Y54834572D01*
X87755266Y54358381D02*
X87183838Y54358381D01*
X87469552Y54358381D02*
X87469552Y55358381D01*
X87469552Y55358381D02*
X87374314Y55215524D01*
X87374314Y55215524D02*
X87279076Y55120286D01*
X87279076Y55120286D02*
X87183838Y55072667D01*
X105014733Y53082020D02*
X104967114Y53034400D01*
X104967114Y53034400D02*
X104824257Y52986781D01*
X104824257Y52986781D02*
X104729019Y52986781D01*
X104729019Y52986781D02*
X104586162Y53034400D01*
X104586162Y53034400D02*
X104490924Y53129639D01*
X104490924Y53129639D02*
X104443305Y53224877D01*
X104443305Y53224877D02*
X104395686Y53415353D01*
X104395686Y53415353D02*
X104395686Y53558210D01*
X104395686Y53558210D02*
X104443305Y53748686D01*
X104443305Y53748686D02*
X104490924Y53843924D01*
X104490924Y53843924D02*
X104586162Y53939162D01*
X104586162Y53939162D02*
X104729019Y53986781D01*
X104729019Y53986781D02*
X104824257Y53986781D01*
X104824257Y53986781D02*
X104967114Y53939162D01*
X104967114Y53939162D02*
X105014733Y53891543D01*
X105919495Y53986781D02*
X105443305Y53986781D01*
X105443305Y53986781D02*
X105395686Y53510591D01*
X105395686Y53510591D02*
X105443305Y53558210D01*
X105443305Y53558210D02*
X105538543Y53605829D01*
X105538543Y53605829D02*
X105776638Y53605829D01*
X105776638Y53605829D02*
X105871876Y53558210D01*
X105871876Y53558210D02*
X105919495Y53510591D01*
X105919495Y53510591D02*
X105967114Y53415353D01*
X105967114Y53415353D02*
X105967114Y53177258D01*
X105967114Y53177258D02*
X105919495Y53082020D01*
X105919495Y53082020D02*
X105871876Y53034400D01*
X105871876Y53034400D02*
X105776638Y52986781D01*
X105776638Y52986781D02*
X105538543Y52986781D01*
X105538543Y52986781D02*
X105443305Y53034400D01*
X105443305Y53034400D02*
X105395686Y53082020D01*
X104189352Y51488181D02*
X103617924Y51488181D01*
X103903638Y51488181D02*
X103903638Y52488181D01*
X103903638Y52488181D02*
X103808400Y52345324D01*
X103808400Y52345324D02*
X103713162Y52250086D01*
X103713162Y52250086D02*
X103617924Y52202467D01*
X104808400Y52488181D02*
X104903638Y52488181D01*
X104903638Y52488181D02*
X104998876Y52440562D01*
X104998876Y52440562D02*
X105046495Y52392943D01*
X105046495Y52392943D02*
X105094114Y52297705D01*
X105094114Y52297705D02*
X105141733Y52107229D01*
X105141733Y52107229D02*
X105141733Y51869134D01*
X105141733Y51869134D02*
X105094114Y51678658D01*
X105094114Y51678658D02*
X105046495Y51583420D01*
X105046495Y51583420D02*
X104998876Y51535800D01*
X104998876Y51535800D02*
X104903638Y51488181D01*
X104903638Y51488181D02*
X104808400Y51488181D01*
X104808400Y51488181D02*
X104713162Y51535800D01*
X104713162Y51535800D02*
X104665543Y51583420D01*
X104665543Y51583420D02*
X104617924Y51678658D01*
X104617924Y51678658D02*
X104570305Y51869134D01*
X104570305Y51869134D02*
X104570305Y52107229D01*
X104570305Y52107229D02*
X104617924Y52297705D01*
X104617924Y52297705D02*
X104665543Y52392943D01*
X104665543Y52392943D02*
X104713162Y52440562D01*
X104713162Y52440562D02*
X104808400Y52488181D01*
X105760781Y52488181D02*
X105856019Y52488181D01*
X105856019Y52488181D02*
X105951257Y52440562D01*
X105951257Y52440562D02*
X105998876Y52392943D01*
X105998876Y52392943D02*
X106046495Y52297705D01*
X106046495Y52297705D02*
X106094114Y52107229D01*
X106094114Y52107229D02*
X106094114Y51869134D01*
X106094114Y51869134D02*
X106046495Y51678658D01*
X106046495Y51678658D02*
X105998876Y51583420D01*
X105998876Y51583420D02*
X105951257Y51535800D01*
X105951257Y51535800D02*
X105856019Y51488181D01*
X105856019Y51488181D02*
X105760781Y51488181D01*
X105760781Y51488181D02*
X105665543Y51535800D01*
X105665543Y51535800D02*
X105617924Y51583420D01*
X105617924Y51583420D02*
X105570305Y51678658D01*
X105570305Y51678658D02*
X105522686Y51869134D01*
X105522686Y51869134D02*
X105522686Y52107229D01*
X105522686Y52107229D02*
X105570305Y52297705D01*
X105570305Y52297705D02*
X105617924Y52392943D01*
X105617924Y52392943D02*
X105665543Y52440562D01*
X105665543Y52440562D02*
X105760781Y52488181D01*
X106522686Y52154848D02*
X106522686Y51488181D01*
X106522686Y52059610D02*
X106570305Y52107229D01*
X106570305Y52107229D02*
X106665543Y52154848D01*
X106665543Y52154848D02*
X106808400Y52154848D01*
X106808400Y52154848D02*
X106903638Y52107229D01*
X106903638Y52107229D02*
X106951257Y52011991D01*
X106951257Y52011991D02*
X106951257Y51488181D01*
X125096033Y75840420D02*
X125048414Y75792800D01*
X125048414Y75792800D02*
X124905557Y75745181D01*
X124905557Y75745181D02*
X124810319Y75745181D01*
X124810319Y75745181D02*
X124667462Y75792800D01*
X124667462Y75792800D02*
X124572224Y75888039D01*
X124572224Y75888039D02*
X124524605Y75983277D01*
X124524605Y75983277D02*
X124476986Y76173753D01*
X124476986Y76173753D02*
X124476986Y76316610D01*
X124476986Y76316610D02*
X124524605Y76507086D01*
X124524605Y76507086D02*
X124572224Y76602324D01*
X124572224Y76602324D02*
X124667462Y76697562D01*
X124667462Y76697562D02*
X124810319Y76745181D01*
X124810319Y76745181D02*
X124905557Y76745181D01*
X124905557Y76745181D02*
X125048414Y76697562D01*
X125048414Y76697562D02*
X125096033Y76649943D01*
X125953176Y76745181D02*
X125762700Y76745181D01*
X125762700Y76745181D02*
X125667462Y76697562D01*
X125667462Y76697562D02*
X125619843Y76649943D01*
X125619843Y76649943D02*
X125524605Y76507086D01*
X125524605Y76507086D02*
X125476986Y76316610D01*
X125476986Y76316610D02*
X125476986Y75935658D01*
X125476986Y75935658D02*
X125524605Y75840420D01*
X125524605Y75840420D02*
X125572224Y75792800D01*
X125572224Y75792800D02*
X125667462Y75745181D01*
X125667462Y75745181D02*
X125857938Y75745181D01*
X125857938Y75745181D02*
X125953176Y75792800D01*
X125953176Y75792800D02*
X126000795Y75840420D01*
X126000795Y75840420D02*
X126048414Y75935658D01*
X126048414Y75935658D02*
X126048414Y76173753D01*
X126048414Y76173753D02*
X126000795Y76268991D01*
X126000795Y76268991D02*
X125953176Y76316610D01*
X125953176Y76316610D02*
X125857938Y76364229D01*
X125857938Y76364229D02*
X125667462Y76364229D01*
X125667462Y76364229D02*
X125572224Y76316610D01*
X125572224Y76316610D02*
X125524605Y76268991D01*
X125524605Y76268991D02*
X125476986Y76173753D01*
X125880019Y72236153D02*
X125880019Y71664725D01*
X125880019Y71950439D02*
X124880019Y71950439D01*
X124880019Y71950439D02*
X125022876Y71855201D01*
X125022876Y71855201D02*
X125118114Y71759963D01*
X125118114Y71759963D02*
X125165733Y71664725D01*
X124880019Y72855201D02*
X124880019Y72950439D01*
X124880019Y72950439D02*
X124927638Y73045677D01*
X124927638Y73045677D02*
X124975257Y73093296D01*
X124975257Y73093296D02*
X125070495Y73140915D01*
X125070495Y73140915D02*
X125260971Y73188534D01*
X125260971Y73188534D02*
X125499066Y73188534D01*
X125499066Y73188534D02*
X125689542Y73140915D01*
X125689542Y73140915D02*
X125784780Y73093296D01*
X125784780Y73093296D02*
X125832400Y73045677D01*
X125832400Y73045677D02*
X125880019Y72950439D01*
X125880019Y72950439D02*
X125880019Y72855201D01*
X125880019Y72855201D02*
X125832400Y72759963D01*
X125832400Y72759963D02*
X125784780Y72712344D01*
X125784780Y72712344D02*
X125689542Y72664725D01*
X125689542Y72664725D02*
X125499066Y72617106D01*
X125499066Y72617106D02*
X125260971Y72617106D01*
X125260971Y72617106D02*
X125070495Y72664725D01*
X125070495Y72664725D02*
X124975257Y72712344D01*
X124975257Y72712344D02*
X124927638Y72759963D01*
X124927638Y72759963D02*
X124880019Y72855201D01*
X124880019Y73807582D02*
X124880019Y73902820D01*
X124880019Y73902820D02*
X124927638Y73998058D01*
X124927638Y73998058D02*
X124975257Y74045677D01*
X124975257Y74045677D02*
X125070495Y74093296D01*
X125070495Y74093296D02*
X125260971Y74140915D01*
X125260971Y74140915D02*
X125499066Y74140915D01*
X125499066Y74140915D02*
X125689542Y74093296D01*
X125689542Y74093296D02*
X125784780Y74045677D01*
X125784780Y74045677D02*
X125832400Y73998058D01*
X125832400Y73998058D02*
X125880019Y73902820D01*
X125880019Y73902820D02*
X125880019Y73807582D01*
X125880019Y73807582D02*
X125832400Y73712344D01*
X125832400Y73712344D02*
X125784780Y73664725D01*
X125784780Y73664725D02*
X125689542Y73617106D01*
X125689542Y73617106D02*
X125499066Y73569487D01*
X125499066Y73569487D02*
X125260971Y73569487D01*
X125260971Y73569487D02*
X125070495Y73617106D01*
X125070495Y73617106D02*
X124975257Y73664725D01*
X124975257Y73664725D02*
X124927638Y73712344D01*
X124927638Y73712344D02*
X124880019Y73807582D01*
X125213352Y74998058D02*
X125880019Y74998058D01*
X125213352Y74569487D02*
X125737161Y74569487D01*
X125737161Y74569487D02*
X125832400Y74617106D01*
X125832400Y74617106D02*
X125880019Y74712344D01*
X125880019Y74712344D02*
X125880019Y74855201D01*
X125880019Y74855201D02*
X125832400Y74950439D01*
X125832400Y74950439D02*
X125784780Y74998058D01*
X90587533Y59732781D02*
X90254200Y60208972D01*
X90016105Y59732781D02*
X90016105Y60732781D01*
X90016105Y60732781D02*
X90397057Y60732781D01*
X90397057Y60732781D02*
X90492295Y60685162D01*
X90492295Y60685162D02*
X90539914Y60637543D01*
X90539914Y60637543D02*
X90587533Y60542305D01*
X90587533Y60542305D02*
X90587533Y60399448D01*
X90587533Y60399448D02*
X90539914Y60304210D01*
X90539914Y60304210D02*
X90492295Y60256591D01*
X90492295Y60256591D02*
X90397057Y60208972D01*
X90397057Y60208972D02*
X90016105Y60208972D01*
X91492295Y60732781D02*
X91016105Y60732781D01*
X91016105Y60732781D02*
X90968486Y60256591D01*
X90968486Y60256591D02*
X91016105Y60304210D01*
X91016105Y60304210D02*
X91111343Y60351829D01*
X91111343Y60351829D02*
X91349438Y60351829D01*
X91349438Y60351829D02*
X91444676Y60304210D01*
X91444676Y60304210D02*
X91492295Y60256591D01*
X91492295Y60256591D02*
X91539914Y60161353D01*
X91539914Y60161353D02*
X91539914Y59923258D01*
X91539914Y59923258D02*
X91492295Y59828020D01*
X91492295Y59828020D02*
X91444676Y59780400D01*
X91444676Y59780400D02*
X91349438Y59732781D01*
X91349438Y59732781D02*
X91111343Y59732781D01*
X91111343Y59732781D02*
X91016105Y59780400D01*
X91016105Y59780400D02*
X90968486Y59828020D01*
X89944676Y56892781D02*
X90611342Y56892781D01*
X90611342Y56892781D02*
X90182771Y55892781D01*
X91468485Y56892781D02*
X90992295Y56892781D01*
X90992295Y56892781D02*
X90944676Y56416591D01*
X90944676Y56416591D02*
X90992295Y56464210D01*
X90992295Y56464210D02*
X91087533Y56511829D01*
X91087533Y56511829D02*
X91325628Y56511829D01*
X91325628Y56511829D02*
X91420866Y56464210D01*
X91420866Y56464210D02*
X91468485Y56416591D01*
X91468485Y56416591D02*
X91516104Y56321353D01*
X91516104Y56321353D02*
X91516104Y56083258D01*
X91516104Y56083258D02*
X91468485Y55988020D01*
X91468485Y55988020D02*
X91420866Y55940400D01*
X91420866Y55940400D02*
X91325628Y55892781D01*
X91325628Y55892781D02*
X91087533Y55892781D01*
X91087533Y55892781D02*
X90992295Y55940400D01*
X90992295Y55940400D02*
X90944676Y55988020D01*
X96200933Y69338020D02*
X96153314Y69290400D01*
X96153314Y69290400D02*
X96010457Y69242781D01*
X96010457Y69242781D02*
X95915219Y69242781D01*
X95915219Y69242781D02*
X95772362Y69290400D01*
X95772362Y69290400D02*
X95677124Y69385639D01*
X95677124Y69385639D02*
X95629505Y69480877D01*
X95629505Y69480877D02*
X95581886Y69671353D01*
X95581886Y69671353D02*
X95581886Y69814210D01*
X95581886Y69814210D02*
X95629505Y70004686D01*
X95629505Y70004686D02*
X95677124Y70099924D01*
X95677124Y70099924D02*
X95772362Y70195162D01*
X95772362Y70195162D02*
X95915219Y70242781D01*
X95915219Y70242781D02*
X96010457Y70242781D01*
X96010457Y70242781D02*
X96153314Y70195162D01*
X96153314Y70195162D02*
X96200933Y70147543D01*
X96772362Y69814210D02*
X96677124Y69861829D01*
X96677124Y69861829D02*
X96629505Y69909448D01*
X96629505Y69909448D02*
X96581886Y70004686D01*
X96581886Y70004686D02*
X96581886Y70052305D01*
X96581886Y70052305D02*
X96629505Y70147543D01*
X96629505Y70147543D02*
X96677124Y70195162D01*
X96677124Y70195162D02*
X96772362Y70242781D01*
X96772362Y70242781D02*
X96962838Y70242781D01*
X96962838Y70242781D02*
X97058076Y70195162D01*
X97058076Y70195162D02*
X97105695Y70147543D01*
X97105695Y70147543D02*
X97153314Y70052305D01*
X97153314Y70052305D02*
X97153314Y70004686D01*
X97153314Y70004686D02*
X97105695Y69909448D01*
X97105695Y69909448D02*
X97058076Y69861829D01*
X97058076Y69861829D02*
X96962838Y69814210D01*
X96962838Y69814210D02*
X96772362Y69814210D01*
X96772362Y69814210D02*
X96677124Y69766591D01*
X96677124Y69766591D02*
X96629505Y69718972D01*
X96629505Y69718972D02*
X96581886Y69623734D01*
X96581886Y69623734D02*
X96581886Y69433258D01*
X96581886Y69433258D02*
X96629505Y69338020D01*
X96629505Y69338020D02*
X96677124Y69290400D01*
X96677124Y69290400D02*
X96772362Y69242781D01*
X96772362Y69242781D02*
X96962838Y69242781D01*
X96962838Y69242781D02*
X97058076Y69290400D01*
X97058076Y69290400D02*
X97105695Y69338020D01*
X97105695Y69338020D02*
X97153314Y69433258D01*
X97153314Y69433258D02*
X97153314Y69623734D01*
X97153314Y69623734D02*
X97105695Y69718972D01*
X97105695Y69718972D02*
X97058076Y69766591D01*
X97058076Y69766591D02*
X96962838Y69814210D01*
X91603724Y69766543D02*
X91651343Y69814162D01*
X91651343Y69814162D02*
X91746581Y69861781D01*
X91746581Y69861781D02*
X91984676Y69861781D01*
X91984676Y69861781D02*
X92079914Y69814162D01*
X92079914Y69814162D02*
X92127533Y69766543D01*
X92127533Y69766543D02*
X92175152Y69671305D01*
X92175152Y69671305D02*
X92175152Y69576067D01*
X92175152Y69576067D02*
X92127533Y69433210D01*
X92127533Y69433210D02*
X91556105Y68861781D01*
X91556105Y68861781D02*
X92175152Y68861781D01*
X92556105Y69766543D02*
X92603724Y69814162D01*
X92603724Y69814162D02*
X92698962Y69861781D01*
X92698962Y69861781D02*
X92937057Y69861781D01*
X92937057Y69861781D02*
X93032295Y69814162D01*
X93032295Y69814162D02*
X93079914Y69766543D01*
X93079914Y69766543D02*
X93127533Y69671305D01*
X93127533Y69671305D02*
X93127533Y69576067D01*
X93127533Y69576067D02*
X93079914Y69433210D01*
X93079914Y69433210D02*
X92508486Y68861781D01*
X92508486Y68861781D02*
X93127533Y68861781D01*
X93746581Y69861781D02*
X93841819Y69861781D01*
X93841819Y69861781D02*
X93937057Y69814162D01*
X93937057Y69814162D02*
X93984676Y69766543D01*
X93984676Y69766543D02*
X94032295Y69671305D01*
X94032295Y69671305D02*
X94079914Y69480829D01*
X94079914Y69480829D02*
X94079914Y69242734D01*
X94079914Y69242734D02*
X94032295Y69052258D01*
X94032295Y69052258D02*
X93984676Y68957020D01*
X93984676Y68957020D02*
X93937057Y68909400D01*
X93937057Y68909400D02*
X93841819Y68861781D01*
X93841819Y68861781D02*
X93746581Y68861781D01*
X93746581Y68861781D02*
X93651343Y68909400D01*
X93651343Y68909400D02*
X93603724Y68957020D01*
X93603724Y68957020D02*
X93556105Y69052258D01*
X93556105Y69052258D02*
X93508486Y69242734D01*
X93508486Y69242734D02*
X93508486Y69480829D01*
X93508486Y69480829D02*
X93556105Y69671305D01*
X93556105Y69671305D02*
X93603724Y69766543D01*
X93603724Y69766543D02*
X93651343Y69814162D01*
X93651343Y69814162D02*
X93746581Y69861781D01*
X94937057Y69528448D02*
X94937057Y68861781D01*
X94508486Y69528448D02*
X94508486Y69004639D01*
X94508486Y69004639D02*
X94556105Y68909400D01*
X94556105Y68909400D02*
X94651343Y68861781D01*
X94651343Y68861781D02*
X94794200Y68861781D01*
X94794200Y68861781D02*
X94889438Y68909400D01*
X94889438Y68909400D02*
X94937057Y68957020D01*
X95775542Y73529020D02*
X95727923Y73481400D01*
X95727923Y73481400D02*
X95585066Y73433781D01*
X95585066Y73433781D02*
X95489828Y73433781D01*
X95489828Y73433781D02*
X95346971Y73481400D01*
X95346971Y73481400D02*
X95251733Y73576639D01*
X95251733Y73576639D02*
X95204114Y73671877D01*
X95204114Y73671877D02*
X95156495Y73862353D01*
X95156495Y73862353D02*
X95156495Y74005210D01*
X95156495Y74005210D02*
X95204114Y74195686D01*
X95204114Y74195686D02*
X95251733Y74290924D01*
X95251733Y74290924D02*
X95346971Y74386162D01*
X95346971Y74386162D02*
X95489828Y74433781D01*
X95489828Y74433781D02*
X95585066Y74433781D01*
X95585066Y74433781D02*
X95727923Y74386162D01*
X95727923Y74386162D02*
X95775542Y74338543D01*
X96727923Y73433781D02*
X96156495Y73433781D01*
X96442209Y73433781D02*
X96442209Y74433781D01*
X96442209Y74433781D02*
X96346971Y74290924D01*
X96346971Y74290924D02*
X96251733Y74195686D01*
X96251733Y74195686D02*
X96156495Y74148067D01*
X97346971Y74433781D02*
X97442209Y74433781D01*
X97442209Y74433781D02*
X97537447Y74386162D01*
X97537447Y74386162D02*
X97585066Y74338543D01*
X97585066Y74338543D02*
X97632685Y74243305D01*
X97632685Y74243305D02*
X97680304Y74052829D01*
X97680304Y74052829D02*
X97680304Y73814734D01*
X97680304Y73814734D02*
X97632685Y73624258D01*
X97632685Y73624258D02*
X97585066Y73529020D01*
X97585066Y73529020D02*
X97537447Y73481400D01*
X97537447Y73481400D02*
X97442209Y73433781D01*
X97442209Y73433781D02*
X97346971Y73433781D01*
X97346971Y73433781D02*
X97251733Y73481400D01*
X97251733Y73481400D02*
X97204114Y73529020D01*
X97204114Y73529020D02*
X97156495Y73624258D01*
X97156495Y73624258D02*
X97108876Y73814734D01*
X97108876Y73814734D02*
X97108876Y74052829D01*
X97108876Y74052829D02*
X97156495Y74243305D01*
X97156495Y74243305D02*
X97204114Y74338543D01*
X97204114Y74338543D02*
X97251733Y74386162D01*
X97251733Y74386162D02*
X97346971Y74433781D01*
X95489924Y75710143D02*
X95537543Y75757762D01*
X95537543Y75757762D02*
X95632781Y75805381D01*
X95632781Y75805381D02*
X95870876Y75805381D01*
X95870876Y75805381D02*
X95966114Y75757762D01*
X95966114Y75757762D02*
X96013733Y75710143D01*
X96013733Y75710143D02*
X96061352Y75614905D01*
X96061352Y75614905D02*
X96061352Y75519667D01*
X96061352Y75519667D02*
X96013733Y75376810D01*
X96013733Y75376810D02*
X95442305Y74805381D01*
X95442305Y74805381D02*
X96061352Y74805381D01*
X96442305Y75710143D02*
X96489924Y75757762D01*
X96489924Y75757762D02*
X96585162Y75805381D01*
X96585162Y75805381D02*
X96823257Y75805381D01*
X96823257Y75805381D02*
X96918495Y75757762D01*
X96918495Y75757762D02*
X96966114Y75710143D01*
X96966114Y75710143D02*
X97013733Y75614905D01*
X97013733Y75614905D02*
X97013733Y75519667D01*
X97013733Y75519667D02*
X96966114Y75376810D01*
X96966114Y75376810D02*
X96394686Y74805381D01*
X96394686Y74805381D02*
X97013733Y74805381D01*
X97632781Y75805381D02*
X97728019Y75805381D01*
X97728019Y75805381D02*
X97823257Y75757762D01*
X97823257Y75757762D02*
X97870876Y75710143D01*
X97870876Y75710143D02*
X97918495Y75614905D01*
X97918495Y75614905D02*
X97966114Y75424429D01*
X97966114Y75424429D02*
X97966114Y75186334D01*
X97966114Y75186334D02*
X97918495Y74995858D01*
X97918495Y74995858D02*
X97870876Y74900620D01*
X97870876Y74900620D02*
X97823257Y74853000D01*
X97823257Y74853000D02*
X97728019Y74805381D01*
X97728019Y74805381D02*
X97632781Y74805381D01*
X97632781Y74805381D02*
X97537543Y74853000D01*
X97537543Y74853000D02*
X97489924Y74900620D01*
X97489924Y74900620D02*
X97442305Y74995858D01*
X97442305Y74995858D02*
X97394686Y75186334D01*
X97394686Y75186334D02*
X97394686Y75424429D01*
X97394686Y75424429D02*
X97442305Y75614905D01*
X97442305Y75614905D02*
X97489924Y75710143D01*
X97489924Y75710143D02*
X97537543Y75757762D01*
X97537543Y75757762D02*
X97632781Y75805381D01*
X98823257Y75472048D02*
X98823257Y74805381D01*
X98394686Y75472048D02*
X98394686Y74948239D01*
X98394686Y74948239D02*
X98442305Y74853000D01*
X98442305Y74853000D02*
X98537543Y74805381D01*
X98537543Y74805381D02*
X98680400Y74805381D01*
X98680400Y74805381D02*
X98775638Y74853000D01*
X98775638Y74853000D02*
X98823257Y74900620D01*
X120021409Y58034972D02*
X120021409Y57558781D01*
X119688076Y58558781D02*
X120021409Y58034972D01*
X120021409Y58034972D02*
X120354742Y58558781D01*
X121211885Y57558781D02*
X120640457Y57558781D01*
X120926171Y57558781D02*
X120926171Y58558781D01*
X120926171Y58558781D02*
X120830933Y58415924D01*
X120830933Y58415924D02*
X120735695Y58320686D01*
X120735695Y58320686D02*
X120640457Y58273067D01*
X117707209Y61425848D02*
X117707209Y60759181D01*
X117469114Y61806800D02*
X117231019Y61092515D01*
X117231019Y61092515D02*
X117850066Y61092515D01*
X118231019Y60854420D02*
X118278638Y60806800D01*
X118278638Y60806800D02*
X118231019Y60759181D01*
X118231019Y60759181D02*
X118183400Y60806800D01*
X118183400Y60806800D02*
X118231019Y60854420D01*
X118231019Y60854420D02*
X118231019Y60759181D01*
X119135780Y61425848D02*
X119135780Y60759181D01*
X118897685Y61806800D02*
X118659590Y61092515D01*
X118659590Y61092515D02*
X119278637Y61092515D01*
X119564352Y61759181D02*
X120183399Y61759181D01*
X120183399Y61759181D02*
X119850066Y61378229D01*
X119850066Y61378229D02*
X119992923Y61378229D01*
X119992923Y61378229D02*
X120088161Y61330610D01*
X120088161Y61330610D02*
X120135780Y61282991D01*
X120135780Y61282991D02*
X120183399Y61187753D01*
X120183399Y61187753D02*
X120183399Y60949658D01*
X120183399Y60949658D02*
X120135780Y60854420D01*
X120135780Y60854420D02*
X120088161Y60806800D01*
X120088161Y60806800D02*
X119992923Y60759181D01*
X119992923Y60759181D02*
X119707209Y60759181D01*
X119707209Y60759181D02*
X119611971Y60806800D01*
X119611971Y60806800D02*
X119564352Y60854420D01*
X120516733Y61759181D02*
X121135780Y61759181D01*
X121135780Y61759181D02*
X120802447Y61378229D01*
X120802447Y61378229D02*
X120945304Y61378229D01*
X120945304Y61378229D02*
X121040542Y61330610D01*
X121040542Y61330610D02*
X121088161Y61282991D01*
X121088161Y61282991D02*
X121135780Y61187753D01*
X121135780Y61187753D02*
X121135780Y60949658D01*
X121135780Y60949658D02*
X121088161Y60854420D01*
X121088161Y60854420D02*
X121040542Y60806800D01*
X121040542Y60806800D02*
X120945304Y60759181D01*
X120945304Y60759181D02*
X120659590Y60759181D01*
X120659590Y60759181D02*
X120564352Y60806800D01*
X120564352Y60806800D02*
X120516733Y60854420D01*
X121992923Y61759181D02*
X121802447Y61759181D01*
X121802447Y61759181D02*
X121707209Y61711562D01*
X121707209Y61711562D02*
X121659590Y61663943D01*
X121659590Y61663943D02*
X121564352Y61521086D01*
X121564352Y61521086D02*
X121516733Y61330610D01*
X121516733Y61330610D02*
X121516733Y60949658D01*
X121516733Y60949658D02*
X121564352Y60854420D01*
X121564352Y60854420D02*
X121611971Y60806800D01*
X121611971Y60806800D02*
X121707209Y60759181D01*
X121707209Y60759181D02*
X121897685Y60759181D01*
X121897685Y60759181D02*
X121992923Y60806800D01*
X121992923Y60806800D02*
X122040542Y60854420D01*
X122040542Y60854420D02*
X122088161Y60949658D01*
X122088161Y60949658D02*
X122088161Y61187753D01*
X122088161Y61187753D02*
X122040542Y61282991D01*
X122040542Y61282991D02*
X121992923Y61330610D01*
X121992923Y61330610D02*
X121897685Y61378229D01*
X121897685Y61378229D02*
X121707209Y61378229D01*
X121707209Y61378229D02*
X121611971Y61330610D01*
X121611971Y61330610D02*
X121564352Y61282991D01*
X121564352Y61282991D02*
X121516733Y61187753D01*
X123040542Y60759181D02*
X122469114Y60759181D01*
X122754828Y60759181D02*
X122754828Y61759181D01*
X122754828Y61759181D02*
X122659590Y61616324D01*
X122659590Y61616324D02*
X122564352Y61521086D01*
X122564352Y61521086D02*
X122469114Y61473467D01*
X123516733Y60759181D02*
X123707209Y60759181D01*
X123707209Y60759181D02*
X123802447Y60806800D01*
X123802447Y60806800D02*
X123850066Y60854420D01*
X123850066Y60854420D02*
X123945304Y60997277D01*
X123945304Y60997277D02*
X123992923Y61187753D01*
X123992923Y61187753D02*
X123992923Y61568705D01*
X123992923Y61568705D02*
X123945304Y61663943D01*
X123945304Y61663943D02*
X123897685Y61711562D01*
X123897685Y61711562D02*
X123802447Y61759181D01*
X123802447Y61759181D02*
X123611971Y61759181D01*
X123611971Y61759181D02*
X123516733Y61711562D01*
X123516733Y61711562D02*
X123469114Y61663943D01*
X123469114Y61663943D02*
X123421495Y61568705D01*
X123421495Y61568705D02*
X123421495Y61330610D01*
X123421495Y61330610D02*
X123469114Y61235372D01*
X123469114Y61235372D02*
X123516733Y61187753D01*
X123516733Y61187753D02*
X123611971Y61140134D01*
X123611971Y61140134D02*
X123802447Y61140134D01*
X123802447Y61140134D02*
X123897685Y61187753D01*
X123897685Y61187753D02*
X123945304Y61235372D01*
X123945304Y61235372D02*
X123992923Y61330610D01*
X124421495Y60759181D02*
X124421495Y61759181D01*
X124421495Y61759181D02*
X124754828Y61044896D01*
X124754828Y61044896D02*
X125088161Y61759181D01*
X125088161Y61759181D02*
X125088161Y60759181D01*
X108000419Y78607867D02*
X108714704Y78607867D01*
X108714704Y78607867D02*
X108857561Y78560248D01*
X108857561Y78560248D02*
X108952800Y78465010D01*
X108952800Y78465010D02*
X109000419Y78322153D01*
X109000419Y78322153D02*
X109000419Y78226915D01*
X108000419Y79560248D02*
X108000419Y79084058D01*
X108000419Y79084058D02*
X108476609Y79036439D01*
X108476609Y79036439D02*
X108428990Y79084058D01*
X108428990Y79084058D02*
X108381371Y79179296D01*
X108381371Y79179296D02*
X108381371Y79417391D01*
X108381371Y79417391D02*
X108428990Y79512629D01*
X108428990Y79512629D02*
X108476609Y79560248D01*
X108476609Y79560248D02*
X108571847Y79607867D01*
X108571847Y79607867D02*
X108809942Y79607867D01*
X108809942Y79607867D02*
X108905180Y79560248D01*
X108905180Y79560248D02*
X108952800Y79512629D01*
X108952800Y79512629D02*
X109000419Y79417391D01*
X109000419Y79417391D02*
X109000419Y79179296D01*
X109000419Y79179296D02*
X108952800Y79084058D01*
X108952800Y79084058D02*
X108905180Y79036439D01*
D13*
X82522639Y73608067D02*
X83236924Y73608067D01*
X83236924Y73608067D02*
X83379781Y73560448D01*
X83379781Y73560448D02*
X83475020Y73465210D01*
X83475020Y73465210D02*
X83522639Y73322353D01*
X83522639Y73322353D02*
X83522639Y73227115D01*
X82522639Y73989020D02*
X82522639Y74608067D01*
X82522639Y74608067D02*
X82903591Y74274734D01*
X82903591Y74274734D02*
X82903591Y74417591D01*
X82903591Y74417591D02*
X82951210Y74512829D01*
X82951210Y74512829D02*
X82998829Y74560448D01*
X82998829Y74560448D02*
X83094067Y74608067D01*
X83094067Y74608067D02*
X83332162Y74608067D01*
X83332162Y74608067D02*
X83427400Y74560448D01*
X83427400Y74560448D02*
X83475020Y74512829D01*
X83475020Y74512829D02*
X83522639Y74417591D01*
X83522639Y74417591D02*
X83522639Y74131877D01*
X83522639Y74131877D02*
X83475020Y74036639D01*
X83475020Y74036639D02*
X83427400Y73989020D01*
D11*
X104698895Y69582381D02*
X104698895Y68772858D01*
X104698895Y68772858D02*
X104746514Y68677620D01*
X104746514Y68677620D02*
X104794133Y68630000D01*
X104794133Y68630000D02*
X104889371Y68582381D01*
X104889371Y68582381D02*
X105079847Y68582381D01*
X105079847Y68582381D02*
X105175085Y68630000D01*
X105175085Y68630000D02*
X105222704Y68677620D01*
X105222704Y68677620D02*
X105270323Y68772858D01*
X105270323Y68772858D02*
X105270323Y69582381D01*
X106270323Y68582381D02*
X105698895Y68582381D01*
X105984609Y68582381D02*
X105984609Y69582381D01*
X105984609Y69582381D02*
X105889371Y69439524D01*
X105889371Y69439524D02*
X105794133Y69344286D01*
X105794133Y69344286D02*
X105698895Y69296667D01*
X109205733Y73382981D02*
X108872400Y73859172D01*
X108634305Y73382981D02*
X108634305Y74382981D01*
X108634305Y74382981D02*
X109015257Y74382981D01*
X109015257Y74382981D02*
X109110495Y74335362D01*
X109110495Y74335362D02*
X109158114Y74287743D01*
X109158114Y74287743D02*
X109205733Y74192505D01*
X109205733Y74192505D02*
X109205733Y74049648D01*
X109205733Y74049648D02*
X109158114Y73954410D01*
X109158114Y73954410D02*
X109110495Y73906791D01*
X109110495Y73906791D02*
X109015257Y73859172D01*
X109015257Y73859172D02*
X108634305Y73859172D01*
X110062876Y74382981D02*
X109872400Y74382981D01*
X109872400Y74382981D02*
X109777162Y74335362D01*
X109777162Y74335362D02*
X109729543Y74287743D01*
X109729543Y74287743D02*
X109634305Y74144886D01*
X109634305Y74144886D02*
X109586686Y73954410D01*
X109586686Y73954410D02*
X109586686Y73573458D01*
X109586686Y73573458D02*
X109634305Y73478220D01*
X109634305Y73478220D02*
X109681924Y73430600D01*
X109681924Y73430600D02*
X109777162Y73382981D01*
X109777162Y73382981D02*
X109967638Y73382981D01*
X109967638Y73382981D02*
X110062876Y73430600D01*
X110062876Y73430600D02*
X110110495Y73478220D01*
X110110495Y73478220D02*
X110158114Y73573458D01*
X110158114Y73573458D02*
X110158114Y73811553D01*
X110158114Y73811553D02*
X110110495Y73906791D01*
X110110495Y73906791D02*
X110062876Y73954410D01*
X110062876Y73954410D02*
X109967638Y74002029D01*
X109967638Y74002029D02*
X109777162Y74002029D01*
X109777162Y74002029D02*
X109681924Y73954410D01*
X109681924Y73954410D02*
X109634305Y73906791D01*
X109634305Y73906791D02*
X109586686Y73811553D01*
X108334276Y76160981D02*
X109000942Y76160981D01*
X109000942Y76160981D02*
X108572371Y75160981D01*
X109858085Y76160981D02*
X109381895Y76160981D01*
X109381895Y76160981D02*
X109334276Y75684791D01*
X109334276Y75684791D02*
X109381895Y75732410D01*
X109381895Y75732410D02*
X109477133Y75780029D01*
X109477133Y75780029D02*
X109715228Y75780029D01*
X109715228Y75780029D02*
X109810466Y75732410D01*
X109810466Y75732410D02*
X109858085Y75684791D01*
X109858085Y75684791D02*
X109905704Y75589553D01*
X109905704Y75589553D02*
X109905704Y75351458D01*
X109905704Y75351458D02*
X109858085Y75256220D01*
X109858085Y75256220D02*
X109810466Y75208600D01*
X109810466Y75208600D02*
X109715228Y75160981D01*
X109715228Y75160981D02*
X109477133Y75160981D01*
X109477133Y75160981D02*
X109381895Y75208600D01*
X109381895Y75208600D02*
X109334276Y75256220D01*
X108988266Y52691381D02*
X108988266Y51977096D01*
X108988266Y51977096D02*
X108940647Y51834239D01*
X108940647Y51834239D02*
X108845409Y51739000D01*
X108845409Y51739000D02*
X108702552Y51691381D01*
X108702552Y51691381D02*
X108607314Y51691381D01*
X109988266Y51691381D02*
X109416838Y51691381D01*
X109702552Y51691381D02*
X109702552Y52691381D01*
X109702552Y52691381D02*
X109607314Y52548524D01*
X109607314Y52548524D02*
X109512076Y52453286D01*
X109512076Y52453286D02*
X109416838Y52405667D01*
X84807466Y62996981D02*
X84807466Y62282696D01*
X84807466Y62282696D02*
X84759847Y62139839D01*
X84759847Y62139839D02*
X84664609Y62044600D01*
X84664609Y62044600D02*
X84521752Y61996981D01*
X84521752Y61996981D02*
X84426514Y61996981D01*
X85236038Y62901743D02*
X85283657Y62949362D01*
X85283657Y62949362D02*
X85378895Y62996981D01*
X85378895Y62996981D02*
X85616990Y62996981D01*
X85616990Y62996981D02*
X85712228Y62949362D01*
X85712228Y62949362D02*
X85759847Y62901743D01*
X85759847Y62901743D02*
X85807466Y62806505D01*
X85807466Y62806505D02*
X85807466Y62711267D01*
X85807466Y62711267D02*
X85759847Y62568410D01*
X85759847Y62568410D02*
X85188419Y61996981D01*
X85188419Y61996981D02*
X85807466Y61996981D01*
D14*
%TO.C,C1*%
X111932200Y58491200D02*
X111932200Y59749200D01*
X113772200Y58491200D02*
X113772200Y59749200D01*
%TO.C,C2*%
X114847400Y62173600D02*
X113589400Y62173600D01*
X114847400Y64013600D02*
X113589400Y64013600D01*
%TO.C,C3*%
X114847400Y64485000D02*
X113589400Y64485000D01*
X114847400Y66325000D02*
X113589400Y66325000D01*
%TO.C,C4*%
X114847400Y66796400D02*
X113589400Y66796400D01*
X114847400Y68636400D02*
X113589400Y68636400D01*
%TO.C,R1*%
X119461800Y63093600D02*
X120081800Y63093600D01*
X119461800Y63093600D02*
G75*
G03*
X117621800Y63093600I-920000J0D01*
G01*
X117621800Y63093600D02*
G75*
G03*
X119461800Y63093600I920000J0D01*
G01*
%TO.C,R2*%
X119461800Y65354200D02*
X120081800Y65354200D01*
X119461800Y65354200D02*
G75*
G03*
X117621800Y65354200I-920000J0D01*
G01*
X117621800Y65354200D02*
G75*
G03*
X119461800Y65354200I920000J0D01*
G01*
%TO.C,R3*%
X119461800Y67614800D02*
X120081800Y67614800D01*
X119461800Y67614800D02*
G75*
G03*
X117621800Y67614800I-920000J0D01*
G01*
X117621800Y67614800D02*
G75*
G03*
X119461800Y67614800I920000J0D01*
G01*
%TO.C,R4*%
X90378800Y65989200D02*
X90998800Y65989200D01*
X90378800Y65989200D02*
G75*
G03*
X88538800Y65989200I-920000J0D01*
G01*
X88538800Y65989200D02*
G75*
G03*
X90378800Y65989200I920000J0D01*
G01*
%TO.C,C7*%
X116371400Y73451200D02*
X115113400Y73451200D01*
X116371400Y75291200D02*
X115113400Y75291200D01*
%TO.C,C9*%
X99130975Y56818000D02*
X98630975Y56818000D01*
X98880975Y56568000D02*
X98880975Y57068000D01*
X96326200Y55713000D02*
X96326200Y57253000D01*
X96326200Y59333000D02*
X96326200Y60873000D01*
X96286200Y55713000D02*
X96286200Y57253000D01*
X96286200Y59333000D02*
X96286200Y60873000D01*
X96246200Y55714000D02*
X96246200Y57253000D01*
X96246200Y59333000D02*
X96246200Y60872000D01*
X96206200Y55715000D02*
X96206200Y57253000D01*
X96206200Y59333000D02*
X96206200Y60871000D01*
X96166200Y55717000D02*
X96166200Y57253000D01*
X96166200Y59333000D02*
X96166200Y60869000D01*
X96126200Y55720000D02*
X96126200Y57253000D01*
X96126200Y59333000D02*
X96126200Y60866000D01*
X96086200Y55724000D02*
X96086200Y57253000D01*
X96086200Y59333000D02*
X96086200Y60862000D01*
X96046200Y55728000D02*
X96046200Y57253000D01*
X96046200Y59333000D02*
X96046200Y60858000D01*
X96006200Y55732000D02*
X96006200Y57253000D01*
X96006200Y59333000D02*
X96006200Y60854000D01*
X95966200Y55737000D02*
X95966200Y57253000D01*
X95966200Y59333000D02*
X95966200Y60849000D01*
X95926200Y55743000D02*
X95926200Y57253000D01*
X95926200Y59333000D02*
X95926200Y60843000D01*
X95886200Y55750000D02*
X95886200Y57253000D01*
X95886200Y59333000D02*
X95886200Y60836000D01*
X95846200Y55757000D02*
X95846200Y57253000D01*
X95846200Y59333000D02*
X95846200Y60829000D01*
X95806200Y55765000D02*
X95806200Y57253000D01*
X95806200Y59333000D02*
X95806200Y60821000D01*
X95766200Y55773000D02*
X95766200Y57253000D01*
X95766200Y59333000D02*
X95766200Y60813000D01*
X95726200Y55782000D02*
X95726200Y57253000D01*
X95726200Y59333000D02*
X95726200Y60804000D01*
X95686200Y55792000D02*
X95686200Y57253000D01*
X95686200Y59333000D02*
X95686200Y60794000D01*
X95646200Y55802000D02*
X95646200Y57253000D01*
X95646200Y59333000D02*
X95646200Y60784000D01*
X95605200Y55813000D02*
X95605200Y57253000D01*
X95605200Y59333000D02*
X95605200Y60773000D01*
X95565200Y55825000D02*
X95565200Y57253000D01*
X95565200Y59333000D02*
X95565200Y60761000D01*
X95525200Y55838000D02*
X95525200Y57253000D01*
X95525200Y59333000D02*
X95525200Y60748000D01*
X95485200Y55851000D02*
X95485200Y57253000D01*
X95485200Y59333000D02*
X95485200Y60735000D01*
X95445200Y55865000D02*
X95445200Y57253000D01*
X95445200Y59333000D02*
X95445200Y60721000D01*
X95405200Y55879000D02*
X95405200Y57253000D01*
X95405200Y59333000D02*
X95405200Y60707000D01*
X95365200Y55895000D02*
X95365200Y57253000D01*
X95365200Y59333000D02*
X95365200Y60691000D01*
X95325200Y55911000D02*
X95325200Y57253000D01*
X95325200Y59333000D02*
X95325200Y60675000D01*
X95285200Y55928000D02*
X95285200Y57253000D01*
X95285200Y59333000D02*
X95285200Y60658000D01*
X95245200Y55945000D02*
X95245200Y57253000D01*
X95245200Y59333000D02*
X95245200Y60641000D01*
X95205200Y55964000D02*
X95205200Y57253000D01*
X95205200Y59333000D02*
X95205200Y60622000D01*
X95165200Y55983000D02*
X95165200Y57253000D01*
X95165200Y59333000D02*
X95165200Y60603000D01*
X95125200Y56003000D02*
X95125200Y57253000D01*
X95125200Y59333000D02*
X95125200Y60583000D01*
X95085200Y56025000D02*
X95085200Y57253000D01*
X95085200Y59333000D02*
X95085200Y60561000D01*
X95045200Y56046000D02*
X95045200Y57253000D01*
X95045200Y59333000D02*
X95045200Y60540000D01*
X95005200Y56069000D02*
X95005200Y57253000D01*
X95005200Y59333000D02*
X95005200Y60517000D01*
X94965200Y56093000D02*
X94965200Y57253000D01*
X94965200Y59333000D02*
X94965200Y60493000D01*
X94925200Y56118000D02*
X94925200Y57253000D01*
X94925200Y59333000D02*
X94925200Y60468000D01*
X94885200Y56144000D02*
X94885200Y57253000D01*
X94885200Y59333000D02*
X94885200Y60442000D01*
X94845200Y56171000D02*
X94845200Y57253000D01*
X94845200Y59333000D02*
X94845200Y60415000D01*
X94805200Y56198000D02*
X94805200Y57253000D01*
X94805200Y59333000D02*
X94805200Y60388000D01*
X94765200Y56228000D02*
X94765200Y57253000D01*
X94765200Y59333000D02*
X94765200Y60358000D01*
X94725200Y56258000D02*
X94725200Y57253000D01*
X94725200Y59333000D02*
X94725200Y60328000D01*
X94685200Y56289000D02*
X94685200Y57253000D01*
X94685200Y59333000D02*
X94685200Y60297000D01*
X94645200Y56322000D02*
X94645200Y57253000D01*
X94645200Y59333000D02*
X94645200Y60264000D01*
X94605200Y56356000D02*
X94605200Y57253000D01*
X94605200Y59333000D02*
X94605200Y60230000D01*
X94565200Y56392000D02*
X94565200Y57253000D01*
X94565200Y59333000D02*
X94565200Y60194000D01*
X94525200Y56429000D02*
X94525200Y57253000D01*
X94525200Y59333000D02*
X94525200Y60157000D01*
X94485200Y56467000D02*
X94485200Y57253000D01*
X94485200Y59333000D02*
X94485200Y60119000D01*
X94445200Y56508000D02*
X94445200Y57253000D01*
X94445200Y59333000D02*
X94445200Y60078000D01*
X94405200Y56550000D02*
X94405200Y57253000D01*
X94405200Y59333000D02*
X94405200Y60036000D01*
X94365200Y56594000D02*
X94365200Y57253000D01*
X94365200Y59333000D02*
X94365200Y59992000D01*
X94325200Y56640000D02*
X94325200Y57253000D01*
X94325200Y59333000D02*
X94325200Y59946000D01*
X94285200Y56688000D02*
X94285200Y59898000D01*
X94245200Y56739000D02*
X94245200Y59847000D01*
X94205200Y56793000D02*
X94205200Y59793000D01*
X94165200Y56850000D02*
X94165200Y59736000D01*
X94125200Y56910000D02*
X94125200Y59676000D01*
X94085200Y56974000D02*
X94085200Y59612000D01*
X94045200Y57042000D02*
X94045200Y59544000D01*
X94005200Y57115000D02*
X94005200Y59471000D01*
X93965200Y57195000D02*
X93965200Y59391000D01*
X93925200Y57282000D02*
X93925200Y59304000D01*
X93885200Y57378000D02*
X93885200Y59208000D01*
X93845200Y57488000D02*
X93845200Y59098000D01*
X93805200Y57616000D02*
X93805200Y58970000D01*
X93765200Y57775000D02*
X93765200Y58811000D01*
X93725200Y58009000D02*
X93725200Y58577000D01*
X98946200Y58293000D02*
G75*
G03*
X93706200Y58293000I-2620000J0D01*
G01*
X93706200Y58293000D02*
G75*
G03*
X98946200Y58293000I2620000J0D01*
G01*
%TO.C,D1*%
X99081039Y53147800D02*
G75*
G03*
X99021650Y51278934I-1113239J-900000D01*
G01*
%TO.C,JP1*%
X85730800Y50968600D02*
X85730800Y52298600D01*
X87060800Y50968600D02*
X85730800Y50968600D01*
X88330800Y50968600D02*
X93470800Y50968600D01*
X88330800Y50968600D02*
X88330800Y53628600D01*
X93470800Y50968600D02*
X93470800Y53628600D01*
X88330800Y53628600D02*
X93470800Y53628600D01*
%TO.C,C5*%
X104735600Y56393600D02*
X105993600Y56393600D01*
X104735600Y54553600D02*
X105993600Y54553600D01*
%TO.C,C6*%
X124527475Y72947000D02*
X124027475Y72947000D01*
X124277475Y72697000D02*
X124277475Y73197000D01*
X121722700Y71842000D02*
X121722700Y73382000D01*
X121722700Y75462000D02*
X121722700Y77002000D01*
X121682700Y71842000D02*
X121682700Y73382000D01*
X121682700Y75462000D02*
X121682700Y77002000D01*
X121642700Y71843000D02*
X121642700Y73382000D01*
X121642700Y75462000D02*
X121642700Y77001000D01*
X121602700Y71844000D02*
X121602700Y73382000D01*
X121602700Y75462000D02*
X121602700Y77000000D01*
X121562700Y71846000D02*
X121562700Y73382000D01*
X121562700Y75462000D02*
X121562700Y76998000D01*
X121522700Y71849000D02*
X121522700Y73382000D01*
X121522700Y75462000D02*
X121522700Y76995000D01*
X121482700Y71853000D02*
X121482700Y73382000D01*
X121482700Y75462000D02*
X121482700Y76991000D01*
X121442700Y71857000D02*
X121442700Y73382000D01*
X121442700Y75462000D02*
X121442700Y76987000D01*
X121402700Y71861000D02*
X121402700Y73382000D01*
X121402700Y75462000D02*
X121402700Y76983000D01*
X121362700Y71866000D02*
X121362700Y73382000D01*
X121362700Y75462000D02*
X121362700Y76978000D01*
X121322700Y71872000D02*
X121322700Y73382000D01*
X121322700Y75462000D02*
X121322700Y76972000D01*
X121282700Y71879000D02*
X121282700Y73382000D01*
X121282700Y75462000D02*
X121282700Y76965000D01*
X121242700Y71886000D02*
X121242700Y73382000D01*
X121242700Y75462000D02*
X121242700Y76958000D01*
X121202700Y71894000D02*
X121202700Y73382000D01*
X121202700Y75462000D02*
X121202700Y76950000D01*
X121162700Y71902000D02*
X121162700Y73382000D01*
X121162700Y75462000D02*
X121162700Y76942000D01*
X121122700Y71911000D02*
X121122700Y73382000D01*
X121122700Y75462000D02*
X121122700Y76933000D01*
X121082700Y71921000D02*
X121082700Y73382000D01*
X121082700Y75462000D02*
X121082700Y76923000D01*
X121042700Y71931000D02*
X121042700Y73382000D01*
X121042700Y75462000D02*
X121042700Y76913000D01*
X121001700Y71942000D02*
X121001700Y73382000D01*
X121001700Y75462000D02*
X121001700Y76902000D01*
X120961700Y71954000D02*
X120961700Y73382000D01*
X120961700Y75462000D02*
X120961700Y76890000D01*
X120921700Y71967000D02*
X120921700Y73382000D01*
X120921700Y75462000D02*
X120921700Y76877000D01*
X120881700Y71980000D02*
X120881700Y73382000D01*
X120881700Y75462000D02*
X120881700Y76864000D01*
X120841700Y71994000D02*
X120841700Y73382000D01*
X120841700Y75462000D02*
X120841700Y76850000D01*
X120801700Y72008000D02*
X120801700Y73382000D01*
X120801700Y75462000D02*
X120801700Y76836000D01*
X120761700Y72024000D02*
X120761700Y73382000D01*
X120761700Y75462000D02*
X120761700Y76820000D01*
X120721700Y72040000D02*
X120721700Y73382000D01*
X120721700Y75462000D02*
X120721700Y76804000D01*
X120681700Y72057000D02*
X120681700Y73382000D01*
X120681700Y75462000D02*
X120681700Y76787000D01*
X120641700Y72074000D02*
X120641700Y73382000D01*
X120641700Y75462000D02*
X120641700Y76770000D01*
X120601700Y72093000D02*
X120601700Y73382000D01*
X120601700Y75462000D02*
X120601700Y76751000D01*
X120561700Y72112000D02*
X120561700Y73382000D01*
X120561700Y75462000D02*
X120561700Y76732000D01*
X120521700Y72132000D02*
X120521700Y73382000D01*
X120521700Y75462000D02*
X120521700Y76712000D01*
X120481700Y72154000D02*
X120481700Y73382000D01*
X120481700Y75462000D02*
X120481700Y76690000D01*
X120441700Y72175000D02*
X120441700Y73382000D01*
X120441700Y75462000D02*
X120441700Y76669000D01*
X120401700Y72198000D02*
X120401700Y73382000D01*
X120401700Y75462000D02*
X120401700Y76646000D01*
X120361700Y72222000D02*
X120361700Y73382000D01*
X120361700Y75462000D02*
X120361700Y76622000D01*
X120321700Y72247000D02*
X120321700Y73382000D01*
X120321700Y75462000D02*
X120321700Y76597000D01*
X120281700Y72273000D02*
X120281700Y73382000D01*
X120281700Y75462000D02*
X120281700Y76571000D01*
X120241700Y72300000D02*
X120241700Y73382000D01*
X120241700Y75462000D02*
X120241700Y76544000D01*
X120201700Y72327000D02*
X120201700Y73382000D01*
X120201700Y75462000D02*
X120201700Y76517000D01*
X120161700Y72357000D02*
X120161700Y73382000D01*
X120161700Y75462000D02*
X120161700Y76487000D01*
X120121700Y72387000D02*
X120121700Y73382000D01*
X120121700Y75462000D02*
X120121700Y76457000D01*
X120081700Y72418000D02*
X120081700Y73382000D01*
X120081700Y75462000D02*
X120081700Y76426000D01*
X120041700Y72451000D02*
X120041700Y73382000D01*
X120041700Y75462000D02*
X120041700Y76393000D01*
X120001700Y72485000D02*
X120001700Y73382000D01*
X120001700Y75462000D02*
X120001700Y76359000D01*
X119961700Y72521000D02*
X119961700Y73382000D01*
X119961700Y75462000D02*
X119961700Y76323000D01*
X119921700Y72558000D02*
X119921700Y73382000D01*
X119921700Y75462000D02*
X119921700Y76286000D01*
X119881700Y72596000D02*
X119881700Y73382000D01*
X119881700Y75462000D02*
X119881700Y76248000D01*
X119841700Y72637000D02*
X119841700Y73382000D01*
X119841700Y75462000D02*
X119841700Y76207000D01*
X119801700Y72679000D02*
X119801700Y73382000D01*
X119801700Y75462000D02*
X119801700Y76165000D01*
X119761700Y72723000D02*
X119761700Y73382000D01*
X119761700Y75462000D02*
X119761700Y76121000D01*
X119721700Y72769000D02*
X119721700Y73382000D01*
X119721700Y75462000D02*
X119721700Y76075000D01*
X119681700Y72817000D02*
X119681700Y76027000D01*
X119641700Y72868000D02*
X119641700Y75976000D01*
X119601700Y72922000D02*
X119601700Y75922000D01*
X119561700Y72979000D02*
X119561700Y75865000D01*
X119521700Y73039000D02*
X119521700Y75805000D01*
X119481700Y73103000D02*
X119481700Y75741000D01*
X119441700Y73171000D02*
X119441700Y75673000D01*
X119401700Y73244000D02*
X119401700Y75600000D01*
X119361700Y73324000D02*
X119361700Y75520000D01*
X119321700Y73411000D02*
X119321700Y75433000D01*
X119281700Y73507000D02*
X119281700Y75337000D01*
X119241700Y73617000D02*
X119241700Y75227000D01*
X119201700Y73745000D02*
X119201700Y75099000D01*
X119161700Y73904000D02*
X119161700Y74940000D01*
X119121700Y74138000D02*
X119121700Y74706000D01*
X124342700Y74422000D02*
G75*
G03*
X119102700Y74422000I-2620000J0D01*
G01*
X119102700Y74422000D02*
G75*
G03*
X124342700Y74422000I2620000J0D01*
G01*
%TO.C,R5*%
X90404200Y58267600D02*
X91024200Y58267600D01*
X90404200Y58267600D02*
G75*
G03*
X88564200Y58267600I-920000J0D01*
G01*
X88564200Y58267600D02*
G75*
G03*
X90404200Y58267600I920000J0D01*
G01*
%TO.C,C8*%
X99003975Y64539600D02*
X98503975Y64539600D01*
X98753975Y64289600D02*
X98753975Y64789600D01*
X96199200Y63434600D02*
X96199200Y64974600D01*
X96199200Y67054600D02*
X96199200Y68594600D01*
X96159200Y63434600D02*
X96159200Y64974600D01*
X96159200Y67054600D02*
X96159200Y68594600D01*
X96119200Y63435600D02*
X96119200Y64974600D01*
X96119200Y67054600D02*
X96119200Y68593600D01*
X96079200Y63436600D02*
X96079200Y64974600D01*
X96079200Y67054600D02*
X96079200Y68592600D01*
X96039200Y63438600D02*
X96039200Y64974600D01*
X96039200Y67054600D02*
X96039200Y68590600D01*
X95999200Y63441600D02*
X95999200Y64974600D01*
X95999200Y67054600D02*
X95999200Y68587600D01*
X95959200Y63445600D02*
X95959200Y64974600D01*
X95959200Y67054600D02*
X95959200Y68583600D01*
X95919200Y63449600D02*
X95919200Y64974600D01*
X95919200Y67054600D02*
X95919200Y68579600D01*
X95879200Y63453600D02*
X95879200Y64974600D01*
X95879200Y67054600D02*
X95879200Y68575600D01*
X95839200Y63458600D02*
X95839200Y64974600D01*
X95839200Y67054600D02*
X95839200Y68570600D01*
X95799200Y63464600D02*
X95799200Y64974600D01*
X95799200Y67054600D02*
X95799200Y68564600D01*
X95759200Y63471600D02*
X95759200Y64974600D01*
X95759200Y67054600D02*
X95759200Y68557600D01*
X95719200Y63478600D02*
X95719200Y64974600D01*
X95719200Y67054600D02*
X95719200Y68550600D01*
X95679200Y63486600D02*
X95679200Y64974600D01*
X95679200Y67054600D02*
X95679200Y68542600D01*
X95639200Y63494600D02*
X95639200Y64974600D01*
X95639200Y67054600D02*
X95639200Y68534600D01*
X95599200Y63503600D02*
X95599200Y64974600D01*
X95599200Y67054600D02*
X95599200Y68525600D01*
X95559200Y63513600D02*
X95559200Y64974600D01*
X95559200Y67054600D02*
X95559200Y68515600D01*
X95519200Y63523600D02*
X95519200Y64974600D01*
X95519200Y67054600D02*
X95519200Y68505600D01*
X95478200Y63534600D02*
X95478200Y64974600D01*
X95478200Y67054600D02*
X95478200Y68494600D01*
X95438200Y63546600D02*
X95438200Y64974600D01*
X95438200Y67054600D02*
X95438200Y68482600D01*
X95398200Y63559600D02*
X95398200Y64974600D01*
X95398200Y67054600D02*
X95398200Y68469600D01*
X95358200Y63572600D02*
X95358200Y64974600D01*
X95358200Y67054600D02*
X95358200Y68456600D01*
X95318200Y63586600D02*
X95318200Y64974600D01*
X95318200Y67054600D02*
X95318200Y68442600D01*
X95278200Y63600600D02*
X95278200Y64974600D01*
X95278200Y67054600D02*
X95278200Y68428600D01*
X95238200Y63616600D02*
X95238200Y64974600D01*
X95238200Y67054600D02*
X95238200Y68412600D01*
X95198200Y63632600D02*
X95198200Y64974600D01*
X95198200Y67054600D02*
X95198200Y68396600D01*
X95158200Y63649600D02*
X95158200Y64974600D01*
X95158200Y67054600D02*
X95158200Y68379600D01*
X95118200Y63666600D02*
X95118200Y64974600D01*
X95118200Y67054600D02*
X95118200Y68362600D01*
X95078200Y63685600D02*
X95078200Y64974600D01*
X95078200Y67054600D02*
X95078200Y68343600D01*
X95038200Y63704600D02*
X95038200Y64974600D01*
X95038200Y67054600D02*
X95038200Y68324600D01*
X94998200Y63724600D02*
X94998200Y64974600D01*
X94998200Y67054600D02*
X94998200Y68304600D01*
X94958200Y63746600D02*
X94958200Y64974600D01*
X94958200Y67054600D02*
X94958200Y68282600D01*
X94918200Y63767600D02*
X94918200Y64974600D01*
X94918200Y67054600D02*
X94918200Y68261600D01*
X94878200Y63790600D02*
X94878200Y64974600D01*
X94878200Y67054600D02*
X94878200Y68238600D01*
X94838200Y63814600D02*
X94838200Y64974600D01*
X94838200Y67054600D02*
X94838200Y68214600D01*
X94798200Y63839600D02*
X94798200Y64974600D01*
X94798200Y67054600D02*
X94798200Y68189600D01*
X94758200Y63865600D02*
X94758200Y64974600D01*
X94758200Y67054600D02*
X94758200Y68163600D01*
X94718200Y63892600D02*
X94718200Y64974600D01*
X94718200Y67054600D02*
X94718200Y68136600D01*
X94678200Y63919600D02*
X94678200Y64974600D01*
X94678200Y67054600D02*
X94678200Y68109600D01*
X94638200Y63949600D02*
X94638200Y64974600D01*
X94638200Y67054600D02*
X94638200Y68079600D01*
X94598200Y63979600D02*
X94598200Y64974600D01*
X94598200Y67054600D02*
X94598200Y68049600D01*
X94558200Y64010600D02*
X94558200Y64974600D01*
X94558200Y67054600D02*
X94558200Y68018600D01*
X94518200Y64043600D02*
X94518200Y64974600D01*
X94518200Y67054600D02*
X94518200Y67985600D01*
X94478200Y64077600D02*
X94478200Y64974600D01*
X94478200Y67054600D02*
X94478200Y67951600D01*
X94438200Y64113600D02*
X94438200Y64974600D01*
X94438200Y67054600D02*
X94438200Y67915600D01*
X94398200Y64150600D02*
X94398200Y64974600D01*
X94398200Y67054600D02*
X94398200Y67878600D01*
X94358200Y64188600D02*
X94358200Y64974600D01*
X94358200Y67054600D02*
X94358200Y67840600D01*
X94318200Y64229600D02*
X94318200Y64974600D01*
X94318200Y67054600D02*
X94318200Y67799600D01*
X94278200Y64271600D02*
X94278200Y64974600D01*
X94278200Y67054600D02*
X94278200Y67757600D01*
X94238200Y64315600D02*
X94238200Y64974600D01*
X94238200Y67054600D02*
X94238200Y67713600D01*
X94198200Y64361600D02*
X94198200Y64974600D01*
X94198200Y67054600D02*
X94198200Y67667600D01*
X94158200Y64409600D02*
X94158200Y67619600D01*
X94118200Y64460600D02*
X94118200Y67568600D01*
X94078200Y64514600D02*
X94078200Y67514600D01*
X94038200Y64571600D02*
X94038200Y67457600D01*
X93998200Y64631600D02*
X93998200Y67397600D01*
X93958200Y64695600D02*
X93958200Y67333600D01*
X93918200Y64763600D02*
X93918200Y67265600D01*
X93878200Y64836600D02*
X93878200Y67192600D01*
X93838200Y64916600D02*
X93838200Y67112600D01*
X93798200Y65003600D02*
X93798200Y67025600D01*
X93758200Y65099600D02*
X93758200Y66929600D01*
X93718200Y65209600D02*
X93718200Y66819600D01*
X93678200Y65337600D02*
X93678200Y66691600D01*
X93638200Y65496600D02*
X93638200Y66532600D01*
X93598200Y65730600D02*
X93598200Y66298600D01*
X98819200Y66014600D02*
G75*
G03*
X93579200Y66014600I-2620000J0D01*
G01*
X93579200Y66014600D02*
G75*
G03*
X98819200Y66014600I2620000J0D01*
G01*
%TO.C,C10*%
X102937475Y70711800D02*
X102437475Y70711800D01*
X102687475Y70461800D02*
X102687475Y70961800D01*
X100132700Y69606800D02*
X100132700Y71146800D01*
X100132700Y73226800D02*
X100132700Y74766800D01*
X100092700Y69606800D02*
X100092700Y71146800D01*
X100092700Y73226800D02*
X100092700Y74766800D01*
X100052700Y69607800D02*
X100052700Y71146800D01*
X100052700Y73226800D02*
X100052700Y74765800D01*
X100012700Y69608800D02*
X100012700Y71146800D01*
X100012700Y73226800D02*
X100012700Y74764800D01*
X99972700Y69610800D02*
X99972700Y71146800D01*
X99972700Y73226800D02*
X99972700Y74762800D01*
X99932700Y69613800D02*
X99932700Y71146800D01*
X99932700Y73226800D02*
X99932700Y74759800D01*
X99892700Y69617800D02*
X99892700Y71146800D01*
X99892700Y73226800D02*
X99892700Y74755800D01*
X99852700Y69621800D02*
X99852700Y71146800D01*
X99852700Y73226800D02*
X99852700Y74751800D01*
X99812700Y69625800D02*
X99812700Y71146800D01*
X99812700Y73226800D02*
X99812700Y74747800D01*
X99772700Y69630800D02*
X99772700Y71146800D01*
X99772700Y73226800D02*
X99772700Y74742800D01*
X99732700Y69636800D02*
X99732700Y71146800D01*
X99732700Y73226800D02*
X99732700Y74736800D01*
X99692700Y69643800D02*
X99692700Y71146800D01*
X99692700Y73226800D02*
X99692700Y74729800D01*
X99652700Y69650800D02*
X99652700Y71146800D01*
X99652700Y73226800D02*
X99652700Y74722800D01*
X99612700Y69658800D02*
X99612700Y71146800D01*
X99612700Y73226800D02*
X99612700Y74714800D01*
X99572700Y69666800D02*
X99572700Y71146800D01*
X99572700Y73226800D02*
X99572700Y74706800D01*
X99532700Y69675800D02*
X99532700Y71146800D01*
X99532700Y73226800D02*
X99532700Y74697800D01*
X99492700Y69685800D02*
X99492700Y71146800D01*
X99492700Y73226800D02*
X99492700Y74687800D01*
X99452700Y69695800D02*
X99452700Y71146800D01*
X99452700Y73226800D02*
X99452700Y74677800D01*
X99411700Y69706800D02*
X99411700Y71146800D01*
X99411700Y73226800D02*
X99411700Y74666800D01*
X99371700Y69718800D02*
X99371700Y71146800D01*
X99371700Y73226800D02*
X99371700Y74654800D01*
X99331700Y69731800D02*
X99331700Y71146800D01*
X99331700Y73226800D02*
X99331700Y74641800D01*
X99291700Y69744800D02*
X99291700Y71146800D01*
X99291700Y73226800D02*
X99291700Y74628800D01*
X99251700Y69758800D02*
X99251700Y71146800D01*
X99251700Y73226800D02*
X99251700Y74614800D01*
X99211700Y69772800D02*
X99211700Y71146800D01*
X99211700Y73226800D02*
X99211700Y74600800D01*
X99171700Y69788800D02*
X99171700Y71146800D01*
X99171700Y73226800D02*
X99171700Y74584800D01*
X99131700Y69804800D02*
X99131700Y71146800D01*
X99131700Y73226800D02*
X99131700Y74568800D01*
X99091700Y69821800D02*
X99091700Y71146800D01*
X99091700Y73226800D02*
X99091700Y74551800D01*
X99051700Y69838800D02*
X99051700Y71146800D01*
X99051700Y73226800D02*
X99051700Y74534800D01*
X99011700Y69857800D02*
X99011700Y71146800D01*
X99011700Y73226800D02*
X99011700Y74515800D01*
X98971700Y69876800D02*
X98971700Y71146800D01*
X98971700Y73226800D02*
X98971700Y74496800D01*
X98931700Y69896800D02*
X98931700Y71146800D01*
X98931700Y73226800D02*
X98931700Y74476800D01*
X98891700Y69918800D02*
X98891700Y71146800D01*
X98891700Y73226800D02*
X98891700Y74454800D01*
X98851700Y69939800D02*
X98851700Y71146800D01*
X98851700Y73226800D02*
X98851700Y74433800D01*
X98811700Y69962800D02*
X98811700Y71146800D01*
X98811700Y73226800D02*
X98811700Y74410800D01*
X98771700Y69986800D02*
X98771700Y71146800D01*
X98771700Y73226800D02*
X98771700Y74386800D01*
X98731700Y70011800D02*
X98731700Y71146800D01*
X98731700Y73226800D02*
X98731700Y74361800D01*
X98691700Y70037800D02*
X98691700Y71146800D01*
X98691700Y73226800D02*
X98691700Y74335800D01*
X98651700Y70064800D02*
X98651700Y71146800D01*
X98651700Y73226800D02*
X98651700Y74308800D01*
X98611700Y70091800D02*
X98611700Y71146800D01*
X98611700Y73226800D02*
X98611700Y74281800D01*
X98571700Y70121800D02*
X98571700Y71146800D01*
X98571700Y73226800D02*
X98571700Y74251800D01*
X98531700Y70151800D02*
X98531700Y71146800D01*
X98531700Y73226800D02*
X98531700Y74221800D01*
X98491700Y70182800D02*
X98491700Y71146800D01*
X98491700Y73226800D02*
X98491700Y74190800D01*
X98451700Y70215800D02*
X98451700Y71146800D01*
X98451700Y73226800D02*
X98451700Y74157800D01*
X98411700Y70249800D02*
X98411700Y71146800D01*
X98411700Y73226800D02*
X98411700Y74123800D01*
X98371700Y70285800D02*
X98371700Y71146800D01*
X98371700Y73226800D02*
X98371700Y74087800D01*
X98331700Y70322800D02*
X98331700Y71146800D01*
X98331700Y73226800D02*
X98331700Y74050800D01*
X98291700Y70360800D02*
X98291700Y71146800D01*
X98291700Y73226800D02*
X98291700Y74012800D01*
X98251700Y70401800D02*
X98251700Y71146800D01*
X98251700Y73226800D02*
X98251700Y73971800D01*
X98211700Y70443800D02*
X98211700Y71146800D01*
X98211700Y73226800D02*
X98211700Y73929800D01*
X98171700Y70487800D02*
X98171700Y71146800D01*
X98171700Y73226800D02*
X98171700Y73885800D01*
X98131700Y70533800D02*
X98131700Y71146800D01*
X98131700Y73226800D02*
X98131700Y73839800D01*
X98091700Y70581800D02*
X98091700Y73791800D01*
X98051700Y70632800D02*
X98051700Y73740800D01*
X98011700Y70686800D02*
X98011700Y73686800D01*
X97971700Y70743800D02*
X97971700Y73629800D01*
X97931700Y70803800D02*
X97931700Y73569800D01*
X97891700Y70867800D02*
X97891700Y73505800D01*
X97851700Y70935800D02*
X97851700Y73437800D01*
X97811700Y71008800D02*
X97811700Y73364800D01*
X97771700Y71088800D02*
X97771700Y73284800D01*
X97731700Y71175800D02*
X97731700Y73197800D01*
X97691700Y71271800D02*
X97691700Y73101800D01*
X97651700Y71381800D02*
X97651700Y72991800D01*
X97611700Y71509800D02*
X97611700Y72863800D01*
X97571700Y71668800D02*
X97571700Y72704800D01*
X97531700Y71902800D02*
X97531700Y72470800D01*
X102752700Y72186800D02*
G75*
G03*
X97512700Y72186800I-2620000J0D01*
G01*
X97512700Y72186800D02*
G75*
G03*
X102752700Y72186800I2620000J0D01*
G01*
%TO.C,Y1*%
X123696000Y55488600D02*
X117296000Y55488600D01*
X123696000Y60538600D02*
X117296000Y60538600D01*
X123696000Y55488600D02*
G75*
G03*
X123696000Y60538600I0J2525000D01*
G01*
X117296000Y60538600D02*
G75*
G03*
X117296000Y55488600I0J-2525000D01*
G01*
%TO.C,J5*%
X97309600Y77484200D02*
X97309600Y78814200D01*
X98639600Y77484200D02*
X97309600Y77484200D01*
X99909600Y77484200D02*
X107589600Y77484200D01*
X99909600Y77484200D02*
X99909600Y80144200D01*
X107589600Y77484200D02*
X107589600Y80144200D01*
X99909600Y80144200D02*
X107589600Y80144200D01*
D15*
%TO.C,J3*%
X84695800Y70766400D02*
X84695800Y78746400D01*
X87695800Y70766400D02*
X84695800Y70766400D01*
X91695800Y70766400D02*
X91695800Y71166400D01*
X94695800Y70766400D02*
X91695800Y70766400D01*
X94695800Y70766400D02*
X94695800Y78746400D01*
X87695800Y71166400D02*
X87695800Y70766400D01*
X88525800Y71166400D02*
X87695800Y71166400D01*
X91695800Y71166400D02*
X90865800Y71166400D01*
X92695800Y80766400D02*
X86695800Y80766400D01*
D10*
X95308800Y76766400D02*
G75*
G03*
X95108800Y76766400I-100000J0D01*
G01*
X95108800Y76766400D02*
G75*
G03*
X95308800Y76766400I100000J0D01*
G01*
D11*
%TO.C,U1*%
X109363000Y57489200D02*
X109363000Y57764200D01*
X109363000Y57489200D02*
X101613000Y57489200D01*
X109363000Y57764200D02*
X110888000Y57764200D01*
X109363000Y68139200D02*
X109363000Y67784200D01*
X109363000Y68139200D02*
X101613000Y68139200D01*
X101613000Y57489200D02*
X101613000Y57844200D01*
X101613000Y68139200D02*
X101613000Y67784200D01*
D14*
%TO.C,R6*%
X106064800Y73939400D02*
X105444800Y73939400D01*
X107904800Y73939400D02*
G75*
G03*
X106064800Y73939400I-920000J0D01*
G01*
X106064800Y73939400D02*
G75*
G03*
X107904800Y73939400I920000J0D01*
G01*
%TO.C,J1*%
X126145600Y53501600D02*
X126145600Y52171600D01*
X124815600Y53501600D02*
X126145600Y53501600D01*
X123545600Y53501600D02*
X110785600Y53501600D01*
X123545600Y53501600D02*
X123545600Y50841600D01*
X110785600Y53501600D02*
X110785600Y50841600D01*
X123545600Y50841600D02*
X110785600Y50841600D01*
%TO.C,J2*%
X83810800Y61451800D02*
X85140800Y61451800D01*
X83810800Y60121800D02*
X83810800Y61451800D01*
X83810800Y58851800D02*
X83810800Y56251800D01*
X83810800Y58851800D02*
X86470800Y58851800D01*
X83810800Y56251800D02*
X86470800Y56251800D01*
X86470800Y58851800D02*
X86470800Y56251800D01*
%TD*%
M02*
