%TF.GenerationSoftware,KiCad,Pcbnew,7.0.10-7.0.10~ubuntu22.04.1*%
%TF.CreationDate,2024-04-16T08:27:36+02:00*%
%TF.ProjectId,oric_comp_video,6f726963-5f63-46f6-9d70-5f766964656f,1*%
%TF.SameCoordinates,PX1b40518PY99d1710*%
%TF.FileFunction,Soldermask,Bot*%
%TF.FilePolarity,Negative*%
%FSLAX46Y46*%
G04 Gerber Fmt 4.6, Leading zero omitted, Abs format (unit mm)*
G04 Created by KiCad (PCBNEW 7.0.10-7.0.10~ubuntu22.04.1) date 2024-04-16 08:27:36*
%MOMM*%
%LPD*%
G01*
G04 APERTURE LIST*
%ADD10C,1.600000*%
%ADD11C,1.400000*%
%ADD12O,1.400000X1.400000*%
%ADD13R,1.600000X1.600000*%
%ADD14R,1.800000X1.800000*%
%ADD15O,1.800000X1.800000*%
%ADD16R,1.700000X1.700000*%
%ADD17O,1.700000X1.700000*%
%ADD18C,3.500000*%
%ADD19C,1.500000*%
%ADD20O,1.700000X3.400000*%
%ADD21O,3.900000X1.950000*%
G04 APERTURE END LIST*
D10*
%TO.C,C1*%
X112852200Y57870200D03*
X112852200Y60370200D03*
%TD*%
%TO.C,C2*%
X115468400Y63093600D03*
X112968400Y63093600D03*
%TD*%
%TO.C,C3*%
X115468400Y65405000D03*
X112968400Y65405000D03*
%TD*%
%TO.C,C4*%
X115468400Y67716400D03*
X112968400Y67716400D03*
%TD*%
D11*
%TO.C,R1*%
X118541800Y63093600D03*
D12*
X121081800Y63093600D03*
%TD*%
D11*
%TO.C,R2*%
X118541800Y65354200D03*
D12*
X121081800Y65354200D03*
%TD*%
D11*
%TO.C,R3*%
X118541800Y67614800D03*
D12*
X121081800Y67614800D03*
%TD*%
D11*
%TO.C,R4*%
X89458800Y65989200D03*
D12*
X91998800Y65989200D03*
%TD*%
D10*
%TO.C,C7*%
X116992400Y74371200D03*
X114492400Y74371200D03*
%TD*%
D13*
%TO.C,C9*%
X97326200Y58293000D03*
D10*
X95326200Y58293000D03*
%TD*%
D14*
%TO.C,D1*%
X97967800Y52247800D03*
D15*
X100507800Y52247800D03*
%TD*%
D16*
%TO.C,JP1*%
X87060800Y52298600D03*
D17*
X89600800Y52298600D03*
X92140800Y52298600D03*
%TD*%
D10*
%TO.C,C5*%
X104114600Y55473600D03*
X106614600Y55473600D03*
%TD*%
D13*
%TO.C,C6*%
X122722700Y74422000D03*
D10*
X120722700Y74422000D03*
%TD*%
D11*
%TO.C,R5*%
X89484200Y58267600D03*
D12*
X92024200Y58267600D03*
%TD*%
D18*
%TO.C,H1*%
X85623400Y65684400D03*
%TD*%
%TO.C,H2*%
X124231400Y65684400D03*
%TD*%
D13*
%TO.C,C8*%
X97199200Y66014600D03*
D10*
X95199200Y66014600D03*
%TD*%
D13*
%TO.C,C10*%
X101132700Y72186800D03*
D10*
X99132700Y72186800D03*
%TD*%
D19*
%TO.C,Y1*%
X122936000Y58013600D03*
X118056000Y58013600D03*
%TD*%
D16*
%TO.C,J5*%
X98639600Y78814200D03*
D17*
X101179600Y78814200D03*
X103719600Y78814200D03*
X106259600Y78814200D03*
%TD*%
D20*
%TO.C,J3*%
X89695800Y72266400D03*
D21*
X89695800Y76766400D03*
%TD*%
D11*
%TO.C,R6*%
X106984800Y73939400D03*
D12*
X104444800Y73939400D03*
%TD*%
D16*
%TO.C,J1*%
X124815600Y52171600D03*
D17*
X122275600Y52171600D03*
X119735600Y52171600D03*
X117195600Y52171600D03*
X114655600Y52171600D03*
X112115600Y52171600D03*
%TD*%
D16*
%TO.C,J2*%
X85140800Y60121800D03*
D17*
X85140800Y57581800D03*
%TD*%
M02*
