%TF.GenerationSoftware,KiCad,Pcbnew,7.0.10-7.0.10~ubuntu22.04.1*%
%TF.CreationDate,2024-04-16T08:27:36+02:00*%
%TF.ProjectId,oric_comp_video,6f726963-5f63-46f6-9d70-5f766964656f,1*%
%TF.SameCoordinates,PX1b40518PY99d1710*%
%TF.FileFunction,Copper,L1,Top*%
%TF.FilePolarity,Positive*%
%FSLAX46Y46*%
G04 Gerber Fmt 4.6, Leading zero omitted, Abs format (unit mm)*
G04 Created by KiCad (PCBNEW 7.0.10-7.0.10~ubuntu22.04.1) date 2024-04-16 08:27:36*
%MOMM*%
%LPD*%
G01*
G04 APERTURE LIST*
%TA.AperFunction,ComponentPad*%
%ADD10C,1.600000*%
%TD*%
%TA.AperFunction,ComponentPad*%
%ADD11C,1.400000*%
%TD*%
%TA.AperFunction,ComponentPad*%
%ADD12O,1.400000X1.400000*%
%TD*%
%TA.AperFunction,ComponentPad*%
%ADD13R,1.600000X1.600000*%
%TD*%
%TA.AperFunction,ComponentPad*%
%ADD14R,1.800000X1.800000*%
%TD*%
%TA.AperFunction,ComponentPad*%
%ADD15O,1.800000X1.800000*%
%TD*%
%TA.AperFunction,ComponentPad*%
%ADD16R,1.700000X1.700000*%
%TD*%
%TA.AperFunction,ComponentPad*%
%ADD17O,1.700000X1.700000*%
%TD*%
%TA.AperFunction,ComponentPad*%
%ADD18C,3.500000*%
%TD*%
%TA.AperFunction,ComponentPad*%
%ADD19C,1.500000*%
%TD*%
%TA.AperFunction,ComponentPad*%
%ADD20O,1.700000X3.400000*%
%TD*%
%TA.AperFunction,ComponentPad*%
%ADD21O,3.900000X1.950000*%
%TD*%
%TA.AperFunction,SMDPad,CuDef*%
%ADD22R,1.500000X0.600000*%
%TD*%
%TA.AperFunction,Conductor*%
%ADD23C,0.250000*%
%TD*%
%TA.AperFunction,Conductor*%
%ADD24C,0.450000*%
%TD*%
G04 APERTURE END LIST*
D10*
%TO.P,C1,1*%
%TO.N,Net-(U1-FIN)*%
X112852200Y57870200D03*
%TO.P,C1,2*%
%TO.N,GND*%
X112852200Y60370200D03*
%TD*%
%TO.P,C2,1*%
%TO.N,Net-(U1-RIN)*%
X115468400Y63093600D03*
%TO.P,C2,2*%
%TO.N,/red_in*%
X112968400Y63093600D03*
%TD*%
%TO.P,C3,1*%
%TO.N,Net-(U1-GIN)*%
X115468400Y65405000D03*
%TO.P,C3,2*%
%TO.N,/green_in*%
X112968400Y65405000D03*
%TD*%
%TO.P,C4,1*%
%TO.N,Net-(U1-BIN)*%
X115468400Y67716400D03*
%TO.P,C4,2*%
%TO.N,/blue_in*%
X112968400Y67716400D03*
%TD*%
D11*
%TO.P,R1,1*%
%TO.N,/red_in*%
X118541800Y63093600D03*
D12*
%TO.P,R1,2*%
%TO.N,GND*%
X121081800Y63093600D03*
%TD*%
D11*
%TO.P,R2,1*%
%TO.N,/green_in*%
X118541800Y65354200D03*
D12*
%TO.P,R2,2*%
%TO.N,GND*%
X121081800Y65354200D03*
%TD*%
D11*
%TO.P,R3,1*%
%TO.N,/blue_in*%
X118541800Y67614800D03*
D12*
%TO.P,R3,2*%
%TO.N,GND*%
X121081800Y67614800D03*
%TD*%
D11*
%TO.P,R4,1*%
%TO.N,COMP*%
X89458800Y65989200D03*
D12*
%TO.P,R4,2*%
%TO.N,Net-(C8-Pad2)*%
X91998800Y65989200D03*
%TD*%
D10*
%TO.P,C7,1*%
%TO.N,GND*%
X116992400Y74371200D03*
%TO.P,C7,2*%
%TO.N,VAA*%
X114492400Y74371200D03*
%TD*%
D13*
%TO.P,C9,1*%
%TO.N,Net-(U1-LUMA)*%
X97326200Y58293000D03*
D10*
%TO.P,C9,2*%
%TO.N,Net-(C9-Pad2)*%
X95326200Y58293000D03*
%TD*%
D14*
%TO.P,D1,1,K*%
%TO.N,VAA*%
X97967800Y52247800D03*
D15*
%TO.P,D1,2,A*%
%TO.N,GND*%
X100507800Y52247800D03*
%TD*%
D16*
%TO.P,JP1,1,A*%
%TO.N,GND*%
X87060800Y52298600D03*
D17*
%TO.P,JP1,2,C*%
%TO.N,Net-(JP1-C)*%
X89600800Y52298600D03*
%TO.P,JP1,3,B*%
%TO.N,VAA*%
X92140800Y52298600D03*
%TD*%
D10*
%TO.P,C5,1*%
%TO.N,GND*%
X104114600Y55473600D03*
%TO.P,C5,2*%
%TO.N,VAA*%
X106614600Y55473600D03*
%TD*%
D13*
%TO.P,C6,1*%
%TO.N,VAA*%
X122722700Y74422000D03*
D10*
%TO.P,C6,2*%
%TO.N,GND*%
X120722700Y74422000D03*
%TD*%
D11*
%TO.P,R5,1*%
%TO.N,LUMA*%
X89484200Y58267600D03*
D12*
%TO.P,R5,2*%
%TO.N,Net-(C9-Pad2)*%
X92024200Y58267600D03*
%TD*%
D18*
%TO.P,H1,1*%
%TO.N,N/C*%
X85623400Y65684400D03*
%TD*%
%TO.P,H2,1*%
%TO.N,N/C*%
X124231400Y65684400D03*
%TD*%
D13*
%TO.P,C8,1*%
%TO.N,Net-(U1-COMP)*%
X97199200Y66014600D03*
D10*
%TO.P,C8,2*%
%TO.N,Net-(C8-Pad2)*%
X95199200Y66014600D03*
%TD*%
D13*
%TO.P,C10,1*%
%TO.N,Net-(U1-CRMA)*%
X101132700Y72186800D03*
D10*
%TO.P,C10,2*%
%TO.N,Net-(C10-Pad2)*%
X99132700Y72186800D03*
%TD*%
D19*
%TO.P,Y1,1,1*%
%TO.N,GND*%
X122936000Y58013600D03*
%TO.P,Y1,2,2*%
%TO.N,Net-(U1-FIN)*%
X118056000Y58013600D03*
%TD*%
D16*
%TO.P,J5,1,Pin_1*%
%TO.N,GND*%
X98639600Y78814200D03*
D17*
%TO.P,J5,2,Pin_2*%
%TO.N,COMP*%
X101179600Y78814200D03*
%TO.P,J5,3,Pin_3*%
%TO.N,CRMA*%
X103719600Y78814200D03*
%TO.P,J5,4,Pin_4*%
%TO.N,LUMA*%
X106259600Y78814200D03*
%TD*%
D20*
%TO.P,J3,1,In*%
%TO.N,COMP*%
X89695800Y72266400D03*
D21*
%TO.P,J3,2,Ext*%
%TO.N,GND*%
X89695800Y76766400D03*
%TD*%
D22*
%TO.P,U1,1,STDN*%
%TO.N,Net-(JP1-C)*%
X110138000Y58369200D03*
%TO.P,U1,2,AGND*%
%TO.N,GND*%
X110138000Y59639200D03*
%TO.P,U1,3,FIN*%
%TO.N,Net-(U1-FIN)*%
X110138000Y60909200D03*
%TO.P,U1,4,APOS*%
%TO.N,VAA*%
X110138000Y62179200D03*
%TO.P,U1,5,ENCD*%
X110138000Y63449200D03*
%TO.P,U1,6,RIN*%
%TO.N,Net-(U1-RIN)*%
X110138000Y64719200D03*
%TO.P,U1,7,GIN*%
%TO.N,Net-(U1-GIN)*%
X110138000Y65989200D03*
%TO.P,U1,8,BIN*%
%TO.N,Net-(U1-BIN)*%
X110138000Y67259200D03*
%TO.P,U1,9,CRMA*%
%TO.N,Net-(U1-CRMA)*%
X100838000Y67259200D03*
%TO.P,U1,10,COMP*%
%TO.N,Net-(U1-COMP)*%
X100838000Y65989200D03*
%TO.P,U1,11,LUMA*%
%TO.N,Net-(U1-LUMA)*%
X100838000Y64719200D03*
%TO.P,U1,12,SELECT*%
%TO.N,GND*%
X100838000Y63449200D03*
%TO.P,U1,13,DGND*%
X100838000Y62179200D03*
%TO.P,U1,14,DPOS*%
%TO.N,VAA*%
X100838000Y60909200D03*
%TO.P,U1,15,VSYNC*%
X100838000Y59639200D03*
%TO.P,U1,16,HSYNC*%
%TO.N,/sync_in*%
X100838000Y58369200D03*
%TD*%
D11*
%TO.P,R6,1*%
%TO.N,CRMA*%
X106984800Y73939400D03*
D12*
%TO.P,R6,2*%
%TO.N,Net-(C10-Pad2)*%
X104444800Y73939400D03*
%TD*%
D16*
%TO.P,J1,1,Pin_1*%
%TO.N,GND*%
X124815600Y52171600D03*
D17*
%TO.P,J1,2,Pin_2*%
%TO.N,VAA*%
X122275600Y52171600D03*
%TO.P,J1,3,Pin_3*%
%TO.N,/sync_in*%
X119735600Y52171600D03*
%TO.P,J1,4,Pin_4*%
%TO.N,/blue_in*%
X117195600Y52171600D03*
%TO.P,J1,5,Pin_5*%
%TO.N,/green_in*%
X114655600Y52171600D03*
%TO.P,J1,6,Pin_6*%
%TO.N,/red_in*%
X112115600Y52171600D03*
%TD*%
D16*
%TO.P,J2,1,Pin_1*%
%TO.N,GND*%
X85140800Y60121800D03*
D17*
%TO.P,J2,2,Pin_2*%
%TO.N,VAA*%
X85140800Y57581800D03*
%TD*%
D23*
%TO.N,Net-(U1-FIN)*%
X111708600Y59013800D02*
X112852200Y57870200D01*
X109062700Y60909200D02*
X109062700Y59194200D01*
X109243100Y59013800D02*
X111708600Y59013800D01*
X118056000Y58013600D02*
X112995600Y58013600D01*
X112995600Y58013600D02*
X112852200Y57870200D01*
X109062700Y59194200D02*
X109243100Y59013800D01*
X110138000Y60909200D02*
X109062700Y60909200D01*
D24*
%TO.N,GND*%
X98639600Y78814200D02*
X97364300Y78814200D01*
X120722700Y74422000D02*
X120722700Y74371200D01*
X112852200Y60370200D02*
X112121200Y59639200D01*
X100838000Y62179200D02*
X99662700Y62179200D01*
X117514400Y60370200D02*
X112852200Y60370200D01*
X120722700Y69099200D02*
X121081800Y68740100D01*
X90854500Y70543400D02*
X90980300Y70669200D01*
X87727100Y60121800D02*
X90854500Y63249200D01*
X112121200Y59639200D02*
X111313300Y59639200D01*
X121081800Y67614800D02*
X121081800Y68740100D01*
X99182400Y50922400D02*
X100507800Y52247800D01*
X86416100Y60121800D02*
X87727100Y60121800D01*
X89695800Y76766400D02*
X89695800Y75366100D01*
X85140800Y60121800D02*
X86416100Y60121800D01*
X120722700Y74371200D02*
X120722700Y69099200D01*
X90854500Y63249200D02*
X99662700Y63249200D01*
X121081800Y63093600D02*
X119956500Y63093600D01*
X99662700Y63249200D02*
X99662700Y62179200D01*
X120722700Y74371200D02*
X116992400Y74371200D01*
X99662700Y63449200D02*
X99662700Y63249200D01*
X90980300Y70669200D02*
X90980300Y74081600D01*
X92631700Y74081600D02*
X97364300Y78814200D01*
X110138000Y59639200D02*
X111313300Y59639200D01*
X87060800Y52298600D02*
X88437000Y50922400D01*
X90980300Y74081600D02*
X92631700Y74081600D01*
X88437000Y50922400D02*
X99182400Y50922400D01*
X90980300Y74081600D02*
X89695800Y75366100D01*
X90854500Y63249200D02*
X90854500Y70543400D01*
X119956500Y62812300D02*
X117514400Y60370200D01*
X119956500Y63093600D02*
X119956500Y62812300D01*
X100838000Y63449200D02*
X99662700Y63449200D01*
D23*
%TO.N,Net-(U1-RIN)*%
X111213300Y63208000D02*
X112461900Y61959400D01*
X114334200Y61959400D02*
X115468400Y63093600D01*
X111213300Y64719200D02*
X111213300Y63208000D01*
X110138000Y64719200D02*
X111213300Y64719200D01*
X112461900Y61959400D02*
X114334200Y61959400D01*
%TO.N,/red_in*%
X114991100Y64249300D02*
X113835400Y63093600D01*
X113835400Y63093600D02*
X112968400Y63093600D01*
X118541800Y63093600D02*
X117386100Y64249300D01*
X117386100Y64249300D02*
X114991100Y64249300D01*
%TO.N,Net-(U1-GIN)*%
X110138000Y65989200D02*
X111213300Y65989200D01*
X112522700Y64249300D02*
X114312700Y64249300D01*
X111213300Y65989200D02*
X111213300Y65558700D01*
X114312700Y64249300D02*
X115468400Y65405000D01*
X111213300Y65558700D02*
X112522700Y64249300D01*
%TO.N,Net-(U1-BIN)*%
X114312700Y66560700D02*
X115468400Y67716400D01*
X111911800Y66560700D02*
X114312700Y66560700D01*
X110138000Y67259200D02*
X111213300Y67259200D01*
X111213300Y67259200D02*
X111911800Y66560700D01*
%TO.N,VAA*%
X92140800Y52298600D02*
X96691700Y52298600D01*
X101913300Y60371600D02*
X103720900Y62179200D01*
X96691700Y52298600D02*
X96742500Y52247800D01*
X110138000Y63449200D02*
X109175300Y63449200D01*
X109062700Y68941500D02*
X114492400Y74371200D01*
X109175300Y63449200D02*
X109062700Y63449200D01*
X104614100Y53473100D02*
X99958800Y53473100D01*
X86730300Y57167600D02*
X98320800Y57167600D01*
X100838000Y60909200D02*
X101375700Y60909200D01*
X103720900Y62179200D02*
X109062700Y62179200D01*
X106614600Y55473600D02*
X104614100Y53473100D01*
X100838000Y59639200D02*
X99762700Y59639200D01*
X101375700Y60909200D02*
X101913300Y60371600D01*
X98454200Y58330700D02*
X99762700Y59639200D01*
X85140800Y57581800D02*
X86316100Y57581800D01*
X101913300Y60371600D02*
X101913300Y59639200D01*
X109062700Y63449200D02*
X109062700Y62179200D01*
X100838000Y59639200D02*
X101913300Y59639200D01*
X97967800Y52247800D02*
X99193100Y52247800D01*
X99193100Y52707400D02*
X99193100Y52247800D01*
X86316100Y57581800D02*
X86730300Y57167600D01*
X97967800Y52247800D02*
X96742500Y52247800D01*
X99958800Y53473100D02*
X99193100Y52707400D01*
X98320800Y57167600D02*
X98454200Y57301000D01*
X109062700Y63449200D02*
X109062700Y68941500D01*
X110138000Y62179200D02*
X109062700Y62179200D01*
X98454200Y57301000D02*
X98454200Y58330700D01*
%TO.N,Net-(U1-COMP)*%
X97199200Y66014600D02*
X98324500Y66014600D01*
X98349900Y65989200D02*
X98324500Y66014600D01*
X100838000Y65989200D02*
X98349900Y65989200D01*
%TO.N,Net-(C8-Pad2)*%
X95199200Y66014600D02*
X93049500Y66014600D01*
X91998800Y65989200D02*
X93024100Y65989200D01*
X93049500Y66014600D02*
X93024100Y65989200D01*
%TO.N,Net-(C9-Pad2)*%
X92024200Y58267600D02*
X93049500Y58267600D01*
X93074900Y58293000D02*
X93049500Y58267600D01*
X95326200Y58293000D02*
X93074900Y58293000D01*
%TO.N,Net-(U1-LUMA)*%
X101793100Y61553800D02*
X99461700Y61553800D01*
X99461700Y61553800D02*
X97326200Y59418300D01*
X100838000Y64719200D02*
X101913300Y64719200D01*
X97326200Y58293000D02*
X97326200Y59418300D01*
X101913300Y64719200D02*
X101913300Y61674000D01*
X101913300Y61674000D02*
X101793100Y61553800D01*
%TO.N,Net-(U1-CRMA)*%
X100838000Y67259200D02*
X101913300Y67259200D01*
X101132700Y72186800D02*
X101132700Y71061500D01*
X101913300Y67259200D02*
X101913300Y70280900D01*
X101913300Y70280900D02*
X101132700Y71061500D01*
%TO.N,/sync_in*%
X118560300Y52538900D02*
X118560300Y52171600D01*
X100838000Y58369200D02*
X101913300Y58369200D01*
X103683500Y56599000D02*
X114500200Y56599000D01*
X114500200Y56599000D02*
X118560300Y52538900D01*
X101913300Y58369200D02*
X103683500Y56599000D01*
X119735600Y52171600D02*
X118560300Y52171600D01*
%TO.N,Net-(JP1-C)*%
X93739900Y55629800D02*
X97419900Y55629800D01*
X99225800Y58285400D02*
X99942600Y59002200D01*
X89600800Y52298600D02*
X90776100Y52298600D01*
X90776100Y52298600D02*
X90776100Y52666000D01*
X99942600Y59002200D02*
X106187000Y59002200D01*
X90776100Y52666000D02*
X93739900Y55629800D01*
X106187000Y59002200D02*
X106820000Y58369200D01*
X106820000Y58369200D02*
X110138000Y58369200D01*
X97419900Y55629800D02*
X99225800Y57435700D01*
X99225800Y57435700D02*
X99225800Y58285400D01*
%TO.N,CRMA*%
X106984800Y74373700D02*
X106984800Y73939400D01*
X103719600Y78814200D02*
X103719600Y77638900D01*
X103719600Y77638900D02*
X106984800Y74373700D01*
%TD*%
M02*
