%TF.GenerationSoftware,KiCad,Pcbnew,7.0.10-7.0.10~ubuntu22.04.1*%
%TF.CreationDate,2024-04-16T08:27:36+02:00*%
%TF.ProjectId,oric_comp_video,6f726963-5f63-46f6-9d70-5f766964656f,1*%
%TF.SameCoordinates,PX1b40518PY99d1710*%
%TF.FileFunction,Legend,Bot*%
%TF.FilePolarity,Positive*%
%FSLAX46Y46*%
G04 Gerber Fmt 4.6, Leading zero omitted, Abs format (unit mm)*
G04 Created by KiCad (PCBNEW 7.0.10-7.0.10~ubuntu22.04.1) date 2024-04-16 08:27:36*
%MOMM*%
%LPD*%
G01*
G04 APERTURE LIST*
%ADD10C,0.150000*%
%ADD11C,0.175000*%
G04 APERTURE END LIST*
D10*
X107530647Y71385305D02*
X107911599Y71385305D01*
X107911599Y71385305D02*
X107911599Y72185305D01*
X107263980Y71385305D02*
X107263980Y71918639D01*
X107263980Y72185305D02*
X107302076Y72147210D01*
X107302076Y72147210D02*
X107263980Y72109115D01*
X107263980Y72109115D02*
X107225885Y72147210D01*
X107225885Y72147210D02*
X107263980Y72185305D01*
X107263980Y72185305D02*
X107263980Y72109115D01*
X106540171Y71423400D02*
X106616362Y71385305D01*
X106616362Y71385305D02*
X106768743Y71385305D01*
X106768743Y71385305D02*
X106844933Y71423400D01*
X106844933Y71423400D02*
X106883028Y71461496D01*
X106883028Y71461496D02*
X106921124Y71537686D01*
X106921124Y71537686D02*
X106921124Y71766258D01*
X106921124Y71766258D02*
X106883028Y71842448D01*
X106883028Y71842448D02*
X106844933Y71880543D01*
X106844933Y71880543D02*
X106768743Y71918639D01*
X106768743Y71918639D02*
X106616362Y71918639D01*
X106616362Y71918639D02*
X106540171Y71880543D01*
X105892552Y71423400D02*
X105968743Y71385305D01*
X105968743Y71385305D02*
X106121124Y71385305D01*
X106121124Y71385305D02*
X106197314Y71423400D01*
X106197314Y71423400D02*
X106235410Y71499591D01*
X106235410Y71499591D02*
X106235410Y71804353D01*
X106235410Y71804353D02*
X106197314Y71880543D01*
X106197314Y71880543D02*
X106121124Y71918639D01*
X106121124Y71918639D02*
X105968743Y71918639D01*
X105968743Y71918639D02*
X105892552Y71880543D01*
X105892552Y71880543D02*
X105854457Y71804353D01*
X105854457Y71804353D02*
X105854457Y71728162D01*
X105854457Y71728162D02*
X106235410Y71651972D01*
X105511600Y71918639D02*
X105511600Y71385305D01*
X105511600Y71842448D02*
X105473505Y71880543D01*
X105473505Y71880543D02*
X105397315Y71918639D01*
X105397315Y71918639D02*
X105283029Y71918639D01*
X105283029Y71918639D02*
X105206838Y71880543D01*
X105206838Y71880543D02*
X105168743Y71804353D01*
X105168743Y71804353D02*
X105168743Y71385305D01*
X104825886Y71423400D02*
X104749695Y71385305D01*
X104749695Y71385305D02*
X104597314Y71385305D01*
X104597314Y71385305D02*
X104521124Y71423400D01*
X104521124Y71423400D02*
X104483028Y71499591D01*
X104483028Y71499591D02*
X104483028Y71537686D01*
X104483028Y71537686D02*
X104521124Y71613877D01*
X104521124Y71613877D02*
X104597314Y71651972D01*
X104597314Y71651972D02*
X104711600Y71651972D01*
X104711600Y71651972D02*
X104787790Y71690067D01*
X104787790Y71690067D02*
X104825886Y71766258D01*
X104825886Y71766258D02*
X104825886Y71804353D01*
X104825886Y71804353D02*
X104787790Y71880543D01*
X104787790Y71880543D02*
X104711600Y71918639D01*
X104711600Y71918639D02*
X104597314Y71918639D01*
X104597314Y71918639D02*
X104521124Y71880543D01*
X103835409Y71423400D02*
X103911600Y71385305D01*
X103911600Y71385305D02*
X104063981Y71385305D01*
X104063981Y71385305D02*
X104140171Y71423400D01*
X104140171Y71423400D02*
X104178267Y71499591D01*
X104178267Y71499591D02*
X104178267Y71804353D01*
X104178267Y71804353D02*
X104140171Y71880543D01*
X104140171Y71880543D02*
X104063981Y71918639D01*
X104063981Y71918639D02*
X103911600Y71918639D01*
X103911600Y71918639D02*
X103835409Y71880543D01*
X103835409Y71880543D02*
X103797314Y71804353D01*
X103797314Y71804353D02*
X103797314Y71728162D01*
X103797314Y71728162D02*
X104178267Y71651972D01*
X103111600Y71385305D02*
X103111600Y72185305D01*
X103111600Y71423400D02*
X103187791Y71385305D01*
X103187791Y71385305D02*
X103340172Y71385305D01*
X103340172Y71385305D02*
X103416362Y71423400D01*
X103416362Y71423400D02*
X103454457Y71461496D01*
X103454457Y71461496D02*
X103492553Y71537686D01*
X103492553Y71537686D02*
X103492553Y71766258D01*
X103492553Y71766258D02*
X103454457Y71842448D01*
X103454457Y71842448D02*
X103416362Y71880543D01*
X103416362Y71880543D02*
X103340172Y71918639D01*
X103340172Y71918639D02*
X103187791Y71918639D01*
X103187791Y71918639D02*
X103111600Y71880543D01*
X108540171Y70630639D02*
X108540171Y70097305D01*
X108883028Y70630639D02*
X108883028Y70211591D01*
X108883028Y70211591D02*
X108844933Y70135400D01*
X108844933Y70135400D02*
X108768743Y70097305D01*
X108768743Y70097305D02*
X108654457Y70097305D01*
X108654457Y70097305D02*
X108578266Y70135400D01*
X108578266Y70135400D02*
X108540171Y70173496D01*
X108159218Y70630639D02*
X108159218Y70097305D01*
X108159218Y70554448D02*
X108121123Y70592543D01*
X108121123Y70592543D02*
X108044933Y70630639D01*
X108044933Y70630639D02*
X107930647Y70630639D01*
X107930647Y70630639D02*
X107854456Y70592543D01*
X107854456Y70592543D02*
X107816361Y70516353D01*
X107816361Y70516353D02*
X107816361Y70097305D01*
X107092551Y70097305D02*
X107092551Y70897305D01*
X107092551Y70135400D02*
X107168742Y70097305D01*
X107168742Y70097305D02*
X107321123Y70097305D01*
X107321123Y70097305D02*
X107397313Y70135400D01*
X107397313Y70135400D02*
X107435408Y70173496D01*
X107435408Y70173496D02*
X107473504Y70249686D01*
X107473504Y70249686D02*
X107473504Y70478258D01*
X107473504Y70478258D02*
X107435408Y70554448D01*
X107435408Y70554448D02*
X107397313Y70592543D01*
X107397313Y70592543D02*
X107321123Y70630639D01*
X107321123Y70630639D02*
X107168742Y70630639D01*
X107168742Y70630639D02*
X107092551Y70592543D01*
X106406836Y70135400D02*
X106483027Y70097305D01*
X106483027Y70097305D02*
X106635408Y70097305D01*
X106635408Y70097305D02*
X106711598Y70135400D01*
X106711598Y70135400D02*
X106749694Y70211591D01*
X106749694Y70211591D02*
X106749694Y70516353D01*
X106749694Y70516353D02*
X106711598Y70592543D01*
X106711598Y70592543D02*
X106635408Y70630639D01*
X106635408Y70630639D02*
X106483027Y70630639D01*
X106483027Y70630639D02*
X106406836Y70592543D01*
X106406836Y70592543D02*
X106368741Y70516353D01*
X106368741Y70516353D02*
X106368741Y70440162D01*
X106368741Y70440162D02*
X106749694Y70363972D01*
X106025884Y70097305D02*
X106025884Y70630639D01*
X106025884Y70478258D02*
X105987789Y70554448D01*
X105987789Y70554448D02*
X105949694Y70592543D01*
X105949694Y70592543D02*
X105873503Y70630639D01*
X105873503Y70630639D02*
X105797313Y70630639D01*
X104463979Y70173496D02*
X104502075Y70135400D01*
X104502075Y70135400D02*
X104616360Y70097305D01*
X104616360Y70097305D02*
X104692551Y70097305D01*
X104692551Y70097305D02*
X104806837Y70135400D01*
X104806837Y70135400D02*
X104883027Y70211591D01*
X104883027Y70211591D02*
X104921122Y70287781D01*
X104921122Y70287781D02*
X104959218Y70440162D01*
X104959218Y70440162D02*
X104959218Y70554448D01*
X104959218Y70554448D02*
X104921122Y70706829D01*
X104921122Y70706829D02*
X104883027Y70783020D01*
X104883027Y70783020D02*
X104806837Y70859210D01*
X104806837Y70859210D02*
X104692551Y70897305D01*
X104692551Y70897305D02*
X104616360Y70897305D01*
X104616360Y70897305D02*
X104502075Y70859210D01*
X104502075Y70859210D02*
X104463979Y70821115D01*
X104121122Y70516353D02*
X103854456Y70516353D01*
X103740170Y70097305D02*
X104121122Y70097305D01*
X104121122Y70097305D02*
X104121122Y70897305D01*
X104121122Y70897305D02*
X103740170Y70897305D01*
X102940169Y70097305D02*
X103206836Y70478258D01*
X103397312Y70097305D02*
X103397312Y70897305D01*
X103397312Y70897305D02*
X103092550Y70897305D01*
X103092550Y70897305D02*
X103016360Y70859210D01*
X103016360Y70859210D02*
X102978265Y70821115D01*
X102978265Y70821115D02*
X102940169Y70744924D01*
X102940169Y70744924D02*
X102940169Y70630639D01*
X102940169Y70630639D02*
X102978265Y70554448D01*
X102978265Y70554448D02*
X103016360Y70516353D01*
X103016360Y70516353D02*
X103092550Y70478258D01*
X103092550Y70478258D02*
X103397312Y70478258D01*
X102597312Y70097305D02*
X102597312Y70897305D01*
X102597312Y70897305D02*
X102140169Y70097305D01*
X102140169Y70097305D02*
X102140169Y70897305D01*
X108083027Y69609305D02*
X107930646Y69609305D01*
X107930646Y69609305D02*
X107854456Y69571210D01*
X107854456Y69571210D02*
X107778265Y69495020D01*
X107778265Y69495020D02*
X107740170Y69342639D01*
X107740170Y69342639D02*
X107740170Y69075972D01*
X107740170Y69075972D02*
X107778265Y68923591D01*
X107778265Y68923591D02*
X107854456Y68847400D01*
X107854456Y68847400D02*
X107930646Y68809305D01*
X107930646Y68809305D02*
X108083027Y68809305D01*
X108083027Y68809305D02*
X108159218Y68847400D01*
X108159218Y68847400D02*
X108235408Y68923591D01*
X108235408Y68923591D02*
X108273504Y69075972D01*
X108273504Y69075972D02*
X108273504Y69342639D01*
X108273504Y69342639D02*
X108235408Y69495020D01*
X108235408Y69495020D02*
X108159218Y69571210D01*
X108159218Y69571210D02*
X108083027Y69609305D01*
X107397313Y68809305D02*
X107397313Y69609305D01*
X107397313Y69228353D02*
X106940170Y69228353D01*
X106940170Y68809305D02*
X106940170Y69609305D01*
X106178266Y68809305D02*
X106559218Y68809305D01*
X106559218Y68809305D02*
X106559218Y69609305D01*
X105378266Y69342639D02*
X105187790Y68809305D01*
X105187790Y68809305D02*
X104997313Y69342639D01*
X104692551Y68885496D02*
X104654456Y68847400D01*
X104654456Y68847400D02*
X104692551Y68809305D01*
X104692551Y68809305D02*
X104730647Y68847400D01*
X104730647Y68847400D02*
X104692551Y68885496D01*
X104692551Y68885496D02*
X104692551Y68809305D01*
X104349695Y69533115D02*
X104311599Y69571210D01*
X104311599Y69571210D02*
X104235409Y69609305D01*
X104235409Y69609305D02*
X104044933Y69609305D01*
X104044933Y69609305D02*
X103968742Y69571210D01*
X103968742Y69571210D02*
X103930647Y69533115D01*
X103930647Y69533115D02*
X103892552Y69456924D01*
X103892552Y69456924D02*
X103892552Y69380734D01*
X103892552Y69380734D02*
X103930647Y69266448D01*
X103930647Y69266448D02*
X104387790Y68809305D01*
X104387790Y68809305D02*
X103892552Y68809305D01*
X103549694Y68885496D02*
X103511599Y68847400D01*
X103511599Y68847400D02*
X103549694Y68809305D01*
X103549694Y68809305D02*
X103587790Y68847400D01*
X103587790Y68847400D02*
X103549694Y68885496D01*
X103549694Y68885496D02*
X103549694Y68809305D01*
X103016361Y69609305D02*
X102940171Y69609305D01*
X102940171Y69609305D02*
X102863980Y69571210D01*
X102863980Y69571210D02*
X102825885Y69533115D01*
X102825885Y69533115D02*
X102787790Y69456924D01*
X102787790Y69456924D02*
X102749695Y69304543D01*
X102749695Y69304543D02*
X102749695Y69114067D01*
X102749695Y69114067D02*
X102787790Y68961686D01*
X102787790Y68961686D02*
X102825885Y68885496D01*
X102825885Y68885496D02*
X102863980Y68847400D01*
X102863980Y68847400D02*
X102940171Y68809305D01*
X102940171Y68809305D02*
X103016361Y68809305D01*
X103016361Y68809305D02*
X103092552Y68847400D01*
X103092552Y68847400D02*
X103130647Y68885496D01*
X103130647Y68885496D02*
X103168742Y68961686D01*
X103168742Y68961686D02*
X103206838Y69114067D01*
X103206838Y69114067D02*
X103206838Y69304543D01*
X103206838Y69304543D02*
X103168742Y69456924D01*
X103168742Y69456924D02*
X103130647Y69533115D01*
X103130647Y69533115D02*
X103092552Y69571210D01*
X103092552Y69571210D02*
X103016361Y69609305D01*
D11*
X125097373Y71014281D02*
X125097373Y72014281D01*
X125097373Y72014281D02*
X124859278Y72014281D01*
X124859278Y72014281D02*
X124716421Y71966662D01*
X124716421Y71966662D02*
X124621183Y71871424D01*
X124621183Y71871424D02*
X124573564Y71776186D01*
X124573564Y71776186D02*
X124525945Y71585710D01*
X124525945Y71585710D02*
X124525945Y71442853D01*
X124525945Y71442853D02*
X124573564Y71252377D01*
X124573564Y71252377D02*
X124621183Y71157139D01*
X124621183Y71157139D02*
X124716421Y71061900D01*
X124716421Y71061900D02*
X124859278Y71014281D01*
X124859278Y71014281D02*
X125097373Y71014281D01*
X123716421Y71061900D02*
X123811659Y71014281D01*
X123811659Y71014281D02*
X124002135Y71014281D01*
X124002135Y71014281D02*
X124097373Y71061900D01*
X124097373Y71061900D02*
X124144992Y71157139D01*
X124144992Y71157139D02*
X124144992Y71538091D01*
X124144992Y71538091D02*
X124097373Y71633329D01*
X124097373Y71633329D02*
X124002135Y71680948D01*
X124002135Y71680948D02*
X123811659Y71680948D01*
X123811659Y71680948D02*
X123716421Y71633329D01*
X123716421Y71633329D02*
X123668802Y71538091D01*
X123668802Y71538091D02*
X123668802Y71442853D01*
X123668802Y71442853D02*
X124144992Y71347615D01*
X123287849Y71061900D02*
X123192611Y71014281D01*
X123192611Y71014281D02*
X123002135Y71014281D01*
X123002135Y71014281D02*
X122906897Y71061900D01*
X122906897Y71061900D02*
X122859278Y71157139D01*
X122859278Y71157139D02*
X122859278Y71204758D01*
X122859278Y71204758D02*
X122906897Y71299996D01*
X122906897Y71299996D02*
X123002135Y71347615D01*
X123002135Y71347615D02*
X123144992Y71347615D01*
X123144992Y71347615D02*
X123240230Y71395234D01*
X123240230Y71395234D02*
X123287849Y71490472D01*
X123287849Y71490472D02*
X123287849Y71538091D01*
X123287849Y71538091D02*
X123240230Y71633329D01*
X123240230Y71633329D02*
X123144992Y71680948D01*
X123144992Y71680948D02*
X123002135Y71680948D01*
X123002135Y71680948D02*
X122906897Y71633329D01*
X122430706Y71014281D02*
X122430706Y71680948D01*
X122430706Y72014281D02*
X122478325Y71966662D01*
X122478325Y71966662D02*
X122430706Y71919043D01*
X122430706Y71919043D02*
X122383087Y71966662D01*
X122383087Y71966662D02*
X122430706Y72014281D01*
X122430706Y72014281D02*
X122430706Y71919043D01*
X121525945Y71680948D02*
X121525945Y70871424D01*
X121525945Y70871424D02*
X121573564Y70776186D01*
X121573564Y70776186D02*
X121621183Y70728567D01*
X121621183Y70728567D02*
X121716421Y70680948D01*
X121716421Y70680948D02*
X121859278Y70680948D01*
X121859278Y70680948D02*
X121954516Y70728567D01*
X121525945Y71061900D02*
X121621183Y71014281D01*
X121621183Y71014281D02*
X121811659Y71014281D01*
X121811659Y71014281D02*
X121906897Y71061900D01*
X121906897Y71061900D02*
X121954516Y71109520D01*
X121954516Y71109520D02*
X122002135Y71204758D01*
X122002135Y71204758D02*
X122002135Y71490472D01*
X122002135Y71490472D02*
X121954516Y71585710D01*
X121954516Y71585710D02*
X121906897Y71633329D01*
X121906897Y71633329D02*
X121811659Y71680948D01*
X121811659Y71680948D02*
X121621183Y71680948D01*
X121621183Y71680948D02*
X121525945Y71633329D01*
X121049754Y71680948D02*
X121049754Y71014281D01*
X121049754Y71585710D02*
X121002135Y71633329D01*
X121002135Y71633329D02*
X120906897Y71680948D01*
X120906897Y71680948D02*
X120764040Y71680948D01*
X120764040Y71680948D02*
X120668802Y71633329D01*
X120668802Y71633329D02*
X120621183Y71538091D01*
X120621183Y71538091D02*
X120621183Y71014281D01*
X119764040Y71061900D02*
X119859278Y71014281D01*
X119859278Y71014281D02*
X120049754Y71014281D01*
X120049754Y71014281D02*
X120144992Y71061900D01*
X120144992Y71061900D02*
X120192611Y71157139D01*
X120192611Y71157139D02*
X120192611Y71538091D01*
X120192611Y71538091D02*
X120144992Y71633329D01*
X120144992Y71633329D02*
X120049754Y71680948D01*
X120049754Y71680948D02*
X119859278Y71680948D01*
X119859278Y71680948D02*
X119764040Y71633329D01*
X119764040Y71633329D02*
X119716421Y71538091D01*
X119716421Y71538091D02*
X119716421Y71442853D01*
X119716421Y71442853D02*
X120192611Y71347615D01*
X118859278Y71014281D02*
X118859278Y72014281D01*
X118859278Y71061900D02*
X118954516Y71014281D01*
X118954516Y71014281D02*
X119144992Y71014281D01*
X119144992Y71014281D02*
X119240230Y71061900D01*
X119240230Y71061900D02*
X119287849Y71109520D01*
X119287849Y71109520D02*
X119335468Y71204758D01*
X119335468Y71204758D02*
X119335468Y71490472D01*
X119335468Y71490472D02*
X119287849Y71585710D01*
X119287849Y71585710D02*
X119240230Y71633329D01*
X119240230Y71633329D02*
X119144992Y71680948D01*
X119144992Y71680948D02*
X118954516Y71680948D01*
X118954516Y71680948D02*
X118859278Y71633329D01*
X125192611Y70070948D02*
X125002135Y69404281D01*
X125002135Y69404281D02*
X124811659Y69880472D01*
X124811659Y69880472D02*
X124621183Y69404281D01*
X124621183Y69404281D02*
X124430707Y70070948D01*
X124049754Y69404281D02*
X124049754Y70070948D01*
X124049754Y70404281D02*
X124097373Y70356662D01*
X124097373Y70356662D02*
X124049754Y70309043D01*
X124049754Y70309043D02*
X124002135Y70356662D01*
X124002135Y70356662D02*
X124049754Y70404281D01*
X124049754Y70404281D02*
X124049754Y70309043D01*
X123716421Y70070948D02*
X123335469Y70070948D01*
X123573564Y70404281D02*
X123573564Y69547139D01*
X123573564Y69547139D02*
X123525945Y69451900D01*
X123525945Y69451900D02*
X123430707Y69404281D01*
X123430707Y69404281D02*
X123335469Y69404281D01*
X123002135Y69404281D02*
X123002135Y70404281D01*
X122573564Y69404281D02*
X122573564Y69928091D01*
X122573564Y69928091D02*
X122621183Y70023329D01*
X122621183Y70023329D02*
X122716421Y70070948D01*
X122716421Y70070948D02*
X122859278Y70070948D01*
X122859278Y70070948D02*
X122954516Y70023329D01*
X122954516Y70023329D02*
X123002135Y69975710D01*
X121335468Y69404281D02*
X121335468Y70404281D01*
X120764040Y69404281D02*
X121192611Y69975710D01*
X120764040Y70404281D02*
X121335468Y69832853D01*
X120335468Y69404281D02*
X120335468Y70070948D01*
X120335468Y70404281D02*
X120383087Y70356662D01*
X120383087Y70356662D02*
X120335468Y70309043D01*
X120335468Y70309043D02*
X120287849Y70356662D01*
X120287849Y70356662D02*
X120335468Y70404281D01*
X120335468Y70404281D02*
X120335468Y70309043D01*
X119287850Y69499520D02*
X119335469Y69451900D01*
X119335469Y69451900D02*
X119478326Y69404281D01*
X119478326Y69404281D02*
X119573564Y69404281D01*
X119573564Y69404281D02*
X119716421Y69451900D01*
X119716421Y69451900D02*
X119811659Y69547139D01*
X119811659Y69547139D02*
X119859278Y69642377D01*
X119859278Y69642377D02*
X119906897Y69832853D01*
X119906897Y69832853D02*
X119906897Y69975710D01*
X119906897Y69975710D02*
X119859278Y70166186D01*
X119859278Y70166186D02*
X119811659Y70261424D01*
X119811659Y70261424D02*
X119716421Y70356662D01*
X119716421Y70356662D02*
X119573564Y70404281D01*
X119573564Y70404281D02*
X119478326Y70404281D01*
X119478326Y70404281D02*
X119335469Y70356662D01*
X119335469Y70356662D02*
X119287850Y70309043D01*
X118430707Y69404281D02*
X118430707Y69928091D01*
X118430707Y69928091D02*
X118478326Y70023329D01*
X118478326Y70023329D02*
X118573564Y70070948D01*
X118573564Y70070948D02*
X118764040Y70070948D01*
X118764040Y70070948D02*
X118859278Y70023329D01*
X118430707Y69451900D02*
X118525945Y69404281D01*
X118525945Y69404281D02*
X118764040Y69404281D01*
X118764040Y69404281D02*
X118859278Y69451900D01*
X118859278Y69451900D02*
X118906897Y69547139D01*
X118906897Y69547139D02*
X118906897Y69642377D01*
X118906897Y69642377D02*
X118859278Y69737615D01*
X118859278Y69737615D02*
X118764040Y69785234D01*
X118764040Y69785234D02*
X118525945Y69785234D01*
X118525945Y69785234D02*
X118430707Y69832853D01*
X117525945Y69404281D02*
X117525945Y70404281D01*
X117525945Y69451900D02*
X117621183Y69404281D01*
X117621183Y69404281D02*
X117811659Y69404281D01*
X117811659Y69404281D02*
X117906897Y69451900D01*
X117906897Y69451900D02*
X117954516Y69499520D01*
X117954516Y69499520D02*
X118002135Y69594758D01*
X118002135Y69594758D02*
X118002135Y69880472D01*
X118002135Y69880472D02*
X117954516Y69975710D01*
X117954516Y69975710D02*
X117906897Y70023329D01*
X117906897Y70023329D02*
X117811659Y70070948D01*
X117811659Y70070948D02*
X117621183Y70070948D01*
X117621183Y70070948D02*
X117525945Y70023329D01*
X125195792Y78913681D02*
X125195792Y79580348D01*
X125195792Y79913681D02*
X125233888Y79866062D01*
X125233888Y79866062D02*
X125195792Y79818443D01*
X125195792Y79818443D02*
X125157697Y79866062D01*
X125157697Y79866062D02*
X125195792Y79913681D01*
X125195792Y79913681D02*
X125195792Y79818443D01*
X124852936Y78961300D02*
X124776745Y78913681D01*
X124776745Y78913681D02*
X124624364Y78913681D01*
X124624364Y78913681D02*
X124548174Y78961300D01*
X124548174Y78961300D02*
X124510078Y79056539D01*
X124510078Y79056539D02*
X124510078Y79104158D01*
X124510078Y79104158D02*
X124548174Y79199396D01*
X124548174Y79199396D02*
X124624364Y79247015D01*
X124624364Y79247015D02*
X124738650Y79247015D01*
X124738650Y79247015D02*
X124814840Y79294634D01*
X124814840Y79294634D02*
X124852936Y79389872D01*
X124852936Y79389872D02*
X124852936Y79437491D01*
X124852936Y79437491D02*
X124814840Y79532729D01*
X124814840Y79532729D02*
X124738650Y79580348D01*
X124738650Y79580348D02*
X124624364Y79580348D01*
X124624364Y79580348D02*
X124548174Y79532729D01*
X124205317Y78961300D02*
X124129126Y78913681D01*
X124129126Y78913681D02*
X123976745Y78913681D01*
X123976745Y78913681D02*
X123900555Y78961300D01*
X123900555Y78961300D02*
X123862459Y79056539D01*
X123862459Y79056539D02*
X123862459Y79104158D01*
X123862459Y79104158D02*
X123900555Y79199396D01*
X123900555Y79199396D02*
X123976745Y79247015D01*
X123976745Y79247015D02*
X124091031Y79247015D01*
X124091031Y79247015D02*
X124167221Y79294634D01*
X124167221Y79294634D02*
X124205317Y79389872D01*
X124205317Y79389872D02*
X124205317Y79437491D01*
X124205317Y79437491D02*
X124167221Y79532729D01*
X124167221Y79532729D02*
X124091031Y79580348D01*
X124091031Y79580348D02*
X123976745Y79580348D01*
X123976745Y79580348D02*
X123900555Y79532729D01*
X123176745Y78913681D02*
X123176745Y79437491D01*
X123176745Y79437491D02*
X123214840Y79532729D01*
X123214840Y79532729D02*
X123291031Y79580348D01*
X123291031Y79580348D02*
X123443412Y79580348D01*
X123443412Y79580348D02*
X123519602Y79532729D01*
X123176745Y78961300D02*
X123252936Y78913681D01*
X123252936Y78913681D02*
X123443412Y78913681D01*
X123443412Y78913681D02*
X123519602Y78961300D01*
X123519602Y78961300D02*
X123557698Y79056539D01*
X123557698Y79056539D02*
X123557698Y79151777D01*
X123557698Y79151777D02*
X123519602Y79247015D01*
X123519602Y79247015D02*
X123443412Y79294634D01*
X123443412Y79294634D02*
X123252936Y79294634D01*
X123252936Y79294634D02*
X123176745Y79342253D01*
X122681507Y78913681D02*
X122757697Y78961300D01*
X122757697Y78961300D02*
X122795792Y79056539D01*
X122795792Y79056539D02*
X122795792Y79913681D01*
X122376744Y78913681D02*
X122376744Y79580348D01*
X122376744Y79913681D02*
X122414840Y79866062D01*
X122414840Y79866062D02*
X122376744Y79818443D01*
X122376744Y79818443D02*
X122338649Y79866062D01*
X122338649Y79866062D02*
X122376744Y79913681D01*
X122376744Y79913681D02*
X122376744Y79818443D01*
X121652935Y79580348D02*
X121652935Y78770824D01*
X121652935Y78770824D02*
X121691030Y78675586D01*
X121691030Y78675586D02*
X121729126Y78627967D01*
X121729126Y78627967D02*
X121805316Y78580348D01*
X121805316Y78580348D02*
X121919602Y78580348D01*
X121919602Y78580348D02*
X121995792Y78627967D01*
X121652935Y78961300D02*
X121729126Y78913681D01*
X121729126Y78913681D02*
X121881507Y78913681D01*
X121881507Y78913681D02*
X121957697Y78961300D01*
X121957697Y78961300D02*
X121995792Y79008920D01*
X121995792Y79008920D02*
X122033888Y79104158D01*
X122033888Y79104158D02*
X122033888Y79389872D01*
X122033888Y79389872D02*
X121995792Y79485110D01*
X121995792Y79485110D02*
X121957697Y79532729D01*
X121957697Y79532729D02*
X121881507Y79580348D01*
X121881507Y79580348D02*
X121729126Y79580348D01*
X121729126Y79580348D02*
X121652935Y79532729D01*
X120510077Y79913681D02*
X120433887Y79913681D01*
X120433887Y79913681D02*
X120357696Y79866062D01*
X120357696Y79866062D02*
X120319601Y79818443D01*
X120319601Y79818443D02*
X120281506Y79723205D01*
X120281506Y79723205D02*
X120243411Y79532729D01*
X120243411Y79532729D02*
X120243411Y79294634D01*
X120243411Y79294634D02*
X120281506Y79104158D01*
X120281506Y79104158D02*
X120319601Y79008920D01*
X120319601Y79008920D02*
X120357696Y78961300D01*
X120357696Y78961300D02*
X120433887Y78913681D01*
X120433887Y78913681D02*
X120510077Y78913681D01*
X120510077Y78913681D02*
X120586268Y78961300D01*
X120586268Y78961300D02*
X120624363Y79008920D01*
X120624363Y79008920D02*
X120662458Y79104158D01*
X120662458Y79104158D02*
X120700554Y79294634D01*
X120700554Y79294634D02*
X120700554Y79532729D01*
X120700554Y79532729D02*
X120662458Y79723205D01*
X120662458Y79723205D02*
X120624363Y79818443D01*
X120624363Y79818443D02*
X120586268Y79866062D01*
X120586268Y79866062D02*
X120510077Y79913681D01*
X119976744Y79913681D02*
X119481506Y79913681D01*
X119481506Y79913681D02*
X119748172Y79532729D01*
X119748172Y79532729D02*
X119633887Y79532729D01*
X119633887Y79532729D02*
X119557696Y79485110D01*
X119557696Y79485110D02*
X119519601Y79437491D01*
X119519601Y79437491D02*
X119481506Y79342253D01*
X119481506Y79342253D02*
X119481506Y79104158D01*
X119481506Y79104158D02*
X119519601Y79008920D01*
X119519601Y79008920D02*
X119557696Y78961300D01*
X119557696Y78961300D02*
X119633887Y78913681D01*
X119633887Y78913681D02*
X119862458Y78913681D01*
X119862458Y78913681D02*
X119938649Y78961300D01*
X119938649Y78961300D02*
X119976744Y79008920D01*
X118567220Y79961300D02*
X119252934Y78675586D01*
X118338649Y79818443D02*
X118300553Y79866062D01*
X118300553Y79866062D02*
X118224363Y79913681D01*
X118224363Y79913681D02*
X118033887Y79913681D01*
X118033887Y79913681D02*
X117957696Y79866062D01*
X117957696Y79866062D02*
X117919601Y79818443D01*
X117919601Y79818443D02*
X117881506Y79723205D01*
X117881506Y79723205D02*
X117881506Y79627967D01*
X117881506Y79627967D02*
X117919601Y79485110D01*
X117919601Y79485110D02*
X118376744Y78913681D01*
X118376744Y78913681D02*
X117881506Y78913681D01*
X117386267Y79913681D02*
X117310077Y79913681D01*
X117310077Y79913681D02*
X117233886Y79866062D01*
X117233886Y79866062D02*
X117195791Y79818443D01*
X117195791Y79818443D02*
X117157696Y79723205D01*
X117157696Y79723205D02*
X117119601Y79532729D01*
X117119601Y79532729D02*
X117119601Y79294634D01*
X117119601Y79294634D02*
X117157696Y79104158D01*
X117157696Y79104158D02*
X117195791Y79008920D01*
X117195791Y79008920D02*
X117233886Y78961300D01*
X117233886Y78961300D02*
X117310077Y78913681D01*
X117310077Y78913681D02*
X117386267Y78913681D01*
X117386267Y78913681D02*
X117462458Y78961300D01*
X117462458Y78961300D02*
X117500553Y79008920D01*
X117500553Y79008920D02*
X117538648Y79104158D01*
X117538648Y79104158D02*
X117576744Y79294634D01*
X117576744Y79294634D02*
X117576744Y79532729D01*
X117576744Y79532729D02*
X117538648Y79723205D01*
X117538648Y79723205D02*
X117500553Y79818443D01*
X117500553Y79818443D02*
X117462458Y79866062D01*
X117462458Y79866062D02*
X117386267Y79913681D01*
X116814839Y79818443D02*
X116776743Y79866062D01*
X116776743Y79866062D02*
X116700553Y79913681D01*
X116700553Y79913681D02*
X116510077Y79913681D01*
X116510077Y79913681D02*
X116433886Y79866062D01*
X116433886Y79866062D02*
X116395791Y79818443D01*
X116395791Y79818443D02*
X116357696Y79723205D01*
X116357696Y79723205D02*
X116357696Y79627967D01*
X116357696Y79627967D02*
X116395791Y79485110D01*
X116395791Y79485110D02*
X116852934Y78913681D01*
X116852934Y78913681D02*
X116357696Y78913681D01*
X115671981Y79580348D02*
X115671981Y78913681D01*
X115862457Y79961300D02*
X116052934Y79247015D01*
X116052934Y79247015D02*
X115557695Y79247015D01*
X124738649Y77303681D02*
X125005316Y77779872D01*
X125195792Y77303681D02*
X125195792Y78303681D01*
X125195792Y78303681D02*
X124891030Y78303681D01*
X124891030Y78303681D02*
X124814840Y78256062D01*
X124814840Y78256062D02*
X124776745Y78208443D01*
X124776745Y78208443D02*
X124738649Y78113205D01*
X124738649Y78113205D02*
X124738649Y77970348D01*
X124738649Y77970348D02*
X124776745Y77875110D01*
X124776745Y77875110D02*
X124814840Y77827491D01*
X124814840Y77827491D02*
X124891030Y77779872D01*
X124891030Y77779872D02*
X125195792Y77779872D01*
X124091030Y77351300D02*
X124167221Y77303681D01*
X124167221Y77303681D02*
X124319602Y77303681D01*
X124319602Y77303681D02*
X124395792Y77351300D01*
X124395792Y77351300D02*
X124433888Y77446539D01*
X124433888Y77446539D02*
X124433888Y77827491D01*
X124433888Y77827491D02*
X124395792Y77922729D01*
X124395792Y77922729D02*
X124319602Y77970348D01*
X124319602Y77970348D02*
X124167221Y77970348D01*
X124167221Y77970348D02*
X124091030Y77922729D01*
X124091030Y77922729D02*
X124052935Y77827491D01*
X124052935Y77827491D02*
X124052935Y77732253D01*
X124052935Y77732253D02*
X124433888Y77637015D01*
X123786269Y77970348D02*
X123595793Y77303681D01*
X123595793Y77303681D02*
X123405316Y77970348D01*
X123100554Y77398920D02*
X123062459Y77351300D01*
X123062459Y77351300D02*
X123100554Y77303681D01*
X123100554Y77303681D02*
X123138650Y77351300D01*
X123138650Y77351300D02*
X123100554Y77398920D01*
X123100554Y77398920D02*
X123100554Y77303681D01*
X123100554Y77922729D02*
X123062459Y77875110D01*
X123062459Y77875110D02*
X123100554Y77827491D01*
X123100554Y77827491D02*
X123138650Y77875110D01*
X123138650Y77875110D02*
X123100554Y77922729D01*
X123100554Y77922729D02*
X123100554Y77827491D01*
X122567221Y78303681D02*
X122491031Y78303681D01*
X122491031Y78303681D02*
X122414840Y78256062D01*
X122414840Y78256062D02*
X122376745Y78208443D01*
X122376745Y78208443D02*
X122338650Y78113205D01*
X122338650Y78113205D02*
X122300555Y77922729D01*
X122300555Y77922729D02*
X122300555Y77684634D01*
X122300555Y77684634D02*
X122338650Y77494158D01*
X122338650Y77494158D02*
X122376745Y77398920D01*
X122376745Y77398920D02*
X122414840Y77351300D01*
X122414840Y77351300D02*
X122491031Y77303681D01*
X122491031Y77303681D02*
X122567221Y77303681D01*
X122567221Y77303681D02*
X122643412Y77351300D01*
X122643412Y77351300D02*
X122681507Y77398920D01*
X122681507Y77398920D02*
X122719602Y77494158D01*
X122719602Y77494158D02*
X122757698Y77684634D01*
X122757698Y77684634D02*
X122757698Y77922729D01*
X122757698Y77922729D02*
X122719602Y78113205D01*
X122719602Y78113205D02*
X122681507Y78208443D01*
X122681507Y78208443D02*
X122643412Y78256062D01*
X122643412Y78256062D02*
X122567221Y78303681D01*
X121957697Y77398920D02*
X121919602Y77351300D01*
X121919602Y77351300D02*
X121957697Y77303681D01*
X121957697Y77303681D02*
X121995793Y77351300D01*
X121995793Y77351300D02*
X121957697Y77398920D01*
X121957697Y77398920D02*
X121957697Y77303681D01*
X121157698Y77303681D02*
X121614841Y77303681D01*
X121386269Y77303681D02*
X121386269Y78303681D01*
X121386269Y78303681D02*
X121462460Y78160824D01*
X121462460Y78160824D02*
X121538650Y78065586D01*
X121538650Y78065586D02*
X121614841Y78017967D01*
M02*
